<?xml version="1.0" encoding="UTF-8" standalone="no"?>
<svg width="34px" height="32px" viewBox="0 0 34 32" version="1.1" xmlns="http://www.w3.org/2000/svg" xmlns:xlink="http://www.w3.org/1999/xlink" xmlns:sketch="http://www.bohemiancoding.com/sketch/ns">
    <!-- Generator: Sketch 3.0 (7573) - http://www.bohemiancoding.com/sketch -->
    <title>Behance</title>
    <description>Created with Sketch.</description>
    <defs></defs>
    <g id="Page-1" stroke="none" stroke-width="1" fill="none" fill-rule="evenodd" sketch:type="MSPage">
        <g id="Behance" sketch:type="MSArtboardGroup" fill="#000000">
            <path d="M9.795,5.142 C10.795,5.142 11.696,5.227 12.522,5.406 C13.34,5.581 14.038,5.871 14.629,6.268 C15.212,6.666 15.666,7.195 15.993,7.861 C16.312,8.517 16.47,9.34 16.47,10.311 C16.47,11.362 16.231,12.241 15.755,12.943 C15.274,13.644 14.566,14.218 13.625,14.665 C14.908,15.034 15.861,15.685 16.492,16.61 C17.126,17.541 17.437,18.655 17.437,19.962 C17.437,21.021 17.233,21.933 16.828,22.699 C16.421,23.476 15.863,24.104 15.177,24.59 C14.484,25.08 13.691,25.44 12.802,25.674 C11.922,25.907 11.008,26.024 10.072,26.024 L-0.05,26.024 L-0.05,5.142 L9.795,5.142 L9.795,5.142 Z M9.201,13.579 C10.016,13.579 10.69,13.385 11.225,12.994 C11.753,12.607 12.011,11.969 12.011,11.094 C12.011,10.608 11.925,10.207 11.753,9.895 C11.575,9.583 11.342,9.34 11.045,9.169 C10.751,8.991 10.417,8.868 10.033,8.802 C9.653,8.728 9.257,8.699 8.85,8.699 L4.549,8.699 L4.549,13.579 L9.201,13.579 L9.201,13.579 Z M9.456,22.468 C9.908,22.468 10.339,22.428 10.744,22.337 C11.156,22.248 11.519,22.104 11.828,21.894 C12.135,21.691 12.391,21.414 12.576,21.062 C12.761,20.711 12.851,20.256 12.851,19.708 C12.851,18.631 12.547,17.867 11.945,17.403 C11.342,16.945 10.536,16.717 9.547,16.717 L4.549,16.717 L4.549,22.468 L9.456,22.468 L9.456,22.468 Z M23.99,22.399 C24.613,23.006 25.513,23.312 26.678,23.312 C27.515,23.312 28.238,23.1 28.846,22.678 C29.447,22.256 29.814,21.805 29.956,21.337 L33.613,21.337 C33.024,23.157 32.134,24.457 30.917,25.239 C29.714,26.024 28.248,26.416 26.538,26.416 C25.347,26.416 24.275,26.224 23.313,25.844 C22.352,25.459 21.547,24.92 20.871,24.218 C20.212,23.512 19.7,22.678 19.336,21.698 C18.975,20.724 18.793,19.644 18.793,18.475 C18.793,17.344 18.98,16.289 19.352,15.312 C19.728,14.332 20.25,13.487 20.935,12.778 C21.622,12.065 22.436,11.503 23.385,11.092 C24.333,10.683 25.38,10.476 26.538,10.476 C27.817,10.476 28.938,10.723 29.898,11.225 C30.855,11.719 31.641,12.389 32.257,13.228 C32.873,14.066 33.312,15.023 33.584,16.098 C33.857,17.17 33.953,18.291 33.875,19.464 L22.964,19.464 C22.964,20.66 23.366,21.791 23.99,22.399 L23.99,22.399 Z M28.763,14.454 C28.27,13.908 27.434,13.612 26.413,13.612 C25.75,13.612 25.2,13.724 24.762,13.952 C24.331,14.176 23.979,14.456 23.709,14.785 C23.44,15.119 23.259,15.473 23.152,15.85 C23.046,16.218 22.981,16.552 22.964,16.847 L29.72,16.847 C29.62,15.788 29.259,15.004 28.763,14.454 L28.763,14.454 Z M22.114,6.542 L30.578,6.542 L30.578,8.603 L22.114,8.603 L22.114,6.542 Z" id="Path" sketch:type="MSShapeGroup"></path>
        </g>
    </g>
</svg>