<?xml version="1.0" encoding="UTF-8" standalone="no"?>
<svg width="32px" height="32px" viewBox="0 0 32 32" version="1.1" xmlns="http://www.w3.org/2000/svg" xmlns:xlink="http://www.w3.org/1999/xlink" xmlns:sketch="http://www.bohemiancoding.com/sketch/ns">
    <!-- Generator: Sketch 3.0 (7573) - http://www.bohemiancoding.com/sketch -->
    <title>LinkedIn</title>
    <description>Created with Sketch.</description>
    <defs></defs>
    <g id="Page-1" stroke="none" stroke-width="1" fill="none" fill-rule="evenodd" sketch:type="MSPage">
        <g id="LinkedIn" sketch:type="MSArtboardGroup" fill="#000000">
            <path d="M28.7779167,0 L3.21444444,0 C1.99236111,0 1,1.0013287 1,2.2335787 L1,28.7631204 C1,29.9976667 1.99236111,31 3.21444444,31 L28.7779167,31 C30.0013889,31 31,29.9976667 31,28.7631204 L31,2.2335787 C31,1.0013287 30.0013889,0 28.7779167,0 Z M7.50020195,4 C8.87915017,4 10,5.12036713 10,6.49925982 C10,7.87963287 8.87915017,9 7.50020195,9 C6.11761855,9 5,7.87963287 5,6.49925982 C5,5.12036713 6.11761855,4 7.50020195,4 Z M5,11 L9,11 L9,26 L5,26 L5,11 Z M13,11.3648875 L17.3074228,11.3648875 L17.3074228,13.3638179 L17.3686671,13.3638179 C17.9682166,12.2134994 19.4331748,11 21.6175084,11 C26.1607988,11 27,14.030412 27,17.9724749 L27,26 L22.5152911,26 L22.5152911,18.8832739 C22.5152911,17.1850562 22.4823565,15.0021202 20.1814205,15.0021202 C17.8450273,15.0021202 17.4886331,16.8511202 17.4886331,18.7600356 L17.4886331,26 L13,26 L13,11.3648875" id="Path" sketch:type="MSShapeGroup"></path>
        </g>
    </g>
</svg>