<?xml version="1.0" standalone="no"?>
<!DOCTYPE svg PUBLIC "-//W3C//DTD SVG 1.1//EN" "http://www.w3.org/Graphics/SVG/1.1/DTD/svg11.dtd" >
<svg xmlns="http://www.w3.org/2000/svg" xmlns:xlink="http://www.w3.org/1999/xlink" version="1.1">
<metadata></metadata>
<defs>
<font id="adriane_textbold_italic" horiz-adv-x="1667" >
<font-face units-per-em="2048" ascent="1536" descent="-512" />
<missing-glyph horiz-adv-x="563" />
<glyph unicode="&#xfb01;" horiz-adv-x="1153" d="M-451 -428q0 77 53.5 119.5t118.5 44.5l13 -12q-19 -32 -19 -74q0 -51 22.5 -100t53.5 -62q93 0 134.5 49t60.5 152l225 1249h-158l17 66l155 20l35 186q36 201 167.5 304.5t328.5 103.5q42 0 80 -6t76 -22t66 -40t45 -63.5t17 -89.5q0 -96 -56.5 -155.5t-149.5 -59.5 l-13 12q13 44 13 109q0 74 -16 139t-46 88q-66 0 -111.5 -14t-72.5 -43.5t-40.5 -64.5t-23.5 -87l-53 -297h465l96 25l10 -9l-141 -794q-9 -49 2 -71.5t43 -22.5q34 0 71 54t46 122l49 -4q-7 -147 -96 -248t-201 -101q-88 0 -134 81t-17 233l120 649h-329l-203 -1131 q-24 -132 -94 -225.5t-165.5 -137.5t-207.5 -44q-96 0 -166 47.5t-70 124.5z" />
<glyph unicode="&#xfb02;" horiz-adv-x="1165" d="M-436 -428q0 77 53.5 119.5t118.5 44.5l12 -12q-18 -30 -18 -74q0 -51 22.5 -100t52.5 -62q93 0 134.5 49t60.5 152l213 1249h-160l17 66l157 20l33 186q36 200 164.5 304t316.5 104q128 0 203 -53l170 41l10 -9l-237 -1351q-17 -94 45 -94q34 0 71 54t46 122l49 -4 q-7 -147 -96 -248t-201 -101q-85 0 -130.5 81t-17.5 233l115 649h-309l-193 -1131q-24 -132 -94 -225.5t-165.5 -137.5t-207.5 -44q-96 0 -165.5 47.5t-69.5 124.5zM473 1024h309l47 279q10 64 -10 132.5t-53 94.5q-117 0 -170 -52.5t-72 -156.5z" />
<glyph unicode="&#xfb03;" horiz-adv-x="1738" d="M-436 -508q0 77 53.5 119.5t118.5 44.5l12 -12q-18 -30 -18 -74q0 -51 22.5 -100t52.5 -62q93 0 134.5 49t60.5 152l223 1315h-160l17 80l162 20l18 106q36 201 169 304.5t337 103.5q133 0 209 -57q134 137 377 137q42 0 80 -6t76 -22t66 -40t45 -63.5t17 -89.5 q0 -96 -56.5 -155.5t-149.5 -59.5l-13 12q13 47 13 109q0 74 -16 139t-46 88q-133 0 -186 -50t-72 -157l-51 -299h463l96 25l10 -9l-141 -794q-9 -49 2 -71.5t43 -22.5q34 0 71 54t46 122l49 -4q-7 -147 -96 -248t-201 -101q-89 0 -135 81t-17 233l119 635h-326l-190 -1117 q-24 -132 -94 -225.5t-165.5 -137.5t-207.5 -44q-74 0 -133 25.5t-86 70.5q-66 -86 -162 -131t-205 -45q-96 0 -165.5 47.5t-69.5 124.5zM272 -238q-16 -95 23 -176.5t96 -97.5q93 0 134.5 49t60.5 152l211 1235h-328zM487 1024h326l31 199q10 66 -9.5 133.5t-52.5 93.5 q-69 0 -116 -14t-75 -43.5t-43 -64.5t-24 -87z" />
<glyph unicode="&#xfb04;" horiz-adv-x="1751" d="M-436 -508q0 77 53.5 119.5t118.5 44.5l12 -12q-18 -30 -18 -74q0 -51 22.5 -100t52.5 -62q93 0 134.5 49t60.5 152l223 1315h-160l17 80l162 20l18 106q36 201 169.5 304.5t336.5 103.5q134 0 207 -57q134 137 366 137q122 0 201 -51l160 39l10 -9l-237 -1351 q-17 -94 45 -94q33 0 70 54t46 122l49 -4q-7 -147 -96 -248t-201 -101q-85 0 -130 80.5t-17 233.5l113 635h-312l-188 -1117q-24 -132 -94 -225.5t-165.5 -137.5t-207.5 -44q-74 0 -131.5 25t-85.5 69q-66 -86 -162 -130t-207 -44q-96 0 -165.5 47.5t-69.5 124.5zM272 -238 q-16 -95 23 -176.5t96 -97.5q93 0 134.5 49t60.5 152l211 1235h-328zM487 1024h326l31 199q10 64 -9.5 133t-52.5 94q-69 0 -116 -14t-75 -43.5t-43 -64.5t-24 -87zM1059 1024h309l49 279q12 64 -8 132.5t-53 94.5q-66 0 -111 -13.5t-71.5 -42t-40.5 -63t-23 -86.5z" />
<glyph horiz-adv-x="0" />
<glyph horiz-adv-x="682" />
<glyph unicode=" "  horiz-adv-x="563" />
<glyph unicode="&#x09;" horiz-adv-x="563" />
<glyph unicode="&#xa0;" horiz-adv-x="563" />
<glyph unicode="!" horiz-adv-x="735" d="M123 143q0 69 50 118.5t118 49.5q69 0 118.5 -49.5t49.5 -118.5q0 -70 -49.5 -119t-118.5 -49q-68 0 -118 49t-50 119zM291 467l24 1087q6 67 55.5 113.5t116.5 46.5q63 0 102 -44t32 -107l-242 -1084z" />
<glyph unicode="&#x22;" horiz-adv-x="763" d="M113 1321q2 51 38.5 87t88.5 36q49 0 76 -36t16 -87l-113 -369l-86 -10zM430 1321q2 51 38.5 87t88.5 36q50 0 76.5 -35.5t15.5 -87.5l-112 -369l-86 -10z" />
<glyph unicode="#" horiz-adv-x="1439" d="M113 328l53 151h278l91 254h-279l53 152h279l117 327h141l-117 -327h172l117 327h141l-117 -327h285l-53 -152h-285l-90 -254h285l-54 -151h-284l-117 -328h-141l117 328h-173l-116 -328h-142l117 328h-278zM586 479h172l90 254h-172z" />
<glyph unicode="$" horiz-adv-x="1138" d="M31 76l16 313l23 19l98 6q-10 -76 11.5 -140.5t65.5 -106.5t100.5 -66.5t119.5 -28.5l63 518q-141 76 -192 113q-151 110 -169 264q-7 52 1 112q11 88 57.5 161t113 119t143.5 72.5t155 30.5l31 252h82l-33 -252q38 -3 91.5 -10t90.5 -11.5t47 -4.5q101 0 137 26l25 -18 l-111 -326l-16 -10h-47q6 56 -16.5 109.5t-78 94t-134.5 50.5l-60 -488q17 -9 52 -27q71 -37 108 -58t94 -65t83.5 -86t44 -107t7.5 -142q-11 -87 -58.5 -163.5t-117.5 -129t-154 -85.5t-169 -40l-33 -266h-82l33 264q-232 5 -422 107zM424 1161q-13 -81 26 -138t119 -105 l54 442q-73 -9 -131 -57t-68 -142zM547 78q82 17 143 74t72 155q8 79 -33.5 134.5t-124.5 105.5z" />
<glyph unicode="%" horiz-adv-x="1593" d="M117 1075q19 154 123.5 256.5t261.5 102.5q159 0 237.5 -102t59.5 -257t-123.5 -256.5t-261.5 -101.5q-160 0 -238 101t-59 257zM213 -8l1071 1444l76 -62l-1071 -1446zM309 1075q-15 -135 18 -214t95 -79q63 0 115 79t69 214q17 132 -16.5 211.5t-95.5 79.5 q-63 0 -117 -80t-68 -211zM795 334q19 154 123.5 256t261.5 102q159 0 237.5 -101.5t59.5 -256.5t-123.5 -257t-261.5 -102q-159 0 -237.5 101.5t-59.5 257.5zM987 334q-15 -135 18 -214t95 -79q63 0 115 79t69 214q17 132 -17 211.5t-96 79.5q-63 0 -116.5 -79.5 t-67.5 -211.5z" />
<glyph unicode="&#x26;" d="M31 221q0 80 30 151.5t80.5 123t111 87.5t126.5 56l-17 25q-54 77 -84.5 168.5t-19.5 181.5q25 191 169 310.5t351 119.5q121 0 196 -55t75 -160q0 -92 -46 -170t-161 -148v-16q154 -27 276 -27q336 0 336 207q0 27 -6 62l25 32q163 -47 163 -200q0 -105 -116 -177 t-301 -63q-61 -196 -254 -407l24 -31q42 -56 61 -94.5t19 -85.5q0 -110 -67.5 -221.5t-149.5 -165.5l-55 -7l-17 19q78 112 78 188q0 46 -33 96l-77 109q-216 -154 -457 -154q-112 0 -186 64t-74 182zM289 317q0 -77 48.5 -123.5t137.5 -46.5q109 0 223 50l-280 391 q-57 -48 -93 -122.5t-36 -148.5zM504 1116q-27 -156 84 -301l336 -438q110 156 135 368q-214 48 -311 123q46 71 74 167t28 179q0 108 -49 148q-129 0 -203 -67.5t-94 -178.5z" />
<glyph unicode="'" horiz-adv-x="446" d="M113 1321q3 52 39 87.5t88 35.5q50 0 75.5 -35.5t16.5 -87.5l-113 -369l-86 -10z" />
<glyph unicode="(" horiz-adv-x="774" d="M103.5 361q0.5 88 11.5 178q18 150 65.5 294.5t118 273t142.5 232.5t163 215l58 -30q-87 -141 -148.5 -270t-117.5 -317.5t-81 -399.5q-66 -533 103 -990l-66 -30q-35 61 -64.5 118t-59 126t-51.5 135.5t-39.5 144t-26 155t-8 165.5z" />
<glyph unicode=")" horiz-adv-x="774" d="M113 -453q278 452 344 990q19 161 19.5 304t-17 264.5t-42.5 219t-63 199.5l66 30q41 -72 74.5 -138.5t67 -150t54.5 -162t38 -174.5t16 -188t-11 -202q-19 -154 -66.5 -300t-118.5 -275t-142.5 -232t-163.5 -215z" />
<glyph unicode="*" horiz-adv-x="839" d="M113 946l237 123l17 -16l12 -21l-195 -180q-33 11 -51 37q-13 20 -20 57zM113 1225q3 34 20 57q20 29 51 39l193 -178l-10 -23l-17 -16zM360 758l37 264l23 4l24 -4l37 -260q-28 -21 -61 -21q-26 0 -60 17zM360 1417q34 17 60 17q33 0 61 -21l-37 -260l-24 -4l-23 4z M465 1032l10 21l17 18l235 -119q0 -35 -18 -61q-17 -22 -47 -39zM467 1139l195 182q25 -10 47 -39q18 -26 18 -61l-233 -121l-19 18z" />
<glyph unicode="+" horiz-adv-x="1304" d="M113 455v161h456v459h166v-459h457v-161h-457v-459h-166v459h-456z" />
<glyph unicode="," horiz-adv-x="626" d="M133 143q0 69 50 118.5t118 49.5q51 0 90 -26.5t60.5 -70t32 -91t10.5 -96.5q0 -138 -66 -268.5t-188 -219.5l-41 49v9q91 75 137.5 180t36.5 215q-39 -17 -72 -17q-68 0 -118 49t-50 119z" />
<glyph unicode="-" horiz-adv-x="894" d="M113 455l18 161h651l-18 -161h-651z" />
<glyph unicode="." horiz-adv-x="602" d="M133 143q0 69 50 118.5t118 49.5q69 0 118.5 -49.5t49.5 -118.5q0 -70 -49.5 -119t-118.5 -49q-68 0 -118 49t-50 119z" />
<glyph unicode="/" horiz-adv-x="768" d="M41 -483l547 2035h139l-547 -2035h-139z" />
<glyph unicode="0" horiz-adv-x="1234" d="M74 717q28 223 110.5 390.5t217.5 262t307 94.5t284 -94.5t154.5 -262t15.5 -390.5q-27 -222 -109.5 -390t-218.5 -263t-309 -95q-171 0 -283 95t-154.5 263t-14.5 390zM346 717q-38 -309 8.5 -479t184.5 -170q137 0 225.5 170.5t126.5 480.5q36 307 -11 477t-184 170 q-93 0 -164.5 -80t-116.5 -223t-69 -346z" />
<glyph unicode="1" horiz-adv-x="870" d="M51 0l8 86q143 0 197.5 34.5t62.5 110.5l111 893q10 75 -33.5 110.5t-171.5 35.5l11 86l460 78h33l-147 -1203q-5 -38 1.5 -63t30 -44.5t72.5 -28.5t127 -9l6 -16l-16 -70h-752z" />
<glyph unicode="2" horiz-adv-x="1251" d="M51 0l12 104q48 30 165 98t201.5 122t154.5 108q141 110 205 237t88 318q23 180 -40 279.5t-184 99.5q-80 0 -147 -33l-17 -16l-75 -256l-19 -12q-39 0 -75.5 16.5t-61.5 55t-18 91.5q9 67 54 118t112 79t140.5 41.5t151.5 13.5q132 0 226 -37t144.5 -104.5t68.5 -152.5 t6 -189q-12 -103 -52.5 -193.5t-92 -153.5t-126 -126t-136.5 -103t-142 -92.5t-125 -87.5l-2 -14h377q50 0 84 6.5t72.5 26.5t73 61.5t71.5 108.5h39l6 -19l-96 -395h-1043z" />
<glyph unicode="3" horiz-adv-x="1181" d="M53 221q10 78 72 121t125 43l14 -12l12 -246l13 -16q74 -39 157 -39q179 0 274 89t111 230q18 143 -64.5 226t-274.5 83q-62 0 -115 -12l4 92q245 32 349 108.5t118 205.5q15 121 -38 196.5t-181 75.5q-78 0 -148 -33l-16 -16l-74 -256l-18 -12q-39 0 -76 16.5t-62 55 t-18 91.5q9 67 54 118t112.5 79t141 41.5t151.5 13.5q248 0 354.5 -94.5t85.5 -265.5q-6 -48 -25.5 -93t-58.5 -90.5t-109 -75.5t-163 -36l-2 -12q106 -12 180 -47t111 -86.5t50.5 -107.5t6.5 -120q-12 -92 -60.5 -175t-128.5 -149t-199.5 -104.5t-262.5 -38.5 q-84 0 -156 13.5t-132 41.5t-91 78.5t-23 118.5z" />
<glyph unicode="4" horiz-adv-x="1253" d="M51 373l10 90l789 971h188l-108 -885h272l-49 -176h-244l-18 -142q-5 -38 1.5 -63t30 -44.5t72.5 -28.5t127 -9l6 -16l-16 -70h-756l11 86q98 0 154 17.5t78 47t28 80.5l18 142h-594zM236 549h430l77 625z" />
<glyph unicode="5" horiz-adv-x="1234" d="M53 221q10 78 72 121t125 43l14 -12l12 -256l13 -17q71 -39 155 -39q100 0 179 52t124 134.5t58 184.5q10 74 -7 140.5t-59.5 121t-122 87t-186.5 32.5q-72 0 -158 -12l99 633h469q207 0 284 129h43l7 -19l-82 -321h-633l-60 -320q126 17 219 17q128 0 224.5 -35.5 t149.5 -97t75 -137.5t12 -163q-13 -101 -61 -193.5t-125.5 -165t-191.5 -116t-246 -43.5q-66 0 -126 8t-114 27t-92 47.5t-57.5 72t-12.5 97.5z" />
<glyph unicode="6" horiz-adv-x="1105" d="M62 422q1 57 6 113q41 355 298.5 606.5t665.5 337.5l12 -82q-295 -108 -449 -268t-218 -410q58 50 134.5 75t150.5 25q79 0 151 -30t125 -82t80 -129t16 -166q-11 -90 -49.5 -168t-103 -140.5t-164.5 -98.5t-223 -36q-78 0 -143 17.5t-110.5 49t-81 74.5t-54.5 93 t-31.5 106t-11.5 113zM328 349.5q5 -80.5 21.5 -146t56 -107t96.5 -41.5q104 0 171.5 87.5t86.5 244.5q18 152 -37 240t-160 88q-49 0 -106 -22t-99 -64q-13 -57 -22 -121q-13 -78 -8 -158.5z" />
<glyph unicode="7" horiz-adv-x="1097" d="M51 1024l99 410h897l-3 -43l-604 -1391l-288 20l-9 25l725 1161l2 17h-434q-50 0 -86.5 -6t-81.5 -26.5t-87 -66.5t-81 -118h-43z" />
<glyph unicode="8" horiz-adv-x="1155" d="M66 338q9 75 41.5 138t74 103t94.5 70.5t96.5 45.5t86.5 24q-64 37 -97 60.5t-74 67t-55 103t-4 137.5q11 89 55.5 161.5t110 119t145 71.5t162.5 25q51 0 102.5 -8.5t107 -31t95.5 -56.5t62.5 -90.5t13.5 -128.5q-8 -68 -38 -123.5t-72.5 -90.5t-87 -56.5t-90.5 -30.5 q37 -18 67 -34.5t61.5 -37.5t54 -42.5t45.5 -49.5t35.5 -58t23 -67.5t10 -78.5t-4.5 -91q-16 -125 -101.5 -222.5t-208 -147.5t-257.5 -50q-35 0 -74.5 4t-87.5 15.5t-91.5 29t-84.5 46.5t-69 66t-41.5 91t-5.5 117zM303 334q-9 -70 7.5 -124.5t52 -86t80 -47t94.5 -15.5 q51 0 97.5 13.5t87 40t67.5 72t34 104.5t-7.5 111.5t-42 91t-74 76t-89.5 62.5t-102 54q-26 -19 -54.5 -48t-61 -72.5t-57 -104.5t-32.5 -127zM475 1186q-7 -53 5 -97.5t34 -74t62.5 -57.5t76 -44.5t90.5 -38.5q44 41 86 116t52 151q16 125 -36.5 181t-146.5 56 q-35 0 -70 -10.5t-68 -32t-56 -60.5t-29 -89z" />
<glyph unicode="9" horiz-adv-x="1105" d="M61 37q295 108 449.5 268t218.5 410q-59 -50 -135 -75.5t-150 -25.5q-79 0 -151 30t-125 82t-80 129.5t-16 166.5q11 90 49.5 168t103 140t164.5 98t223 36q78 0 143 -17.5t110.5 -49t81 -74t54.5 -93t31.5 -106t11.5 -112.5t-6 -113q-41 -355 -298.5 -606.5 t-665.5 -337.5zM346 1047q-20 -152 36 -240t161 -88q49 0 106 22t99 64q10 33 22 121q13 78 8 158t-21.5 145.5t-56 107t-96.5 41.5q-104 0 -171 -86.5t-87 -244.5z" />
<glyph unicode=":" horiz-adv-x="722" d="M133 143q0 69 50 118.5t118 49.5q69 0 118.5 -49.5t49.5 -118.5q0 -70 -49.5 -119t-118.5 -49q-68 0 -118 49t-50 119zM254 881q0 69 50 118.5t118 49.5q69 0 118.5 -49.5t49.5 -118.5q0 -70 -49.5 -119t-118.5 -49q-68 0 -118 49t-50 119z" />
<glyph unicode=";" horiz-adv-x="720" d="M133 143q0 69 50 118.5t118 49.5q51 0 90 -26.5t60.5 -70t32 -91t10.5 -96.5q0 -138 -66 -268.5t-188 -219.5l-41 49v9q91 75 137.5 180t36.5 215q-39 -17 -72 -17q-68 0 -118 49t-50 119zM252 881q0 69 50 118.5t118 49.5q69 0 118.5 -49.5t49.5 -118.5 q0 -70 -49.5 -119t-118.5 -49q-68 0 -118 49t-50 119z" />
<glyph unicode="&#x3c;" horiz-adv-x="1191" d="M113 455v161l966 457v-178l-780 -360l780 -359v-178z" />
<glyph unicode="=" horiz-adv-x="1304" d="M113 229v162h1079v-162h-1079zM113 676v166h1079v-166h-1079z" />
<glyph unicode="&#x3e;" horiz-adv-x="1191" d="M113 -2v178l778 359l-778 360v178l966 -457v-161z" />
<glyph unicode="?" horiz-adv-x="1009" d="M123 143q0 69 50 118.5t118 49.5q69 0 118.5 -49.5t49.5 -118.5q0 -70 -49.5 -119t-118.5 -49q-68 0 -118 49t-50 119zM131 694q9 66 40 128t74 111.5t92.5 97t99 92.5t91 89t70.5 95t35 104q4 48 2 83.5t-15.5 60.5t-28 41t-35 24.5t-37.5 12t-34 3.5q-41 0 -84 -12 l-14 -10l-88 -252l-16 -12q-64 0 -111 37.5t-39 105.5q8 63 49 109t102.5 69t124.5 33t132 10q173 0 272.5 -78.5t79.5 -244.5q-9 -74 -49.5 -140t-98 -114.5t-125.5 -93t-135 -85t-124 -81t-95 -89.5t-45 -102q-7 -59 23.5 -93t74.5 -34q78 0 121.5 44.5t51.5 109.5l20 14 q31 -13 46.5 -45t10.5 -72q-6 -61 -70.5 -110t-150.5 -49q-26 0 -53.5 5t-62 21t-59 41.5t-37.5 71t-5 104.5z" />
<glyph unicode="@" horiz-adv-x="2134" d="M82 504q0 120 33 241.5t93.5 234t152.5 211t203 171t251.5 114.5t292.5 42q221 0 400.5 -61.5t298 -170.5t182 -258.5t63.5 -327.5q0 -84 -27.5 -179t-87.5 -192.5t-143 -175.5t-206.5 -127.5t-266.5 -50.5q-60 0 -104 34t-63 104.5t9 177.5l47 178h-28 q-34 -101 -73.5 -184.5t-89.5 -155t-112.5 -112t-130.5 -40.5q-108 0 -168.5 95t-50.5 252q9 123 61.5 249.5t130.5 226t181.5 163t206.5 63.5q78 0 139 -16l10 55h227l11 -8l-152 -852q-9 -49 3.5 -71.5t47.5 -22.5q108 11 193.5 66t137 138t78 180.5t26.5 202.5 q0 143 -40 259.5t-108 194.5t-162.5 130.5t-200 76t-223.5 23.5q-162 0 -309 -61t-259.5 -170.5t-179.5 -275t-67 -361.5q0 -175 44.5 -319t121.5 -243.5t183 -168t226.5 -100t254.5 -31.5q150 0 262 27.5t225 89.5l10 -2l29 -74q-243 -182 -584 -182q-156 0 -303.5 44 t-273 130.5t-220.5 205t-148.5 277t-53.5 336.5zM801 344q-10 -102 14 -147t62 -45q109 0 245 335q99 248 140 447l-19 12q-91 -4 -171 -59.5t-135 -143t-90.5 -191t-45.5 -208.5z" />
<glyph unicode="A" horiz-adv-x="1529" d="M10 0l8 61l76 29q34 13 58.5 34t35 38t25.5 47l600 1225l252 22l12 -10l269 -1233q17 -91 96 -119l78 -26l-9 -68h-655l8 63l131 37q36 10 50 25.5t14 40.5q0 16 -8 57l-72 344h-459l-170 -350q-22 -51 -22 -74q0 -37 39 -45l139 -35l-8 -63h-488zM557 659h401l-118 613z " />
<glyph unicode="B" horiz-adv-x="1353" d="M20 0l11 86q99 0 143.5 35.5t52.5 109.5l121 971q2 14 2 28q0 54 -30 82q-37 36 -138 36l11 86h634q114 0 198 -24.5t129.5 -61t71.5 -85.5q24 -49 30 -91q3 -22 3 -45q0 -21 -2 -42q-11 -104 -95.5 -194t-229.5 -123l-2 -14q160 -30 244 -122q70 -75 70 -195 q0 -25 -3 -52q-20 -175 -151 -280t-365 -105h-705zM502 231q-2 -17 -2 -33q0 -50 24 -76q32 -36 127 -36q282 0 318 313q2 19 2 37q0 36 -9 72q-14 54 -47.5 99t-95 72.5t-141.5 27.5h-117zM573 803q18 -2 50 -2q160 0 251.5 80.5t106.5 203.5q1 29 2 63v6q0 32 -10 64 q-11 36 -29 64.5t-56 47t-89 18.5q-90 0 -129 -36t-47 -110z" />
<glyph unicode="C" horiz-adv-x="1460" d="M100 715q20 182 99.5 327t200 236t269.5 138.5t316 47.5q47 0 166 -14t152 -14q69 0 112 26l25 -18l-111 -326l-16 -10h-43q0 63 -27 113.5t-70.5 81t-95 46t-104.5 15.5q-230 0 -381.5 -174.5t-188.5 -474.5q-8 -72 -8 -137q1 -202 83 -332q110 -172 339 -172q46 0 91 7 t113.5 30t136 79t118.5 140l49 -15l6 -18l-98 -256q-66 -30 -196.5 -51t-227.5 -21q-169 0 -306.5 47.5t-235 138t-142.5 234.5q-31 100 -31 218q0 52 6 108z" />
<glyph unicode="D" horiz-adv-x="1710" d="M20 0l11 86q99 0 143.5 35.5t52.5 109.5l121 971q2 14 2 28q0 54 -30 82q-37 36 -138 36l11 86q141 0 388.5 5t323.5 5q167 0 304 -47.5t234.5 -137t142.5 -229.5q31 -95 31 -207q0 -52 -7 -108q-21 -174 -100 -313.5t-198.5 -228.5t-269.5 -136t-317 -47q-74 0 -319 5 t-386 5zM502 231q-2 -15 -2 -29q0 -52 28 -80q35 -36 134 -36h75q232 0 385 171.5t187 457.5q8 68 8 130q1 199 -83 331q-110 172 -341 172h-98q-86 -1 -125 -38t-47 -108z" />
<glyph unicode="E" horiz-adv-x="1353" d="M20 0l11 86q99 0 143.5 35.5t52.5 109.5l121 971q2 14 2 28q0 54 -30 82q-37 36 -138 36l11 86h1118l24 -19l-108 -313l-19 -10h-43v12q0 124 -58 183q-61 61 -192 61h-100q-98 0 -140 -35.5t-52 -110.5l-56 -434h256q81 0 122.5 45t55.5 170h86l-59 -494l-72 -8l-14 8 q4 31 4 57q0 62 -22 90q-31 40 -111 40h-256l-55 -445q-2 -16 -2 -30q0 -51 24 -79q32 -36 117 -36h184q34 0 78.5 10.5t103.5 36t120.5 80.5t107.5 131l39 -14l6 -19l-119 -311h-1141z" />
<glyph unicode="F" horiz-adv-x="1353" d="M20 0l11 86q99 0 143.5 35.5t52.5 109.5l121 971q2 14 2 28q0 54 -30 82q-37 36 -138 36l11 86h1118l24 -19l-108 -313l-19 -10h-43v12q0 124 -58 183q-61 61 -192 61h-100q-98 0 -140 -35.5t-52 -110.5l-56 -434h256q81 0 122.5 45t55.5 170h86l-59 -494l-72 -8l-14 8 q4 31 4 57q0 62 -22 90q-31 40 -111 40h-256l-55 -445q-2 -14 -2 -26q0 -57 37 -85q45 -34 188 -34l6 -16l-16 -70h-695z" />
<glyph unicode="G" horiz-adv-x="1554" d="M100 715q20 182 99.5 327t200 236t269.5 138.5t316 47.5q47 0 166 -14t152 -14q69 0 112 26l25 -18l-111 -326l-16 -10h-43q0 63 -27 113.5t-70.5 81t-95 46t-104.5 15.5q-231 0 -383.5 -175t-186.5 -474q-8 -71 -8 -134q0 -204 83 -335q109 -172 339 -172q155 0 275 65 l26 226q2 16 2 30q0 55 -32 81q-39 34 -164 34l10 86h600v-70l-10 -16q-95 0 -135.5 -34t-49.5 -111l-34 -297q-88 -38 -220 -68.5t-276 -30.5q-169 0 -306.5 47.5t-235 138t-142.5 234.5q-31 100 -31 218q0 52 6 108z" />
<glyph unicode="H" horiz-adv-x="1818" d="M20 0l11 86q99 0 143.5 35.5t52.5 109.5l121 971q2 14 2 28q0 54 -30 82q-37 36 -138 36l11 86h653v-70l-10 -16q-112 0 -157.5 -35t-55.5 -111l-54 -430h678l53 430q2 15 2 28q0 54 -30 82q-36 36 -137 36l10 86h653v-70l-10 -16q-113 0 -159 -35.5t-54 -110.5 l-121 -971q-2 -15 -2 -29q0 -53 30 -81q38 -35 152 -35l6 -16l-16 -70h-653l10 86q101 0 146 35.5t53 109.5l55 441h-678l-55 -441q-2 -15 -2 -29q0 -53 30 -81q38 -35 152 -35l6 -16l-16 -70h-652z" />
<glyph unicode="I" horiz-adv-x="856" d="M20 0l11 86q99 0 143.5 35.5t52.5 109.5l121 971q2 14 2 28q0 54 -30 82q-37 36 -138 36l11 86h643v-70l-11 -16q-105 0 -148.5 -35.5t-53.5 -110.5l-121 -971q-2 -15 -2 -28q0 -53 30 -81q36 -36 142 -36l6 -16l-16 -70h-642z" />
<glyph unicode="J" horiz-adv-x="856" d="M-326 -307q8 68 63.5 105.5t119.5 37.5l14 -12l25 -254l14 -10q113 0 181 57t79 152l176 1433q2 16 2 30q0 52 -30 80q-38 36 -146 36l10 86h654v-70l-11 -16q-105 0 -149.5 -35.5t-54.5 -110.5l-162 -1317q-12 -98 -65 -177.5t-129 -128.5t-162.5 -75t-172.5 -26 q-121 0 -195 56q-63 49 -63 130q0 14 2 29z" />
<glyph unicode="K" horiz-adv-x="1689" d="M20 0l13 86q99 0 143 35.5t53 109.5l121 971q2 14 2 28q0 54 -30 82q-37 36 -138 36l11 86h653v-70l-10 -16q-112 0 -157.5 -35t-55.5 -111l-56 -444h86l645 557l-163 39l8 80h534l-8 -80l-198 -39l-592 -484l419 -641q20 -30 61 -46.5t73 -16.5q71 0 135 23l12 -21 l-20 -51q-126 -109 -314 -109q-187 0 -262 125l-311 516q-12 20 -21.5 30t-33.5 18t-62 8l-53 -435q-2 -15 -2 -29q0 -53 30 -81q38 -35 152 -35l6 -16l-18 -70h-652z" />
<glyph unicode="L" horiz-adv-x="1271" d="M20 0l11 86q99 0 143 35.5t53 109.5l121 971q2 14 2 28q0 54 -30 82q-37 36 -138 36l11 86h653v-70l-10 -16q-112 0 -157.5 -35t-55.5 -111l-121 -971q-2 -15 -2 -28q0 -51 24 -81q30 -36 117 -36h164q25 0 57.5 5.5t79 23t90.5 44.5t92 75t84 110l39 -14l6 -19 l-118 -311h-1115z" />
<glyph unicode="M" horiz-adv-x="2064" d="M20 0l11 86q97 0 140.5 37t59.5 113l199 976q1 9 1 18q1 53 -31 83q-36 35 -136 35l10 86h519l256 -1004l487 1004h508v-70l-10 -16q-106 0 -152 -36t-57 -114l-35 -962v-12q0 -68 31 -102q34 -36 135 -36l6 -16l-16 -70h-660l10 86q118 0 167.5 37.5t52.5 112.5l38 976 l-612 -1212h-49l-342 1214l-199 -978q-3 -18 -3 -34q-1 -49 31 -78q42 -38 161 -38l6 -16l-17 -70h-510z" />
<glyph unicode="N" horiz-adv-x="1759" d="M20 0l11 86q99 0 143 35.5t53 109.5l121 979q1 12 1 23q-1 51 -31 79q-38 36 -136 36l11 86h458l656 -1000l94 768q2 14 2 27q1 55 -35 83q-44 36 -170 36l10 86h531v-70l-10 -16q-105 0 -149 -35.5t-54 -110.5l-148 -1202h-106l-803 1186l-119 -955q-2 -14 -2 -27 q0 -56 36 -84q44 -34 175 -34l6 -16l-16 -70h-529z" />
<glyph unicode="O" d="M100 715q27 223 142 394t292.5 263t389.5 92q158 0 287.5 -54t214.5 -150q85 -98 123 -238q25 -92 24 -195q0 -54 -6 -112q-27 -222 -142.5 -392.5t-293.5 -262t-390 -91.5q-158 0 -286.5 53.5t-214.5 149.5q-84 97 -122 237q-24 91 -25 194q0 54 7 112zM408 715 q-9 -79 -9 -151q0 -98 17 -180q30 -144 117 -230t223 -86q134 0 242.5 85.5t174.5 231t87 332.5q8 75 8 144q0 101 -18 187q-31 145 -117.5 231.5t-219.5 86.5q-136 0 -244.5 -86.5t-173.5 -232t-87 -332.5z" />
<glyph unicode="P" horiz-adv-x="1349" d="M20 0l11 86q99 0 143.5 35.5t52.5 109.5l121 971q2 14 2 28q0 54 -30 82q-37 36 -138 36l11 86h645q84 0 151 -13t110.5 -36.5t76.5 -55t48 -68.5q14 -37 24 -78q8 -32 8 -65v-18q-2 -42 -5 -82q-5 -50 -27.5 -103t-69.5 -108.5t-112 -99t-164.5 -71.5t-218.5 -28 q-71 0 -110 4l-47 -381q-1 -12 -1 -23q1 -60 37 -88q44 -34 175 -34l6 -16l-17 -70h-682zM561 705q27 -3 64 -3q159 0 254.5 104t111.5 267q2 21 2 42q1 89 -39 153q-48 80 -155 80q-89 0 -128.5 -37t-47.5 -109z" />
<glyph unicode="Q" horiz-adv-x="1685" d="M100 715q27 223 142 394t293 263t391 92q158 0 286.5 -54t214 -150.5t123.5 -237.5q24 -91 24 -194q0 -55 -7 -113q-33 -278 -195.5 -467.5t-408.5 -251.5q-43 -15 -131.5 -40.5t-159.5 -50.5t-133 -57v-8q118 0 381.5 -27.5t392.5 -27.5q300 0 487 127l8 -8l-10 -72 q-14 -32 -33 -64t-54 -75t-75 -75t-97.5 -54.5t-119.5 -22.5q-86 0 -188 22t-198.5 53.5t-195.5 63.5t-210.5 54t-212.5 22q-51 0 -98 -19t-70 -59l-13 -10q-24 3 -36.5 20.5t-12.5 43.5q0 88 142 147q73 30 178 49t172 25.5t67 7.5v8q-159 1 -288 55t-214.5 150t-122.5 236 q-25 90 -25 193q0 54 7 112zM406 715q-10 -80 -10 -153q0 -96 18 -178q30 -145 118 -230.5t224 -85.5q134 0 241.5 85.5t173.5 231t89 332.5q10 79 10 151q0 97 -18 180q-31 146 -117.5 232t-219.5 86q-137 0 -246 -86.5t-174.5 -232t-88.5 -332.5z" />
<glyph unicode="R" horiz-adv-x="1433" d="M20 0l13 86q99 0 143.5 35.5t52.5 109.5l121 971q2 14 2 28q0 54 -30 82q-37 36 -138 36l11 86h647q82 0 148 -12t110 -34t76.5 -51.5t48.5 -64.5t26 -74q8 -32 8 -66v-14l-4 -80q-6 -51 -30 -103t-68 -103t-119 -92t-170 -60l-2 -14q85 -10 141 -79t83 -175 q14 -53 26.5 -92t31 -79.5t38.5 -66t48 -41.5t60 -16q53 0 117 22l12 -20l-20 -45q-125 -105 -268 -105q-77 0 -130.5 22t-85.5 67.5t-49 92.5t-32 121q-15 72 -27 117.5t-40 103.5t-66 95q-66 63 -150 63l-51 -420q-1 -13 -1 -25q1 -56 31 -85q38 -35 150 -35l6 -16 l-18 -70h-652zM567 745q18 -2 58 -2q161 0 257.5 95.5t112.5 248.5q2 21 2 40q1 85 -39 146q-48 75 -157 75q-91 0 -129.5 -36.5t-46.5 -109.5z" />
<glyph unicode="S" horiz-adv-x="1138" d="M31 76l16 313l23 19l98 6q-3 -23 -3 -45q0 -53 17 -101q24 -66 70.5 -108t107 -65t125.5 -23q58 0 114.5 21.5t105 77t57.5 136.5q1 13 1 25q1 38 -13 72q-18 44 -54.5 77t-84.5 62.5t-101.5 58t-107 59t-100 70.5t-80.5 87t-49 114q-9 40 -9 85q0 30 4 62 q10 74 44.5 137.5t84.5 108t111.5 76.5t126 47.5t127.5 15.5q49 0 163.5 -14t120.5 -14q101 0 137 26l25 -18l-111 -326l-16 -10h-47q2 14 2 27q0 82 -64 150q-74 79 -210 79q-36 0 -71.5 -10t-72 -31t-62.5 -63t-32 -99q-2 -15 -2 -30q0 -40 14 -74q19 -47 55.5 -80.5 t86 -63.5t104.5 -58t109.5 -57.5t102.5 -68t83 -84.5q35 -45 51 -111q10 -40 9 -86q0 -28 -3 -59q-15 -122 -100.5 -220t-203 -149t-238.5 -51q-258 0 -461 107z" />
<glyph unicode="T" horiz-adv-x="1335" d="M20 1102l89 332h1198l8 -332l-12 -19l-46 -12q-71 266 -423 266l-136 -1104q-2 -15 -2 -29q0 -53 30 -81q38 -35 155 -35l6 -16l-17 -72h-671l10 88q111 0 158 35t57 110l135 1104q-353 0 -489 -266l-45 12z" />
<glyph unicode="U" horiz-adv-x="1595" d="M20 1348l11 86h667v-70l-10 -16q-82 0 -130 -18t-67.5 -48t-25.5 -80l-82 -651q-9 -61 -9 -112q0 -17 1 -33q4 -64 13.5 -111.5t33.5 -82.5t51.5 -57.5t67 -36t80 -19t90.5 -5.5q84 0 155.5 23.5t133 75t103 142.5t56.5 216l82 651q2 14 2 26q-1 54 -33 84 q-40 36 -139 36l10 86h494v-70l-10 -16q-105 0 -149 -35.5t-54 -110.5l-78 -633q-18 -143 -68.5 -254t-112.5 -174.5t-139.5 -104t-142 -54t-127.5 -13.5q-112 0 -200 13.5t-172 53t-136 103.5q-50 64 -74 171q-13 61 -14 133q0 55 8 118l80 641q2 14 2 28q0 54 -30 82 q-37 36 -138 36z" />
<glyph unicode="V" horiz-adv-x="1474" d="M20 1366l9 68h671l-6 -64l-137 -37q-37 -10 -51 -25.5t-14 -39.5q0 -12 8 -58l205 -829l407 836q23 48 23 69q0 41 -39 49l-138 35l7 64h489l-6 -62l-80 -29q-32 -12 -56.5 -33.5t-35 -37.5t-27.5 -47l-643 -1225h-51l-358 1221q-24 86 -99 118z" />
<glyph unicode="W" horiz-adv-x="2146" d="M20 1366l9 68h671l-6 -64l-137 -37q-65 -18 -65 -65q0 -18 8 -58l166 -800l321 714l-24 97q-24 86 -99 118l-78 27l9 68h671l-6 -64l-137 -37q-66 -18 -66 -65q0 -13 9 -58l166 -800l362 807q3 7 9 20.5t8 18.5t4 13.5t2 16.5q0 38 -39 49l-127 35l6 64h469l-6 -62 l-68 -29q-48 -20 -74.5 -48t-46.5 -70l-602 -1225h-51l-246 952l-469 -952h-51l-315 1221q-24 86 -99 118z" />
<glyph unicode="X" horiz-adv-x="1683" d="M20 0l9 68q104 28 217 127l465 464l-338 568q-22 36 -35 55t-35 41t-48.5 33.5t-61.5 15.5l6 62h710l-6 -64l-133 -37q-34 -9 -53 -30t-19 -50q0 -24 11 -43l206 -346l353 353q30 30 30 65q0 43 -43 53l-133 35l6 64h535l-6 -62q-76 -26 -118 -49t-93 -74l-475 -475 l336 -561q66 -107 200 -145l-8 -68h-735l6 63l141 37q72 18 72 82q0 24 -10 41l-207 346l-352 -352q-31 -31 -31 -67q0 -42 43 -52l133 -35l-6 -63h-533z" />
<glyph unicode="Y" horiz-adv-x="1400" d="M20 1366l9 68h665l-6 -64l-133 -37q-72 -20 -72 -78q0 -16 11 -45l200 -528l346 535q29 48 29 69q0 38 -43 49l-133 35l6 64h481l-6 -62l-80 -29q-19 -7 -37 -22.5t-28.5 -27.5t-28.5 -36l-24 -32l-441 -631l-45 -363q-2 -15 -2 -29q0 -53 30 -81q39 -35 152 -35l7 -16 l-17 -70h-663l10 86q109 0 155 35t54 110l43 349l-262 641q-39 97 -99 118z" />
<glyph unicode="Z" horiz-adv-x="1361" d="M20 0l9 78l950 1251l-2 21l-410 -21q-113 -6 -190.5 -103.5t-93.5 -232.5l-27 -16l-70 14l76 443h1079l-8 -78l-952 -1256l4 -16l485 22q119 6 197.5 102t97.5 253l27 18l76 -18l-76 -461h-1172z" />
<glyph unicode="[" horiz-adv-x="858" d="M102 -483l250 2035h393l-2 -79l-10 -17h-217l-227 -1843h217l6 -16l-18 -80h-392z" />
<glyph unicode="\" horiz-adv-x="768" d="M41 1552h139l547 -2035h-139z" />
<glyph unicode="]" horiz-adv-x="858" d="M113 -483l2 80l10 16h215l227 1843h-217l-6 17l18 79h394l-252 -2035h-391z" />
<glyph unicode="^" horiz-adv-x="1177" d="M113 473l395 905h162l395 -905h-162l-315 719l-314 -719h-161z" />
<glyph unicode="_" horiz-adv-x="1447" d="M113 -258l18 162h1204l-18 -162h-1204z" />
<glyph unicode="`" horiz-adv-x="653" d="M113 1509q26 64 71 95q46 34 111 34l246 -456l-31 -35l-41 -19z" />
<glyph unicode="a" horiz-adv-x="1116" d="M41 322q6 122 60 249.5t135 226.5t184 162.5t201 63.5q78 0 139 -16l10 55h227l11 -8l-144 -809q-4 -22 -4 -39q0 -21 6 -33q11 -22 43 -22q34 0 71 54t46 122l49 -4q-9 -144 -95 -246.5t-187 -102.5q-87 1 -135 83q-27 46 -28 113q0 53 17 118l47 178h-28 q-34 -101 -73.5 -184.5t-89.5 -155t-112.5 -112t-130.5 -40.5q-106 1 -166 95q-54 85 -54 220q0 15 1 32zM285 342q-2 -25 -2 -46q0 -68 17 -102q22 -44 60 -44q111 0 238 317q49 122 90 257t57 208l-18 12q-114 -5 -214.5 -98.5t-159.5 -229t-68 -274.5z" />
<glyph unicode="b" horiz-adv-x="1011" d="M78 301l178 995q8 50 8 64q0 37 -33 54.5t-112 17.5l-10 69l436 107l10 -9q-115 -444 -219 -1005h22q33 95 71 172.5t86 143.5t107.5 102.5t125.5 36.5q107 0 168 -95q56 -86 56 -224q0 -14 -1 -28q-7 -172 -94 -342t-219 -277.5t-263 -107.5q-95 0 -151 19 q-101 33 -143 120q-29 60 -29 126q0 30 6 61zM283 143q6 -30 30 -49.5t52 -19.5q62 0 119.5 44.5t98.5 113.5t73 152t49 160t20 138q1 20 1 37q0 155 -79 155q-34 0 -70.5 -33.5t-71 -92t-65 -124.5t-59.5 -145q-39 -104 -66.5 -204t-31.5 -132z" />
<glyph unicode="c" horiz-adv-x="847" d="M39 322q0 165 84 335t219.5 281t273.5 111q90 0 146.5 -35t56.5 -115q0 -70 -63.5 -112t-137.5 -42l-14 19q27 49 27 102q0 76 -49 90q-70 0 -138.5 -84t-112.5 -228t-44 -302q0 -192 110 -192q59 0 115.5 40t94.5 92t69 115l55 -26q-31 -84 -74.5 -153.5t-100.5 -125 t-131.5 -86.5t-158.5 -31q-107 0 -167 94t-60 253z" />
<glyph unicode="d" horiz-adv-x="1138" d="M41 322q5 129 58.5 261.5t133.5 234.5t182.5 166.5t200.5 64.5q73 0 140 -17l47 264q8 50 8 64q0 74 -135 74l-10 65l421 109l11 -9l-240 -1353q-4 -22 -4 -39q0 -21 6 -33q11 -22 43 -22q34 0 71 54t46 122l49 -4q-9 -144 -95.5 -246.5t-187.5 -102.5q-83 -1 -128 81 q-27 49 -27 123q0 49 12 110l47 178h-28q-26 -80 -55 -149t-67 -133.5t-79 -110t-92 -72.5t-105 -27q-106 -1 -168 95q-56 87 -56 225q0 13 1 27zM287 342q-1 -20 -1 -37q0 -155 79 -155q104 0 231 317q55 138 98 292t47 197l-18 13q-115 -5 -214.5 -100.5t-156.5 -236.5 t-65 -290z" />
<glyph unicode="e" horiz-adv-x="849" d="M39 322q0 98 33.5 203.5t91.5 197.5t130 166t157 117t165 43q89 0 147 -36t58 -116q0 -161 -130.5 -255t-383.5 -95q-20 -94 -20 -205q0 -192 110 -192q59 0 115.5 40t94.5 92t69 115l55 -26q-31 -84 -74.5 -153.5t-100.5 -125t-131.5 -86.5t-158.5 -31q-107 0 -167 94 t-60 253zM319 604q78 2 140 32.5t96.5 76t52 91t17.5 85.5q0 67 -64 67t-134 -100.5t-108 -251.5z" />
<glyph unicode="f" horiz-adv-x="567" d="M-451 -428q0 77 53.5 119.5t118.5 44.5l13 -12q-19 -32 -19 -74q0 -52 22 -100.5t54 -61.5q94 0 136 49t61 152l223 1235h-160l21 80l157 20l35 186q24 132 97.5 226.5t170.5 138t209 43.5q96 0 166 -47.5t70 -124.5q0 -88 -52.5 -135t-119.5 -49l-12 12q6 27 6 65 q0 60 -16.5 113.5t-47.5 77.5q-54 0 -91 -13t-59.5 -41t-35 -61.5t-21.5 -85.5l-55 -305h270l-26 -84l-21 -16h-241l-203 -1117q-18 -99 -64.5 -178t-110.5 -128t-138.5 -75t-153.5 -26q-96 0 -166 47.5t-70 124.5z" />
<glyph unicode="g" horiz-adv-x="1054" d="M-123 -365q0 194 473 340l2 23q-48 -23 -94 -23q-106 0 -168 95q-56 88 -56 225q0 13 1 27q5 129 59.5 261.5t136 234.5t185.5 166.5t202 64.5q70 0 142 -17l237 31l11 -6l-203 -1123q-16 -92 -43.5 -170t-70 -146.5t-98 -116.5t-131 -75.5t-165.5 -27.5 q-75 0 -146.5 13.5t-134 40.5t-101 74.5t-38.5 108.5zM110 -415q9 -32 37 -52.5t62 -30.5t70 -10q96 0 144.5 35.5t76.5 112.5q44 123 82.5 281t58 260.5t51.5 285.5h-28q-69 -208 -156 -332q-36 -65 -87.5 -127.5t-99 -107t-92 -85.5t-76.5 -80t-42 -73q-6 -24 -6 -45 q0 -17 5 -32zM281 342q-1 -21 -1 -40q0 -72 18 -108q23 -44 60 -44q105 0 236 317q56 135 99.5 286.5t49.5 202.5l-18 13q-88 -4 -169 -61t-138.5 -145.5t-94 -199t-42.5 -221.5z" />
<glyph unicode="h" horiz-adv-x="1116" d="M41 12l233 1284q9 52 9 64q0 38 -33 55t-111 17l-10 69l436 107l10 -9q-148 -549 -256 -1132h23q32 109 79 211t105.5 186t129.5 134.5t141 50.5q103 0 149 -71q27 -42 28 -116q0 -49 -13 -112l-97 -504q-4 -22 -4 -39q0 -21 6 -33q11 -22 43 -22q34 0 71 54t46 122 l49 -4q-7 -147 -96 -248t-201 -101q-92 -1 -137 79q-27 47 -27 121q0 51 13 114l94 483q4 21 4 37q0 65 -59 65q-46 0 -106.5 -79t-114.5 -199.5t-95.5 -279t-50.5 -302.5l-231 -24z" />
<glyph unicode="i" horiz-adv-x="585" d="M41 940l424 109l10 -9l-141 -794q-4 -22 -5 -39q0 -21 7 -33q11 -22 43 -22q34 0 71 54t46 122l49 -4q-7 -147 -96 -248t-201 -101q-90 -1 -138 81q-28 48 -28 121q0 50 14 112l82 444q8 50 8 64q0 73 -135 73zM184 1360q0 72 52.5 124t123.5 52q72 0 124.5 -52 t52.5 -124q0 -73 -52.5 -124.5t-124.5 -51.5q-71 0 -123.5 51.5t-52.5 124.5z" />
<glyph unicode="j" horiz-adv-x="524" d="M-461 -428q0 77 53.5 119.5t118.5 44.5l13 -12q-21 -38 -21 -82q0 -48 21.5 -91t56.5 -63q93 0 134 49t60 152l191 1046q8 50 8 64q0 73 -135 73l-10 70l424 109l10 -9l-221 -1235q-18 -99 -64.5 -178t-110.5 -128t-139 -75t-153 -26q-96 0 -166 47.5t-70 124.5z M172 1360q0 72 52.5 124t123.5 52q72 0 124 -52t52 -124q0 -73 -52 -124.5t-124 -51.5q-71 0 -123.5 51.5t-52.5 124.5z" />
<glyph unicode="k" horiz-adv-x="1091" d="M41 12l233 1284q9 56 9 64q0 37 -34 54.5t-112 17.5l-10 69l436 107l10 -9q-148 -560 -254 -1132h23q26 93 54.5 170t69.5 156t86.5 133.5t106.5 88.5t129 34q102 0 161 -54t59 -151q0 -127 -110 -223t-327 -142l-6 -14q4 -122 86.5 -203.5t182.5 -81.5q72 0 115.5 40 t51.5 108l50 -4q0 -152 -73.5 -250.5t-199.5 -98.5q-53 0 -100 12t-96 45t-84.5 85t-58 138t-23.5 198l14 41q62 2 125 33t109 76t75 98.5t29 99.5q0 73 -74 73q-60 0 -128 -79.5t-124 -201.5t-96 -278.5t-47 -300.5l-231 -24z" />
<glyph unicode="l" horiz-adv-x="557" d="M86 289l178 1007q6 38 6 60q0 41 -30.5 57t-118.5 17l-10 69l436 107l10 -9l-238 -1351q-4 -20 -4 -36q0 -58 50 -58q33 0 70 54t46 122l49 -4q-7 -147 -96 -248t-201 -101q-86 -1 -133 81q-28 48 -28 120q0 51 14 113z" />
<glyph unicode="m" horiz-adv-x="1673" d="M41 940l436 107l10 -9q-82 -213 -168 -571h25q32 110 79 211t106.5 185.5t133 135t148.5 50.5q164 0 164 -162q0 -58 -21 -137l-77 -283h24q43 147 110.5 276.5t160 217.5t182.5 88q104 1 155 -71q32 -45 32 -124q0 -46 -11 -104l-96 -504q-4 -24 -5 -42q0 -52 37 -52 q34 0 71 54t46 122l49 -4q-7 -147 -96 -248t-201 -101q-87 -1 -129 77q-24 44 -24 115q0 54 14 122l94 483q3 20 3 36q0 66 -60 66q-66 0 -150 -130t-149 -334t-76 -396l-231 -24l-27 22l148 760q3 19 3 35q0 67 -63 67q-54 0 -119 -79.5t-121 -201t-97.5 -278.5t-49.5 -301 l-231 -24l-27 22l135 721q8 50 8 64q0 73 -135 73z" />
<glyph unicode="n" horiz-adv-x="1130" d="M41 940l436 107l10 -9q-82 -213 -168 -571h25q32 110 79 211t106.5 185.5t133 135t148.5 50.5q105 1 155 -71q32 -45 31 -125q0 -46 -10 -103l-96 -504q-4 -24 -4 -42q0 -52 37 -52q33 0 70 54t46 122l50 -4q-7 -147 -96 -248t-201 -101q-91 -1 -133 77q-23 42 -23 109 q0 55 16 128l95 483q3 20 3 35q0 67 -61 67q-73 0 -160.5 -130.5t-152.5 -333.5t-76 -396l-231 -24l-27 22l135 721q8 50 8 64q0 73 -135 73z" />
<glyph unicode="o" horiz-adv-x="962" d="M39 377q-1 13 -1 26q0 47 9 93q4 28 12 63.5t27.5 91t46 107t70.5 106t97 94.5t129.5 65.5t164.5 25.5q70 0 127 -22.5t93 -61t62 -90t35 -109.5t12 -119q1 -13 1 -26q0 -47 -9 -93q-4 -28 -12 -63.5t-28 -91t-46.5 -107t-70.5 -106t-97 -94.5t-129 -65.5t-163 -25.5 q-70 0 -126.5 22.5t-92.5 61t-62.5 90t-36 109.5t-12.5 119zM286 356q-1 -24 -1 -49q0 -47 5 -91q7 -66 34 -104t73 -38q88 0 161.5 125.5t100.5 312.5q19 128 19 218q0 222 -113 222q-89 0 -160.5 -123.5t-101.5 -314.5q-13 -84 -17 -158z" />
<glyph unicode="p" horiz-adv-x="1052" d="M-195 -592l15 80q83 0 124 36t56 124l174 981q-53 -39 -145 -109t-121 -92l-29 45q206 178 314 260l73 406l230 32l10 -8l-43 -243q212 129 328 129q104 0 163.5 -94.5t59.5 -252.5q0 -129 -53 -262.5t-135 -234.5t-186.5 -165.5t-201.5 -64.5q-80 0 -139 15l-59 -342 q-5 -30 -5 -53q0 -26 7 -43q12 -33 58.5 -48.5t143.5 -15.5l7 -16l-21 -64h-625zM313 66l19 -11q116 0 217.5 95t159 239.5t57.5 292.5q0 106 -20 149t-58 43q-97 0 -248 -77z" />
<glyph unicode="q" horiz-adv-x="1062" d="M41 322q5 129 58.5 261.5t133.5 234.5t182.5 166.5t200.5 64.5q78 0 150 -19l16 78h222l12 -8l-256 -1452q-5 -29 -5 -52q0 -50 22 -74q32 -34 136 -34l7 -16l-21 -64h-647l14 80q50 1 79.5 4.5t61.5 17t51 37.5t40.5 67.5t38 105t34.5 151.5q57 283 101 551h-23 q-155 -447 -385 -447q-106 0 -168 95q-56 88 -56 225q0 13 1 27zM287 342q-1 -20 -1 -37q0 -155 79 -155q96 0 210 272q60 142 110 312.5t56 221.5l-18 13q-115 -5 -214.5 -100.5t-156.5 -236.5t-65 -290z" />
<glyph unicode="r" horiz-adv-x="897" d="M41 942l442 107l11 -9q-90 -235 -175 -573h27q33 113 75 211.5t95.5 184.5t121.5 136t140 50q52 0 80.5 -36.5t28.5 -92.5q0 -85 -44 -133t-100 -48l-16 13q-5 41 -22.5 74t-45.5 44q-46 0 -105 -76t-112.5 -193.5t-93.5 -276.5t-47 -310l-231 -24l-27 22l135 723 q8 50 8 64q0 73 -135 73z" />
<glyph unicode="s" horiz-adv-x="858" d="M29 158q0 62 48 104.5t111 42.5l19 -16q-12 -27 -12 -60q0 -57 33 -106.5t81 -56.5q76 0 137.5 40.5t77.5 126.5q2 13 2 25q0 28 -12 54q-18 36 -53.5 62t-79 52t-86 57t-75.5 68t-47 93q-7 29 -7 61q0 30 6 63q25 132 139 206.5t267 74.5q119 0 185 -44.5t66 -123.5 q0 -51 -42 -94.5t-125 -43.5l-15 21q23 33 23 80t-23 83t-63 40q-62 0 -114.5 -37t-68.5 -107q-4 -17 -3 -32q0 -27 10 -52q18 -38 54.5 -65.5t81.5 -54.5t89.5 -58t78.5 -67q34 -38 50 -92q8 -29 8 -60q0 -29 -6 -61q-30 -147 -151.5 -226.5t-299.5 -79.5q-36 0 -71.5 4 t-75 16.5t-69 32t-49 53t-19.5 77.5z" />
<glyph unicode="t" horiz-adv-x="657" d="M39 913l20 80l152 21l92 237l186 45l13 -10l-49 -272h235l-26 -84l-21 -17h-205l-117 -667q-2 -14 -2 -26q0 -68 68 -68q49 0 90.5 52.5t52.5 123.5l50 -4q-11 -149 -99.5 -249t-224.5 -100q-100 1 -150 75q-31 46 -31 127q0 49 11 112l109 624h-154z" />
<glyph unicode="u" horiz-adv-x="1157" d="M10 700q10 148 97 248.5t200 100.5q87 -1 129 -81q24 -46 23 -115q0 -52 -13 -118l-96 -483q-4 -21 -4 -37q0 -65 66 -65q52 0 117 80.5t121 203t97 279t48 297.5l227 24l27 -22l-131 -727q-9 -56 -9 -64q0 -74 135 -74l11 -65l-412 -107l-10 9l143 573h-24 q-32 -110 -79 -211t-106 -185.5t-132 -135t-148 -50.5q-104 -1 -155 71q-32 45 -32 124q0 46 11 104l98 504q4 24 4 42q0 52 -37 52q-36 0 -72 -53.5t-45 -122.5z" />
<glyph unicode="v" horiz-adv-x="1054" d="M20 700q10 148 95 248.5t196 100.5q53 0 97.5 -40t52.5 -122l63 -676l37 -6q60 20 121.5 103t101 193.5t39.5 205.5q0 149 -110 198l-6 15q17 71 59 100t90 29q63 0 100 -42.5t37 -105.5q0 -106 -73.5 -286.5t-177.5 -348.5t-191 -250l-219 -26l-27 22l-88 817 q-6 43 -37 43q-33 0 -67 -53.5t-43 -122.5z" />
<glyph unicode="w" horiz-adv-x="1656" d="M20 700q9 148 94.5 248.5t196.5 100.5q53 0 97.5 -40t52.5 -122l63 -676l37 -6q93 32 179.5 185t86.5 327q0 155 -45 155q-33 0 -66 -53t-42 -123l-49 4q9 148 93 248.5t195 100.5q53 0 98 -40t52 -122l61 -676l37 -6q62 20 124 103t101 193.5t39 205.5q0 149 -110 198 l-6 15q17 71 59 100t90 29q63 0 100 -42.5t37 -105.5q0 -106 -73.5 -286.5t-177.5 -348.5t-191 -250l-219 -26l-27 22l-51 463q-67 -143 -150 -266.5t-155 -192.5l-219 -26l-27 22l-88 817q-6 43 -37 43q-33 0 -67 -53.5t-43 -122.5z" />
<glyph unicode="x" horiz-adv-x="1026" d="M20 123q0 46 18.5 94.5t57.5 99.5t108.5 98.5t162.5 82.5l-144 331q-6 14 -11 22t-15.5 14.5t-26.5 6.5q-35 0 -65.5 -53t-34.5 -123l-50 4q8 151 81 250t182 99q62 0 106.5 -37.5t77.5 -124.5l127 -305q95 50 149 122t54 136q0 50 -30 69t-83 19l-6 14q12 35 30 58 t39.5 33t39 13t40.5 3q63 0 100.5 -42.5t37.5 -105.5q0 -47 -18 -96t-56.5 -99.5t-108.5 -98t-164 -81.5l140 -331q15 -43 61 -43q35 0 63 52.5t33 123.5l50 -4q-8 -152 -79.5 -250.5t-180.5 -98.5q-115 0 -183 162l-133 305q-95 -50 -148 -122.5t-53 -135.5q0 -50 30 -69 t83 -19l6 -14q-12 -35 -30 -58t-39.5 -33t-39 -13t-40.5 -3q-63 0 -100.5 42.5t-37.5 105.5z" />
<glyph unicode="y" horiz-adv-x="1060" d="M-205 -473q0 46 21 76l28 12q75 -37 152 -37q78 0 141 39.5t99.5 100.5t55.5 128.5t19 130.5l-98 852q-6 43 -37 43q-33 0 -67 -53.5t-43 -122.5l-50 4q9 148 94.5 248.5t196.5 100.5q53 0 97.5 -40t52.5 -122l78 -778l26 -7q107 105 186.5 286.5t79.5 318.5 q0 148 -108 198l-6 15q17 71 59 100t90 29q63 0 100 -41t37 -107q0 -103 -57 -258t-148 -319.5t-210 -331.5t-237.5 -297.5t-236 -212.5t-200.5 -82q-53 0 -84 38t-31 89z" />
<glyph unicode="z" horiz-adv-x="1021" d="M41 41q0 38 27 68l757 786l-14 16q-63 -56 -133 -97.5t-119 -41.5q-54 0 -110.5 22t-104 44t-76.5 22q-28 -7 -43.5 -29t-15.5 -49q0 -22 12 -43l-10 -16q-6 -2 -21 -2q-34 0 -59 22.5t-25 63.5q36 109 140.5 175.5t236.5 66.5q65 0 119.5 -13.5t85.5 -30.5t75.5 -30.5 t90.5 -13.5q45 16 45 55q0 10 -4 22l10 11q32 0 49 -18t17 -46q0 -43 -27 -70l-754 -780l17 -16q68 64 139 89t127 25q46 0 89.5 -19t76 -46.5t60.5 -55t54.5 -46.5t47.5 -19q30 27 30 78q0 64 -43 94l23 33q66 -8 104.5 -52.5t38.5 -95.5q0 -92 -87 -163.5t-234 -71.5 q-43 0 -90 21t-89.5 50.5t-86.5 59.5t-98 51t-107 21q-45 -22 -45 -80v-6l-11 -11q-32 0 -48.5 19t-16.5 47z" />
<glyph unicode="{" horiz-adv-x="1021" d="M102 489l11 93q110 0 174 27t92 78t39 140q8 68 7 232t7 235q14 127 128.5 193.5t348.5 66.5l-2 -67q-256 0 -276 -170q-9 -84 -16 -230.5t-19 -240.5q-16 -128 -110.5 -215.5t-241.5 -87.5l-2 -15q148 0 221 -87.5t57 -215.5q-11 -83 -40 -229.5t-40 -241.5 q-11 -93 51.5 -131.5t180.5 -38.5l-15 -67q-234 0 -330.5 66t-80.5 194q8 72 50 236.5t50 230.5q16 134 -33.5 189.5t-210.5 55.5z" />
<glyph unicode="|" horiz-adv-x="614" d="M113 -545l262 2159h127l-264 -2159h-125z" />
<glyph unicode="}" horiz-adv-x="1019" d="M113 -483l2 67q254 0 274 170q9 84 16 230.5t19 240.5q16 128 110.5 215.5t241.5 87.5l2 15q-148 0 -221 87.5t-57 215.5q11 83 40 229.5t40 241.5q11 93 -51.5 131.5t-180.5 38.5l14 67q234 0 331 -66t81 -194q-8 -71 -50 -235t-50 -232q-16 -134 33.5 -189.5 t210.5 -55.5l-11 -93q-110 0 -174 -27t-92 -78t-39 -140q-8 -67 -7 -231t-7 -236q-16 -128 -129.5 -194t-345.5 -66z" />
<glyph unicode="~" horiz-adv-x="1230" d="M113 477q105 209 286 209q49 0 111 -22t111 -48.5t110 -48.5t109 -22q102 0 168 147l110 -67q-36 -110 -115 -179t-176 -69q-58 0 -119 22.5t-104.5 49t-101 49t-109.5 22.5q-62 0 -101 -27t-77 -100z" />
<glyph unicode="&#xa1;" horiz-adv-x="735" d="M115 -453l241 1084l88 12l-24 -1087q-6 -67 -55.5 -113.5t-116.5 -46.5q-63 0 -102 44t-31 107zM276 967q0 70 49.5 119t118.5 49q68 0 118 -49t50 -119q0 -69 -50 -118.5t-118 -49.5q-69 0 -118.5 49.5t-49.5 118.5z" />
<glyph unicode="&#xa2;" horiz-adv-x="847" d="M39 530q0 148 70 303t185.5 268.5t240.5 145.5l34 197h82l-33 -187q88 0 144.5 -35t56.5 -114q0 -70 -63.5 -112t-137.5 -42l-14 19q27 49 27 102q0 58 -31 80l-137 -784q120 45 213 235l55 -26q-47 -125 -121.5 -219.5t-173.5 -139.5l-39 -221h-82l33 193q-40 -9 -82 -9 q-107 0 -167 93.5t-60 252.5zM287 551q0 -177 92 -193l137 787q-93 -54 -161 -223.5t-68 -370.5z" />
<glyph unicode="&#xa3;" horiz-adv-x="1232" d="M20 121l25 31q58 -20 105 -20t76 14.5t49.5 41.5t30 55t13.5 62q20 180 29 344h-227l6 56l225 43q16 267 31 393q13 98 66 177.5t130 128.5t165 75t176 26q128 0 198.5 -56.5t57.5 -158.5q-9 -62 -67 -103.5t-120 -41.5l-8 14q16 53 16 111q0 103 -55 153 q-109 0 -184.5 -60t-85.5 -159q-8 -71 -18 -236t-23 -261h467l-33 -101h-447q-38 -282 -212 -442l2 -10q106 -12 194 -39.5t134.5 -52.5t102 -44.5t107.5 -19.5q150 0 180 156l50 -7q20 -187 -43 -295t-187 -108q-60 0 -112.5 26.5t-98 67.5t-93 84t-119.5 84t-156 60 q-58 -132 -197 -132q-45 0 -92 35.5t-58 108.5z" />
<glyph unicode="&#xa4;" horiz-adv-x="1243" d="M113 279l157 133q-75 112 -57 256q15 138 117 252l-125 135l114 102l113 -149q116 69 238 69q123 0 221 -69l149 149l90 -102l-157 -135q72 -112 57 -252q-18 -145 -123 -256l125 -133l-114 -103l-115 150q-113 -66 -234 -66q-122 0 -215 68l-151 -152zM393 668 q-15 -120 40 -195.5t153 -75.5q100 0 174.5 75t89.5 196q15 123 -41 197.5t-156 74.5q-98 0 -171.5 -75t-88.5 -197z" />
<glyph unicode="&#xa5;" horiz-adv-x="1429" d="M20 498l33 98h426l-254 625q-39 97 -98 118l-78 27l8 68h666l-6 -64l-133 -37q-72 -20 -72 -78q0 -18 10 -45l201 -528l346 535q29 48 29 69q0 38 -43 49l-133 35l6 64h481l-6 -62l-80 -29q-19 -7 -37.5 -22.5t-28.5 -27.5t-28.5 -36.5t-24.5 -31.5l-440 -629h442 l-32 -98h-422l-33 -267q-10 -75 28.5 -110t151.5 -35l6 -16l-16 -70h-664l11 86q109 0 154.5 35t53.5 110l33 267h-457z" />
<glyph unicode="&#xa6;" horiz-adv-x="356" d="M113 307h131v-758h-131v758zM113 614v758h131v-758h-131z" />
<glyph unicode="&#xa7;" horiz-adv-x="1198" d="M59 434q15 126 104 231t212 152q-60 99 -43 240q9 73 45 137.5t86 109t108 77t112 48t97 15.5q109 0 187 -21t120.5 -67t34.5 -115q-7 -59 -55.5 -99t-103.5 -40q-47 0 -76 26q25 213 -129 213q-34 0 -69 -9.5t-71 -31t-62 -63t-32 -98.5q-7 -65 25.5 -116t90.5 -86 t129 -67.5t141 -72t126 -88t85.5 -125.5t17.5 -176q-17 -126 -106 -231t-212 -152q62 -97 45 -240q-9 -73 -45 -137.5t-86 -109t-108 -77t-112 -48t-97 -15.5q-109 0 -187 21t-120.5 67t-34.5 115q7 59 56 99t104 40q45 0 75 -27q-25 -213 129 -213q34 0 69 10t71 31t62 63 t32 99q6 52 -13 94t-56 73t-86.5 58t-104.5 53t-110 54t-103 65.5t-83 82t-51.5 109t-7.5 142.5zM268 516q-8 -61 24 -109t92 -84t125.5 -67.5t140.5 -76t122 -93.5q60 36 104 97t54 143q8 61 -24 108.5t-92 83.5t-126 67.5t-141.5 76t-122.5 92.5q-59 -34 -102.5 -95 t-53.5 -143z" />
<glyph unicode="&#xa8;" horiz-adv-x="942" d="M113 1280q0 62 45 107t106 45q62 0 107 -45t45 -107q0 -63 -45 -107.5t-107 -44.5t-106.5 44.5t-44.5 107.5zM526 1280q0 62 45 107t107 45q61 0 106 -45t45 -107q0 -63 -44.5 -107.5t-106.5 -44.5t-107 44.5t-45 107.5z" />
<glyph unicode="&#xa9;" horiz-adv-x="1548" d="M102 717q0 134 53.5 258.5t143.5 215t214.5 144.5t260.5 54q182 0 337 -90t245 -245t90 -337q0 -134 -53.5 -258.5t-143.5 -215t-214.5 -144.5t-260.5 -54q-182 0 -337 90t-245 245t-90 337zM182 717q0 -159 80 -295.5t216.5 -216.5t295.5 -80q165 0 301 78t213.5 213.5 t77.5 300.5q0 159 -80 295.5t-216.5 216.5t-295.5 80q-165 0 -301 -78t-213.5 -213.5t-77.5 -300.5zM356 705q0 191 126 297t321 106q26 0 91.5 -7t82.5 -7q43 0 63 12l15 -10l-39 -193l-10 -6h-23q-7 67 -61.5 104t-118.5 37q-115 0 -183.5 -92t-68.5 -241t68.5 -240.5 t183.5 -91.5q25 0 50.5 4.5t62.5 17.5t71 44t57 77l25 -8l2 -8l-37 -156q-33 -18 -103.5 -29.5t-127.5 -11.5q-196 0 -321.5 105.5t-125.5 296.5z" />
<glyph unicode="&#xaa;" horiz-adv-x="700" d="M39 623l14 90h606l-14 -90h-606zM53 1018q3 93 53 187.5t127.5 155t155.5 60.5q43 0 78 -10l6 33h141l7 -4l-82 -463q-5 -30 0.5 -42.5t23.5 -12.5q20 0 41 30t25 70l30 -2q-4 -85 -55 -143t-117 -58q-50 0 -78.5 47.5t-5.5 132.5l27 103h-16q-96 -283 -234 -283 q-63 0 -96.5 52.5t-30.5 146.5zM209 1030q-2 -40 4 -65t14 -33t17 -8q60 0 129 180q18 45 35.5 98.5t32.5 104.5t18 59l-10 8q-60 -3 -115 -56t-88 -131t-37 -157z" />
<glyph unicode="&#xab;" horiz-adv-x="1255" d="M113 524l2 23l528 520l72 -84l4 -29l-385 -417l278 -437l-8 -26l-108 -70zM526 524l2 23l529 520l71 -84l5 -29l-385 -417l278 -437l-8 -26l-109 -70z" />
<glyph unicode="&#xac;" horiz-adv-x="1304" d="M113 678v162h1079v-625h-162v463h-917z" />
<glyph unicode="&#xad;" horiz-adv-x="894" d="M113 455l18 161h651l-18 -161h-651z" />
<glyph unicode="&#xae;" horiz-adv-x="837" d="M102 1126q0 135 90.5 227.5t223.5 92.5q137 0 228 -92t91 -228q0 -132 -91 -222.5t-228 -90.5q-133 0 -223.5 91t-90.5 222zM152 1126q0 -111 76 -188.5t188 -77.5q120 0 195 75.5t75 190.5q0 116 -77 194.5t-193 78.5t-190 -77t-74 -196zM252 965v28q45 0 45 35v205 q0 19 -10 27t-35 8v28h162q69 0 97 -26t28 -64q0 -34 -20 -58t-60 -28v-8q39 -2 59 -51q15 -33 29.5 -48.5t36.5 -15.5q6 0 18 4l6 -6l-4 -10q-26 -22 -67 -22q-35 0 -53.5 17t-30.5 48q-2 5 -8 18l-9 19.5t-10 15.5t-16 15q-14 14 -39 14v-82q0 -18 10 -26.5t35 -8.5l8 -8 l-8 -20h-164zM371 1141h18q38 0 56 18.5t18 48.5q0 25 -13 42.5t-40 17.5q-22 0 -30.5 -8t-8.5 -27v-92z" />
<glyph unicode="&#xaf;" horiz-adv-x="1077" d="M215 1182l27 157h743l-27 -157h-743z" />
<glyph unicode="&#xb0;" horiz-adv-x="774" d="M113 1016q0 114 80 194t194 80t194.5 -80t80.5 -194t-80.5 -194.5t-194.5 -80.5t-194 80.5t-80 194.5zM205 1016q0 -75 53.5 -128.5t128.5 -53.5q76 0 128 53t52 129t-51.5 128t-128.5 52q-76 0 -129 -52t-53 -128z" />
<glyph unicode="&#xb1;" horiz-adv-x="1304" d="M113 0v162h1079v-162h-1079zM113 717v162h456v458h166v-458h457v-162h-457v-459h-166v459h-456z" />
<glyph unicode="&#xb2;" horiz-adv-x="827" d="M51 915l10 86q33 19 91.5 51.5t92.5 52t76.5 48t73.5 55.5q116 102 135 273q11 99 -24 147.5t-100 48.5q-43 0 -87 -20l-8 -10l-43 -138l-8 -6q-45 0 -74.5 24t-23.5 70q6 50 52 84t103 47t119 13q92 0 156.5 -20.5t97 -58t43.5 -83t2 -100.5q-6 -40 -20 -77.5t-35 -68.5 t-43 -57.5t-52 -50.5t-55 -42t-58.5 -37t-55 -30t-53 -26.5t-44.5 -22.5l-2 -14h250q58 0 96 21.5t78 92.5h21l4 -10l-57 -242h-658z" />
<glyph unicode="&#xb3;" horiz-adv-x="778" d="M53 1057q5 43 45.5 68.5t77.5 25.5l6 -8l11 -125l6 -10q48 -23 88 -23q94 0 148 48t61 112q10 83 -38.5 132.5t-158.5 49.5q-36 0 -63 -8l6 67q139 18 196.5 58.5t67.5 111.5q16 132 -119 132q-45 0 -82 -19l-10 -10l-41 -135l-12 -8q-36 0 -69 25.5t-28 68.5 q4 38 31.5 66.5t68.5 44t85.5 23t89.5 7.5q171 0 238.5 -50.5t56.5 -139.5q-4 -27 -16.5 -51.5t-39.5 -51t-80 -43.5t-126 -20v-9q66 -3 115 -18t77 -36t44 -50t19.5 -56t0.5 -57q-13 -104 -122 -179t-304 -75q-102 0 -170 34.5t-60 107.5z" />
<glyph unicode="&#xb4;" horiz-adv-x="653" d="M113 1182l245 456q65 0 111 -34q46 -32 72 -95l-357 -381l-41 19z" />
<glyph unicode="&#xb5;" horiz-adv-x="1263" d="M-51 -602l164 924v2l118 667l236 33h33l-117 -657q-43 -238 149 -238q17 0 40.5 5t60.5 18t77 45.5t72 78.5l123 697l238 51h35l-152 -852l166 -35l-10 -57l-439 -119l-14 14l35 199q-150 -199 -379 -199q-71 0 -127 21l-31 -563l-241 -35h-37z" />
<glyph unicode="&#xb6;" horiz-adv-x="1531" d="M170 969q18 154 110 284.5t232.5 206.5t294.5 76h561l-10 -72l-10 -8q-147 -6 -170 -8l-213 -1720q-9 -71 -37 -128.5t-65 -93.5t-82.5 -61t-87.5 -35t-81 -10q-121 0 -194.5 57t-61.5 158q8 68 64.5 105.5t120.5 37.5l12 -12l25 -264l14 -10q240 0 268 254l209 1697 q-108 -43 -121 -161l-104 -861h-176q-154 0 -275.5 76t-181.5 207t-41 285z" />
<glyph unicode="&#xb7;" horiz-adv-x="561" d="M113 535q0 69 50 118t118 49q69 0 118.5 -49t49.5 -118q0 -70 -49.5 -119t-118.5 -49q-68 0 -118 49t-50 119z" />
<glyph unicode="&#xb8;" horiz-adv-x="696" d="M115 -485q8 48 46 71t72 23q-25 -166 109 -166q39 0 66 17.5t32 45.5q3 16 -14.5 36.5t-43.5 43.5t-51 51.5t-38.5 72t-5.5 93.5q9 55 36.5 99t64 69.5t55 35.5t34.5 16l15 -37q-60 -41 -72 -123q-5 -31 12.5 -57t45 -47t54.5 -45.5t42 -64t6 -89.5q-11 -72 -86.5 -124 t-178.5 -52q-105 0 -157 36.5t-43 94.5z" />
<glyph unicode="&#xb9;" horiz-adv-x="628" d="M51 922l8 67q96 0 130.5 19.5t39.5 62.5l58 475q6 43 -22 62.5t-115 19.5l8 68l329 45h19l-82 -670q-5 -44 24 -63t127 -19l3 -10l-11 -57h-516z" />
<glyph unicode="&#xba;" horiz-adv-x="761" d="M39 623l16 90h588l-16 -90h-588zM131 1130q22 134 117 224t227 90t198 -90t44 -224q-24 -134 -120 -223.5t-230 -89.5q-131 0 -195.5 89.5t-40.5 223.5zM301 1130q-21 -114 2.5 -182.5t73.5 -68.5q51 0 99 68t69 183q19 112 -5.5 182t-74.5 70q-51 0 -97.5 -69 t-66.5 -183z" />
<glyph unicode="&#xbb;" horiz-adv-x="1257" d="M123 100l389 437l-283 417l9 29l92 84l401 -520l-2 -23l-510 -520l-92 70zM537 100l389 437l-283 417l8 29l92 84l402 -520l-2 -23l-510 -520l-92 70z" />
<glyph unicode="&#xbc;" horiz-adv-x="1390" d="M51 717l8 67q96 0 130.5 19.5t39.5 62.5l60 475q5 43 -22.5 62.5t-114.5 19.5l8 68l329 45h19l-84 -670q-5 -44 24 -63t127 -19l5 -10l-13 -57h-516zM164 0l1053 1536h122l-1052 -1536h-123zM608 223l6 45l451 551h156l-60 -481h158l-31 -115h-141l-10 -73 q-5 -45 21 -64.5t112 -19.5l4 -11l-12 -55h-471l8 66q82 0 113 20t36 64l10 73h-350zM745 338h226l43 326z" />
<glyph unicode="&#xbd;" horiz-adv-x="1536" d="M51 717l8 67q96 0 130.5 19.5t39.5 62.5l60 475q5 43 -22.5 62.5t-114.5 19.5l8 68l329 45h19l-84 -670q-5 -44 24 -63t127 -19l5 -10l-13 -57h-516zM168 0l1053 1536h122l-1052 -1536h-123zM760 0l10 86q33 19 91.5 51.5t92.5 52t76.5 48t73.5 55.5q116 102 135 272 q11 99 -24.5 148t-100.5 49q-40 0 -86 -21l-8 -10l-43 -137l-8 -6q-46 0 -75.5 24t-23.5 70q6 50 52 83.5t103.5 46.5t119.5 13q92 0 156.5 -20.5t97 -58t43.5 -83t2 -100.5q-7 -45 -25 -87t-39 -73.5t-53.5 -63t-59 -52t-66 -44t-62.5 -35.5t-61 -31l-50 -25l-2 -15h250 q58 0 96 22t78 93h20l5 -10l-58 -242h-657z" />
<glyph unicode="&#xbe;" horiz-adv-x="1423" d="M53 852q5 43 45.5 68.5t77.5 25.5l6 -8l11 -125l6 -10q48 -23 88 -23q94 0 148.5 48t62.5 112q10 82 -39 132t-160 50q-36 0 -63 -8l6 68q139 18 197.5 58.5t66.5 111.5q16 131 -119 131q-43 0 -82 -19l-10 -10l-41 -135l-10 -8q-36 0 -70 25.5t-29 68.5q10 72 92 106.5 t183 34.5q171 0 238 -50.5t57 -139.5q-3 -26 -15.5 -51t-39.5 -51.5t-80.5 -43.5t-126.5 -20v-8q82 -4 138 -25t81 -53.5t33.5 -66.5t3.5 -72q-6 -49 -34.5 -93t-78.5 -80.5t-130 -58.5t-181 -22q-65 0 -116.5 12.5t-86.5 45.5t-29 83zM199 0l1050 1536h123l-1050 -1536 h-123zM643 223l4 45l451 551h155l-59 -481h158l-29 -115h-141l-11 -73q-5 -45 21.5 -64.5t112.5 -19.5l2 -11l-11 -55h-471l9 66q82 0 113 20t36 64l10 73h-350zM780 338h226l41 324z" />
<glyph unicode="&#xbf;" horiz-adv-x="1009" d="M117 -281q9 74 49.5 140t98 114.5t125 93t135 85t124 81t94.5 89.5t45 102q7 59 -23.5 93t-74.5 34q-78 0 -121 -44.5t-51 -109.5l-20 -14q-31 14 -46.5 45.5t-11.5 71.5q6 61 71 110t151 49q26 0 53.5 -5t62 -21t59 -41.5t37.5 -71t5 -104.5q-9 -66 -40 -128t-74 -111.5 t-92.5 -97t-99 -92.5t-91 -89t-70.5 -95t-35 -104q-4 -48 -2 -83.5t15.5 -60.5t28 -41t35 -24.5t37 -12t33.5 -3.5q40 0 84 12l15 10l88 252l16 12q64 0 111 -37.5t39 -105.5q-8 -63 -49 -109t-102.5 -69t-124.5 -33t-132 -10q-173 0 -272.5 78.5t-79.5 244.5zM551 967 q0 70 49.5 119t118.5 49q68 0 118 -49t50 -119q0 -69 -50 -118.5t-118 -49.5q-69 0 -118.5 49.5t-49.5 118.5z" />
<glyph unicode="&#xc0;" horiz-adv-x="1529" d="M10 0l8 61l76 29q34 13 58.5 34t35 38t25.5 47l600 1225l252 22l12 -10l269 -1233q17 -91 96 -119l78 -26l-9 -68h-655l8 63l131 37q36 10 50 25.5t14 40.5q0 16 -8 57l-72 344h-459l-170 -350q-22 -51 -22 -74q0 -37 39 -45l139 -35l-8 -63h-488zM557 659h401l-118 613z M616 1829q10 70 46 108q35 48 96 64l372 -391l-20 -41l-35 -29z" />
<glyph unicode="&#xc1;" horiz-adv-x="1529" d="M10 0l8 61l76 29q34 13 58.5 34t35 38t25.5 47l600 1225l252 22l12 -10l269 -1233q17 -91 96 -119l78 -26l-9 -68h-655l8 63l131 37q36 10 50 25.5t14 40.5q0 16 -8 57l-72 344h-459l-170 -350q-22 -51 -22 -74q0 -37 39 -45l139 -35l-8 -63h-488zM557 659h401l-118 613z M825 1610l357 379q61 -16 96 -64q38 -41 45 -108l-442 -277l-35 29z" />
<glyph unicode="&#xc2;" horiz-adv-x="1529" d="M10 0l8 61l76 29q34 13 58.5 34t35 38t25.5 47l600 1225l252 22l12 -10l269 -1233q17 -91 96 -119l78 -26l-9 -68h-655l8 63l131 37q36 10 50 25.5t14 40.5q0 16 -8 57l-72 344h-459l-170 -350q-22 -51 -22 -74q0 -37 39 -45l139 -35l-8 -63h-488zM557 659h401l-118 613z M662 1591l307 391q37 11 61 11q23 0 60 -11l208 -391l-34 -35l-43 -18l-217 242l-265 -242l-45 18z" />
<glyph unicode="&#xc3;" horiz-adv-x="1529" d="M10 0l8 61l76 29q34 13 58.5 34t35 38t25.5 47l600 1225l252 22l12 -10l269 -1233q17 -91 96 -119l78 -26l-9 -68h-655l8 63l131 37q36 10 50 25.5t14 40.5q0 16 -8 57l-72 344h-459l-170 -350q-22 -51 -22 -74q0 -37 39 -45l139 -35l-8 -63h-488zM557 659h401l-118 613z M559 1587q50 82 117.5 144.5t136.5 76.5q57 0 176.5 -19.5t171.5 -19.5q80 0 193 95l37 -49q-51 -82 -118.5 -147t-135.5 -79q-58 0 -176.5 19.5t-172.5 19.5q-83 0 -190 -90z" />
<glyph unicode="&#xc4;" horiz-adv-x="1529" d="M10 0l8 61l76 29q34 13 58.5 34t35 38t25.5 47l600 1225l252 22l12 -10l269 -1233q17 -91 96 -119l78 -26l-9 -68h-655l8 63l131 37q36 10 50 25.5t14 40.5q0 16 -8 57l-72 344h-459l-170 -350q-22 -51 -22 -74q0 -37 39 -45l139 -35l-8 -63h-488zM557 659h401l-118 613z M612 1690q0 61 45 106t107 45t106.5 -44.5t44.5 -106.5q0 -63 -44.5 -107.5t-106.5 -44.5t-107 44.5t-45 107.5zM1026 1690q0 61 45 106t107 45t106.5 -44.5t44.5 -106.5q0 -63 -44.5 -107.5t-106.5 -44.5t-107 44.5t-45 107.5z" />
<glyph unicode="&#xc5;" horiz-adv-x="1529" d="M10 0l8 61l76 29q34 13 58.5 34t35 38t25.5 47l598 1223q-67 33 -107 97.5t-40 143.5q0 112 79.5 191.5t190.5 79.5q112 0 191 -79t79 -192q0 -72 -34.5 -132.5t-92.5 -96.5l269 -1231q17 -91 96 -119l78 -26l-9 -68h-655l8 63l131 37q36 10 50 25.5t14 40.5q0 16 -8 57 l-72 344h-459l-170 -350q-22 -51 -22 -74q0 -37 39 -45l139 -35l-8 -63h-488zM557 659h401l-118 613zM776 1673q0 -67 46.5 -112t111.5 -45t111.5 45t46.5 112q0 65 -47 111.5t-111 46.5t-111 -46.5t-47 -111.5z" />
<glyph unicode="&#xc6;" horiz-adv-x="1974" d="M10 0l6 61l68 29q80 33 131 119l666 1130q-35 9 -84 9l10 86h1124l25 -19l-109 -313l-16 -10h-43q0 130 -59.5 192t-182.5 64h-116q-99 0 -142 -36t-51 -110l-55 -434h262q81 0 123.5 45.5t56.5 169.5h86l-59 -494l-72 -8l-14 8q13 106 -19 146.5t-112 40.5h-263 l-55 -445q-8 -72 22.5 -108.5t116.5 -36.5h193q34 0 78.5 10.5t103.5 36t120.5 80.5t107.5 131l38 -14l7 -19l-119 -311h-1151l10 86q101 0 146 35.5t53 109.5l41 340h-324l-207 -354q-28 -47 -28 -74q0 -36 30 -45l150 -35l-6 -63h-488zM600 659h295l68 543q3 40 -2 64z " />
<glyph unicode="&#xc7;" horiz-adv-x="1460" d="M100 715q20 182 99.5 327t200 236t269.5 138.5t316 47.5q47 0 166 -14t152 -14q69 0 112 26l25 -18l-111 -326l-16 -10h-43q0 63 -27 113.5t-70.5 81t-95 46t-104.5 15.5q-230 0 -381.5 -174.5t-188.5 -474.5q-35 -297 74.5 -469t339.5 -172q46 0 91 7t113.5 30t136 79 t118.5 140l49 -15l6 -18l-98 -256q-66 -30 -196.5 -51t-227.5 -21q-12 0 -33 1t-31 1q-44 -41 -53 -108q-5 -31 12.5 -57t45 -47t54.5 -45.5t42 -64t6 -89.5q-11 -72 -86 -124t-178 -52q-105 0 -157.5 36.5t-43.5 94.5q8 48 46.5 71t72.5 23q-25 -166 108 -166q40 0 67 17.5 t32 45.5q3 16 -14.5 36.5t-43.5 43.5t-51 51.5t-39 72t-6 93.5q15 107 109 177q-289 37 -446 225.5t-122 509.5z" />
<glyph unicode="&#xc8;" horiz-adv-x="1353" d="M20 0l11 86q99 0 143.5 35.5t52.5 109.5l121 971q9 74 -28 110t-138 36l11 86h1118l24 -19l-108 -313l-19 -10h-43q3 134 -58 195t-192 61h-100q-98 0 -140 -35.5t-52 -110.5l-56 -434h256q81 0 122.5 45t55.5 170h86l-59 -494l-72 -8l-14 8q13 106 -18 146.5t-111 40.5 h-256l-55 -445q-9 -72 22.5 -108.5t116.5 -36.5h184q34 0 78.5 10.5t103.5 36t120.5 80.5t107.5 131l39 -14l6 -19l-119 -311h-1141zM637 1829q10 71 45 108q35 48 96 64l373 -391l-21 -41l-34 -29z" />
<glyph unicode="&#xc9;" horiz-adv-x="1353" d="M20 0l11 86q99 0 143.5 35.5t52.5 109.5l121 971q9 74 -28 110t-138 36l11 86h1118l24 -19l-108 -313l-19 -10h-43q3 134 -58 195t-192 61h-100q-98 0 -140 -35.5t-52 -110.5l-56 -434h256q81 0 122.5 45t55.5 170h86l-59 -494l-72 -8l-14 8q13 106 -18 146.5t-111 40.5 h-256l-55 -445q-9 -72 22.5 -108.5t116.5 -36.5h184q34 0 78.5 10.5t103.5 36t120.5 80.5t107.5 131l39 -14l6 -19l-119 -311h-1141zM727 1610l356 379q62 -17 97 -64q38 -41 45 -108l-443 -277l-34 29z" />
<glyph unicode="&#xca;" horiz-adv-x="1353" d="M20 0l11 86q99 0 143.5 35.5t52.5 109.5l121 971q9 74 -28 110t-138 36l11 86h1118l24 -19l-108 -313l-19 -10h-43q3 134 -58 195t-192 61h-100q-98 0 -140 -35.5t-52 -110.5l-56 -434h256q81 0 122.5 45t55.5 170h86l-59 -494l-72 -8l-14 8q13 106 -18 146.5t-111 40.5 h-256l-55 -445q-9 -72 22.5 -108.5t116.5 -36.5h184q34 0 78.5 10.5t103.5 36t120.5 80.5t107.5 131l39 -14l6 -19l-119 -311h-1141zM537 1591l307 391q37 11 61 11q23 0 60 -11l209 -391l-35 -35l-43 -18l-217 242l-265 -242l-45 18z" />
<glyph unicode="&#xcb;" horiz-adv-x="1353" d="M20 0l11 86q99 0 143.5 35.5t52.5 109.5l121 971q9 74 -28 110t-138 36l11 86h1118l24 -19l-108 -313l-19 -10h-43q3 134 -58 195t-192 61h-100q-98 0 -140 -35.5t-52 -110.5l-56 -434h256q81 0 122.5 45t55.5 170h86l-59 -494l-72 -8l-14 8q13 106 -18 146.5t-111 40.5 h-256l-55 -445q-9 -72 22.5 -108.5t116.5 -36.5h184q34 0 78.5 10.5t103.5 36t120.5 80.5t107.5 131l39 -14l6 -19l-119 -311h-1141zM516 1690q0 61 45 106t107 45t106.5 -44.5t44.5 -106.5q0 -63 -44.5 -107.5t-106.5 -44.5t-107 44.5t-45 107.5zM930 1690q0 62 45 106.5 t106 44.5q62 0 107 -45t45 -106q0 -63 -45 -107.5t-107 -44.5t-106.5 44.5t-44.5 107.5z" />
<glyph unicode="&#xcc;" horiz-adv-x="856" d="M20 0l11 86q99 0 143.5 35.5t52.5 109.5l121 971q9 74 -28 110t-138 36l11 86h643v-70l-11 -16q-105 0 -148.5 -35.5t-53.5 -110.5l-121 -971q-9 -74 27.5 -109.5t142.5 -35.5l6 -16l-16 -70h-642zM260 1829q10 71 45 108q35 48 96 64l373 -391l-20 -41l-35 -29z" />
<glyph unicode="&#xcd;" horiz-adv-x="856" d="M20 0l11 86q99 0 143.5 35.5t52.5 109.5l121 971q9 74 -28 110t-138 36l11 86h643v-70l-11 -16q-105 0 -148.5 -35.5t-53.5 -110.5l-121 -971q-9 -74 27.5 -109.5t142.5 -35.5l6 -16l-16 -70h-642zM365 1610l356 379q61 -16 96 -64q38 -41 45 -108l-442 -277l-35 29z" />
<glyph unicode="&#xce;" horiz-adv-x="856" d="M20 0l11 86q99 0 143.5 35.5t52.5 109.5l121 971q9 74 -28 110t-138 36l11 86h643v-70l-11 -16q-105 0 -148.5 -35.5t-53.5 -110.5l-121 -971q-9 -74 27.5 -109.5t142.5 -35.5l6 -16l-16 -70h-642zM227 1591l308 391q37 11 61 11q22 0 59 -11l209 -391l-35 -35l-43 -18 l-217 242l-264 -242l-45 18z" />
<glyph unicode="&#xcf;" horiz-adv-x="856" d="M20 0l11 86q99 0 143.5 35.5t52.5 109.5l121 971q9 74 -28 110t-138 36l11 86h643v-70l-11 -16q-105 0 -148.5 -35.5t-53.5 -110.5l-121 -971q-9 -74 27.5 -109.5t142.5 -35.5l6 -16l-16 -70h-642zM182 1690q0 61 45 106t107 45t106.5 -44.5t44.5 -106.5 q0 -63 -44.5 -107.5t-106.5 -44.5t-107 44.5t-45 107.5zM596 1690q0 61 45 106t107 45t106.5 -44.5t44.5 -106.5q0 -63 -44.5 -107.5t-106.5 -44.5t-107 44.5t-45 107.5z" />
<glyph unicode="&#xd0;" horiz-adv-x="1724" d="M20 0l9 86q100 0 145 35.5t53 109.5l54 437h-201l33 98h180l55 436q9 74 -28 110t-138 36l11 86q141 0 390.5 5t325.5 5q171 0 310.5 -47.5t237.5 -137t143 -229.5t24 -315t-100 -314t-199.5 -228t-272.5 -136t-323 -47q-74 0 -321 5t-388 5zM502 231q-9 -74 26 -109.5 t134 -35.5h79q239 0 393.5 171t188.5 458q34 289 -77 461t-349 172h-102q-86 -1 -125 -38t-47 -108l-56 -436h209l-33 -98h-188z" />
<glyph unicode="&#xd1;" horiz-adv-x="1759" d="M20 0l11 86q99 0 143 35.5t53 109.5l121 979q8 67 -29.5 102.5t-136.5 35.5l11 86h458l656 -1000l94 768q10 75 -33.5 110.5t-169.5 35.5l10 86h531v-70l-10 -16q-105 0 -149 -35.5t-54 -110.5l-148 -1202h-106l-803 1186l-119 -955q-10 -76 33.5 -110.5t175.5 -34.5 l6 -16l-16 -70h-529zM616 1587q50 82 117.5 144.5t136.5 76.5q57 0 177 -19.5t172 -19.5q79 0 192 95l37 -49q-51 -82 -118.5 -147t-135.5 -79q-58 0 -176 19.5t-172 19.5q-84 0 -191 -90z" />
<glyph unicode="&#xd2;" d="M100 715q27 223 142 394t292.5 263t389.5 92q158 0 287.5 -54t214.5 -150.5t123 -237t18 -307.5q-27 -222 -142.5 -392.5t-293.5 -262t-390 -91.5q-158 0 -286.5 53.5t-214 150t-123 236.5t-17.5 306zM408 715q-22 -187 8 -331.5t117 -230t223 -85.5q134 0 242.5 85.5 t174.5 231t87 332.5q21 186 -10 331t-117.5 231.5t-219.5 86.5q-136 0 -244.5 -86.5t-173.5 -232t-87 -332.5zM668 1829q10 71 45 108q35 48 96 64l373 -391l-21 -41l-35 -29z" />
<glyph unicode="&#xd3;" d="M100 715q27 223 142 394t292.5 263t389.5 92q158 0 287.5 -54t214.5 -150.5t123 -237t18 -307.5q-27 -222 -142.5 -392.5t-293.5 -262t-390 -91.5q-158 0 -286.5 53.5t-214 150t-123 236.5t-17.5 306zM408 715q-22 -187 8 -331.5t117 -230t223 -85.5q134 0 242.5 85.5 t174.5 231t87 332.5q21 186 -10 331t-117.5 231.5t-219.5 86.5q-136 0 -244.5 -86.5t-173.5 -232t-87 -332.5zM807 1610l356 379q62 -17 97 -64q38 -41 45 -108l-443 -277l-35 29z" />
<glyph unicode="&#xd4;" d="M100 715q27 223 142 394t292.5 263t389.5 92q158 0 287.5 -54t214.5 -150.5t123 -237t18 -307.5q-27 -222 -142.5 -392.5t-293.5 -262t-390 -91.5q-158 0 -286.5 53.5t-214 150t-123 236.5t-17.5 306zM408 715q-22 -187 8 -331.5t117 -230t223 -85.5q134 0 242.5 85.5 t174.5 231t87 332.5q21 186 -10 331t-117.5 231.5t-219.5 86.5q-136 0 -244.5 -86.5t-173.5 -232t-87 -332.5zM641 1591l307 391q37 11 62 11q22 0 59 -11l209 -391l-35 -35l-43 -18l-217 242l-264 -242l-45 18z" />
<glyph unicode="&#xd5;" d="M100 715q27 223 142 394t292.5 263t389.5 92q158 0 287.5 -54t214.5 -150.5t123 -237t18 -307.5q-27 -222 -142.5 -392.5t-293.5 -262t-390 -91.5q-158 0 -286.5 53.5t-214 150t-123 236.5t-17.5 306zM408 715q-22 -187 8 -331.5t117 -230t223 -85.5q134 0 242.5 85.5 t174.5 231t87 332.5q21 186 -10 331t-117.5 231.5t-219.5 86.5q-136 0 -244.5 -86.5t-173.5 -232t-87 -332.5zM563 1587q50 82 117.5 144.5t136.5 76.5q57 0 176.5 -19.5t171.5 -19.5q80 0 193 95l37 -49q-51 -82 -118.5 -147t-135.5 -79q-58 0 -176 19.5t-172 19.5 q-84 0 -191 -90z" />
<glyph unicode="&#xd6;" d="M100 715q27 223 142 394t292.5 263t389.5 92q158 0 287.5 -54t214.5 -150.5t123 -237t18 -307.5q-27 -222 -142.5 -392.5t-293.5 -262t-390 -91.5q-158 0 -286.5 53.5t-214 150t-123 236.5t-17.5 306zM408 715q-22 -187 8 -331.5t117 -230t223 -85.5q134 0 242.5 85.5 t174.5 231t87 332.5q21 186 -10 331t-117.5 231.5t-219.5 86.5q-136 0 -244.5 -86.5t-173.5 -232t-87 -332.5zM621 1690q0 62 44.5 106.5t106.5 44.5t107 -45t45 -106q0 -63 -45 -107.5t-107 -44.5t-106.5 44.5t-44.5 107.5zM1034 1690q0 61 45 106t107 45t106.5 -44.5 t44.5 -106.5q0 -63 -44.5 -107.5t-106.5 -44.5t-107 44.5t-45 107.5z" />
<glyph unicode="&#xd7;" horiz-adv-x="1280" d="M113 307l409 410l-409 411l116 117l410 -411l412 411l116 -117l-411 -411l411 -410l-116 -117l-412 410l-410 -410z" />
<glyph unicode="&#xd8;" d="M100 715q27 223 142 394t292.5 263t389.5 92q117 0 229 -32l61 104l89 -51l-54 -92q175 -86 261 -263.5t57 -414.5q-27 -222 -142.5 -392.5t-293.5 -262t-390 -91.5q-154 0 -284 51l-62 -108l-88 51l60 105q-151 93 -222.5 260.5t-44.5 386.5zM408 715q-36 -298 59 -475 l620 1077q-77 49 -174 49q-136 0 -244.5 -86.5t-173.5 -232t-87 -332.5zM532 152q90 -84 224 -84t242.5 85.5t174.5 231t87 332.5q19 168 -5.5 304.5t-91.5 223.5z" />
<glyph unicode="&#xd9;" horiz-adv-x="1595" d="M20 1348l11 86h667v-70l-10 -16q-82 0 -130 -18t-67.5 -48t-25.5 -80l-82 -651q-12 -81 -8 -144.5t13.5 -111.5t33.5 -83t51.5 -57.5t67 -36t80 -19t90.5 -5.5q84 0 155.5 23.5t133 75t103 142.5t56.5 216l82 651q9 73 -30.5 109.5t-139.5 36.5l10 86h494v-70l-10 -16 q-105 0 -149 -35.5t-54 -110.5l-78 -633q-18 -143 -68.5 -254t-112.5 -174.5t-139.5 -104t-142 -54t-127.5 -13.5q-112 0 -200 13.5t-172 53t-135.5 103.5t-75 171t-5.5 251l80 641q9 74 -28 110t-138 36zM618 1829q10 70 46 108q35 48 96 64l373 -391l-21 -41l-35 -29z" />
<glyph unicode="&#xda;" horiz-adv-x="1595" d="M20 1348l11 86h667v-70l-10 -16q-82 0 -130 -18t-67.5 -48t-25.5 -80l-82 -651q-12 -81 -8 -144.5t13.5 -111.5t33.5 -83t51.5 -57.5t67 -36t80 -19t90.5 -5.5q84 0 155.5 23.5t133 75t103 142.5t56.5 216l82 651q9 73 -30.5 109.5t-139.5 36.5l10 86h494v-70l-10 -16 q-105 0 -149 -35.5t-54 -110.5l-78 -633q-18 -143 -68.5 -254t-112.5 -174.5t-139.5 -104t-142 -54t-127.5 -13.5q-112 0 -200 13.5t-172 53t-135.5 103.5t-75 171t-5.5 251l80 641q9 74 -28 110t-138 36zM735 1610l357 379q61 -16 96 -64q38 -41 45 -108l-442 -277l-35 29z " />
<glyph unicode="&#xdb;" horiz-adv-x="1595" d="M20 1348l11 86h667v-70l-10 -16q-82 0 -130 -18t-67.5 -48t-25.5 -80l-82 -651q-12 -81 -8 -144.5t13.5 -111.5t33.5 -83t51.5 -57.5t67 -36t80 -19t90.5 -5.5q84 0 155.5 23.5t133 75t103 142.5t56.5 216l82 651q9 73 -30.5 109.5t-139.5 36.5l10 86h494v-70l-10 -16 q-105 0 -149 -35.5t-54 -110.5l-78 -633q-18 -143 -68.5 -254t-112.5 -174.5t-139.5 -104t-142 -54t-127.5 -13.5q-112 0 -200 13.5t-172 53t-135.5 103.5t-75 171t-5.5 251l80 641q9 74 -28 110t-138 36zM580 1591l307 391q37 11 61 11q23 0 60 -11l209 -391l-35 -35 l-43 -18l-217 242l-265 -242l-45 18z" />
<glyph unicode="&#xdc;" horiz-adv-x="1595" d="M20 1348l11 86h667v-70l-10 -16q-82 0 -130 -18t-67.5 -48t-25.5 -80l-82 -651q-12 -81 -8 -144.5t13.5 -111.5t33.5 -83t51.5 -57.5t67 -36t80 -19t90.5 -5.5q84 0 155.5 23.5t133 75t103 142.5t56.5 216l82 651q9 73 -30.5 109.5t-139.5 36.5l10 86h494v-70l-10 -16 q-105 0 -149 -35.5t-54 -110.5l-78 -633q-18 -143 -68.5 -254t-112.5 -174.5t-139.5 -104t-142 -54t-127.5 -13.5q-112 0 -200 13.5t-172 53t-135.5 103.5t-75 171t-5.5 251l80 641q9 74 -28 110t-138 36zM545 1690q0 62 44.5 106.5t106.5 44.5t107 -45t45 -106 q0 -63 -45 -107.5t-107 -44.5t-106.5 44.5t-44.5 107.5zM958 1690q0 61 45 106t107 45t107 -45t45 -106q0 -63 -45 -107.5t-107 -44.5t-107 44.5t-45 107.5z" />
<glyph unicode="&#xdd;" horiz-adv-x="1400" d="M20 1366l9 68h665l-6 -64l-133 -37q-72 -20 -72 -78q0 -16 11 -45l200 -528l346 535q29 48 29 69q0 38 -43 49l-133 35l6 64h481l-6 -62l-80 -29q-19 -7 -37 -22.5t-28.5 -27.5t-28.5 -36l-24 -32l-441 -631l-45 -363q-10 -75 28.5 -110t151.5 -35l7 -16l-17 -70h-663 l10 86q109 0 155 35t54 110l43 349l-262 641q-39 97 -99 118zM674 1610l356 379q61 -16 96 -64q38 -41 45 -108l-442 -277l-35 29z" />
<glyph unicode="&#xde;" horiz-adv-x="1394" d="M20 0l11 86q99 0 143.5 35.5t52.5 109.5l121 971q9 74 -28 110t-138 36l11 86h643v-70l-11 -16q-105 0 -149.5 -35.5t-52.5 -110.5l-13 -96q106 4 166 4q75 0 138 -6t128.5 -20.5t114 -42t85.5 -68.5t51.5 -103t4.5 -141q-12 -96 -60 -169.5t-114.5 -117t-157 -71 t-176 -37.5t-182.5 -10q-63 0 -94 2l-12 -95q-9 -74 27.5 -109.5t142.5 -35.5l6 -16l-16 -70h-642zM526 426q62 0 109.5 3.5t102 14t94.5 31.5t76 53t58.5 82t30.5 115q7 56 -0.5 99.5t-24.5 73t-49 50.5t-64 32.5t-80 18t-87 8t-94 1.5z" />
<glyph unicode="&#xdf;" horiz-adv-x="1314" d="M-451 -442q0 77 53 119t119 44l13 -12q-19 -32 -19 -74q0 -51 22.5 -99.5t53.5 -61.5q94 0 135 48.5t60 151.5l266 1475q25 140 86.5 226t176 130.5t292.5 44.5q94 0 168 -24.5t115.5 -63t62.5 -78.5t21 -77q0 -62 -24.5 -118t-61 -98.5t-74 -82.5t-68 -88.5t-37.5 -98.5 q-6 -40 9 -74t43.5 -57.5t66 -47.5t77 -45.5t75.5 -51.5t62 -64.5t36.5 -85.5t-0.5 -114q-24 -134 -143 -220t-267 -86q-19 0 -47.5 2t-80.5 13t-93 29t-72.5 55t-31.5 86q0 62 43.5 103.5t105.5 41.5l19 -16q-11 -25 -11 -58q0 -56 33.5 -102t87.5 -61q35 0 67 7.5t64 24.5 t55.5 51.5t32.5 81.5q8 42 -11 75.5t-55 58.5t-80 50t-87.5 55.5t-76.5 68t-47.5 95.5t-0.5 130q9 50 43 98.5t75 90.5t80.5 88.5t66 110.5t26.5 138q0 65 -42.5 118.5t-133.5 53.5q-137 0 -201 -51t-80 -145l-266 -1475q-18 -99 -64 -178t-109.5 -128t-138 -75t-153.5 -26 q-96 0 -166 47.5t-70 124.5z" />
<glyph unicode="&#xe0;" horiz-adv-x="1116" d="M41 322q6 122 60 249.5t135 226.5t184 162.5t201 63.5q78 0 139 -16l10 55h227l11 -8l-144 -809q-9 -49 2 -71.5t43 -22.5q34 0 71 54t46 122l49 -4q-9 -144 -95 -246.5t-187 -102.5q-87 0 -135.5 82.5t-10.5 231.5l47 178h-28q-34 -101 -73.5 -184.5t-89.5 -155 t-112.5 -112t-130.5 -40.5q-106 0 -166 94.5t-53 252.5zM285 342q-7 -103 15 -147.5t60 -44.5q111 0 238 317q49 122 90 257t57 208l-18 12q-114 -5 -214.5 -98.5t-159.5 -229t-68 -274.5zM489 1509q26 63 72 95q46 34 111 34l246 -456l-31 -35l-41 -19z" />
<glyph unicode="&#xe1;" horiz-adv-x="1116" d="M41 322q6 122 60 249.5t135 226.5t184 162.5t201 63.5q78 0 139 -16l10 55h227l11 -8l-144 -809q-9 -49 2 -71.5t43 -22.5q34 0 71 54t46 122l49 -4q-9 -144 -95 -246.5t-187 -102.5q-87 0 -135.5 82.5t-10.5 231.5l47 178h-28q-34 -101 -73.5 -184.5t-89.5 -155 t-112.5 -112t-130.5 -40.5q-106 0 -166 94.5t-53 252.5zM285 342q-7 -103 15 -147.5t60 -44.5q111 0 238 317q49 122 90 257t57 208l-18 12q-114 -5 -214.5 -98.5t-159.5 -229t-68 -274.5zM608 1182l246 456q65 0 111 -34q45 -31 71 -95l-356 -381l-41 19z" />
<glyph unicode="&#xe2;" horiz-adv-x="1116" d="M41 322q6 122 60 249.5t135 226.5t184 162.5t201 63.5q78 0 139 -16l10 55h227l11 -8l-144 -809q-9 -49 2 -71.5t43 -22.5q34 0 71 54t46 122l49 -4q-9 -144 -95 -246.5t-187 -102.5q-87 0 -135.5 82.5t-10.5 231.5l47 178h-28q-34 -101 -73.5 -184.5t-89.5 -155 t-112.5 -112t-130.5 -40.5q-106 0 -166 94.5t-53 252.5zM285 342q-7 -103 15 -147.5t60 -44.5q111 0 238 317q49 122 90 257t57 208l-18 12q-114 -5 -214.5 -98.5t-159.5 -229t-68 -274.5zM395 1182l310 463q33 10 61 10q26 0 59 -10l164 -463l-37 -35l-43 -19l-172 314 l-252 -314l-53 19z" />
<glyph unicode="&#xe3;" horiz-adv-x="1116" d="M41 322q6 122 60 249.5t135 226.5t184 162.5t201 63.5q78 0 139 -16l10 55h227l11 -8l-144 -809q-9 -49 2 -71.5t43 -22.5q34 0 71 54t46 122l49 -4q-9 -144 -95 -246.5t-187 -102.5q-87 0 -135.5 82.5t-10.5 231.5l47 178h-28q-34 -101 -73.5 -184.5t-89.5 -155 t-112.5 -112t-130.5 -40.5q-106 0 -166 94.5t-53 252.5zM268 1178q50 82 117.5 144.5t136.5 76.5q57 0 176.5 -19.5t171.5 -19.5q81 0 193 94l37 -49q-50 -82 -118 -146.5t-136 -78.5q-58 0 -176 19.5t-172 19.5q-83 0 -191 -91zM285 342q-7 -103 15 -147.5t60 -44.5 q111 0 238 317q49 122 90 257t57 208l-18 12q-114 -5 -214.5 -98.5t-159.5 -229t-68 -274.5z" />
<glyph unicode="&#xe4;" horiz-adv-x="1116" d="M41 322q6 122 60 249.5t135 226.5t184 162.5t201 63.5q78 0 139 -16l10 55h227l11 -8l-144 -809q-9 -49 2 -71.5t43 -22.5q34 0 71 54t46 122l49 -4q-9 -144 -95 -246.5t-187 -102.5q-87 0 -135.5 82.5t-10.5 231.5l47 178h-28q-34 -101 -73.5 -184.5t-89.5 -155 t-112.5 -112t-130.5 -40.5q-106 0 -166 94.5t-53 252.5zM285 342q-7 -103 15 -147.5t60 -44.5q111 0 238 317q49 122 90 257t57 208l-18 12q-114 -5 -214.5 -98.5t-159.5 -229t-68 -274.5zM344 1280q0 62 45 107t107 45q61 0 106 -45t45 -107q0 -63 -44.5 -107.5 t-106.5 -44.5t-107 44.5t-45 107.5zM758 1280q0 62 45 107t106 45t106.5 -45t45.5 -107q0 -63 -45 -107.5t-107 -44.5t-106.5 44.5t-44.5 107.5z" />
<glyph unicode="&#xe5;" horiz-adv-x="1116" d="M41 322q6 122 60 249.5t135 226.5t184 162.5t201 63.5q78 0 139 -16l10 55h227l11 -8l-144 -809q-9 -49 2 -71.5t43 -22.5q34 0 71 54t46 122l49 -4q-9 -144 -95 -246.5t-187 -102.5q-87 0 -135.5 82.5t-10.5 231.5l47 178h-28q-34 -101 -73.5 -184.5t-89.5 -155 t-112.5 -112t-130.5 -40.5q-106 0 -166 94.5t-53 252.5zM285 342q-7 -103 15 -147.5t60 -44.5q111 0 238 317q49 122 90 257t57 208l-18 12q-114 -5 -214.5 -98.5t-159.5 -229t-68 -274.5zM451 1399q0 112 79.5 191t190.5 79q113 0 191.5 -78.5t78.5 -191.5 q0 -114 -78.5 -192.5t-191.5 -78.5q-111 0 -190.5 79t-79.5 192zM563 1399q0 -67 46.5 -112.5t111.5 -45.5t111.5 45.5t46.5 112.5q0 64 -46.5 110.5t-111.5 46.5t-111.5 -46.5t-46.5 -110.5z" />
<glyph unicode="&#xe6;" horiz-adv-x="1404" d="M41 322q6 162 94.5 326.5t223 270t264.5 105.5q46 0 79 -3.5t90 -23.5t117 -57q131 109 262 109q89 0 147 -36t58 -116q0 -161 -130.5 -255t-383.5 -95q-20 -94 -20 -205q0 -192 110 -192q59 0 115.5 40t94.5 92t69 115l55 -26q-31 -84 -74.5 -153.5t-100.5 -125 t-131.5 -86.5t-158.5 -31q-101 0 -160 82t-67 224q-146 -306 -332 -306q-106 0 -166.5 94.5t-54.5 252.5zM287 342q-6 -101 16.5 -146.5t58.5 -45.5q120 0 265 378q47 120 82 244t39 160l-19 12q-114 -5 -215.5 -98.5t-160.5 -229.5t-66 -274zM874 604q78 2 140 32.5 t96.5 76t52 91t17.5 85.5q0 67 -64 67t-134 -100.5t-108 -251.5z" />
<glyph unicode="&#xe7;" horiz-adv-x="847" d="M-39 -485q8 48 46.5 71t72.5 23q-25 -166 108 -166q40 0 67 17.5t32 45.5q3 16 -14.5 36.5t-43.5 43.5t-51 51.5t-39 72t-6 93.5q14 102 107 174q-96 10 -148.5 102.5t-52.5 242.5q0 165 84 335t219.5 281t273.5 111q90 0 146.5 -35t56.5 -115q0 -70 -63.5 -112 t-137.5 -42l-14 19q27 49 27 102q0 76 -49 90q-70 0 -138.5 -84t-112.5 -228t-44 -302q0 -192 110 -192q59 0 115.5 40t94.5 92t69 115l55 -26q-60 -159 -161 -264.5t-240 -126.5q-55 -42 -64 -117q-5 -26 7 -49t32.5 -39t44.5 -37.5t44 -43t29.5 -56.5t2.5 -78 q-11 -72 -86 -124t-178 -52q-105 0 -157.5 36.5t-43.5 94.5z" />
<glyph unicode="&#xe8;" horiz-adv-x="849" d="M39 322q0 98 33.5 203.5t91.5 197.5t130 166t157 117t165 43q89 0 147 -36t58 -116q0 -161 -130.5 -255t-383.5 -95q-20 -94 -20 -205q0 -192 110 -192q59 0 115.5 40t94.5 92t69 115l55 -26q-31 -84 -74.5 -153.5t-100.5 -125t-131.5 -86.5t-158.5 -31q-107 0 -167 94 t-60 253zM319 604q78 2 140 32.5t96.5 76t52 91t17.5 85.5q0 67 -64 67t-134 -100.5t-108 -251.5zM389 1509q26 63 72 95q46 34 110 34l246 -456l-31 -35l-41 -19z" />
<glyph unicode="&#xe9;" horiz-adv-x="849" d="M39 322q0 98 33.5 203.5t91.5 197.5t130 166t157 117t165 43q89 0 147 -36t58 -116q0 -161 -130.5 -255t-383.5 -95q-20 -94 -20 -205q0 -192 110 -192q59 0 115.5 40t94.5 92t69 115l55 -26q-31 -84 -74.5 -153.5t-100.5 -125t-131.5 -86.5t-158.5 -31q-107 0 -167 94 t-60 253zM319 604q78 2 140 32.5t96.5 76t52 91t17.5 85.5q0 67 -64 67t-134 -100.5t-108 -251.5zM494 1182l245 456q65 0 111 -34q46 -32 72 -95l-357 -381l-41 19z" />
<glyph unicode="&#xea;" horiz-adv-x="849" d="M39 322q0 98 33.5 203.5t91.5 197.5t130 166t157 117t165 43q89 0 147 -36t58 -116q0 -161 -130.5 -255t-383.5 -95q-20 -94 -20 -205q0 -192 110 -192q59 0 115.5 40t94.5 92t69 115l55 -26q-31 -84 -74.5 -153.5t-100.5 -125t-131.5 -86.5t-158.5 -31q-107 0 -167 94 t-60 253zM254 1182l309 463q33 10 62 10q26 0 59 -10l164 -463l-37 -35l-43 -19l-172 314l-252 -314l-53 19zM319 604q78 2 140 32.5t96.5 76t52 91t17.5 85.5q0 67 -64 67t-134 -100.5t-108 -251.5z" />
<glyph unicode="&#xeb;" horiz-adv-x="849" d="M39 322q0 98 33.5 203.5t91.5 197.5t130 166t157 117t165 43q89 0 147 -36t58 -116q0 -161 -130.5 -255t-383.5 -95q-20 -94 -20 -205q0 -192 110 -192q59 0 115.5 40t94.5 92t69 115l55 -26q-31 -84 -74.5 -153.5t-100.5 -125t-131.5 -86.5t-158.5 -31q-107 0 -167 94 t-60 253zM240 1280q0 62 45 107t106 45t106.5 -45t45.5 -107q0 -63 -45 -107.5t-107 -44.5t-106.5 44.5t-44.5 107.5zM319 604q78 2 140 32.5t96.5 76t52 91t17.5 85.5q0 67 -64 67t-134 -100.5t-108 -251.5zM653 1280q0 62 45.5 107t106.5 45t106 -45t45 -107 q0 -63 -44.5 -107.5t-106.5 -44.5t-107 44.5t-45 107.5z" />
<glyph unicode="&#xec;" horiz-adv-x="585" d="M41 940l424 109l10 -9l-141 -794q-9 -49 2 -71.5t43 -22.5q34 0 71 54t46 122l49 -4q-7 -147 -96 -248t-201 -101q-90 0 -137.5 81.5t-14.5 232.5l82 444q8 50 8 64q0 73 -135 73zM135 1509q26 63 72 95q46 34 110 34l246 -456l-31 -35l-40 -19z" />
<glyph unicode="&#xed;" horiz-adv-x="585" d="M41 940l424 109l10 -9l-141 -794q-9 -49 2 -71.5t43 -22.5q34 0 71 54t46 122l49 -4q-7 -147 -96 -248t-201 -101q-90 0 -137.5 81.5t-14.5 232.5l82 444q8 50 8 64q0 73 -135 73zM274 1182l246 456q65 0 111 -34q45 -31 71 -95l-356 -381l-41 19z" />
<glyph unicode="&#xee;" horiz-adv-x="585" d="M41 940l424 109l10 -9l-141 -794q-9 -49 2 -71.5t43 -22.5q34 0 71 54t46 122l49 -4q-7 -147 -96 -248t-201 -101q-90 0 -137.5 81.5t-14.5 232.5l82 444q8 50 8 64q0 73 -135 73zM88 1182l309 463q33 10 62 10q26 0 59 -10l164 -463l-37 -35l-43 -19l-172 314l-252 -314 l-53 19z" />
<glyph unicode="&#xef;" horiz-adv-x="585" d="M6 1280q0 62 45 107t107 45q61 0 106 -45t45 -107q0 -63 -44.5 -107.5t-106.5 -44.5t-107 44.5t-45 107.5zM41 940l424 109l10 -9l-141 -794q-9 -49 2 -71.5t43 -22.5q34 0 71 54t46 122l49 -4q-7 -147 -96 -248t-201 -101q-90 0 -137.5 81.5t-14.5 232.5l82 444 q8 50 8 64q0 73 -135 73zM420 1280q0 62 45 107t106 45t106.5 -45t45.5 -107q0 -63 -45 -107.5t-107 -44.5t-106.5 44.5t-44.5 107.5z" />
<glyph unicode="&#xf0;" horiz-adv-x="964" d="M39 377q-3 61 8 119q4 28 12 63.5t27.5 91t46 107t70.5 106t97 94.5t129.5 65.5t164.5 25.5q-55 106 -172 198l-254 -155l-16 102l186 113q-130 81 -289 147l41 84q218 -42 393 -141l285 174l16 -103l-213 -131q203 -151 289.5 -371.5t50.5 -453.5q-5 -33 -14.5 -71 t-30.5 -91.5t-48 -103t-70.5 -100.5t-95.5 -87.5t-125.5 -60t-157.5 -23.5q-70 0 -126.5 22.5t-92.5 61t-62.5 90t-36 109.5t-12.5 119zM286.5 355.5q-3.5 -73.5 3.5 -139.5t34 -104t73 -38q88 0 161.5 125.5t100.5 312.5q65 440 -94 440q-89 0 -160.5 -123.5t-101.5 -314.5 q-13 -85 -16.5 -158.5z" />
<glyph unicode="&#xf1;" horiz-adv-x="1130" d="M41 940l436 107l10 -9q-82 -213 -168 -571h25q32 110 79 211t106.5 185.5t133 135t148.5 50.5q104 0 154.5 -71.5t21.5 -227.5l-96 -504q-17 -94 33 -94q33 0 70 54t46 122l50 -4q-7 -147 -96 -248t-201 -101q-91 0 -133 77.5t-7 236.5l95 483q18 102 -58 102 q-73 0 -160.5 -130.5t-152.5 -333.5t-76 -396l-231 -24l-27 22l135 721q8 50 8 64q0 73 -135 73zM291 1178q50 82 117.5 144.5t136.5 76.5q57 0 176.5 -19.5t171.5 -19.5q80 0 192 94l37 -49q-50 -82 -118 -146.5t-136 -78.5q-58 0 -176 19.5t-172 19.5q-82 0 -190 -91z" />
<glyph unicode="&#xf2;" horiz-adv-x="962" d="M39 377q-3 61 8 119q4 28 12 63.5t27.5 91t46 107t70.5 106t97 94.5t129.5 65.5t164.5 25.5q70 0 127 -22.5t93 -61t62 -90t35 -109.5t12 -119t-8 -119q-4 -28 -12 -63.5t-28 -91t-46.5 -107t-70.5 -106t-97 -94.5t-129 -65.5t-163 -25.5q-70 0 -126.5 22.5t-92.5 61 t-62.5 90t-36 109.5t-12.5 119zM286.5 355.5q-3.5 -73.5 3.5 -139.5t34 -104t73 -38q88 0 161.5 125.5t100.5 312.5q65 440 -94 440q-89 0 -160.5 -123.5t-101.5 -314.5q-13 -85 -16.5 -158.5zM352 1509q26 63 72 95q46 34 111 34l245 -456l-30 -35l-41 -19z" />
<glyph unicode="&#xf3;" horiz-adv-x="962" d="M39 377q-3 61 8 119q4 28 12 63.5t27.5 91t46 107t70.5 106t97 94.5t129.5 65.5t164.5 25.5q70 0 127 -22.5t93 -61t62 -90t35 -109.5t12 -119t-8 -119q-4 -28 -12 -63.5t-28 -91t-46.5 -107t-70.5 -106t-97 -94.5t-129 -65.5t-163 -25.5q-70 0 -126.5 22.5t-92.5 61 t-62.5 90t-36 109.5t-12.5 119zM286.5 355.5q-3.5 -73.5 3.5 -139.5t34 -104t73 -38q88 0 161.5 125.5t100.5 312.5q65 440 -94 440q-89 0 -160.5 -123.5t-101.5 -314.5q-13 -85 -16.5 -158.5zM524 1182l246 456q65 0 111 -34q45 -31 71 -95l-356 -381l-41 19z" />
<glyph unicode="&#xf4;" horiz-adv-x="962" d="M39 377q-3 61 8 119q4 28 12 63.5t27.5 91t46 107t70.5 106t97 94.5t129.5 65.5t164.5 25.5q70 0 127 -22.5t93 -61t62 -90t35 -109.5t12 -119t-8 -119q-4 -28 -12 -63.5t-28 -91t-46.5 -107t-70.5 -106t-97 -94.5t-129 -65.5t-163 -25.5q-70 0 -126.5 22.5t-92.5 61 t-62.5 90t-36 109.5t-12.5 119zM286.5 355.5q-3.5 -73.5 3.5 -139.5t34 -104t73 -38q88 0 161.5 125.5t100.5 312.5q65 440 -94 440q-89 0 -160.5 -123.5t-101.5 -314.5q-13 -85 -16.5 -158.5zM295 1182l309 463q33 10 62 10q26 0 59 -10l164 -463l-37 -35l-43 -19l-172 314 l-252 -314l-53 19z" />
<glyph unicode="&#xf5;" horiz-adv-x="962" d="M39 377q-3 61 8 119q4 28 12 63.5t27.5 91t46 107t70.5 106t97 94.5t129.5 65.5t164.5 25.5q70 0 127 -22.5t93 -61t62 -90t35 -109.5t12 -119t-8 -119q-4 -28 -12 -63.5t-28 -91t-46.5 -107t-70.5 -106t-97 -94.5t-129 -65.5t-163 -25.5q-70 0 -126.5 22.5t-92.5 61 t-62.5 90t-36 109.5t-12.5 119zM184 1178q50 82 117.5 144.5t136.5 76.5q57 0 176.5 -19.5t171.5 -19.5q81 0 193 94l37 -49q-50 -82 -118 -146.5t-136 -78.5q-58 0 -176 19.5t-172 19.5q-83 0 -191 -91zM286.5 355.5q-3.5 -73.5 3.5 -139.5t34 -104t73 -38 q88 0 161.5 125.5t100.5 312.5q65 440 -94 440q-89 0 -160.5 -123.5t-101.5 -314.5q-13 -85 -16.5 -158.5z" />
<glyph unicode="&#xf6;" horiz-adv-x="962" d="M39 377q-3 61 8 119q4 28 12 63.5t27.5 91t46 107t70.5 106t97 94.5t129.5 65.5t164.5 25.5q70 0 127 -22.5t93 -61t62 -90t35 -109.5t12 -119t-8 -119q-4 -28 -12 -63.5t-28 -91t-46.5 -107t-70.5 -106t-97 -94.5t-129 -65.5t-163 -25.5q-70 0 -126.5 22.5t-92.5 61 t-62.5 90t-36 109.5t-12.5 119zM262 1280q0 62 45 107t107 45q61 0 106 -45t45 -107q0 -63 -44.5 -107.5t-106.5 -44.5t-107 44.5t-45 107.5zM286.5 355.5q-3.5 -73.5 3.5 -139.5t34 -104t73 -38q88 0 161.5 125.5t100.5 312.5q65 440 -94 440q-89 0 -160.5 -123.5 t-101.5 -314.5q-13 -85 -16.5 -158.5zM676 1280q0 62 45 107t106 45t106.5 -45t45.5 -107q0 -63 -45 -107.5t-107 -44.5t-106.5 44.5t-44.5 107.5z" />
<glyph unicode="&#xf7;" horiz-adv-x="1304" d="M113 453v161h1079v-161h-1079zM504 135q0 64 46 110t109 46q65 0 110.5 -45.5t45.5 -110.5q0 -66 -45.5 -110.5t-110.5 -44.5q-64 0 -109.5 45t-45.5 110zM504 934q0 64 46 110t109 46q65 0 110.5 -46t45.5 -110q0 -66 -45.5 -111t-110.5 -45q-64 0 -109.5 45.5 t-45.5 110.5z" />
<glyph unicode="&#xf8;" horiz-adv-x="962" d="M47 496q4 28 12 63.5t27.5 91t46 107t70.5 106t97 94.5t129.5 65.5t164.5 25.5q61 0 131 -25l49 88l76 -43l-51 -92q81 -70 108 -193.5t8 -255.5q-4 -28 -12 -63.5t-28 -91t-46.5 -107t-70.5 -106t-97 -94.5t-129 -65.5t-163 -25.5q-58 0 -119 21l-43 -80l-76 43l43 78 q-88 67 -118 194.5t-9 264.5zM287 240l364 651q-30 61 -86 61q-89 0 -160.5 -123.5t-101.5 -314.5q-24 -166 -16 -274zM319 119q28 -45 78 -45q88 0 161.5 125.5t100.5 312.5q22 154 17 246z" />
<glyph unicode="&#xf9;" horiz-adv-x="1157" d="M10 700q10 148 97 248.5t200 100.5q87 0 128.5 -80.5t10.5 -233.5l-96 -483q-21 -102 62 -102q52 0 117 80.5t121 203t97 279t48 297.5l227 24l27 -22l-131 -727q-9 -56 -9 -64q0 -74 135 -74l11 -65l-412 -107l-10 9l143 573h-24q-32 -110 -79 -211t-106 -185.5 t-132 -135t-148 -50.5q-104 0 -155 71.5t-21 227.5l98 504q17 94 -33 94q-36 0 -72 -53.5t-45 -122.5zM434 1509q26 63 72 95q46 34 110 34l246 -456l-31 -35l-40 -19z" />
<glyph unicode="&#xfa;" horiz-adv-x="1157" d="M10 700q10 148 97 248.5t200 100.5q87 0 128.5 -80.5t10.5 -233.5l-96 -483q-21 -102 62 -102q52 0 117 80.5t121 203t97 279t48 297.5l227 24l27 -22l-131 -727q-9 -56 -9 -64q0 -74 135 -74l11 -65l-412 -107l-10 9l143 573h-24q-32 -110 -79 -211t-106 -185.5 t-132 -135t-148 -50.5q-104 0 -155 71.5t-21 227.5l98 504q17 94 -33 94q-36 0 -72 -53.5t-45 -122.5zM602 1182l246 456q64 0 110 -34q46 -32 72 -95l-356 -381l-41 19z" />
<glyph unicode="&#xfb;" horiz-adv-x="1157" d="M10 700q10 148 97 248.5t200 100.5q87 0 128.5 -80.5t10.5 -233.5l-96 -483q-21 -102 62 -102q52 0 117 80.5t121 203t97 279t48 297.5l227 24l27 -22l-131 -727q-9 -56 -9 -64q0 -74 135 -74l11 -65l-412 -107l-10 9l143 573h-24q-32 -110 -79 -211t-106 -185.5 t-132 -135t-148 -50.5q-104 0 -155 71.5t-21 227.5l98 504q17 94 -33 94q-36 0 -72 -53.5t-45 -122.5zM371 1182l309 463q33 10 61 10q27 0 60 -10l164 -463l-37 -35l-43 -19l-172 314l-252 -314l-53 19z" />
<glyph unicode="&#xfc;" horiz-adv-x="1157" d="M10 700q10 148 97 248.5t200 100.5q87 0 128.5 -80.5t10.5 -233.5l-96 -483q-21 -102 62 -102q52 0 117 80.5t121 203t97 279t48 297.5l227 24l27 -22l-131 -727q-9 -56 -9 -64q0 -74 135 -74l11 -65l-412 -107l-10 9l143 573h-24q-32 -110 -79 -211t-106 -185.5 t-132 -135t-148 -50.5q-104 0 -155 71.5t-21 227.5l98 504q17 94 -33 94q-36 0 -72 -53.5t-45 -122.5zM305 1280q0 62 45.5 107t106.5 45t106 -45t45 -107q0 -63 -44.5 -107.5t-106.5 -44.5t-107 44.5t-45 107.5zM719 1280q0 62 45 107t106 45q62 0 107 -45t45 -107 q0 -63 -45 -107.5t-107 -44.5t-106.5 44.5t-44.5 107.5z" />
<glyph unicode="&#xfd;" horiz-adv-x="1060" d="M-205 -473q0 46 21 76l28 12q75 -37 152 -37q78 0 141 39.5t99.5 100.5t55.5 128.5t19 130.5l-98 852q-6 43 -37 43q-33 0 -67 -53.5t-43 -122.5l-50 4q9 148 94.5 248.5t196.5 100.5q53 0 97.5 -40t52.5 -122l78 -778l26 -7q107 105 186.5 286.5t79.5 318.5 q0 148 -108 198l-6 15q17 71 59 100t90 29q63 0 100 -41t37 -107q0 -103 -57 -258t-148 -319.5t-210 -331.5t-237.5 -297.5t-236 -212.5t-200.5 -82q-53 0 -84 38t-31 89zM575 1182l246 456q65 0 111 -34q46 -32 72 -95l-357 -381l-41 19z" />
<glyph unicode="&#xfe;" horiz-adv-x="1042" d="M-205 -592l15 80q83 0 124 36t56 124l344 1923l229 33l10 -9l-118 -673q211 127 325 127q104 0 164 -95t60 -252q0 -129 -53 -262.5t-135 -234.5t-186.5 -165.5t-201.5 -64.5q-80 0 -139 15l-60 -342q-16 -92 24 -126t181 -34l6 -16l-20 -64h-625zM303 66l19 -11 q116 0 217.5 95t159 239.5t57.5 292.5q0 106 -20 149t-58 43q-99 0 -246 -75z" />
<glyph unicode="&#xff;" horiz-adv-x="1060" d="M-205 -473q0 46 21 76l28 12q75 -37 152 -37q78 0 141 39.5t99.5 100.5t55.5 128.5t19 130.5l-98 852q-6 43 -37 43q-33 0 -67 -53.5t-43 -122.5l-50 4q9 148 94.5 248.5t196.5 100.5q53 0 97.5 -40t52.5 -122l78 -778l26 -7q107 105 186.5 286.5t79.5 318.5 q0 148 -108 198l-6 15q17 71 59 100t90 29q63 0 100 -41t37 -107q0 -103 -57 -258t-148 -319.5t-210 -331.5t-237.5 -297.5t-236 -212.5t-200.5 -82q-53 0 -84 38t-31 89zM319 1280q0 62 45.5 107t106.5 45t106.5 -45t45.5 -107q0 -63 -45 -107.5t-107 -44.5t-107 44.5 t-45 107.5zM733 1280q0 62 45.5 107t106.5 45t106 -45t45 -107q0 -63 -44.5 -107.5t-106.5 -44.5t-107 44.5t-45 107.5z" />
<glyph unicode="&#x152;" horiz-adv-x="2031" d="M100 715q27 223 142 394t293.5 263t392.5 92q102 0 186 -30h875l24 -19l-108 -313l-17 -10h-43q0 130 -59 192t-182 64h-117q-99 0 -142 -36t-51 -110l-55 -434h262q81 0 123.5 45.5t56.5 169.5h86l-59 -494l-72 -8l-14 8q13 106 -19 146.5t-112 40.5h-262l-55 -445 q-8 -72 22.5 -108.5t116.5 -36.5h192q34 0 78.5 10.5t103.5 36t120.5 80.5t107.5 131l39 -14l6 -19l-119 -311h-903q-108 -31 -201 -31q-156 0 -284 53.5t-213 150t-122.5 236.5t-17.5 306zM408 715q-23 -186 7.5 -330.5t118.5 -230.5t226 -86q57 0 123 16l153 1266l-2 -2 q-52 18 -116 18q-137 0 -246 -87t-175 -232.5t-89 -331.5z" />
<glyph unicode="&#x153;" horiz-adv-x="1462" d="M39.5 377q-3.5 61 5.5 119q3 27 12 65t29.5 92t48.5 106.5t72 106t96.5 93.5t126.5 65t158 25q210 0 291 -191q79 88 170.5 139.5t179.5 51.5q89 0 147 -36t58 -116q0 -161 -130.5 -255t-383.5 -95q-21 -99 -21 -205q0 -192 111 -192q85 0 156.5 72.5t121.5 174.5l55 -26 q-31 -84 -74.5 -153.5t-100.5 -125t-131 -86.5t-158 -31q-127 0 -185 125q-135 -125 -323 -125q-71 0 -128 22.5t-93 61t-62 90t-35.5 109.5t-13 119zM307 514q-60 -440 92 -440q84 0 155.5 126t96.5 312q56 440 -92 440q-85 0 -155 -124.5t-97 -313.5zM932 604q63 2 116 23 t87 52t58 69.5t34 74t10 66.5q0 67 -63 67q-64 0 -134 -100.5t-108 -251.5z" />
<glyph unicode="&#x178;" horiz-adv-x="1400" d="M20 1366l9 68h665l-6 -64l-133 -37q-72 -20 -72 -78q0 -16 11 -45l200 -528l346 535q29 48 29 69q0 38 -43 49l-133 35l6 64h481l-6 -62l-80 -29q-19 -7 -37 -22.5t-28.5 -27.5t-28.5 -36l-24 -32l-441 -631l-45 -363q-10 -75 28.5 -110t151.5 -35l7 -16l-17 -70h-663 l10 86q109 0 155 35t54 110l43 349l-262 641q-39 97 -99 118zM442 1690q0 61 45 106t107 45t106.5 -44.5t44.5 -106.5q0 -63 -44.5 -107.5t-106.5 -44.5t-107 44.5t-45 107.5zM856 1690q0 61 45 106t107 45t106.5 -44.5t44.5 -106.5q0 -63 -44.5 -107.5t-106.5 -44.5 t-107 44.5t-45 107.5z" />
<glyph unicode="&#x2c6;" horiz-adv-x="819" d="M113 1182l309 463q33 10 61 10q27 0 60 -10l164 -463l-37 -35l-43 -19l-172 314l-252 -314l-53 19z" />
<glyph unicode="&#x2dc;" horiz-adv-x="1056" d="M113 1178q50 82 117.5 144.5t136.5 76.5q57 0 176.5 -19.5t171.5 -19.5q80 0 192 94l37 -49q-50 -82 -118 -146.5t-136 -78.5q-58 0 -176 19.5t-172 19.5q-82 0 -190 -91z" />
<glyph unicode="&#x2000;" horiz-adv-x="1000" />
<glyph unicode="&#x2001;" horiz-adv-x="2001" />
<glyph unicode="&#x2002;" horiz-adv-x="1000" />
<glyph unicode="&#x2003;" horiz-adv-x="2001" />
<glyph unicode="&#x2004;" horiz-adv-x="667" />
<glyph unicode="&#x2005;" horiz-adv-x="500" />
<glyph unicode="&#x2006;" horiz-adv-x="333" />
<glyph unicode="&#x2007;" horiz-adv-x="333" />
<glyph unicode="&#x2008;" horiz-adv-x="250" />
<glyph unicode="&#x2009;" horiz-adv-x="400" />
<glyph unicode="&#x200a;" horiz-adv-x="111" />
<glyph unicode="&#x2010;" horiz-adv-x="894" d="M113 455l18 161h651l-18 -161h-651z" />
<glyph unicode="&#x2011;" horiz-adv-x="894" d="M113 455l18 161h651l-18 -161h-651z" />
<glyph unicode="&#x2012;" horiz-adv-x="894" d="M113 455l18 161h651l-18 -161h-651z" />
<glyph unicode="&#x2013;" horiz-adv-x="1447" d="M113 455l18 161h1204l-18 -161h-1204z" />
<glyph unicode="&#x2014;" horiz-adv-x="2269" d="M113 455l18 161h2026l-19 -161h-2025z" />
<glyph unicode="&#x2018;" horiz-adv-x="585" d="M113 1130q0 138 66 268.5t188 219.5l41 -49v-8q-91 -76 -138 -181t-37 -215q39 17 72 17q68 0 118 -49t50 -119q0 -69 -50 -118.5t-118 -49.5q-51 0 -90 25t-60 67t-31.5 90t-10.5 102z" />
<glyph unicode="&#x2019;" horiz-adv-x="544" d="M113 1450q0 69 50 118.5t118 49.5q67 0 112.5 -44.5t62.5 -106t17 -134.5q0 -138 -66 -268t-188 -219l-41 49v8q91 75 137.5 180t36.5 215q-37 -16 -71 -16q-68 0 -118 49t-50 119z" />
<glyph unicode="&#x201a;" horiz-adv-x="626" d="M133 143q0 69 50 118.5t118 49.5q51 0 90 -26.5t60.5 -70t32 -91t10.5 -96.5q0 -138 -66 -268.5t-188 -219.5l-41 49v9q91 75 137.5 180t36.5 215q-39 -17 -72 -17q-68 0 -118 49t-50 119z" />
<glyph unicode="&#x201c;" horiz-adv-x="1064" d="M113 1130q0 138 66 268.5t188 219.5l41 -49v-8q-91 -76 -138 -181t-37 -215q39 17 72 17q68 0 118 -49t50 -119q0 -69 -50 -118.5t-118 -49.5q-51 0 -90 25t-60 67t-31.5 90t-10.5 102zM592 1130q0 138 66 268.5t188 219.5l41 -49v-8q-91 -75 -137.5 -180.5t-36.5 -215.5 q39 17 71 17q68 0 118 -49t50 -119q0 -69 -50 -118.5t-118 -49.5q-51 0 -90 25t-60 67t-31.5 90t-10.5 102z" />
<glyph unicode="&#x201d;" horiz-adv-x="1064" d="M113 1450q0 69 50 118.5t118 49.5q67 0 112.5 -44.5t62.5 -106t17 -134.5q0 -138 -66 -268t-188 -219l-41 49v8q91 75 137.5 180t36.5 215q-37 -16 -71 -16q-68 0 -118 49t-50 119zM592 1450q0 69 50 118.5t118 49.5q67 0 112.5 -44.5t62.5 -106t17 -134.5 q0 -138 -66 -268t-188 -219l-41 49v8q91 75 137.5 180t36.5 215q-37 -16 -71 -16q-68 0 -118 49t-50 119z" />
<glyph unicode="&#x201e;" horiz-adv-x="1105" d="M133 143q0 69 50 118.5t118 49.5q51 0 90 -26.5t60.5 -70t32 -91t10.5 -96.5q0 -138 -66 -268.5t-188 -219.5l-41 49v9q91 75 137.5 180t36.5 215q-39 -17 -72 -17q-68 0 -118 49t-50 119zM612 143q0 69 50 118.5t118 49.5q51 0 90 -26.5t60.5 -70t32 -91t10.5 -96.5 q0 -138 -66 -268.5t-188 -219.5l-41 49v9q91 75 137.5 180t36.5 215q-39 -17 -72 -17q-68 0 -118 49t-50 119z" />
<glyph unicode="&#x2022;" horiz-adv-x="806" d="M113 535q0 119 86 204.5t204 85.5q120 0 205.5 -85t85.5 -205q0 -121 -85.5 -206t-205.5 -85q-118 0 -204 85t-86 206z" />
<glyph unicode="&#x2026;" horiz-adv-x="1744" d="M133 143q0 69 50 118.5t118 49.5q69 0 118.5 -49.5t49.5 -118.5q0 -70 -49.5 -119t-118.5 -49q-68 0 -118 49t-50 119zM705 143q0 69 49.5 118.5t117.5 49.5q69 0 118.5 -49.5t49.5 -118.5q0 -70 -49.5 -119t-118.5 -49q-68 0 -117.5 49t-49.5 119zM1276 143 q0 69 50 118.5t118 49.5q69 0 118.5 -49.5t49.5 -118.5q0 -70 -49.5 -119t-118.5 -49q-68 0 -118 49t-50 119z" />
<glyph unicode="&#x202f;" horiz-adv-x="400" />
<glyph unicode="&#x2039;" horiz-adv-x="841" d="M113 524l2 23l528 520l72 -84l4 -29l-385 -417l278 -437l-8 -26l-108 -70z" />
<glyph unicode="&#x203a;" horiz-adv-x="843" d="M123 100l389 437l-283 417l9 29l92 84l401 -520l-2 -23l-510 -520l-92 70z" />
<glyph unicode="&#x205f;" horiz-adv-x="500" />
<glyph unicode="&#x20ac;" horiz-adv-x="1662" d="M20 514l31 92h230q3 120 26 219h-250l33 93h244q63 178 192.5 302.5t297 184t364.5 59.5q48 0 166 -14t151 -14q70 0 113 26l24 -18l-110 -326l-16 -10h-43q0 63 -27 113.5t-70.5 81t-95 46t-104.5 15.5q-196 0 -336 -117t-205 -329h721l-33 -93h-713q-26 -91 -26 -219 h733l-33 -92h-698q15 -209 126.5 -324.5t307.5 -115.5q46 0 91 7t113.5 30t136 79t118.5 140l49 -15l6 -18l-98 -256q-66 -30 -196.5 -51t-227.5 -21q-200 0 -354 59t-253.5 183.5t-119.5 302.5h-265z" />
<glyph unicode="&#x2122;" horiz-adv-x="1265" d="M113 1325l14 109h395l13 -109l-3 -6l-20 -4q-16 40 -61 59t-74 19v-271q0 -22 13.5 -32.5t51.5 -10.5l2 -6l-2 -31h-237v37q38 0 51.5 10.5t13.5 32.5v271q-29 0 -74 -19t-61 -59l-20 4zM539 1042v33q32 0 43.5 9.5t13.5 29.5l18 250q-2 19 -13.5 28t-43.5 9v33h191 l100 -232l100 232h187l2 -27l-2 -6q-34 0 -47 -10t-13 -31l19 -246q2 -21 13 -30t44 -9l2 -6l-2 -27h-225v33q36 0 49.5 9.5t13.5 29.5l-20 238l-135 -310h-23l-143 310l-19 -238q-2 -20 11 -29.5t51 -9.5l2 -6l-2 -27h-172z" />
<glyph unicode="&#x25fc;" horiz-adv-x="1044" d="M0 0v1044h1044v-1044h-1044z" />
</font>
</defs>
</svg>
