<?xml version="1.0" standalone="no"?>
<!DOCTYPE svg PUBLIC "-//W3C//DTD SVG 1.1//EN" "http://www.w3.org/Graphics/SVG/1.1/DTD/svg11.dtd" >
<svg xmlns="http://www.w3.org/2000/svg" xmlns:xlink="http://www.w3.org/1999/xlink" version="1.1">
<metadata></metadata>
<defs>
<font id="stevie_sansmedium" horiz-adv-x="1198" >
<font-face units-per-em="2048" ascent="1638" descent="-410" />
<missing-glyph horiz-adv-x="452" />
<glyph unicode="&#xfb01;" horiz-adv-x="1304" d="M39 856v203h154v78q0 39 2.5 70.5t12 70.5t25.5 68.5t44.5 59t67.5 48.5t96.5 31t129.5 12q85 0 150 -16v-181h-117q-84 0 -114.5 -41t-30.5 -118v-82h698v-1059h-266v856h-432v-856h-266v856h-154zM885 1225v229h278v-229h-278z" />
<glyph unicode="&#xfb02;" horiz-adv-x="1304" d="M39 856v203h154v78q0 39 2.5 70.5t12 70.5t25.5 68.5t44.5 59t67.5 48.5t96.5 31t129.5 12q85 0 150 -16v-181h-117q-84 0 -114.5 -41t-30.5 -118v-82h258v-203h-258v-856h-266v856h-154zM891 0v1475h266v-1475h-266z" />
<glyph horiz-adv-x="0" />
<glyph horiz-adv-x="682" />
<glyph unicode=" "  horiz-adv-x="452" />
<glyph unicode="&#x09;" horiz-adv-x="452" />
<glyph unicode="&#xa0;" horiz-adv-x="452" />
<glyph unicode="!" horiz-adv-x="565" d="M145 854v569h275v-569l-47 -395h-180zM147 0v317h271v-317h-271z" />
<glyph unicode="&#x22;" horiz-adv-x="794" d="M76 1171v334h241v-334l-28 -253h-185zM479 1171v334h240v-334l-29 -253h-182z" />
<glyph unicode="#" horiz-adv-x="1527" d="M123 356v191h280l37 297h-239v190h264l43 346h201l-45 -346h297l43 346h200l-45 -346h246v-190h-270l-37 -297h229v-191h-252l-45 -356h-199l43 356h-294l-45 -356h-199l43 356h-256zM602 547h297l37 297h-297z" />
<glyph unicode="$" horiz-adv-x="1280" d="M72 465h270q3 -72 31 -124t74.5 -80t99.5 -41t115 -13q115 0 188.5 43t73.5 129q0 46 -22.5 81t-61.5 56t-91 40t-110.5 31t-120 29.5t-120 36t-110.5 50t-91 71t-61.5 100t-22.5 136.5q0 91 38.5 163.5t105.5 118.5t150 72t181 33v295h178v-299q58 -8 110.5 -24t110 -49 t99.5 -78.5t71.5 -117.5t34.5 -161h-272q-3 57 -23 100t-48 67.5t-66.5 40t-73 20.5t-74.5 5q-64 0 -117.5 -16t-90 -54t-36.5 -94q0 -49 27.5 -85.5t74.5 -59t108 -40.5t128.5 -34.5t134.5 -35t128 -48t108 -69t74.5 -101.5t27.5 -141q0 -163 -111.5 -275t-324.5 -137v-299 h-178v291q-42 2 -83 8.5t-92.5 21.5t-96 36.5t-89 58t-77 83t-54 113t-24.5 146.5z" />
<glyph unicode="%" horiz-adv-x="1902" d="M78 1044q0 155 97.5 245.5t268.5 90.5t269 -90.5t98 -245.5q0 -154 -98 -244.5t-269 -90.5t-268.5 90t-97.5 245zM303 1044q0 -87 36.5 -135.5t104.5 -48.5q67 0 103.5 48.5t36.5 135.5q0 88 -36.5 137.5t-103.5 49.5q-68 0 -104.5 -49t-36.5 -138zM465 0l823 1430h168 l-823 -1430h-168zM1094 336q0 155 97 245.5t269 90.5q171 0 269 -90.5t98 -245.5t-98 -245.5t-269 -90.5q-172 0 -269 90.5t-97 245.5zM1319 336q0 -88 36 -136t105 -48q67 0 103 48t36 136t-36 137t-103 49q-68 0 -104.5 -48.5t-36.5 -137.5z" />
<glyph unicode="&#x26;" horiz-adv-x="1351" d="M96 379q0 121 67 222.5t193 160.5q-27 38 -30 43q-101 140 -101 262q0 105 60.5 185.5t159.5 121.5t219 41q122 0 219 -42.5t156 -131t59 -209.5h-267q0 91 -43.5 134.5t-121.5 43.5q-76 0 -116 -44.5t-40 -123.5q0 -52 18.5 -98.5t40.5 -77t72 -88.5l346 -420 q70 119 70 316h217q0 -65 -9.5 -136.5t-47 -172.5t-99.5 -166l164 -199h-287l-57 68q-114 -91 -326 -91q-222 0 -369 111t-147 291zM369 420q0 -113 81 -181.5t207 -68.5q97 0 156 47l-346 412q-53 -37 -75.5 -87.5t-22.5 -121.5z" />
<glyph unicode="'" horiz-adv-x="393" d="M76 1171v334h241v-334l-28 -253h-185z" />
<glyph unicode="(" horiz-adv-x="612" d="M70 543q0 265 79.5 511t227.5 451h215q-121 -187 -197 -437t-76 -525q0 -269 75.5 -524.5t193.5 -442.5h-217q-143 205 -222 456t-79 511z" />
<glyph unicode=")" horiz-adv-x="612" d="M20 1505h218q147 -205 226 -451t79 -511q0 -260 -79 -511t-222 -456h-217q119 185 193.5 440.5t74.5 526.5q0 275 -76 525t-197 437z" />
<glyph unicode="*" horiz-adv-x="966" d="M102 938l220 121l-218 119l70 139l232 -127v270h153v-268l234 125l71 -139l-221 -119l219 -121l-69 -139l-234 127v-271h-153v271l-232 -127z" />
<glyph unicode="+" horiz-adv-x="1200" d="M137 444v207h355v355h217v-355h354v-207h-354v-350h-217v350h-355z" />
<glyph unicode="," horiz-adv-x="438" d="M88 301h262q0 -104 -4.5 -173.5t-28.5 -190.5t-71 -254h-158v618z" />
<glyph unicode="-" horiz-adv-x="1089" d="M154 453v190h782v-190h-782z" />
<glyph unicode="." horiz-adv-x="444" d="M88 0v328h268v-328h-268z" />
<glyph unicode="/" horiz-adv-x="753" d="M-2 -414l518 1927h240l-518 -1927h-240z" />
<glyph unicode="0" horiz-adv-x="1411" d="M102 690q0 332 163 522.5t442 190.5q278 0 441 -191t163 -522q0 -333 -163 -525t-441 -192q-279 0 -442 192t-163 525zM379 690q0 -233 84.5 -361t243.5 -128t243 127.5t84 361.5q0 233 -84.5 361.5t-242.5 128.5t-243 -129t-85 -361z" />
<glyph unicode="1" horiz-adv-x="1095" d="M145 950v242l363 188h270v-1380h-272v1133z" />
<glyph unicode="2" horiz-adv-x="1261" d="M100 0v184q67 58 165.5 132.5t172.5 128.5t155.5 124t133.5 130t86.5 134.5t34.5 149.5q0 106 -57 165.5t-173 59.5q-38 0 -68.5 -5.5t-64 -23.5t-56 -48t-37 -82.5t-15.5 -122.5h-273q2 112 37.5 199t88 138t124 84t136 44.5t131.5 11.5q244 0 371.5 -115t127.5 -305 q0 -60 -18 -120.5t-45 -111.5t-72.5 -107t-85.5 -97t-100 -93t-101 -84t-103 -79.5t-91 -71.5h645v-219h-1049z" />
<glyph unicode="3" horiz-adv-x="1255" d="M102 432h275q0 -136 70.5 -198t185.5 -62q119 0 185.5 58t66.5 165q0 215 -324 215h-123v189h121q291 0 291 225q0 88 -59 136t-164 48q-238 0 -240 -262h-270q1 105 36 188t88 132t122.5 81t133.5 44t128 12q220 0 356.5 -94.5t136.5 -257.5q0 -263 -258 -322 q131 -19 215 -105.5t84 -238.5q0 -183 -143.5 -297.5t-384.5 -114.5q-76 0 -146.5 12.5t-141 45t-122.5 83t-85 132.5t-34 186z" />
<glyph unicode="4" horiz-adv-x="1298" d="M82 291v207l551 882h393v-880h201v-209h-201v-291h-268v291h-676zM322 500h436v684z" />
<glyph unicode="5" horiz-adv-x="1251" d="M102 432h269q1 -70 21 -122t55.5 -82t79 -44t96.5 -14q124 0 192 76.5t68 199.5q0 124 -61 201.5t-179 77.5q-72 0 -129 -26t-113 -87l-241 11l59 757h850v-206h-633l-35 -359q137 103 314 103q210 0 326 -128.5t116 -330.5q0 -218 -142 -352t-394 -134 q-75 0 -144.5 12.5t-139 45.5t-120.5 83.5t-82.5 132t-32.5 185.5z" />
<glyph unicode="6" horiz-adv-x="1280" d="M102 633q0 157 28.5 285t80.5 217.5t125.5 150t162 89t191.5 28.5q204 0 332.5 -94t128.5 -267h-268q0 84 -53.5 127t-151.5 43q-140 0 -217.5 -114.5t-87.5 -364.5q67 71 158.5 109.5t191.5 38.5q216 0 338.5 -124t122.5 -323q0 -197 -145.5 -329t-379.5 -132 q-136 0 -243 50.5t-175 140t-103.5 209t-35.5 260.5zM375 528q6 -157 77.5 -257.5t200.5 -100.5q123 0 191.5 71.5t68.5 180.5q0 120 -59.5 194t-179.5 74q-180 0 -299 -162z" />
<glyph unicode="7" horiz-adv-x="1091" d="M27 1165v215h1009v-180q-198 -275 -353.5 -583.5t-252.5 -616.5h-280q188 565 581 1165h-704z" />
<glyph unicode="8" horiz-adv-x="1263" d="M94 369q0 128 73.5 223.5t203.5 130.5q-124 39 -180 123t-56 194q0 158 138.5 260.5t359.5 102.5t358 -102.5t137 -260.5q0 -110 -56.5 -194t-180.5 -123q131 -35 204.5 -130.5t73.5 -223.5q0 -175 -146.5 -285.5t-389.5 -110.5q-245 0 -392 110.5t-147 285.5zM375 387 q0 -97 70 -161t188 -64q117 0 186.5 65t69.5 160q0 112 -70.5 176t-185.5 64q-116 0 -187 -64t-71 -176zM408 1022q0 -89 60 -148t165 -59t164 59t59 148q0 92 -58.5 148.5t-164.5 56.5q-107 0 -166 -56.5t-59 -148.5z" />
<glyph unicode="9" horiz-adv-x="1280" d="M96 944q0 197 146.5 328t380.5 131q136 0 243 -51t174.5 -141t102.5 -208.5t35 -257.5q0 -194 -43 -343.5t-121 -242t-183.5 -139.5t-234.5 -47q-211 0 -340 95t-129 270h266q0 -84 56 -128t161 -44q281 0 295 477q-67 -70 -158.5 -108.5t-191.5 -38.5q-215 0 -337 124 t-122 324zM367 954q0 -119 60.5 -192.5t180.5 -73.5q180 0 297 162q-6 156 -78 257t-198 101q-123 0 -192.5 -72t-69.5 -182z" />
<glyph unicode=":" horiz-adv-x="444" d="M88 0v328h268v-328h-268zM88 754v327h268v-327h-268z" />
<glyph unicode=";" horiz-adv-x="444" d="M88 754v327h268v-327h-268zM92 301h262q0 -101 -5 -173.5t-29.5 -193.5t-71.5 -256h-156v623z" />
<glyph unicode="&#x3c;" horiz-adv-x="1140" d="M137 440v256l867 439v-240l-633 -328l633 -327v-240z" />
<glyph unicode="=" horiz-adv-x="1200" d="M137 211v225h926v-225h-926zM137 664v223h926v-223h-926z" />
<glyph unicode="&#x3e;" horiz-adv-x="1140" d="M137 0v240l631 327l-631 328v240l867 -439v-256z" />
<glyph unicode="?" horiz-adv-x="1044" d="M35 1051q4 70 25 128t51 97t71 69t81.5 47t87 28t82 14.5t71.5 3.5q97 0 178 -21.5t143 -65t96.5 -114t34.5 -162.5q0 -67 -22 -123.5t-56.5 -96.5t-77 -75.5t-84.5 -68.5t-76.5 -68.5t-56.5 -83.5t-22 -104h-258q0 70 21.5 130.5t56 104.5t76 82.5t83.5 71.5t76.5 64.5 t56 69t21.5 77.5q0 62 -30 101.5t-70 53t-90 13.5q-200 0 -213 -172h-256zM293 0v317h278v-317h-278z" />
<glyph unicode="@" horiz-adv-x="1925" d="M84 535q0 164 54 308.5t146 249.5t213 181.5t257 114.5t276 38q157 0 301 -45.5t258.5 -131t183 -222.5t68.5 -307q0 -86 -21 -174.5t-64 -171t-103 -146.5t-145 -102.5t-183 -38.5q-34 0 -65 8t-62 27t-51.5 55.5t-24.5 87.5q-103 -211 -336 -211q-69 0 -129 31.5 t-105.5 91.5t-65 158t-5.5 221q28 238 145 358.5t277 120.5q109 0 187 -60t112 -169l47 192h189l-88 -624q-18 -125 67 -125q77 0 136.5 70t89.5 175t30 220q0 117 -36.5 212.5t-98 159.5t-144.5 108t-174.5 63.5t-189.5 19.5q-108 0 -214.5 -27.5t-206 -87t-175 -144.5 t-121 -210t-45.5 -274q0 -142 39 -262t106.5 -203t158.5 -141t194 -85.5t213 -27.5q261 0 467 123l-31 -162q-208 -109 -467 -109q-139 0 -267.5 36t-237 109t-188.5 175.5t-125.5 243t-45.5 303.5zM725 547q-18 -154 29.5 -237t136.5 -83q102 0 169 81t87 237 q20 157 -29 239t-149 82q-95 0 -159.5 -79.5t-84.5 -239.5z" />
<glyph unicode="A" horiz-adv-x="1443" d="M41 0l506 1380h352l504 -1380h-287l-123 346h-549l-118 -346h-285zM512 563h412l-205 584z" />
<glyph unicode="B" horiz-adv-x="1294" d="M154 0v1380h487q526 0 526 -340q0 -119 -67 -204t-203 -113q147 -23 229 -112.5t82 -215.5q0 -82 -31 -152.5t-91 -125t-154.5 -86t-214.5 -31.5h-563zM426 193h233q129 0 200 56.5t71 164.5q0 102 -89 154.5t-235 52.5h-180v-428zM426 803h180q138 0 214.5 46t76.5 155 q0 58 -23.5 97.5t-68 58.5t-93 26.5t-114.5 7.5h-172v-391z" />
<glyph unicode="C" horiz-adv-x="1437" d="M100 690q0 330 179 521.5t481 191.5q234 0 388.5 -123t201.5 -344h-281q-31 118 -109.5 181t-199.5 63q-185 0 -284 -129t-99 -361q0 -231 98.5 -359t284.5 -128q247 0 307 239h281q-50 -222 -203.5 -345.5t-384.5 -123.5q-307 0 -483.5 190.5t-176.5 526.5z" />
<glyph unicode="D" horiz-adv-x="1466" d="M154 0v1380h503q166 0 302 -51t226.5 -141.5t139.5 -215.5t49 -272q0 -143 -49 -270t-138.5 -222.5t-225 -151.5t-297.5 -56h-510zM426 225h229q210 0 326.5 134t116.5 341q0 210 -116.5 336.5t-332.5 126.5h-223v-938z" />
<glyph unicode="E" horiz-adv-x="1112" d="M154 0v1380h841v-219h-569v-354h530v-209h-530v-375h594v-223h-866z" />
<glyph unicode="F" horiz-adv-x="1067" d="M154 0v1380h823v-219h-551v-366h512v-220h-512v-575h-272z" />
<glyph unicode="G" horiz-adv-x="1478" d="M100 688q0 332 179 523.5t485 191.5q234 0 386.5 -121t195.5 -338h-281q-28 114 -105 175t-196 61q-188 0 -287.5 -129.5t-99.5 -362.5q0 -236 99 -368t286 -132q138 0 224.5 91.5t86.5 252.5v19h-297v184h586v-735h-176l-25 225q-64 -127 -177.5 -189.5t-240.5 -62.5 q-293 0 -468 191.5t-175 523.5z" />
<glyph unicode="H" horiz-adv-x="1462" d="M154 0v1380h272v-559h610v559h273v-1380h-273v586h-610v-586h-272z" />
<glyph unicode="I" horiz-adv-x="579" d="M154 0v1380h272v-1380h-272z" />
<glyph unicode="J" horiz-adv-x="768" d="M6 0v197h170q93 0 129.5 56t36.5 185v942h272v-936q0 -41 -0.5 -68.5t-4 -70t-9.5 -72t-18 -66.5t-29 -62.5t-43 -52.5t-58.5 -43t-77 -26t-98.5 -10q-127 0 -270 27z" />
<glyph unicode="K" horiz-adv-x="1347" d="M154 0v1380h272v-594l551 594h326l-566 -604l602 -776h-338l-446 580l-129 -138v-442h-272z" />
<glyph unicode="L" horiz-adv-x="1040" d="M154 0v1380h272v-1157h584v-223h-856z" />
<glyph unicode="M" horiz-adv-x="1853" d="M154 0v1380h403l371 -1077l372 1077h400v-1380h-273v1094l-389 -1094h-231l-383 1094v-1094h-270z" />
<glyph unicode="N" horiz-adv-x="1490" d="M154 0v1380h284l627 -981v981h272v-1380h-295l-616 958v-958h-272z" />
<glyph unicode="O" horiz-adv-x="1540" d="M100 690q0 331 180 522t490 191t490 -191t180 -522q0 -334 -180 -525.5t-490 -191.5t-490 191.5t-180 525.5zM377 690q0 -231 101 -359t292 -128t292 128t101 359q0 232 -101 361t-292 129t-292 -129t-101 -361z" />
<glyph unicode="P" horiz-adv-x="1273" d="M154 0v1380h501q245 0 386 -112t141 -328q0 -212 -143 -331.5t-382 -119.5h-231v-489h-272zM426 707h211q125 0 196.5 59t71.5 174q0 127 -77 175t-234 48h-168v-456z" />
<glyph unicode="Q" horiz-adv-x="1538" d="M100 690q0 331 180.5 522t491.5 191q308 0 489 -191.5t181 -521.5q0 -186 -67 -328t-193 -229q157 -13 309 -33l-45 -217q-174 47 -326.5 68.5t-347.5 21.5q-310 0 -491 192t-181 525zM377 690q0 -232 101 -359.5t294 -127.5q190 0 291.5 128t101.5 359t-101.5 360.5 t-291.5 129.5q-194 0 -294.5 -129t-100.5 -361z" />
<glyph unicode="R" horiz-adv-x="1271" d="M154 0v1380h499q246 0 387.5 -108t141.5 -311q0 -138 -68.5 -239t-189.5 -147l293 -575h-285l-266 522h-240v-522h-272zM426 739h215q124 0 194 57t70 165q0 99 -69 150.5t-197 51.5h-213v-424z" />
<glyph unicode="S" horiz-adv-x="1280" d="M72 442h270q3 -72 31 -124t75 -80t99.5 -41t114.5 -13q115 0 188.5 43.5t73.5 130.5q0 52 -27.5 90.5t-74.5 62t-108 41.5t-128.5 34.5t-134.5 36t-128 51t-108 74t-74.5 110t-27.5 154.5q0 101 45.5 178t124.5 122.5t175.5 68t207.5 22.5q41 0 83 -4.5t94 -17.5t98 -33 t91 -54.5t78.5 -78.5t55.5 -108.5t26 -141.5h-272q-17 233 -285 233q-47 0 -89.5 -9t-77.5 -28t-56 -51.5t-21 -75.5q0 -51 27.5 -88.5t74.5 -61t108 -42.5t128.5 -35.5t134.5 -36.5t128 -50.5t108 -71.5t74.5 -105.5t27.5 -147.5q0 -188 -145 -305t-422 -117 q-39 0 -79.5 3.5t-96.5 16t-105.5 32.5t-101 56.5t-89 84t-62.5 118.5t-29 158z" />
<glyph unicode="T" horiz-adv-x="1181" d="M35 1161v219h1112v-219h-420v-1161h-272v1161h-420z" />
<glyph unicode="U" horiz-adv-x="1429" d="M141 522v858h273v-848q0 -162 81.5 -245.5t219.5 -83.5q145 0 225 82.5t80 246.5v848h268v-858q0 -179 -73 -304t-200.5 -185t-299.5 -60q-265 0 -419.5 141t-154.5 408z" />
<glyph unicode="V" horiz-adv-x="1396" d="M39 1380h285l378 -1075l375 1075h281l-533 -1380h-250z" />
<glyph unicode="W" horiz-adv-x="2091" d="M31 1380h293l301 -1081l256 1081h342l252 -1077l305 1077h280l-411 -1380h-346l-263 1051l-258 -1051h-342z" />
<glyph unicode="X" horiz-adv-x="1339" d="M20 0l426 705l-393 675h314l313 -561l305 561h307l-399 -675l426 -705h-315l-340 584l-326 -584h-318z" />
<glyph unicode="Y" horiz-adv-x="1282" d="M6 1380h289l348 -643l350 643h283l-500 -845v-535h-272v532z" />
<glyph unicode="Z" horiz-adv-x="1218" d="M94 0v217l692 948h-659v215h969v-211l-693 -950h725v-219h-1034z" />
<glyph unicode="[" horiz-adv-x="698" d="M80 -416v1929h596v-208h-357v-1508h359v-213h-598z" />
<glyph unicode="\" horiz-adv-x="753" d="M-2 1513h240l518 -1927h-240z" />
<glyph unicode="]" horiz-adv-x="698" d="M20 -203h359v1508h-356v208h595v-1929h-598v213z" />
<glyph unicode="^" horiz-adv-x="1341" d="M137 471l412 872h246l409 -872h-227l-305 657l-307 -657h-228z" />
<glyph unicode="_" horiz-adv-x="1390" d="M0 -96h1391v-191h-1391v191z" />
<glyph unicode="`" horiz-adv-x="739" d="M119 1518h284l218 -363h-199z" />
<glyph unicode="a" horiz-adv-x="1187" d="M78 295q0 68 18 121t54 88t79 59t104 37.5t117.5 19.5t129.5 9l170 6v90q0 81 -40.5 126.5t-144.5 45.5q-74 0 -129.5 -35.5t-62.5 -122.5l-258 21q6 72 38 129t77.5 92t105 58.5t116 32.5t113.5 9q451 0 451 -350v-414q0 -85 15 -113t69 -28h61v-176q-92 -25 -160 -25 q-130 0 -184 46t-55 161q-28 -58 -67.5 -100t-84.5 -64.5t-89 -32.5t-91 -10t-92.5 8.5t-93.5 31.5t-84 57.5t-59 92t-23 130.5zM346 313q0 -36 13 -62.5t31.5 -40.5t43.5 -22.5t44.5 -11t39.5 -2.5q96 0 164 72.5t68 202.5v32l-175 -6q-107 -3 -168 -39t-61 -123z" />
<glyph unicode="b" horiz-adv-x="1247" d="M147 0v1475h267v-459l-11 -152q103 217 345 217q88 0 162 -32.5t131 -98t89.5 -173t32.5 -247.5q0 -145 -32.5 -254.5t-90.5 -173.5t-131 -95.5t-161 -31.5q-244 0 -347 226v-201h-254zM412 530q0 -356 247 -356q104 0 168 88.5t64 267.5q0 176 -64 264.5t-168 88.5 q-247 0 -247 -353z" />
<glyph unicode="c" horiz-adv-x="1153" d="M84 520q0 264 139 412.5t379 148.5q196 0 319.5 -102t151.5 -289l-268 -12q-31 205 -203 205q-122 0 -184 -92t-62 -263q0 -170 62.5 -261t183.5 -91q170 0 205 201h266q-28 -191 -151 -296.5t-320 -105.5q-242 0 -380 144.5t-138 400.5z" />
<glyph unicode="d" horiz-adv-x="1247" d="M84 530q0 113 21.5 205t59.5 155.5t90.5 107t114 63.5t130.5 20q241 0 342 -215l-8 150v459h266v-1475h-254v203q-108 -228 -346 -228q-88 0 -161.5 31.5t-131.5 95.5t-90.5 173.5t-32.5 254.5zM356 530q0 -179 64 -267.5t168 -88.5q248 0 248 356q0 353 -248 353 q-104 0 -168 -88.5t-64 -264.5z" />
<glyph unicode="e" d="M94 520q0 263 142.5 412t384.5 149q226 0 354.5 -134.5t128.5 -387.5l-6 -88h-729q6 -143 68 -219t175 -76q177 0 215 158h267q-34 -170 -156 -264.5t-317 -94.5q-245 0 -386 144.5t-141 400.5zM373 635h456q-9 123 -60 185.5t-157 62.5q-101 0 -161 -64t-78 -184z" />
<glyph unicode="f" horiz-adv-x="727" d="M39 856v203h154v78q0 39 2.5 70.5t12 70.5t25.5 68.5t44.5 59t67.5 48.5t96.5 31t129.5 12q85 0 150 -16v-181h-117q-84 0 -114.5 -41t-30.5 -118v-82h258v-203h-258v-856h-266v856h-154z" />
<glyph unicode="g" horiz-adv-x="1245" d="M84 537q0 142 32.5 249t90.5 170t131.5 94t161.5 31q243 0 346 -225v203h254v-1041q0 -43 -4.5 -82.5t-18.5 -86.5t-36.5 -86.5t-61.5 -77.5t-90.5 -64.5t-126.5 -42.5t-166 -16q-54 0 -110 9.5t-119 35t-113 64.5t-86.5 104.5t-44.5 148.5l258 13q6 -89 67.5 -137 t153.5 -48q71 0 119 20.5t71.5 58.5t32.5 79t9 96v37l14 197q-102 -228 -348 -228q-88 0 -162 32t-131.5 94.5t-90 164.5t-32.5 234zM356 539q0 -160 64 -243t168 -83q118 0 183 80t65 246q0 344 -248 344q-104 0 -168 -85.5t-64 -258.5z" />
<glyph unicode="h" horiz-adv-x="1249" d="M147 0v1475h267v-459l-13 -172q107 237 357 237q69 0 130 -19.5t110.5 -58.5t78.5 -105.5t29 -152.5v-745h-266v641q0 106 -47 164.5t-138 58.5q-110 0 -175.5 -83.5t-65.5 -229.5v-551h-267z" />
<glyph unicode="i" horiz-adv-x="561" d="M141 1225v229h279v-229h-279zM147 0v1059h267v-1059h-267z" />
<glyph unicode="j" horiz-adv-x="561" d="M-106 -211h118q81 0 108 50t27 175v1045h267v-1047q0 -63 -3 -108.5t-12 -95.5t-25 -84.5t-44 -67t-67 -52t-95.5 -31t-128.5 -11.5q-75 0 -145 16v211zM141 1225v229h279v-229h-279z" />
<glyph unicode="k" horiz-adv-x="1183" d="M147 0v1475h267v-795l403 379h324l-400 -371l414 -688h-293l-309 506l-139 -131v-375h-267z" />
<glyph unicode="l" horiz-adv-x="561" d="M147 0v1475h267v-1475h-267z" />
<glyph unicode="m" horiz-adv-x="1867" d="M147 0v1059h254v-213q102 235 334 235q115 0 204 -58t118 -175q101 233 334 233q66 0 124 -19.5t105.5 -58.5t75.5 -105.5t28 -152.5v-745h-266v641q0 106 -43.5 164.5t-126.5 58.5q-99 0 -159 -83.5t-60 -229.5v-551h-266v641q0 106 -43.5 164.5t-126.5 58.5 q-99 0 -159 -83.5t-60 -229.5v-551h-267z" />
<glyph unicode="n" horiz-adv-x="1249" d="M147 0v1059h254v-213q106 235 357 235q69 0 130 -19.5t110.5 -58.5t78.5 -105.5t29 -152.5v-745h-266v641q0 106 -47 164.5t-138 58.5q-110 0 -175.5 -83.5t-65.5 -229.5v-551h-267z" />
<glyph unicode="o" d="M84 528q0 260 138.5 406.5t377.5 146.5t376.5 -146.5t137.5 -406.5q0 -259 -137.5 -406t-376.5 -147t-377.5 147.5t-138.5 405.5zM356 528q0 -170 62 -261t182 -91t181 90.5t61 261.5t-61 263t-181 92t-182 -92t-62 -263z" />
<glyph unicode="p" horiz-adv-x="1247" d="M147 -434v1493h254v-205q104 227 347 227q88 0 161 -31.5t131 -95.5t90.5 -173t32.5 -253q0 -141 -32.5 -249t-89.5 -173.5t-131 -98t-162 -32.5q-240 0 -342 213l8 -163v-459h-267zM412 528q0 -352 247 -352q104 0 168 88t64 264q0 178 -64 266.5t-168 88.5 q-247 0 -247 -355z" />
<glyph unicode="q" horiz-adv-x="1247" d="M84 528q0 144 32.5 252.5t90.5 173t131.5 96t161.5 31.5q243 0 346 -225v203h254v-1493h-266v459l6 165q-102 -215 -340 -215q-87 0 -161 32.5t-132 97.5t-90.5 173t-32.5 250zM356 528q0 -176 64 -264t168 -88q248 0 248 352q0 355 -248 355q-104 0 -168 -88.5 t-64 -266.5z" />
<glyph unicode="r" horiz-adv-x="786" d="M147 0v1059h254v-217q91 239 283 239q54 0 86 -12v-227h-115q-111 0 -176 -75t-65 -220v-547h-267z" />
<glyph unicode="s" horiz-adv-x="1058" d="M72 315h258q15 -153 205 -153q184 0 184 112q0 36 -21 63.5t-57 45.5t-82 32t-97.5 28.5t-102.5 30.5t-97 41.5t-82 59t-57 85t-21 116.5q0 75 37 135t99 96t136.5 55t155.5 19q405 0 443 -323l-254 -8q-13 157 -184 157q-75 0 -122.5 -25t-47.5 -81q0 -42 26.5 -73 t70 -48t99 -34.5t113.5 -32t113.5 -40.5t99 -59t70 -89.5t26.5 -129.5q0 -147 -122.5 -233.5t-336.5 -86.5q-39 0 -79.5 5t-92 17t-96.5 37t-85 60.5t-66.5 92.5t-32.5 128z" />
<glyph unicode="t" horiz-adv-x="761" d="M37 852v203h151v270h267v-270h256v-203h-256v-430q0 -123 29 -171t118 -48h109v-205q-68 -23 -140 -23q-73 0 -130.5 11.5t-97.5 30.5t-68.5 51.5t-45.5 66.5t-26 83.5t-12 95t-3 108.5v430h-151z" />
<glyph unicode="u" horiz-adv-x="1249" d="M147 317v742h267v-639q0 -225 184 -225q107 0 172.5 83.5t65.5 227.5v553h266v-1059h-254v211q-111 -236 -352 -236q-71 0 -132.5 19.5t-110.5 59.5t-77.5 107.5t-28.5 155.5z" />
<glyph unicode="v" horiz-adv-x="1153" d="M31 1059h282l267 -817l266 817h276l-397 -1059h-299z" />
<glyph unicode="w" horiz-adv-x="1724" d="M33 1059h284l203 -785l197 785h301l196 -787l201 787h277l-322 -1059h-297l-209 786l-209 -786h-299z" />
<glyph unicode="x" horiz-adv-x="1099" d="M29 0l336 545l-312 514h277l225 -391l223 391h271l-316 -514l338 -545h-283l-243 412l-240 -412h-276z" />
<glyph unicode="y" horiz-adv-x="1130" d="M31 1059h282l250 -748l258 748h279l-602 -1493h-260l188 477z" />
<glyph unicode="z" horiz-adv-x="1052" d="M94 0v178l518 680h-503v201h837v-176l-518 -680h533v-203h-867z" />
<glyph unicode="{" horiz-adv-x="845" d="M72 463v172q93 0 135.5 45.5t42.5 144.5v301q0 117 33 192.5t107 118.5t176.5 59.5t258.5 16.5v-206q-183 0 -252 -54.5t-69 -195.5v-242q0 -112 -33 -176t-123 -78v-26q88 -13 122 -78t34 -174v-244q0 -138 68 -191t251 -53v-211q-124 0 -212 10.5t-159.5 36t-114 69.5 t-65 110.5t-22.5 160.5v299q0 98 -43.5 145.5t-134.5 47.5z" />
<glyph unicode="|" horiz-adv-x="565" d="M164 -526v2144h237v-2144h-237z" />
<glyph unicode="}" horiz-adv-x="845" d="M20 1307v206q156 0 258.5 -16.5t177 -59.5t107.5 -118.5t33 -192.5v-301q0 -99 42.5 -144.5t135.5 -45.5v-172q-92 0 -135 -47t-43 -146v-299q0 -94 -22.5 -160.5t-65 -110.5t-114 -69.5t-159.5 -36t-212 -10.5v211q183 0 251 53t68 191v244q0 109 34 174t122 78v26 q-90 14 -123 78t-33 176v242q0 141 -69.5 195.5t-252.5 54.5z" />
<glyph unicode="~" horiz-adv-x="1200" d="M137 393v236q49 50 108.5 68t137.5 18q64 0 149.5 -28.5t163 -56.5t123.5 -28q159 0 244 100v-235q-51 -50 -109.5 -68t-134.5 -18q-62 0 -148.5 27.5t-166 55.5t-123.5 28q-159 0 -244 -99z" />
<glyph unicode="&#xa1;" horiz-adv-x="565" d="M145 178l48 395h180l47 -395v-569h-275v569zM147 715v317h271v-317h-271z" />
<glyph unicode="&#xa2;" horiz-adv-x="1153" d="M84 805q0 236 113 381.5t311 171.5v266h172v-264q163 -20 265 -119t128 -266l-268 -12q-31 204 -203 204q-122 0 -184 -92t-62 -264q0 -169 62.5 -259.5t183.5 -90.5q170 0 205 201h266q-26 -172 -127.5 -275t-265.5 -123v-264h-172v266q-200 26 -312 167t-112 372z" />
<glyph unicode="&#xa3;" horiz-adv-x="1234" d="M133 0v215q114 92 160.5 174.5t46.5 167.5q0 13 -2 21h-205v180h156q-56 147 -56 258q0 83 27 153t81.5 125t147 86t213.5 31q41 0 81 -5.5t90.5 -19t93 -41.5t79 -69t57.5 -106.5t21 -147.5h-258q0 172 -172 172q-186 0 -186 -186q0 -39 10 -87t19.5 -77.5t29.5 -85.5 h455v-180h-410q0 -4 1 -11t1 -10q0 -164 -190 -346h704v-211h-995z" />
<glyph unicode="&#xa4;" horiz-adv-x="1251" d="M141 221l138 139q-48 85 -48 189t50 190l-140 140l156 155l139 -141q85 51 189 51q101 0 188 -49l139 139l156 -155l-139 -142q51 -85 51 -188q0 -104 -49 -191l139 -137l-156 -155l-139 139q-88 -51 -190 -51q-106 0 -191 51l-137 -139zM436 547q0 -78 55.5 -132.5 t133.5 -54.5t134 54.5t56 132.5q0 79 -55.5 134.5t-134.5 55.5q-78 0 -133.5 -55.5t-55.5 -134.5z" />
<glyph unicode="&#xa5;" horiz-adv-x="1282" d="M6 1380h289l348 -643l350 643h283l-412 -694h291v-156h-379v-165h379v-156h-379v-209h-272v209h-377v156h377v165h-377v156h287z" />
<glyph unicode="&#xa6;" horiz-adv-x="569" d="M166 369h237v-895h-237v895zM166 727v891h237v-891h-237z" />
<glyph unicode="&#xa7;" horiz-adv-x="1320" d="M72 66h270q3 -72 31 -124t75 -80.5t99.5 -41.5t114.5 -13q116 0 189 43t73 130q0 52 -27.5 90.5t-74.5 62t-108 41.5t-128.5 34.5t-134.5 35.5t-128 50.5t-108 74t-74.5 110t-27.5 154.5q0 173 137 272q-94 97 -94 256q0 101 45.5 178t124.5 122.5t175 68t206 22.5 q60 0 120 -9t133.5 -38t129.5 -74.5t97 -127.5t46 -189h-270q-4 56 -24 99t-48 68t-66 40.5t-73 21t-74 5.5q-47 0 -89.5 -9t-77.5 -28t-56 -51.5t-21 -75.5q0 -51 27.5 -88.5t74.5 -61t107.5 -42t128 -35.5t134.5 -36.5t127.5 -50t107.5 -71.5t74.5 -105t27.5 -147 q0 -179 -133 -291q92 -92 92 -238q0 -189 -144.5 -305t-422.5 -116q-39 0 -79.5 3.5t-96.5 16t-105.5 32t-101 56t-89 84t-62.5 119t-29 158.5zM391 655q0 -46 22.5 -81.5t57 -57t88 -40.5t103 -31t115 -30t112.5 -36q76 42 76 129q0 47 -22 82.5t-55.5 57t-86 40.5t-101 30 t-114 28.5t-111.5 33.5q-84 -39 -84 -125z" />
<glyph unicode="&#xa8;" horiz-adv-x="931" d="M119 1202v268h248v-268h-248zM565 1202v268h248v-268h-248z" />
<glyph unicode="&#xa9;" horiz-adv-x="1548" d="M98 713q0 182 91 338t247 247t338 91q135 0 260 -54.5t216 -145.5t145.5 -216t54.5 -260t-54.5 -260.5t-145.5 -216.5t-216 -146t-260 -55q-182 0 -338 92t-247 248t-91 338zM160 711q0 -163 84.5 -304.5t226.5 -225t303 -83.5q123 0 236 50t195.5 133t131.5 196.5 t49 235.5q0 159 -84.5 300.5t-226 226.5t-301.5 85q-164 0 -306 -83t-225 -224.5t-83 -306.5zM375 713q0 199 108.5 314.5t288.5 115.5q161 0 255.5 -86t111.5 -240h-168q-8 79 -59.5 122.5t-139.5 43.5q-109 0 -168 -71.5t-59 -198.5q0 -126 59 -198.5t166 -72.5 q92 0 143.5 44.5t57.5 129.5h170q-22 -161 -116.5 -248t-254.5 -87q-185 0 -290 115t-105 317z" />
<glyph unicode="&#xaa;" horiz-adv-x="798" d="M78 983q0 48 17 84t44 57t69.5 34.5t83.5 19t97 8.5l86 4v65q0 40 -18.5 62t-69.5 22q-90 0 -98 -86l-191 7q6 54 35.5 94.5t73 62t87.5 31.5t89 10q297 0 297 -209v-241q0 -45 10 -62.5t41 -17.5h41v-115q-75 -14 -108 -14q-75 0 -113.5 29t-42.5 92q-68 -121 -217 -121 q-37 0 -72 9t-68 28.5t-53 57t-20 89.5zM279 1001q0 -79 90 -79q45 0 75.5 34.5t30.5 94.5v51l-90 -6q-106 -7 -106 -95z" />
<glyph unicode="&#xab;" horiz-adv-x="1323" d="M100 547l332 393h252l-330 -395l328 -387h-252zM627 547l331 393h252l-329 -395l327 -387h-252z" />
<glyph unicode="&#xac;" horiz-adv-x="1200" d="M137 623v208h926v-567h-217v359h-709z" />
<glyph unicode="&#xad;" horiz-adv-x="1089" d="M154 453v190h782v-190h-782z" />
<glyph unicode="&#xae;" horiz-adv-x="1239" d="M98 924q0 107 41 203.5t110.5 166.5t166 111t202.5 41q142 0 262.5 -69.5t190.5 -190t70 -262.5t-70 -262t-190.5 -189.5t-262.5 -69.5t-262 69.5t-189 189.5t-69 262zM158 924q0 -192 134 -326.5t326 -134.5t327.5 134.5t135.5 326.5t-135.5 327t-327.5 135t-326 -135 t-134 -327zM346 610v629h264q122 0 193 -49.5t71 -145.5q0 -61 -32 -105.5t-88 -66.5l159 -262h-153l-148 238h-112v-238h-154zM500 952h108q50 0 80.5 23t30.5 67q0 43 -30 67t-81 24h-108v-181z" />
<glyph unicode="&#xaf;" horiz-adv-x="942" d="M119 1253v166h704v-166h-704z" />
<glyph unicode="&#xb0;" horiz-adv-x="741" d="M92 1059q0 119 79.5 199.5t197.5 80.5q120 0 201 -80.5t81 -199.5q0 -120 -81 -199.5t-201 -79.5q-119 0 -198 79.5t-79 199.5zM246 1059q0 -51 36 -87t87 -36q54 0 90.5 36t36.5 87q0 53 -36.5 89t-90.5 36q-51 0 -87 -36.5t-36 -88.5z" />
<glyph unicode="&#xb1;" horiz-adv-x="1200" d="M137 0v205h355v391h-355v205h355v368h217v-368h354v-205h-354v-391h354v-205h-926z" />
<glyph unicode="&#xb4;" horiz-adv-x="739" d="M119 1155l215 363h287l-304 -363h-198z" />
<glyph unicode="&#xb5;" horiz-adv-x="1249" d="M147 -455v1514h267v-643q0 -221 184 -221q107 0 172.5 83.5t65.5 227.5v553h266v-1059h-254v211q-47 -103 -130.5 -161t-182.5 -58q-64 0 -119 22v-469h-269z" />
<glyph unicode="&#xb6;" horiz-adv-x="1429" d="M100 965q0 229 143 362t384 133h231v-1620h189v1620h227v-1812h-647v825q-241 0 -384 132.5t-143 359.5z" />
<glyph unicode="&#xb7;" horiz-adv-x="616" d="M106 342v412h404v-412h-404z" />
<glyph unicode="&#xb8;" horiz-adv-x="702" d="M119 -299q93 -37 172 -37q52 0 82 20.5t30 59.5q0 42 -45.5 69t-136.5 27v82l80 133h141l-90 -135q111 -7 171.5 -61t60.5 -133q0 -29 -11.5 -57.5t-37.5 -58t-77 -47.5t-120 -18q-116 0 -219 37v119z" />
<glyph unicode="&#xba;" horiz-adv-x="870" d="M84 1124q0 166 93 250t257 84q166 0 259 -84t93 -250t-93 -249.5t-259 -83.5q-165 0 -257.5 83.5t-92.5 249.5zM291 1124q0 -202 143 -202q144 0 144 202q0 203 -144 203q-143 0 -143 -203z" />
<glyph unicode="&#xbb;" horiz-adv-x="1296" d="M113 940h252l331 -393l-329 -389h-252l327 387zM612 940h252l332 -393l-330 -389h-252l328 387z" />
<glyph unicode="&#xbc;" horiz-adv-x="1710" d="M96 1096v176l230 108h221v-802h-217v626zM389 0l795 1380h149l-792 -1380h-152zM930 152v139l321 512h305v-518h119v-133h-119v-152h-219v152h-407zM1083 285h254v397z" />
<glyph unicode="&#xbd;" horiz-adv-x="1849" d="M96 1096v176l230 108h221v-802h-217v626zM389 0l795 1380h151l-794 -1380h-152zM1104 0v119q40 31 99.5 73.5t102.5 72t91.5 69t78.5 73t50 75t20 83.5q0 113 -104 113q-121 0 -123 -133h-213q1 76 34 131.5t86 83.5t106.5 40.5t109.5 12.5q156 0 238.5 -69t82.5 -179 q0 -47 -21 -94.5t-53.5 -87t-77.5 -80t-85.5 -71.5t-85.5 -63q-18 -13 -27 -19h359v-150h-668z" />
<glyph unicode="&#xbe;" horiz-adv-x="1847" d="M109 838h213q0 -136 131 -136q62 0 95.5 31t33.5 90q0 107 -162 107h-92v117h92q141 0 141 114q0 99 -112 99q-53 0 -86 -28.5t-33 -105.5h-213q1 62 23.5 110t57 77t80.5 47.5t87.5 25.5t83.5 7q147 0 235 -55.5t88 -153.5q0 -73 -37.5 -119.5t-107.5 -63.5 q73 -11 120.5 -61.5t47.5 -134.5q0 -107 -93 -172.5t-249 -65.5q-50 0 -96 7.5t-92 27t-79.5 49t-54.5 78t-22 109.5zM524 0l795 1380h149l-792 -1380h-152zM1067 152v139l322 512h305v-518h118v-133h-118v-152h-219v152h-408zM1221 285h254v397z" />
<glyph unicode="&#xbf;" horiz-adv-x="1044" d="M88 -43q0 67 22 123.5t56.5 96.5t77 75.5t84.5 69t76.5 69t56.5 83.5t22 104h258q0 -70 -21.5 -130.5t-56 -104.5t-76 -83t-83.5 -72t-76.5 -64.5t-56 -69t-21.5 -77.5q0 -47 16.5 -81t45.5 -52t60.5 -26t68.5 -8q200 0 213 172h256q-4 -70 -25 -128t-51 -97t-71 -69.5 t-82 -47.5t-86.5 -28t-82 -14.5t-71.5 -3.5q-131 0 -230.5 37t-161 120.5t-61.5 205.5zM473 715v317h279v-317h-279z" />
<glyph unicode="&#xc0;" horiz-adv-x="1443" d="M41 0l506 1380h352l504 -1380h-287l-123 346h-549l-118 -346h-285zM385 1782h285l188 -318h-199zM512 563h412l-205 584z" />
<glyph unicode="&#xc1;" horiz-adv-x="1443" d="M41 0l506 1380h352l504 -1380h-287l-123 346h-549l-118 -346h-285zM512 563h412l-205 584zM588 1464l188 318h285l-275 -318h-198z" />
<glyph unicode="&#xc2;" horiz-adv-x="1443" d="M41 0l506 1380h352l504 -1380h-287l-123 346h-549l-118 -346h-285zM373 1464l227 318h242l229 -318h-182l-168 170l-166 -170h-182zM512 563h412l-205 584z" />
<glyph unicode="&#xc3;" horiz-adv-x="1443" d="M41 0l506 1380h352l504 -1380h-287l-123 346h-549l-118 -346h-285zM354 1495q0 46 10.5 89t32.5 83t63 64t97 24q60 0 170 -46t141 -46q38 0 57 19t19 73h143q0 -47 -10 -90t-31.5 -82.5t-63 -63.5t-97.5 -24q-59 0 -169.5 46t-140.5 46q-38 0 -57.5 -19.5t-19.5 -72.5 h-144zM512 563h412l-205 584z" />
<glyph unicode="&#xc4;" horiz-adv-x="1443" d="M41 0l506 1380h352l504 -1380h-287l-123 348l31 -2h-606l28 2l-120 -348h-285zM373 1491v268h250v-268h-250zM481 563h475l-30 -2l-207 586l-207 -586zM819 1491v268h250v-268h-250z" />
<glyph unicode="&#xc5;" horiz-adv-x="1443" d="M41 0l504 1372q-66 69 -66 166q0 102 71 173t173 71q100 0 171 -71t71 -173q0 -93 -64 -164l502 -1374h-287l-123 346h-549l-118 -346h-285zM512 563h412l-205 584zM604 1538q0 -49 33.5 -82t83.5 -33t83.5 33t33.5 82q0 51 -33.5 85t-83.5 34q-49 0 -83 -34.5t-34 -84.5 z" />
<glyph unicode="&#xc6;" horiz-adv-x="1947" d="M41 0l737 1380h1051v-219h-567v-354h528v-211h-528v-373h593v-223h-866v346h-483l-180 -346h-285zM614 563h375v598h-57z" />
<glyph unicode="&#xc7;" horiz-adv-x="1437" d="M100 690q0 330 179 521.5t481 191.5q234 0 388.5 -123t201.5 -344h-281q-31 118 -109.5 181t-199.5 63q-185 0 -284 -129t-99 -361q0 -231 98.5 -359t284.5 -128q247 0 307 239h281q-50 -223 -203.5 -346t-388.5 -123l-35 -55q109 -6 170 -59.5t61 -132.5 q0 -29 -11.5 -58t-37.5 -58t-77 -47t-121 -18q-115 0 -218 37v119q91 -39 172 -39q52 0 82.5 21t30.5 61q0 42 -46.5 68t-137.5 26v84l37 62q-247 40 -386 225t-139 481z" />
<glyph unicode="&#xc8;" horiz-adv-x="1112" d="M154 0v1380h841v-219h-569v-354h530v-209h-530v-375h594v-223h-866zM246 1782h284l189 -318h-199z" />
<glyph unicode="&#xc9;" horiz-adv-x="1112" d="M154 0v1380h841v-219h-569v-354h530v-209h-530v-375h594v-223h-866zM430 1464l188 318h285l-274 -318h-199z" />
<glyph unicode="&#xca;" horiz-adv-x="1112" d="M154 0v1380h841v-219h-569v-354h530v-209h-530v-375h594v-223h-866zM227 1464l226 318h243l228 -318h-183l-168 170l-165 -170h-181z" />
<glyph unicode="&#xcb;" horiz-adv-x="1112" d="M154 0v1380h841v-219h-569v-354h530v-209h-530v-375h594v-223h-866zM227 1491v268h250v-268h-250zM674 1491v268h250v-268h-250z" />
<glyph unicode="&#xcc;" horiz-adv-x="579" d="M-33 1782h285l188 -318h-198zM154 0v1380h272v-1380h-272z" />
<glyph unicode="&#xcd;" horiz-adv-x="579" d="M139 1464l189 318h286l-276 -318h-199zM154 0v1380h272v-1380h-272z" />
<glyph unicode="&#xce;" horiz-adv-x="579" d="M-59 1464l227 318h242l229 -318h-182l-168 170l-166 -170h-182zM154 0v1380h272v-1380h-272z" />
<glyph unicode="&#xcf;" horiz-adv-x="579" d="M-57 1491v268h247v-268h-247zM154 0v1380h272v-1380h-272zM389 1491v268h248v-268h-248z" />
<glyph unicode="&#xd0;" horiz-adv-x="1472" d="M-45 590v205h205v585h504q166 0 301.5 -51t226 -141.5t139.5 -215.5t49 -272q0 -143 -49 -270t-138.5 -222.5t-225 -151.5t-297.5 -56h-510v590h-205zM432 225h230q210 0 326 134t116 341q0 210 -116.5 336.5t-332.5 126.5h-223v-368h307v-205h-307v-365z" />
<glyph unicode="&#xd1;" horiz-adv-x="1490" d="M154 0v1380h284l627 -981v981h272v-1380h-295l-616 958v-958h-272zM379 1495q0 46 10.5 89t32.5 83t63 64t97 24q60 0 170 -46t141 -46q38 0 57 19t19 73h143q0 -47 -10 -90t-32 -82.5t-63.5 -63.5t-97.5 -24q-59 0 -169 46t-140 46q-38 0 -58 -19.5t-20 -72.5h-143z" />
<glyph unicode="&#xd2;" horiz-adv-x="1538" d="M100 690q0 330 180.5 521.5t489.5 191.5q308 0 488 -191t180 -522q0 -332 -180 -524.5t-488 -192.5q-310 0 -490 191.5t-180 525.5zM377 690q0 -231 101 -359t292 -128q190 0 291.5 128t101.5 359t-101.5 360.5t-291.5 129.5q-191 0 -292 -129t-101 -361zM453 1782h284 l189 -318h-199z" />
<glyph unicode="&#xd3;" horiz-adv-x="1540" d="M100 690q0 331 180 522t490 191t490 -191t180 -522q0 -334 -180 -525.5t-490 -191.5t-490 191.5t-180 525.5zM377 690q0 -231 101 -359t292 -128t292 128t101 359q0 232 -101 361t-292 129t-292 -129t-101 -361zM614 1464l189 318h284l-274 -318h-199z" />
<glyph unicode="&#xd4;" horiz-adv-x="1540" d="M100 690q0 331 180 522t490 191t490 -191t180 -522q0 -334 -180 -525.5t-490 -191.5t-490 191.5t-180 525.5zM377 690q0 -231 101 -359t292 -128t292 128t101 359q0 232 -101 361t-292 129t-292 -129t-101 -361zM422 1464l227 318h242l227 -318h-182l-166 170l-166 -170 h-182z" />
<glyph unicode="&#xd5;" horiz-adv-x="1540" d="M100 690q0 331 180 522t490 191t490 -191t180 -522q0 -334 -180 -525.5t-490 -191.5t-490 191.5t-180 525.5zM377 690q0 -231 101 -359t292 -128t292 128t101 359q0 232 -101 361t-292 129t-292 -129t-101 -361zM403 1495q0 46 10 89t32 83t63.5 64t97.5 24q61 0 170 -46 t139 -46q39 0 58.5 19t19.5 73h144q0 -47 -10 -90t-32 -82.5t-63.5 -63.5t-97.5 -24q-59 0 -169 46t-140 46q-39 0 -58.5 -19.5t-19.5 -72.5h-144z" />
<glyph unicode="&#xd6;" horiz-adv-x="1540" d="M100 690q0 331 180 522t490 191t490 -191t180 -522q0 -334 -180 -525.5t-490 -191.5t-490 191.5t-180 525.5zM377 690q0 -231 101 -359t292 -128t292 128t101 359q0 232 -101 361t-292 129t-292 -129t-101 -361zM424 1491v268h248v-268h-248zM870 1491v268h248v-268h-248 z" />
<glyph unicode="&#xd7;" horiz-adv-x="1284" d="M137 195l355 354l-355 356l154 150l352 -357l354 355l150 -150l-352 -354l352 -352l-152 -152l-352 352l-354 -354z" />
<glyph unicode="&#xd8;" horiz-adv-x="1540" d="M100 690q0 331 180 522t490 191q181 0 324 -70l135 223h129l-170 -280q121 -92 186.5 -242t65.5 -344q0 -334 -180 -525.5t-490 -191.5q-183 0 -326 70l-133 -221h-129l168 278q-121 92 -185.5 242t-64.5 348zM377 690q0 -244 106 -368l488 806q-87 52 -201 52 q-191 0 -292 -129t-101 -361zM569 250q83 -47 201 -47q191 0 292 128t101 359q0 240 -106 367z" />
<glyph unicode="&#xd9;" horiz-adv-x="1429" d="M141 522v858h273v-848q0 -162 81.5 -245.5t219.5 -83.5q145 0 225 82.5t80 246.5v848h268v-858q0 -179 -73 -304t-200.5 -185t-299.5 -60q-265 0 -419.5 141t-154.5 408zM369 1782h284l189 -318h-199z" />
<glyph unicode="&#xda;" horiz-adv-x="1429" d="M141 522v858h273v-848q0 -162 81.5 -245.5t219.5 -83.5q145 0 225 82.5t80 246.5v848h268v-858q0 -179 -73 -304t-200.5 -185t-299.5 -60q-265 0 -419.5 141t-154.5 408zM592 1464l186 318h287l-277 -318h-196z" />
<glyph unicode="&#xdb;" horiz-adv-x="1429" d="M141 522v858h273v-848q0 -162 81.5 -245.5t219.5 -83.5q145 0 225 82.5t80 246.5v848h268v-858q0 -179 -73 -304t-200.5 -185t-299.5 -60q-265 0 -419.5 141t-154.5 408zM369 1464l225 318h242l229 -318h-182l-168 170l-166 -170h-180z" />
<glyph unicode="&#xdc;" horiz-adv-x="1429" d="M141 522v858h273v-848q0 -162 81.5 -245.5t219.5 -83.5q145 0 225 82.5t80 246.5v848h268v-858q0 -179 -73 -304t-200.5 -185t-299.5 -60q-265 0 -419.5 141t-154.5 408zM369 1491v268h247v-268h-247zM815 1491v268h248v-268h-248z" />
<glyph unicode="&#xdd;" horiz-adv-x="1282" d="M6 1380h289l348 -643l350 643h283l-500 -845v-535h-272v532zM520 1464l187 318h286l-276 -318h-197z" />
<glyph unicode="&#xde;" horiz-adv-x="1308" d="M154 0v1380h270v-229h274q258 0 393.5 -113t135.5 -338q0 -222 -136 -338t-391 -116h-276v-246h-270zM424 469h252q274 0 274 231q0 228 -276 228h-250v-459z" />
<glyph unicode="&#xdf;" horiz-adv-x="1343" d="M147 0v1049q0 236 125.5 368.5t384.5 132.5q214 0 349 -106t135 -279q0 -258 -215 -360q340 -101 340 -399q0 -190 -142 -310.5t-399 -120.5q-71 0 -162 11v192q47 -8 103 -8q145 0 238 64.5t93 187.5q0 52 -18.5 97t-62 86t-127.5 65t-201 24v168q49 0 94.5 11t93 37.5 t76.5 82t29 133.5q0 110 -67.5 169t-168.5 59q-122 0 -176.5 -77t-54.5 -222v-1055h-267z" />
<glyph unicode="&#xe0;" horiz-adv-x="1187" d="M78 295q0 68 18 121t54 88t79 59t104 37.5t117.5 19.5t129.5 9l170 6v90q0 81 -40.5 126.5t-144.5 45.5q-74 0 -129.5 -35.5t-62.5 -122.5l-258 21q6 72 38 129t77.5 92t105 58.5t116 32.5t113.5 9q451 0 451 -350v-414q0 -85 15 -113t69 -28h61v-176q-92 -25 -160 -25 q-130 0 -184 46t-55 161q-28 -58 -67.5 -100t-84.5 -64.5t-89 -32.5t-91 -10t-92.5 8.5t-93.5 31.5t-84 57.5t-59 92t-23 130.5zM262 1518h287l215 -363h-199zM346 313q0 -36 13 -62.5t31.5 -40.5t43.5 -22.5t44.5 -11t39.5 -2.5q96 0 164 72.5t68 202.5v32l-175 -6 q-107 -3 -168 -39t-61 -123z" />
<glyph unicode="&#xe1;" horiz-adv-x="1187" d="M78 295q0 68 18 121t54 88t79 59t104 37.5t117.5 19.5t129.5 9l170 6v90q0 81 -40.5 126.5t-144.5 45.5q-74 0 -129.5 -35.5t-62.5 -122.5l-258 21q6 72 38 129t77.5 92t105 58.5t116 32.5t113.5 9q451 0 451 -350v-414q0 -85 15 -113t69 -28h61v-176q-92 -25 -160 -25 q-130 0 -184 46t-55 161q-28 -58 -67.5 -100t-84.5 -64.5t-89 -32.5t-91 -10t-92.5 8.5t-93.5 31.5t-84 57.5t-59 92t-23 130.5zM346 313q0 -36 13 -62.5t31.5 -40.5t43.5 -22.5t44.5 -11t39.5 -2.5q96 0 164 72.5t68 202.5v32l-175 -6q-107 -3 -168 -39t-61 -123zM397 1155 l215 363h285l-301 -363h-199z" />
<glyph unicode="&#xe2;" horiz-adv-x="1187" d="M78 295q0 68 18 121t54 88t79 59t104 37.5t117.5 19.5t129.5 9l170 6v90q0 81 -40.5 126.5t-144.5 45.5q-74 0 -129.5 -35.5t-62.5 -122.5l-258 21q6 72 38 129t77.5 92t105 58.5t116 32.5t113.5 9q451 0 451 -350v-414q0 -85 15 -113t69 -28h61v-176q-92 -25 -160 -25 q-130 0 -184 46t-55 161q-28 -58 -67.5 -100t-84.5 -64.5t-89 -32.5t-91 -10t-92.5 8.5t-93.5 31.5t-84 57.5t-59 92t-23 130.5zM236 1155l227 363h242l227 -363h-182l-166 207l-166 -207h-182zM346 313q0 -36 13 -62.5t31.5 -40.5t43.5 -22.5t44.5 -11t39.5 -2.5 q96 0 164 72.5t68 202.5v32l-175 -6q-107 -3 -168 -39t-61 -123z" />
<glyph unicode="&#xe3;" horiz-adv-x="1187" d="M78 295q0 68 18 121t54 88t79 59t104 37.5t117.5 19.5t129.5 9l170 6v90q0 81 -40.5 126.5t-144.5 45.5q-74 0 -129.5 -35.5t-62.5 -122.5l-258 21q6 72 38 129t77.5 92t105 58.5t116 32.5t113.5 9q451 0 451 -350v-414q0 -85 15 -113t69 -28h61v-176q-92 -25 -160 -25 q-130 0 -184 46t-55 161q-28 -58 -67.5 -100t-84.5 -64.5t-89 -32.5t-91 -10t-92.5 8.5t-93.5 31.5t-84 57.5t-59 92t-23 130.5zM219 1206q0 47 10 90t32 82.5t63.5 63.5t97.5 24q61 0 170 -46t139 -46q38 0 57 19.5t19 72.5h143q0 -47 -9.5 -89t-31 -82.5t-63 -64.5 t-98.5 -24q-46 0 -108.5 23t-117.5 46t-84 23q-38 0 -57 -19t-19 -73h-143zM346 313q0 -36 13 -62.5t31.5 -40.5t43.5 -22.5t44.5 -11t39.5 -2.5q96 0 164 72.5t68 202.5v32l-175 -6q-107 -3 -168 -39t-61 -123z" />
<glyph unicode="&#xe4;" horiz-adv-x="1187" d="M78 295q0 68 18 121t54 88t79 59t104 37.5t117.5 19.5t129.5 9l170 6v90q0 81 -40.5 126.5t-144.5 45.5q-74 0 -129.5 -35.5t-62.5 -122.5l-258 21q6 72 38 129t77.5 92t105 58.5t116 32.5t113.5 9q451 0 451 -350v-414q0 -85 15 -113t69 -28h61v-176q-92 -25 -160 -25 q-130 0 -184 46t-55 161q-28 -58 -67.5 -100t-84.5 -64.5t-89 -32.5t-91 -10t-92.5 8.5t-93.5 31.5t-84 57.5t-59 92t-23 130.5zM238 1202v268h247v-268h-247zM346 313q0 -36 13 -62.5t31.5 -40.5t43.5 -22.5t44.5 -11t39.5 -2.5q96 0 164 72.5t68 202.5v32l-175 -6 q-107 -3 -168 -39t-61 -123zM684 1202v268h248v-268h-248z" />
<glyph unicode="&#xe5;" horiz-adv-x="1187" d="M78 295q0 68 18 121t54 88t79 59t104 37.5t117.5 19.5t129.5 9l170 6v90q0 81 -40.5 126.5t-144.5 45.5q-74 0 -129.5 -35.5t-62.5 -122.5l-258 21q6 72 38 129t77.5 92t105 58.5t116 32.5t113.5 9q451 0 451 -350v-414q0 -85 15 -113t69 -28h61v-176q-92 -25 -160 -25 q-130 0 -184 46t-55 161q-28 -58 -67.5 -100t-84.5 -64.5t-89 -32.5t-91 -10t-92.5 8.5t-93.5 31.5t-84 57.5t-59 92t-23 130.5zM342 1376q0 101 71.5 172.5t172.5 71.5q100 0 170.5 -71.5t70.5 -172.5t-70.5 -171t-170.5 -70q-102 0 -173 70t-71 171zM346 313 q0 -36 13 -62.5t31.5 -40.5t43.5 -22.5t44.5 -11t39.5 -2.5q96 0 164 72.5t68 202.5v32l-175 -6q-107 -3 -168 -39t-61 -123zM467 1376q0 -49 33.5 -82.5t83.5 -33.5t83 33t33 83t-33.5 84.5t-82.5 34.5t-83 -34.5t-34 -84.5z" />
<glyph unicode="&#xe6;" horiz-adv-x="1855" d="M78 295q0 58 14.5 105.5t38.5 81t61.5 59t78 41t94.5 25.5t103 15t112 7l170 6v90q0 81 -40.5 126.5t-144.5 45.5q-74 0 -129.5 -35.5t-62.5 -122.5l-258 21q6 72 38 129t77.5 92t105 58.5t116 32.5t113.5 9q259 0 353 -127q139 127 360 127q226 0 354.5 -134.5 t128.5 -387.5l-6 -88h-729q6 -143 68.5 -219t175.5 -76q177 0 215 158h266q-34 -170 -156 -264.5t-317 -94.5q-151 0 -264 56.5t-180 163.5q-132 -220 -404 -220q-47 0 -92.5 8.5t-93.5 31.5t-84 57.5t-59 92t-23 130.5zM346 313q0 -36 13 -62.5t31.5 -40.5t43.5 -22.5 t44.5 -11t39.5 -2.5q96 0 164 72.5t68 202.5v32l-175 -6q-52 -2 -90.5 -10.5t-71.5 -26t-50 -49t-17 -76.5zM1030 635h457q-9 123 -60 185.5t-157 62.5q-101 0 -162 -64t-78 -184z" />
<glyph unicode="&#xe7;" horiz-adv-x="1153" d="M84 520q0 264 139 412.5t379 148.5q196 0 319.5 -102t151.5 -289l-268 -12q-31 205 -203 205q-122 0 -184 -92t-62 -263q0 -170 62.5 -261t183.5 -91q170 0 205 201h266q-28 -187 -146.5 -292.5t-308.5 -109.5l-36 -57q110 -6 170.5 -59t60.5 -133q0 -29 -11.5 -58 t-37.5 -58t-77 -47t-120 -18q-114 0 -219 37v119q91 -39 172 -39q53 0 83 21.5t30 60.5q0 42 -45.5 69t-136.5 27v82l36 64q-191 31 -297 170t-106 364z" />
<glyph unicode="&#xe8;" d="M94 520q0 263 142.5 412t384.5 149q226 0 354.5 -134.5t128.5 -387.5l-6 -88h-729q6 -143 68 -219t175 -76q177 0 215 158h267q-34 -170 -156 -264.5t-317 -94.5q-245 0 -386 144.5t-141 400.5zM289 1518h284l215 -363h-198zM373 635h456q-9 123 -60 185.5t-157 62.5 q-101 0 -161 -64t-78 -184z" />
<glyph unicode="&#xe9;" d="M94 520q0 263 142.5 412t384.5 149q226 0 354.5 -134.5t128.5 -387.5l-6 -88h-729q6 -143 68 -219t175 -76q177 0 215 158h267q-34 -170 -156 -264.5t-317 -94.5q-245 0 -386 144.5t-141 400.5zM373 635h456q-9 123 -60 185.5t-157 62.5q-101 0 -161 -64t-78 -184z M426 1155l217 363h285l-303 -363h-199z" />
<glyph unicode="&#xea;" d="M94 520q0 263 142.5 412t384.5 149q226 0 354.5 -134.5t128.5 -387.5l-6 -88h-729q6 -143 68 -219t175 -76q177 0 215 158h267q-34 -170 -156 -264.5t-317 -94.5q-245 0 -386 144.5t-141 400.5zM258 1155l225 363h244l227 -363h-182l-168 207l-166 -207h-180zM373 635 h456q-9 123 -60 185.5t-157 62.5q-101 0 -161 -64t-78 -184z" />
<glyph unicode="&#xeb;" d="M94 520q0 263 142.5 412t384.5 149q226 0 354.5 -134.5t128.5 -387.5l-6 -88h-729q6 -143 68 -219t175 -76q177 0 215 158h267q-34 -170 -156 -264.5t-317 -94.5q-245 0 -386 144.5t-141 400.5zM260 1202v268h248v-268h-248zM373 635h456q-9 123 -60 185.5t-157 62.5 q-101 0 -161 -64t-78 -184zM707 1202v268h247v-268h-247z" />
<glyph unicode="&#xec;" horiz-adv-x="561" d="M-72 1518h285l215 -363h-197zM147 0v1059h267v-1059h-267z" />
<glyph unicode="&#xed;" horiz-adv-x="561" d="M133 1155l215 363h285l-301 -363h-199zM147 0v1059h267v-1059h-267z" />
<glyph unicode="&#xee;" horiz-adv-x="561" d="M-68 1155l226 363h243l228 -363h-183l-167 207l-166 -207h-181zM147 0v1059h267v-1059h-267z" />
<glyph unicode="&#xef;" horiz-adv-x="561" d="M-68 1202v268h250v-268h-250zM147 0v1059h267v-1059h-267zM379 1202v268h250v-268h-250z" />
<glyph unicode="&#xf0;" d="M84 508q0 250 138.5 391t377.5 141q66 0 117 -22q-60 117 -156 231l-166 -137l-71 88l159 135q-158 163 -370 264h319q106 -57 203 -139l133 115l76 -90l-123 -103q181 -177 287 -407.5t106 -466.5q0 -249 -138 -390t-376 -141q-240 0 -378 141t-138 390zM356 508 q0 -160 62 -245t182 -85t181 85t61 245q0 156 -59.5 245t-182.5 89q-120 0 -182 -87t-62 -247z" />
<glyph unicode="&#xf1;" horiz-adv-x="1249" d="M147 0v1059h254v-213q106 235 357 235q69 0 130 -19.5t110.5 -58.5t78.5 -105.5t29 -152.5v-745h-266v641q0 106 -47 164.5t-138 58.5q-110 0 -175.5 -83.5t-65.5 -229.5v-551h-267zM262 1206q0 47 10 90t32 82.5t63.5 63.5t97.5 24q46 0 108 -23t117 -46t84 -23 q38 0 57 19.5t19 72.5h143q0 -47 -9.5 -89t-31 -82.5t-63 -64.5t-98.5 -24q-59 0 -169.5 46t-140.5 46q-38 0 -56.5 -19t-18.5 -73h-144z" />
<glyph unicode="&#xf2;" d="M84 528q0 260 138.5 406.5t377.5 146.5t376.5 -146.5t137.5 -406.5q0 -259 -137.5 -406t-376.5 -147t-377.5 147.5t-138.5 405.5zM274 1518h287l215 -363h-198zM356 528q0 -170 62 -261t182 -91t181 90.5t61 261.5t-61 263t-181 92t-182 -92t-62 -263z" />
<glyph unicode="&#xf3;" d="M84 528q0 260 138.5 406.5t377.5 146.5t376.5 -146.5t137.5 -406.5q0 -259 -137.5 -406t-376.5 -147t-377.5 147.5t-138.5 405.5zM356 528q0 -170 62 -261t182 -91t181 90.5t61 261.5t-61 263t-181 92t-182 -92t-62 -263zM422 1155l215 363h287l-303 -363h-199z" />
<glyph unicode="&#xf4;" d="M84 528q0 260 138.5 406.5t377.5 146.5t376.5 -146.5t137.5 -406.5q0 -259 -137.5 -406t-376.5 -147t-377.5 147.5t-138.5 405.5zM250 1155l227 363h242l227 -363h-182l-166 207l-166 -207h-182zM356 528q0 -170 62 -261t182 -91t181 90.5t61 261.5t-61 263t-181 92 t-182 -92t-62 -263z" />
<glyph unicode="&#xf5;" d="M84 528q0 260 138.5 406.5t377.5 146.5t376.5 -146.5t137.5 -406.5q0 -259 -137.5 -406t-376.5 -147t-377.5 147.5t-138.5 405.5zM233 1206q0 47 10 90t32 82.5t63.5 63.5t97.5 24q61 0 170 -46t139 -46q38 0 57 19.5t19 72.5h144q0 -46 -9.5 -89t-31.5 -83t-63.5 -64 t-98.5 -24q-46 0 -108 23t-117 46t-84 23q-38 0 -57 -19t-19 -73h-144zM356 528q0 -170 62 -261t182 -91t181 90.5t61 261.5t-61 263t-181 92t-182 -92t-62 -263z" />
<glyph unicode="&#xf6;" d="M84 528q0 260 138.5 406.5t377.5 146.5t376.5 -146.5t137.5 -406.5q0 -259 -137.5 -406t-376.5 -147t-377.5 147.5t-138.5 405.5zM252 1202v268h250v-268h-250zM356 528q0 -170 62 -261t182 -91t181 90.5t61 261.5t-61 263t-181 92t-182 -92t-62 -263zM698 1202v268h250 v-268h-250z" />
<glyph unicode="&#xf7;" horiz-adv-x="1200" d="M137 457v223h926v-223h-926zM481 45v264h238v-264h-238zM481 825v265h238v-265h-238z" />
<glyph unicode="&#xf8;" d="M84 528q0 260 138.5 406.5t377.5 146.5q144 0 248 -55l108 176h111l-139 -225q186 -147 186 -449q0 -259 -137.5 -406t-376.5 -147q-137 0 -252 56l-104 -172h-113l135 221q-182 149 -182 448zM356 528q0 -140 52 -219l327 533q-56 41 -135 41q-120 0 -182 -92t-62 -263z M463 217q56 -41 137 -41q120 0 181 90.5t61 261.5q0 140 -51 222z" />
<glyph unicode="&#xf9;" horiz-adv-x="1249" d="M147 317v742h267v-639q0 -225 184 -225q107 0 172.5 83.5t65.5 227.5v553h266v-1059h-254v211q-111 -236 -352 -236q-71 0 -132.5 19.5t-110.5 59.5t-77.5 107.5t-28.5 155.5zM268 1518h287l215 -363h-199z" />
<glyph unicode="&#xfa;" horiz-adv-x="1249" d="M147 317v742h267v-639q0 -225 184 -225q107 0 172.5 83.5t65.5 227.5v553h266v-1059h-254v211q-111 -236 -352 -236q-71 0 -132.5 19.5t-110.5 59.5t-77.5 107.5t-28.5 155.5zM481 1155l215 363h287l-303 -363h-199z" />
<glyph unicode="&#xfb;" horiz-adv-x="1249" d="M147 317v742h267v-639q0 -225 184 -225q107 0 172.5 83.5t65.5 227.5v553h266v-1059h-254v211q-111 -236 -352 -236q-71 0 -132.5 19.5t-110.5 59.5t-77.5 107.5t-28.5 155.5zM276 1155l226 363h243l228 -363h-182l-168 207l-166 -207h-181z" />
<glyph unicode="&#xfc;" horiz-adv-x="1249" d="M147 317v742h267v-639q0 -225 184 -225q107 0 172.5 83.5t65.5 227.5v553h266v-1059h-254v211q-111 -236 -352 -236q-71 0 -132.5 19.5t-110.5 59.5t-77.5 107.5t-28.5 155.5zM276 1202v268h250v-268h-250zM723 1202v268h250v-268h-250z" />
<glyph unicode="&#xfd;" horiz-adv-x="1130" d="M31 1059h282l250 -748l258 748h279l-602 -1493h-260l188 477zM459 1155l215 363h287l-304 -363h-198z" />
<glyph unicode="&#xfe;" horiz-adv-x="1247" d="M147 -434v2021h254v-571l-8 -178q103 243 355 243q88 0 161 -31.5t131 -95.5t90.5 -173t32.5 -253q0 -141 -32.5 -249t-89.5 -173.5t-131 -98t-162 -32.5q-240 0 -342 213l8 -163v-459h-267zM412 528q0 -352 247 -352q104 0 168 88t64 264q0 178 -64 266.5t-168 88.5 q-247 0 -247 -355z" />
<glyph unicode="&#xff;" horiz-adv-x="1130" d="M31 1059h282l250 -748l258 748h279l-602 -1493h-260l188 477zM217 1202v268h250v-268h-250zM664 1202v268h249v-268h-249z" />
<glyph unicode="&#x152;" horiz-adv-x="2119" d="M100 690q0 330 180.5 521.5t489.5 191.5q243 0 391 -148v125h842v-219h-569v-354h530v-211h-530v-373h594v-223h-867v123q-151 -148 -391 -148q-310 0 -490 191t-180 524zM377 690q0 -231 100.5 -358t292.5 -127q182 0 286.5 118.5t104.5 323.5v90q0 207 -104.5 325 t-286.5 118q-191 0 -292 -129t-101 -361z" />
<glyph unicode="&#x153;" horiz-adv-x="1947" d="M84 528q0 260 138.5 406.5t377.5 146.5q243 0 371 -166q144 166 399 166q226 0 354.5 -134.5t128.5 -387.5l-6 -88h-729q6 -143 68.5 -219t175.5 -76q177 0 215 158h266q-34 -170 -156 -264.5t-317 -94.5q-258 0 -401 162q-128 -162 -369 -162q-239 0 -377.5 147.5 t-138.5 405.5zM356 528q0 -170 62 -261t182 -91t181 90.5t61 261.5t-61 263t-181 92t-182 -92t-62 -263zM1122 635h457q-9 123 -60 185.5t-157 62.5q-101 0 -162 -64t-78 -184z" />
<glyph unicode="&#x178;" horiz-adv-x="1282" d="M6 1380h289l348 -643l350 643h283l-500 -845v-535h-272v532zM295 1491v268h248v-268h-248zM741 1491v268h248v-268h-248z" />
<glyph unicode="&#x2c6;" horiz-adv-x="933" d="M119 1155l225 363h244l227 -363h-182l-168 207l-166 -207h-180z" />
<glyph unicode="&#x2dc;" horiz-adv-x="970" d="M119 1206q0 47 10 90t32 82.5t63.5 63.5t97.5 24q61 0 170 -46t139 -46q38 0 58 19.5t20 72.5h143q0 -46 -10 -89t-32 -83t-63.5 -64t-97.5 -24q-60 0 -170 46t-141 46q-38 0 -57 -19t-19 -73h-143z" />
<glyph unicode="&#x2000;" horiz-adv-x="891" />
<glyph unicode="&#x2001;" horiz-adv-x="1782" />
<glyph unicode="&#x2002;" horiz-adv-x="891" />
<glyph unicode="&#x2003;" horiz-adv-x="1782" />
<glyph unicode="&#x2004;" horiz-adv-x="594" />
<glyph unicode="&#x2005;" horiz-adv-x="445" />
<glyph unicode="&#x2006;" horiz-adv-x="297" />
<glyph unicode="&#x2007;" horiz-adv-x="297" />
<glyph unicode="&#x2008;" horiz-adv-x="222" />
<glyph unicode="&#x2009;" horiz-adv-x="356" />
<glyph unicode="&#x200a;" horiz-adv-x="99" />
<glyph unicode="&#x2010;" horiz-adv-x="1089" d="M154 453v190h782v-190h-782z" />
<glyph unicode="&#x2011;" horiz-adv-x="1089" d="M154 453v190h782v-190h-782z" />
<glyph unicode="&#x2012;" horiz-adv-x="1089" d="M154 453v190h782v-190h-782z" />
<glyph unicode="&#x2013;" horiz-adv-x="1505" d="M154 453v190h1198v-190h-1198z" />
<glyph unicode="&#x2014;" horiz-adv-x="1935" d="M154 453v190h1628v-190h-1628z" />
<glyph unicode="&#x2018;" horiz-adv-x="436" d="M88 883q0 155 19.5 291.5t87.5 330.5h153v-622h-260z" />
<glyph unicode="&#x2019;" horiz-adv-x="436" d="M88 883v622h260q0 -105 -4.5 -175t-28.5 -191.5t-71 -255.5h-156z" />
<glyph unicode="&#x201a;" horiz-adv-x="438" d="M88 301h262q0 -104 -4.5 -174.5t-28.5 -192.5t-71 -256h-158v623z" />
<glyph unicode="&#x201c;" horiz-adv-x="872" d="M88 883q0 155 19.5 291.5t87.5 330.5h153v-622h-260zM526 883q0 103 4.5 174.5t29 192t71.5 255.5h153v-622h-258z" />
<glyph unicode="&#x201d;" horiz-adv-x="872" d="M88 883v622h260q0 -105 -4.5 -175t-28.5 -191.5t-71 -255.5h-156zM526 883v622h258q0 -105 -4.5 -175t-28.5 -191.5t-71 -255.5h-154z" />
<glyph unicode="&#x201e;" horiz-adv-x="878" d="M88 301h262q0 -104 -4.5 -174.5t-28.5 -192.5t-71 -256h-158v623zM528 301h263q0 -103 -4.5 -174t-29.5 -193t-73 -256h-156v623z" />
<glyph unicode="&#x2022;" horiz-adv-x="802" d="M109 545q0 122 86.5 209.5t205.5 87.5q120 0 206.5 -87t86.5 -210q0 -118 -86.5 -203.5t-206.5 -85.5q-119 0 -205.5 85.5t-86.5 203.5z" />
<glyph unicode="&#x2026;" horiz-adv-x="1726" d="M100 0v328h269v-328h-269zM729 0v328h268v-328h-268zM1358 0v328h268v-328h-268z" />
<glyph unicode="&#x202f;" horiz-adv-x="356" />
<glyph unicode="&#x2039;" horiz-adv-x="796" d="M100 547l332 393h252l-330 -395l328 -387h-252z" />
<glyph unicode="&#x203a;" horiz-adv-x="796" d="M113 940h252l331 -393l-329 -389h-252l327 387z" />
<glyph unicode="&#x205f;" horiz-adv-x="445" />
<glyph unicode="&#x20ac;" horiz-adv-x="1507" d="M29 465v133h202q-4 58 -4 92q0 45 2 68h-200v133h217q47 242 208 377t402 135q230 0 377 -130t186 -362h-280q-20 129 -93 199t-190 70q-129 0 -213.5 -74.5t-118.5 -214.5h510l-16 -133h-512q-2 -23 -2 -68q0 -63 4 -92h487l-16 -133h-447q36 -127 118 -194.5t206 -67.5 q118 0 188.5 65.5t90.5 192.5h282q-40 -230 -187.5 -359t-373.5 -129q-238 0 -395.5 129t-210.5 363h-221z" />
<glyph unicode="&#x2122;" horiz-adv-x="1662" d="M43 1319v139h602v-139h-205v-541h-194v541h-203zM711 778v680h262l164 -534l166 534h270v-680h-180v543l-172 -543h-170l-172 543v-543h-168z" />
<glyph unicode="&#x25fc;" horiz-adv-x="1054" d="M0 0v1055h1055v-1055h-1055z" />
</font>
</defs>
</svg>
