<?xml version="1.0" standalone="no"?>
<!DOCTYPE svg PUBLIC "-//W3C//DTD SVG 1.1//EN" "http://www.w3.org/Graphics/SVG/1.1/DTD/svg11.dtd" >
<svg xmlns="http://www.w3.org/2000/svg" xmlns:xlink="http://www.w3.org/1999/xlink" version="1.1">
<metadata></metadata>
<defs>
<font id="stevie_sansblack" horiz-adv-x="1224" >
<font-face units-per-em="2048" ascent="1638" descent="-410" />
<missing-glyph horiz-adv-x="419" />
<glyph unicode="&#xfb01;" horiz-adv-x="1423" d="M31 786v291h141v39q0 34 3.5 65t15 71t31 73t54.5 66.5t81.5 56t116 37t155.5 14.5q98 0 182 -22v-256h-131q-65 0 -93 -33t-28 -72v-39h760v-1077h-387v786h-373v-786h-387v786h-141zM928 1190v285h395v-285h-395z" />
<glyph unicode="&#xfb02;" horiz-adv-x="1423" d="M31 786v291h141v39q0 34 3.5 65t15 71t31 73t54.5 66.5t81.5 56t116 37t155.5 14.5q98 0 182 -22v-256h-131q-65 0 -93 -33t-28 -72v-39h252v-291h-252v-786h-387v786h-141zM932 0v1475h387v-1475h-387z" />
<glyph horiz-adv-x="0" />
<glyph horiz-adv-x="682" />
<glyph unicode=" "  horiz-adv-x="419" />
<glyph unicode="&#x09;" horiz-adv-x="419" />
<glyph unicode="&#xa0;" horiz-adv-x="419" />
<glyph unicode="!" horiz-adv-x="618" d="M109 915v525h401v-525l-72 -407h-258zM117 0v373h387v-373h-387z" />
<glyph unicode="&#x22;" horiz-adv-x="985" d="M72 1149v352h344v-352l-41 -293h-262zM569 1149v352h344v-352l-41 -293h-262z" />
<glyph unicode="#" horiz-adv-x="1501" d="M96 305v266h238l33 265h-193v266h227l37 297h279l-37 -297h242l36 297h279l-37 -297h205v-266h-240l-32 -265h194v-266h-227l-37 -305h-279l37 305h-241l-37 -305h-279l37 305h-205zM612 571h242l33 265h-242z" />
<glyph unicode="$" horiz-adv-x="1355" d="M55 508h385q2 -50 19.5 -90t43.5 -64.5t62 -41t72.5 -23t77.5 -6.5q72 0 124 27.5t52 72.5q0 39 -27.5 67t-74 45.5t-106.5 32t-126.5 30t-132.5 34.5t-126 51t-106.5 75.5t-74 111t-27.5 153.5q0 98 40.5 175t113.5 126.5t165 78t203 38.5v295h240v-301 q61 -11 115.5 -31t112 -58t99.5 -88.5t71 -127.5t34 -170h-393q-4 58 -25.5 99t-55.5 62t-69 30t-73 9q-71 0 -122.5 -25.5t-51.5 -74.5q0 -37 27.5 -64.5t73.5 -45.5t106 -33t126.5 -31.5t133 -36t126.5 -50t106 -71t73.5 -102.5t27.5 -140q0 -81 -26.5 -152t-79 -130 t-137.5 -100.5t-197 -59.5v-301h-242v289q-47 3 -92 10t-100.5 24t-104 41.5t-96 65t-81.5 91.5t-57 124t-26 160z" />
<glyph unicode="%" horiz-adv-x="2082" d="M59 1049q0 163 113 256.5t311 93.5t311 -93.5t113 -256.5t-113 -256t-311 -93t-311 93t-113 256zM383 1049q0 -68 26.5 -106t73.5 -38t73 38t26 106q0 69 -26 107t-73 38t-73.5 -38t-26.5 -107zM504 0l850 1438h225l-850 -1438h-225zM1176 348q0 163 112.5 256.5 t310.5 93.5t311 -93.5t113 -256.5t-113 -255.5t-311 -92.5t-310.5 92.5t-112.5 255.5zM1499 348q0 -68 26.5 -105.5t73.5 -37.5t73 37.5t26 105.5q0 69 -26 107.5t-73 38.5t-73.5 -38.5t-26.5 -107.5z" />
<glyph unicode="&#x26;" horiz-adv-x="1423" d="M78 373q0 123 69 223t201 162l-8 10q-65 80 -98 151.5t-33 155.5q0 105 70.5 186t180.5 121.5t238 40.5q139 0 250 -49t178.5 -150t67.5 -239h-385q0 82 -26.5 117t-82.5 35q-46 0 -74 -23t-28 -70q0 -53 28 -102.5t89 -122.5l303 -370q53 95 53 276h307 q0 -31 -1.5 -62.5t-11.5 -94.5t-27 -118t-52.5 -118.5t-83.5 -110.5l182 -221h-407l-37 43q-128 -70 -301 -70q-247 0 -404 109.5t-157 290.5zM467 440q0 -83 55.5 -141.5t167.5 -58.5q42 0 74 14l-264 321q-33 -51 -33 -135z" />
<glyph unicode="'" horiz-adv-x="487" d="M72 1149v352h344v-352l-41 -293h-262z" />
<glyph unicode="(" horiz-adv-x="704" d="M59 563q0 261 82 506t232 451h311q-125 -187 -203 -436t-78 -521q0 -270 78.5 -526t202.5 -443h-311q-148 206 -231 457.5t-83 511.5z" />
<glyph unicode=")" horiz-adv-x="704" d="M20 -406q124 187 202.5 443t78.5 526q0 272 -78 521t-203 436h312q150 -206 231.5 -450.5t81.5 -506.5q0 -261 -82.5 -512.5t-230.5 -456.5h-312z" />
<glyph unicode="*" horiz-adv-x="1038" d="M102 965l168 94l-168 94l109 217l188 -106v225h240v-225l188 106l109 -217l-168 -94l168 -94l-109 -217l-188 104v-223h-240v223l-188 -104z" />
<glyph unicode="+" horiz-adv-x="1169" d="M117 412v288h315v314h305v-314h316v-288h-316v-310h-305v310h-315z" />
<glyph unicode="," horiz-adv-x="528" d="M80 -346v692h369q0 -104 -6 -183.5t-38 -220.5t-92 -288h-233z" />
<glyph unicode="-" horiz-adv-x="1040" d="M129 424v266h782v-266h-782z" />
<glyph unicode="." horiz-adv-x="538" d="M80 0v389h379v-389h-379z" />
<glyph unicode="/" horiz-adv-x="811" d="M-23 -406l519 1926h338l-519 -1926h-338z" />
<glyph unicode="0" horiz-adv-x="1472" d="M82 698q0 338 176.5 531.5t478.5 193.5q301 0 477.5 -193.5t176.5 -531.5t-176.5 -531.5t-477.5 -193.5q-302 0 -478.5 193.5t-176.5 531.5zM479 698q0 -193 66.5 -298t191.5 -105t191.5 105t66.5 298q0 195 -66.5 301.5t-191.5 106.5t-191.5 -106.5t-66.5 -301.5z" />
<glyph unicode="1" horiz-adv-x="1138" d="M123 870v340l364 189h390v-1399h-392v1053z" />
<glyph unicode="2" horiz-adv-x="1331" d="M88 0v272q65 53 159.5 120.5t166.5 116.5t150 112t129 117.5t84.5 122t33.5 136.5q0 73 -39 115.5t-119 42.5q-27 0 -48.5 -5t-45 -21t-39 -42.5t-26 -73t-11.5 -108.5h-391q1 88 21.5 162t54 126.5t79.5 93.5t95.5 66t106 41.5t107 22.5t101.5 6q268 0 409.5 -116.5 t141.5 -309.5q0 -49 -13 -98t-30.5 -90.5t-52.5 -89t-62 -80.5t-76.5 -78.5t-78.5 -70.5t-86 -68t-80.5 -60t-79.5 -57h596v-305h-1157z" />
<glyph unicode="3" horiz-adv-x="1310" d="M82 473h393q0 -114 53 -170.5t136 -56.5q85 0 131.5 44.5t46.5 123.5q0 155 -254 155h-121v260h119q221 0 221 183q0 69 -41 106t-113 37q-168 0 -168 -229h-389q1 114 39.5 204t96 143.5t134 88.5t146 48t139.5 13q244 0 395.5 -97.5t151.5 -266.5q0 -137 -61 -215 t-185 -109q129 -20 208 -104.5t79 -233.5q0 -190 -156.5 -307t-420.5 -117q-83 0 -160 13.5t-155 49t-134.5 90.5t-93 144t-37.5 203z" />
<glyph unicode="4" horiz-adv-x="1347" d="M61 268v291l471 840h576v-838h188v-293h-188v-268h-385v268h-662zM399 561h324v576z" />
<glyph unicode="5" horiz-adv-x="1302" d="M82 473h389q0 -114 53 -171.5t135 -57.5q88 0 133.5 65t45.5 158t-43.5 156t-130.5 63q-104 0 -170 -94l-355 12l60 795h950v-289h-639l-27 -252q125 94 299 94q144 0 247.5 -62.5t153.5 -166.5t50 -236q0 -236 -150.5 -375t-425.5 -139q-84 0 -161 14t-154 49.5 t-133 90.5t-91 144t-36 202z" />
<glyph unicode="6" horiz-adv-x="1333" d="M76 633q0 160 31 291t86.5 223t135 154.5t174.5 92t206 29.5q153 0 268.5 -44t183.5 -137.5t68 -225.5h-387q0 143 -154 143q-94 0 -150 -86.5t-73 -275.5q124 96 299 96q230 0 361.5 -123.5t131.5 -323.5q0 -203 -159 -338t-414 -135q-149 0 -266.5 52t-191 143 t-112 209.5t-38.5 255.5zM465 524q11 -132 64.5 -207t146.5 -75q91 0 140.5 54t49.5 130q0 87 -44 144t-140 57q-53 0 -111.5 -25t-105.5 -78z" />
<glyph unicode="7" horiz-adv-x="1165" d="M35 1096v303h1079v-244q-192 -245 -348.5 -548t-251.5 -607h-399q185 537 557 1096h-637z" />
<glyph unicode="8" horiz-adv-x="1323" d="M72 383q0 71 24 135t85 122t153 87q-221 88 -221 320q0 166 151.5 271t397.5 105t397 -105t151 -271q0 -231 -223 -320q135 -43 199.5 -138t64.5 -206q0 -189 -159.5 -299.5t-429.5 -110.5t-430 110.5t-160 299.5zM479 412q0 -78 50 -131.5t133 -53.5t132.5 54t49.5 131 q0 84 -51 135t-131 51t-131.5 -51t-51.5 -135zM510 1018q0 -70 40 -117t112 -47t111.5 47t39.5 117q0 76 -39 121t-112 45t-112.5 -45t-39.5 -121z" />
<glyph unicode="9" horiz-adv-x="1333" d="M76 952q0 203 159.5 337t415.5 134q119 0 218.5 -34.5t170.5 -95.5t120.5 -144.5t73 -180t23.5 -202.5q0 -199 -46 -351.5t-129.5 -248.5t-196.5 -144.5t-252 -48.5q-242 0 -387.5 106t-145.5 304h387q0 -72 40.5 -108.5t127.5 -36.5q189 0 211 360q-125 -94 -299 -94 q-230 0 -360.5 122.5t-130.5 325.5zM467 971q0 -87 45.5 -144t140.5 -57q53 0 110 24t103 76q-11 134 -63 209.5t-141 75.5q-93 0 -144 -54t-51 -130z" />
<glyph unicode=":" horiz-adv-x="538" d="M80 0v389h379v-389h-379zM80 711v389h379v-389h-379z" />
<glyph unicode=";" horiz-adv-x="538" d="M80 711v389h379v-389h-379zM84 346h369q0 -104 -6 -184.5t-38 -222.5t-92 -289h-233v696z" />
<glyph unicode="&#x3c;" horiz-adv-x="1122" d="M123 397v377l876 397v-337l-555 -248l555 -248v-338z" />
<glyph unicode="=" horiz-adv-x="1169" d="M117 150v317h936v-317h-936zM117 649v318h936v-318h-936z" />
<glyph unicode="&#x3e;" horiz-adv-x="1122" d="M123 0v338l555 248l-555 248v337l876 -397v-377z" />
<glyph unicode="?" horiz-adv-x="1130" d="M35 1030q5 78 28.5 143t56.5 109t78.5 77.5t90.5 53t95.5 31.5t90 16t78.5 4q82 0 154 -12.5t138.5 -42.5t114 -74.5t75.5 -112.5t28 -153q0 -62 -21.5 -115t-56 -91t-76 -72t-83.5 -65t-76.5 -62t-56 -71t-21.5 -85h-379q1 74 29.5 139t70.5 108t91 83.5t90.5 70 t69.5 64.5t28 69q0 66 -36 92.5t-83 26.5q-134 0 -143 -131h-375zM285 0v373h397v-373h-397z" />
<glyph unicode="@" horiz-adv-x="1994" d="M61 549q0 126 32 241t88.5 206t133 168t166.5 132.5t189 94.5t200 58t199 19q138 0 265.5 -29.5t236.5 -89.5t189.5 -144.5t126.5 -201t46 -253.5q0 -94 -25 -188.5t-76.5 -181t-122.5 -153.5t-170.5 -107t-213.5 -40q-36 0 -68 8t-63 26.5t-53.5 54t-32.5 85.5 q-93 -199 -322 -199q-66 0 -124.5 32t-103.5 93.5t-64.5 164t-4.5 230.5q28 238 141 359t271 121q113 0 189 -61.5t108 -170.5l51 187h277l-86 -596q-9 -62 0 -86.5t39 -24.5q60 0 112.5 62.5t82.5 163.5t30 212q0 109 -34.5 198.5t-93.5 149.5t-140.5 101t-172.5 59.5 t-192 18.5q-68 0 -139 -11.5t-146 -38t-142.5 -65.5t-128 -98t-104.5 -130.5t-70 -168t-26 -207.5q0 -145 41.5 -265t111 -201t164 -137t197.5 -81t213 -25q272 0 478 131l-39 -213q-216 -112 -490 -112q-186 0 -353 60t-296 171.5t-205 285t-76 386.5zM840 557 q-14 -123 20.5 -192.5t100.5 -69.5q142 0 174 262q17 129 -16.5 194.5t-104.5 65.5q-67 0 -112 -66t-62 -194z" />
<glyph unicode="A" horiz-adv-x="1513" d="M23 0l475 1399h522l471 -1399h-408l-90 295h-477l-88 -295h-405zM606 596h295l-149 487z" />
<glyph unicode="B" horiz-adv-x="1359" d="M129 0v1399h571q271 0 409 -87t138 -257q0 -51 -12.5 -97.5t-41 -91.5t-81.5 -79.5t-127 -51.5q151 -28 228 -117.5t77 -207.5q0 -180 -139 -295t-393 -115h-629zM520 264h156q103 0 160 44t57 130q0 43 -21 74.5t-58.5 48t-79 24t-91.5 7.5h-123v-328zM520 842h123 q102 0 159.5 34t57.5 117q0 150 -221 150h-119v-301z" />
<glyph unicode="C" horiz-adv-x="1484" d="M80 698q0 336 189.5 530.5t514.5 194.5q255 0 424.5 -142t216.5 -394h-401q-28 106 -89 162.5t-151 56.5q-149 0 -228 -107.5t-79 -300.5q0 -191 79 -296t228 -105q171 0 232 195h405q-53 -244 -220.5 -381.5t-416.5 -137.5q-325 0 -514.5 193.5t-189.5 531.5z" />
<glyph unicode="D" horiz-adv-x="1505" d="M129 0v1399h539q176 0 320.5 -51.5t241 -143t148.5 -218.5t52 -277q0 -145 -52.5 -273.5t-147 -225.5t-238 -153.5t-314.5 -56.5h-549zM508 315h160q176 0 271 110t95 284q0 181 -96.5 283t-280.5 102h-149v-779z" />
<glyph unicode="E" horiz-adv-x="1138" d="M129 0v1399h885v-309h-494v-238h453v-293h-453v-246h537v-313h-928z" />
<glyph unicode="F" horiz-adv-x="1093" d="M129 0v1399h885v-309h-494v-250h453v-310h-453v-530h-391z" />
<glyph unicode="G" horiz-adv-x="1536" d="M80 696q0 337 189.5 532t514.5 195q256 0 426 -137.5t217 -382.5h-401q-28 97 -89.5 150t-152.5 53q-149 0 -228 -108t-79 -302q0 -198 77 -310t220 -112q105 0 175.5 63t70.5 183v8h-227v252h647v-780h-252l-25 205q-67 -116 -176.5 -174t-243.5 -58q-143 0 -265 50 t-210 141.5t-138 228t-50 303.5z" />
<glyph unicode="H" horiz-adv-x="1511" d="M129 0v1399h391v-525h471v525h391v-1399h-391v539h-471v-539h-391z" />
<glyph unicode="I" horiz-adv-x="649" d="M129 0v1399h391v-1399h-391z" />
<glyph unicode="J" horiz-adv-x="860" d="M4 4v283h168q92 0 130 55t38 182v875h391v-869q0 -63 -1.5 -105t-9.5 -106t-22.5 -107t-43.5 -92t-69.5 -78.5t-103 -49t-141.5 -19.5q-154 0 -336 31z" />
<glyph unicode="K" horiz-adv-x="1499" d="M129 0v1399h391v-520l477 520h465l-565 -608l596 -791h-483l-375 508l-115 -123v-385h-391z" />
<glyph unicode="L" horiz-adv-x="1073" d="M129 0v1399h391v-1086h522v-313h-913z" />
<glyph unicode="M" horiz-adv-x="1939" d="M129 0v1399h584l258 -967l258 967h581v-1399h-391v1010l-286 -1010h-334l-281 1010v-1010h-389z" />
<glyph unicode="N" horiz-adv-x="1544" d="M129 0v1399h395l500 -805v805h391v-1399h-405l-490 782v-782h-391z" />
<glyph unicode="O" horiz-adv-x="1579" d="M80 698q0 336 191.5 530.5t519.5 194.5q327 0 517.5 -194t190.5 -531t-190.5 -531t-517.5 -194q-329 0 -520 193.5t-191 531.5zM477 698q0 -191 81 -296t233 -105t232.5 105t80.5 296q0 193 -80.5 300.5t-232.5 107.5t-233 -107.5t-81 -300.5z" />
<glyph unicode="P" horiz-adv-x="1331" d="M129 0v1399h547q269 0 424 -119t155 -352q0 -230 -156 -356t-421 -126h-158v-446h-391zM520 754h125q215 0 215 174q0 166 -213 166h-127v-340z" />
<glyph unicode="Q" horiz-adv-x="1579" d="M80 698q0 336 191.5 530.5t519.5 194.5q327 0 517.5 -194t190.5 -531q0 -316 -211 -508q187 -16 279 -28l-62 -295q-189 55 -349 80.5t-365 25.5q-329 0 -520 193.5t-191 531.5zM477 698q0 -191 81 -296t233 -105t232.5 105t80.5 296q0 193 -80.5 300.5t-232.5 107.5 t-233 -107.5t-81 -300.5z" />
<glyph unicode="R" horiz-adv-x="1337" d="M129 0v1399h547q267 0 423 -118t156 -339q0 -136 -58.5 -235.5t-166.5 -157.5l281 -549h-410l-239 471h-142v-471h-391zM520 778h125q103 0 159 40.5t56 123.5q0 73 -57 112.5t-156 39.5h-127v-316z" />
<glyph unicode="S" horiz-adv-x="1355" d="M55 492h385q3 -62 28 -108t65.5 -70.5t85.5 -36t96 -11.5q72 0 124 27.5t52 73.5q0 41 -27.5 70.5t-74 48t-106.5 33.5t-126.5 31.5t-132.5 36.5t-126 54t-106.5 79.5t-74 117t-27.5 161.5q0 89 33.5 161t91.5 120.5t138.5 81t171.5 47t194 14.5q44 0 90 -5.5 t100.5 -20.5t104.5 -38.5t98 -62t84 -87.5t60 -119.5t28 -153.5h-393q-10 109 -73.5 155t-149.5 46q-71 0 -122.5 -25.5t-51.5 -75.5q0 -39 27.5 -68t73.5 -48t106 -35t126.5 -32.5t133 -37.5t126.5 -53.5t106 -75t73.5 -108t27.5 -148.5q0 -97 -36.5 -178t-110.5 -144.5 t-195.5 -99t-281.5 -35.5q-44 0 -88.5 4t-106 17.5t-115.5 36t-109.5 62.5t-96.5 92.5t-68 131.5t-31 175z" />
<glyph unicode="T" horiz-adv-x="1222" d="M33 1085v314h1157v-314h-383v-1085h-391v1085h-383z" />
<glyph unicode="U" horiz-adv-x="1484" d="M119 561v838h391v-821q0 -139 62.5 -210t170.5 -71q112 0 174 71t62 210v821h387v-838q0 -191 -79.5 -325t-218 -198.5t-325.5 -64.5q-290 0 -457 150.5t-167 437.5z" />
<glyph unicode="V" horiz-adv-x="1460" d="M20 1399h404l309 -963l305 963h402l-533 -1399h-350z" />
<glyph unicode="W" horiz-adv-x="2209" d="M16 1399h420l232 -993l192 993h508l188 -987l234 987h403l-372 -1399h-523l-202 944l-195 -944h-510z" />
<glyph unicode="X" horiz-adv-x="1437" d="M10 0l379 715l-348 684h448l240 -529l234 529h440l-356 -684l380 -715h-448l-266 553l-252 -553h-451z" />
<glyph unicode="Y" horiz-adv-x="1384" d="M4 1399h410l278 -598l285 598h403l-493 -889v-510h-391v508z" />
<glyph unicode="Z" horiz-adv-x="1239" d="M80 0v299l600 797h-567v303h1020v-291l-603 -801h633v-307h-1083z" />
<glyph unicode="[" horiz-adv-x="835" d="M70 -406v1926h743v-297h-407v-1325h409v-304h-745z" />
<glyph unicode="\" horiz-adv-x="811" d="M-23 1520h338l519 -1926h-338z" />
<glyph unicode="]" horiz-adv-x="835" d="M20 -102h410v1325h-407v297h743v-1926h-746v304z" />
<glyph unicode="^" horiz-adv-x="1327" d="M121 471l362 891h361l362 -891h-319l-223 594l-224 -594h-319z" />
<glyph unicode="_" horiz-adv-x="1513" d="M0 -96h1513v-262h-1513v262z" />
<glyph unicode="`" horiz-adv-x="821" d="M102 1546h387l230 -391h-279z" />
<glyph unicode="a" horiz-adv-x="1245" d="M55 322q0 60 16 108t42.5 81.5t69 59t87 40.5t105.5 25.5t114.5 15t124.5 7.5l99 5v67q0 123 -117 123q-47 0 -84 -28t-41 -99l-377 27q7 78 42.5 139.5t86 99.5t117 63t129 34.5t127.5 9.5q268 0 386 -93.5t118 -283.5v-328q0 -84 15.5 -111.5t66.5 -27.5h49v-252 q-116 -29 -197 -29q-162 0 -232 48t-73 161q-31 -78 -84.5 -126.5t-107.5 -65.5t-115 -17q-49 0 -96 9t-97.5 34t-88 62.5t-61.5 100t-24 141.5zM444 352q0 -30 12.5 -51t32 -29.5t34.5 -12t30 -3.5q70 0 115 50t45 151v10l-105 -4q-37 -2 -63.5 -7t-51 -16t-37 -33.5 t-12.5 -54.5z" />
<glyph unicode="b" horiz-adv-x="1280" d="M104 0v1475h388v-443l-11 -141q88 209 326 209q87 0 160 -33.5t129.5 -100t88.5 -175.5t32 -252q0 -149 -31.5 -260t-88.5 -176.5t-129.5 -96.5t-160.5 -31q-239 0 -328 220v-195h-375zM489 539q0 -147 45.5 -216t124.5 -69q75 0 120.5 71t45.5 214q0 140 -45.5 210 t-120.5 70q-80 0 -125 -68t-45 -212z" />
<glyph unicode="c" horiz-adv-x="1198" d="M63 524q0 272 147 424t402 152q222 0 362 -123.5t163 -345.5l-392 -15q-15 205 -133 205q-77 0 -117 -73t-40 -211q0 -136 40 -208.5t117 -72.5q117 0 133 201h392q-22 -227 -161 -354.5t-364 -127.5q-255 0 -402 146t-147 403z" />
<glyph unicode="d" horiz-adv-x="1280" d="M63 539q0 143 32 252t88.5 175.5t129.5 100t160 33.5q239 0 324 -209l-9 141v443h388v-1475h-375v195q-93 -220 -328 -220q-88 0 -160.5 31t-129.5 96.5t-88.5 176.5t-31.5 260zM455 539q0 -143 45.5 -214t120.5 -71q79 0 124.5 69t45.5 216q0 144 -45 212t-125 68 q-75 0 -120.5 -70t-45.5 -210z" />
<glyph unicode="e" d="M63 524q0 272 152.5 424t415.5 152q115 0 210 -32.5t166.5 -97.5t111.5 -170t40 -241l-6 -86h-696q15 -217 159 -217q63 0 99.5 36t44.5 95h391q-29 -193 -165.5 -302.5t-354.5 -109.5q-264 0 -416 146t-152 403zM463 649h305q-11 84 -47 128t-105 44q-125 0 -153 -172z " />
<glyph unicode="f" horiz-adv-x="827" d="M31 786v291h141v39q0 34 3.5 65t15 71t31 73t54.5 66.5t81.5 56t116 37t155.5 14.5q98 0 182 -22v-256h-131q-65 0 -93 -33t-28 -72v-39h252v-291h-252v-786h-387v786h-141z" />
<glyph unicode="g" horiz-adv-x="1277" d="M63 555q0 143 31.5 250t88.5 170.5t129.5 94t160.5 30.5q236 0 328 -221v198h375v-1036q0 -44 -4.5 -84t-19.5 -90t-39.5 -91.5t-67.5 -82t-100 -68.5t-141.5 -45.5t-187.5 -17.5q-59 0 -120 10.5t-129.5 38t-123 69t-95 111t-50.5 156.5l375 14q4 -63 46 -98t104 -35 q50 0 84 15t51 43.5t23.5 60t6.5 73.5v19l15 192q-83 -219 -330 -219q-87 0 -160 32t-129.5 96t-88.5 170t-32 245zM455 555q0 -131 45.5 -196.5t120.5 -65.5q80 0 125 64t45 198q0 266 -170 266q-75 0 -120.5 -66.5t-45.5 -199.5z" />
<glyph unicode="h" horiz-adv-x="1265" d="M104 0v1475h388v-443l-13 -170q106 238 344 238q68 0 128 -19.5t108.5 -59.5t77 -107.5t28.5 -155.5v-758h-387v584q0 103 -28.5 153.5t-90.5 50.5q-78 0 -122.5 -74t-44.5 -216v-498h-388z" />
<glyph unicode="i" horiz-adv-x="595" d="M100 1190v285h396v-285h-396zM104 0v1077h388v-1077h-388z" />
<glyph unicode="j" horiz-adv-x="595" d="M-158 -113h129q81 0 107 46t26 159v985h388v-983q0 -74 -3.5 -128t-15.5 -113t-32.5 -99.5t-56 -79.5t-85.5 -61.5t-122 -36.5t-163 -14q-88 0 -172 22v303zM98 1190v285h398v-285h-398z" />
<glyph unicode="k" horiz-adv-x="1286" d="M104 0v1475h388v-723l309 325h459l-373 -370l387 -707h-420l-233 442l-129 -129v-313h-388z" />
<glyph unicode="l" horiz-adv-x="595" d="M104 0v1475h388v-1475h-388z" />
<glyph unicode="m" horiz-adv-x="1898" d="M104 0v1077h375v-215q102 238 334 238q114 0 202.5 -59t117.5 -177q102 236 333 236q66 0 124 -19.5t105.5 -59.5t75 -107.5t27.5 -155.5v-758h-387v584q0 103 -26 153.5t-82 50.5q-74 0 -116 -74t-42 -214v-500h-387v584q0 204 -109 204q-73 0 -115 -74t-42 -214v-500 h-388z" />
<glyph unicode="n" horiz-adv-x="1265" d="M104 0v1077h375v-215q104 238 344 238q68 0 128 -19.5t108.5 -59.5t77 -107.5t28.5 -155.5v-758h-387v584q0 103 -28.5 153.5t-90.5 50.5q-78 0 -122.5 -74t-44.5 -214v-500h-388z" />
<glyph unicode="o" d="M63 537q0 265 147 414t402 149t402 -149t147 -414q0 -263 -147 -412.5t-402 -149.5t-402 149.5t-147 412.5zM455 537q0 -136 40 -208.5t117 -72.5q79 0 118.5 72t39.5 209q0 284 -158 284q-77 0 -117 -73t-40 -211z" />
<glyph unicode="p" horiz-adv-x="1280" d="M104 -434v1511h375v-198q88 221 328 221q88 0 160.5 -31.5t129.5 -96.5t88.5 -176t31.5 -259q0 -143 -32 -253t-88.5 -176.5t-129.5 -99.5t-160 -33q-235 0 -324 201l9 -168v-442h-388zM489 537q0 -144 45 -212.5t125 -68.5q75 0 120.5 70.5t45.5 210.5 q0 143 -45.5 213.5t-120.5 70.5q-79 0 -124.5 -68.5t-45.5 -215.5z" />
<glyph unicode="q" horiz-adv-x="1280" d="M63 537q0 148 31.5 259t88.5 176t129.5 96.5t160.5 31.5q236 0 328 -221v198h375v-1511h-388v442l7 168q-89 -201 -322 -201q-87 0 -160 33t-129.5 99.5t-88.5 176.5t-32 253zM455 537q0 -140 45.5 -210.5t120.5 -70.5q80 0 125 68.5t45 212.5q0 147 -45.5 215.5 t-124.5 68.5q-75 0 -120.5 -70.5t-45.5 -213.5z" />
<glyph unicode="r" horiz-adv-x="854" d="M104 0v1077h375v-207q97 230 289 230q50 0 80 -10v-330h-131q-110 0 -167.5 -58.5t-57.5 -187.5v-514h-388z" />
<glyph unicode="s" horiz-adv-x="1116" d="M51 350h375q8 -119 143 -119q46 0 72.5 11t32.5 21.5t6 21.5q0 32 -33 54.5t-86.5 38t-117.5 32t-128 43.5t-117.5 64t-86.5 101t-33 148q0 81 41.5 146t110 105t153 61.5t174.5 21.5q448 0 498 -355l-371 -8q-3 56 -33.5 87.5t-87.5 31.5q-104 0 -104 -53 q0 -28 20.5 -49t56 -35.5t81 -27.5t95.5 -28t100 -32.5t95.5 -44.5t81 -62t56 -87.5t20.5 -117.5q0 -158 -138.5 -251t-375.5 -93q-37 0 -75.5 3.5t-87 14.5t-91.5 27.5t-86.5 46t-76 67.5t-55 93.5t-28.5 122.5z" />
<glyph unicode="t" horiz-adv-x="847" d="M29 786v291h141v258h387v-258h242v-291h-242v-288q0 -109 27 -153t100 -44h115v-301q-85 -25 -166 -25q-89 0 -158.5 13.5t-118 35.5t-83 60t-54.5 78t-31 98.5t-14.5 112t-3.5 127.5v286h-141z" />
<glyph unicode="u" horiz-adv-x="1263" d="M104 317v760h388v-585q0 -103 28 -154t88 -51q75 0 119.5 74.5t44.5 213.5v502h387v-1077h-375v211q-105 -236 -340 -236q-68 0 -127 19.5t-107.5 59.5t-77 107.5t-28.5 155.5z" />
<glyph unicode="v" horiz-adv-x="1245" d="M16 1077h408l203 -751l200 751h402l-381 -1077h-451z" />
<glyph unicode="w" horiz-adv-x="1830" d="M18 1077h408l133 -700l135 700h445l141 -704l131 704h401l-296 -1077h-441l-160 713l-157 -713h-441z" />
<glyph unicode="x" horiz-adv-x="1210" d="M14 0l318 553l-293 524h397l172 -356l174 356h389l-294 -524l319 -553h-405l-191 373l-188 -373h-398z" />
<glyph unicode="y" horiz-adv-x="1222" d="M16 1077h410l184 -641l193 641h403l-612 -1511h-377l195 495z" />
<glyph unicode="z" horiz-adv-x="1081" d="M70 0v246l440 547h-428v284h917v-243l-440 -547h455v-287h-944z" />
<glyph unicode="{" horiz-adv-x="921" d="M63 438v240q102 0 146.5 44t44.5 142v279q0 92 24.5 156.5t72 107.5t128 68t180.5 35t242 10v-295q-170 0 -230.5 -44.5t-60.5 -162.5v-195q0 -109 -37.5 -171.5t-138.5 -76.5v-36q100 -13 138 -77t38 -171v-197q0 -113 59.5 -155.5t229.5 -42.5v-302q-141 0 -241 10 t-180 35t-127.5 68t-72 107.5t-24.5 156.5v279q0 96 -46 142t-145 46z" />
<glyph unicode="|" horiz-adv-x="614" d="M139 -545v2204h336v-2204h-336z" />
<glyph unicode="}" horiz-adv-x="921" d="M20 1225v295q142 0 242 -10t181 -35t128.5 -68t72 -107.5t24.5 -156.5v-279q0 -98 44 -142t146 -44v-240q-99 0 -144.5 -46t-45.5 -142v-279q0 -92 -24.5 -156.5t-72 -107.5t-127.5 -68t-180 -35t-241 -10v302q170 0 229 42.5t59 155.5v197q0 107 38 171t138 77v36 q-101 14 -138.5 76.5t-37.5 171.5v195q0 118 -60.5 162.5t-230.5 44.5z" />
<glyph unicode="~" horiz-adv-x="1128" d="M96 356v330q48 50 109.5 68t140.5 18q51 0 116 -17.5t116.5 -39t109 -39t94.5 -17.5q161 0 250 101v-330q-53 -50 -112 -68t-138 -18q-62 0 -148 28t-165.5 55.5t-124.5 27.5q-163 0 -248 -99z" />
<glyph unicode="&#xa1;" horiz-adv-x="618" d="M109 117l71 407h258l72 -407v-525h-401v525zM117 659v373h387v-373h-387z" />
<glyph unicode="&#xa2;" horiz-adv-x="1198" d="M63 803q0 234 111 380.5t309 182.5v266h234v-262q179 -28 289.5 -148t130.5 -313l-392 -14q-15 205 -133 205q-77 0 -117 -73.5t-40 -211.5q0 -136 40 -208t117 -72q117 0 133 200h392q-20 -201 -130 -324t-292 -151v-260h-230v264q-199 34 -310.5 175t-111.5 364z" />
<glyph unicode="&#xa3;" horiz-adv-x="1312" d="M121 0v297q167 125 198 248h-198v248h151q-51 125 -51 239q0 66 18 124t58.5 109t99.5 87t146.5 57t195.5 21q39 0 76.5 -4t85.5 -16.5t90 -32.5t83 -55.5t70.5 -82t47.5 -115.5t18 -153h-376q0 153 -107 153q-57 0 -85 -31t-28 -83q0 -20 7 -48.5t13.5 -48.5t22 -61.5 t21.5 -58.5h412v-248h-377q-29 -118 -172 -250h671v-295h-1091z" />
<glyph unicode="&#xa4;" horiz-adv-x="1298" d="M113 242l135 135q-37 81 -37 182q0 102 39 184l-135 136l215 217l135 -138q84 41 184 41q98 0 182 -38l136 135l215 -215l-135 -136q43 -88 43 -186q0 -100 -41 -184l137 -135l-217 -215l-135 135q-82 -39 -185 -39q-102 0 -186 41l-135 -135zM496 559q2 -65 45.5 -109 t107.5 -44q63 0 108.5 44.5t45.5 108.5q0 66 -44 110t-110 44q-64 0 -108.5 -44.5t-44.5 -109.5z" />
<glyph unicode="&#xa5;" horiz-adv-x="1384" d="M4 1399h410l278 -598l285 598h403l-381 -686h240v-207h-352v-119h352v-207h-352v-180h-391v180h-351v207h351v119h-351v207h238z" />
<glyph unicode="&#xa6;" horiz-adv-x="618" d="M141 375h336v-920h-336v920zM141 745v914h336v-914h-336z" />
<glyph unicode="&#xa7;" horiz-adv-x="1388" d="M55 115h385q3 -62 28 -108t65.5 -70.5t85.5 -36t96 -11.5q72 0 124 27.5t52 73.5q0 41 -27.5 70.5t-74 48t-106.5 33.5t-126.5 31.5t-132.5 37t-126 54t-106.5 79t-74 116.5t-27.5 161q0 161 111 266q-78 97 -78 252q0 111 50.5 194.5t139 132.5t198 73t237.5 24 q63 0 129 -11t145 -44.5t140 -85t105 -141.5t50 -206h-393q-4 57 -26 98.5t-55.5 62.5t-68.5 30.5t-74 9.5q-71 0 -122.5 -25t-51.5 -75q0 -39 27.5 -68t74 -48t106.5 -35t126.5 -33t132.5 -37.5t126 -53t106.5 -75t74 -108t27.5 -147.5q0 -170 -113 -286q80 -93 80 -232 q0 -97 -36.5 -178t-110.5 -144t-195.5 -98.5t-281.5 -35.5q-37 0 -76 3.5t-91 12t-100 26t-99 43t-93 65.5t-76.5 90.5t-55.5 122t-24 155.5zM494 657q0 -26 11 -47t34.5 -37.5t49 -28.5t66.5 -24.5t74 -21t84.5 -21t85.5 -22.5q25 25 25 53q0 27 -11.5 48.5t-35 38 t-49.5 29t-66.5 24.5t-75 20.5t-85 20.5t-85.5 22q-22 -22 -22 -54z" />
<glyph unicode="&#xa8;" horiz-adv-x="1042" d="M102 1184v334h334v-334h-334zM606 1184v334h334v-334h-334z" />
<glyph unicode="&#xa9;" horiz-adv-x="1515" d="M82 713q0 182 91 338t247 247t338 91q135 0 260 -54.5t216 -145.5t145.5 -216t54.5 -260t-54.5 -260.5t-145.5 -216.5t-216 -146t-260 -55q-182 0 -338 92t-247 248t-91 338zM143 711q0 -163 85 -304.5t227 -225t303 -83.5q123 0 236 50t195.5 133t131.5 196.5t49 235.5 q0 159 -84.5 300.5t-226 226.5t-301.5 85q-123 0 -236.5 -49t-196.5 -131.5t-132.5 -196t-49.5 -237.5zM340 713q0 199 113.5 314.5t302.5 115.5q170 0 270 -93.5t119 -261.5h-238q-6 60 -45 93.5t-106 33.5q-85 0 -131.5 -53.5t-46.5 -148.5t46 -149t130 -54q70 0 109 34.5 t44 100.5h240q-23 -175 -123.5 -269.5t-269.5 -94.5q-194 0 -304 115t-110 317z" />
<glyph unicode="&#xaa;" horiz-adv-x="839" d="M55 999q0 37 10 67t26 50.5t43.5 35.5t53.5 24t66 15.5t71.5 9t77.5 5.5l39 2v60q0 51 -39 51q-25 0 -36.5 -14t-14.5 -48l-276 7q5 47 28.5 85t56.5 61t75.5 39t82.5 22t80 6q177 0 259.5 -57.5t82.5 -176.5v-190q0 -41 11.5 -58.5t40.5 -17.5h32v-156q-82 -16 -135 -16 q-178 0 -194 119q-38 -65 -93 -92t-129 -27q-30 0 -58.5 5t-58 19t-52 35t-36.5 56t-14 79zM344 1030q0 -61 49 -61q22 0 35.5 19t13.5 54v58l-43 -4q-55 -8 -55 -66z" />
<glyph unicode="&#xab;" horiz-adv-x="1433" d="M100 555l332 403h350l-331 -405l329 -395h-350zM643 555l332 403h350l-332 -405l330 -395h-350z" />
<glyph unicode="&#xac;" horiz-adv-x="1169" d="M117 592v289h936v-648h-305v359h-631z" />
<glyph unicode="&#xad;" horiz-adv-x="1040" d="M129 424v266h782v-266h-782z" />
<glyph unicode="&#xae;" horiz-adv-x="1206" d="M82 924q0 107 41 203.5t110.5 166.5t166 111t202.5 41t203 -41t167 -111t111 -167t41 -203q0 -142 -69.5 -262t-190 -189.5t-262.5 -69.5t-262 69.5t-189 189.5t-69 262zM141 924q0 -192 134.5 -326.5t326.5 -134.5t327.5 134.5t135.5 326.5t-135.5 327t-327.5 135 t-326.5 -135t-134.5 -327zM293 610v629h303q135 0 214 -53t79 -152q0 -120 -115 -176l150 -248h-222l-131 213h-55v-213h-223zM516 969h74q74 0 74 61q0 29 -20 45.5t-54 16.5h-74v-123z" />
<glyph unicode="&#xaf;" horiz-adv-x="946" d="M102 1239v223h742v-223h-742z" />
<glyph unicode="&#xb0;" horiz-adv-x="782" d="M70 1059q0 138 91.5 230.5t227.5 92.5q138 0 231 -92.5t93 -230.5t-93 -230t-231 -92q-137 0 -228 92t-91 230zM283 1059q0 -43 31.5 -75t74.5 -32q47 0 79 32t32 75q0 46 -32 77t-79 31q-43 0 -74.5 -31.5t-31.5 -76.5z" />
<glyph unicode="&#xb1;" horiz-adv-x="1169" d="M117 0v287h315v276h-315v287h315v336h305v-336h316v-287h-316v-276h316v-287h-936z" />
<glyph unicode="&#xb4;" horiz-adv-x="821" d="M102 1155l230 391h387l-338 -391h-279z" />
<glyph unicode="&#xb5;" horiz-adv-x="1263" d="M104 -455v1532h388v-585q0 -103 28 -154t88 -51q75 0 119.5 74.5t44.5 213.5v502h387v-1077h-375v211q-92 -213 -290 -234v-432h-390z" />
<glyph unicode="&#xb6;" horiz-adv-x="1660" d="M80 934q0 256 164.5 400.5t453.5 144.5h324v-1569h190v1569h320v-1831h-834v745q-289 0 -453.5 143.5t-164.5 397.5z" />
<glyph unicode="&#xb7;" horiz-adv-x="669" d="M88 305v506h494v-506h-494z" />
<glyph unicode="&#xb8;" horiz-adv-x="727" d="M102 -272q104 -35 174 -35q103 0 103 63q0 32 -44.5 54t-133.5 22v92l84 137h176l-92 -141q124 -4 190 -58.5t66 -135.5q0 -30 -13 -59t-42 -58t-84.5 -46.5t-131.5 -17.5q-129 0 -252 35v148z" />
<glyph unicode="&#xba;" horiz-adv-x="915" d="M63 1133q0 344 394 344q395 0 395 -344q0 -342 -395 -342q-394 0 -394 342zM360 1133q0 -90 24.5 -128t72.5 -38t72 38t24 128q0 91 -24 128t-72 37q-49 0 -73 -37t-24 -128z" />
<glyph unicode="&#xbb;" horiz-adv-x="1433" d="M109 958h350l332 -403l-330 -397h-350l329 395zM651 958h350l332 -403l-329 -397h-351l330 395z" />
<glyph unicode="&#xbc;" horiz-adv-x="1818" d="M35 1047v243l231 109h322v-821h-316v577zM387 0l805 1399h199l-805 -1399h-199zM954 135v187l277 499h448v-512h111v-174h-111v-135h-315v135h-410zM1157 309h207v367z" />
<glyph unicode="&#xbd;" horiz-adv-x="1935" d="M35 1047v243l231 109h322v-821h-316v577zM387 0l805 1399h199l-805 -1399h-199zM1114 0v164q38 26 100 66.5t103 67t90.5 64.5t79 69t49.5 70t20 77q0 75 -59 75q-74 0 -76 -112h-307q1 66 27 118.5t65.5 84t91.5 52t100.5 28t98.5 7.5q179 0 274 -70.5t95 -185.5 q0 -172 -328 -374h336v-201h-760z" />
<glyph unicode="&#xbe;" horiz-adv-x="1992" d="M88 858h305q0 -113 90 -113q40 0 61 26t21 73q0 69 -110 69h-97v150h95q92 0 92 88q0 84 -70 84q-35 0 -54.5 -24t-19.5 -89h-305q1 66 27 118.5t65.5 83.5t91.5 51.5t99.5 28t95.5 7.5q171 0 273 -58.5t102 -162.5q0 -71 -37 -116.5t-104 -63.5q72 -14 117.5 -64.5 t45.5 -132.5q0 -110 -105.5 -178t-283.5 -68q-57 0 -109.5 8t-105.5 29t-91.5 52.5t-63 83.5t-25.5 118zM563 0l805 1399h199l-805 -1399h-199zM1128 135v187l277 499h448v-512h111v-174h-111v-135h-315v135h-410zM1331 309h207v367z" />
<glyph unicode="&#xbf;" horiz-adv-x="1130" d="M68 -37q0 62 21.5 115t56 91t76 72t83.5 65t76.5 62t56 71t21.5 85h379q-1 -74 -29.5 -139t-70.5 -108t-91 -83.5t-90.5 -70t-69.5 -64.5t-28 -69q0 -66 36 -92.5t83 -26.5q134 0 143 131h375q-5 -78 -28.5 -143t-56.5 -109t-78.5 -77.5t-90.5 -53t-95.5 -31.5t-90 -16 t-78.5 -4q-82 0 -154 12.5t-138.5 42.5t-114 74.5t-75.5 112.5t-28 153zM449 659v373h397v-373h-397z" />
<glyph unicode="&#xc0;" horiz-adv-x="1513" d="M23 0l475 1399h522l471 -1399h-408l-90 295h-477l-88 -295h-405zM356 1831h387l203 -346h-278zM606 596h295l-149 487z" />
<glyph unicode="&#xc1;" horiz-adv-x="1513" d="M23 0l475 1399h522l471 -1399h-408l-90 295h-477l-88 -295h-405zM571 1485l203 346h387l-311 -346h-279zM606 596h295l-149 487z" />
<glyph unicode="&#xc2;" horiz-adv-x="1513" d="M23 0l475 1399h522l471 -1399h-408l-90 295h-477l-88 -295h-405zM352 1485l230 346h348l231 -346h-248l-157 157l-158 -157h-246zM606 596h295l-149 487z" />
<glyph unicode="&#xc3;" horiz-adv-x="1513" d="M23 0l475 1399h522l471 -1399h-408l-90 295h-477l-88 -295h-405zM362 1499q0 44 6.5 86t23 85t42 75t65.5 52t91 20q47 0 110.5 -23.5t117 -46.5t75.5 -23q33 0 50.5 19.5t17.5 73.5h188q0 -44 -6.5 -86t-22.5 -85t-41 -75t-65.5 -52t-91.5 -20q-46 0 -109.5 23t-118 46 t-76.5 23q-33 0 -50 -19t-17 -73h-189zM606 596h295l-149 487z" />
<glyph unicode="&#xc4;" horiz-adv-x="1513" d="M23 0l475 1399h522l471 -1399h-408l-90 295h-477l-88 -295h-405zM336 1491v334h334v-334h-334zM606 596h295l-149 487zM840 1491v334h334v-334h-334z" />
<glyph unicode="&#xc5;" horiz-adv-x="1513" d="M23 0l475 1399h39q-52 68 -52 160q0 114 79.5 193t193.5 79q113 0 191.5 -79t78.5 -193q0 -89 -51 -160h43l471 -1399h-408l-90 295h-477l-88 -295h-405zM606 596h295l-149 487zM647 1559q0 -46 31.5 -77.5t77.5 -31.5t78 31.5t32 77.5t-32 78t-78 32t-77.5 -32 t-31.5 -78z" />
<glyph unicode="&#xc6;" horiz-adv-x="2007" d="M23 0l714 1399h1145v-309h-493v-238h452v-293h-452v-246h536v-313h-928v295h-426l-143 -295h-405zM717 596h280v494h-41z" />
<glyph unicode="&#xc7;" horiz-adv-x="1484" d="M80 698q0 336 189.5 530.5t514.5 194.5q255 0 424.5 -142t216.5 -394h-401q-28 106 -89 162.5t-151 56.5q-149 0 -228 -107.5t-79 -300.5q0 -191 79 -296t228 -105q171 0 232 195h405q-53 -244 -220.5 -381.5t-418.5 -137.5l-34 -53q124 -4 190 -58.5t66 -135.5 q0 -30 -13 -59t-42 -58t-84.5 -46.5t-131.5 -17.5q-129 0 -252 35v148q104 -35 174 -35q103 0 103 63q0 32 -44.5 54t-133.5 22v92l38 64q-253 46 -395.5 232t-142.5 478z" />
<glyph unicode="&#xc8;" horiz-adv-x="1138" d="M129 0v1399h885v-309h-494v-238h453v-293h-453v-246h537v-313h-928zM152 1831h387l202 -346h-278z" />
<glyph unicode="&#xc9;" horiz-adv-x="1138" d="M129 0v1399h885v-309h-494v-238h453v-293h-453v-246h537v-313h-928zM401 1485l203 346h387l-311 -346h-279z" />
<glyph unicode="&#xca;" horiz-adv-x="1138" d="M129 0v1399h885v-309h-494v-238h453v-293h-453v-246h537v-313h-928zM168 1485l229 346h348l232 -346h-248l-158 157l-157 -157h-246z" />
<glyph unicode="&#xcb;" horiz-adv-x="1138" d="M129 0v1399h885v-309h-494v-238h453v-293h-453v-246h537v-313h-928zM154 1491v334h333v-334h-333zM657 1491v334h334v-334h-334z" />
<glyph unicode="&#xcc;" horiz-adv-x="649" d="M-59 1831h387l202 -346h-278zM129 0v1399h391v-1399h-391z" />
<glyph unicode="&#xcd;" horiz-adv-x="649" d="M119 1485l203 346h387l-312 -346h-278zM129 0v1399h391v-1399h-391z" />
<glyph unicode="&#xce;" horiz-adv-x="649" d="M-80 1485l230 346h348l231 -346h-248l-157 157l-158 -157h-246zM129 0v1399h391v-1399h-391z" />
<glyph unicode="&#xcf;" horiz-adv-x="649" d="M-94 1491v334h334v-334h-334zM129 0v1399h391v-1399h-391zM410 1491v334h333v-334h-333z" />
<glyph unicode="&#xd0;" horiz-adv-x="1505" d="M-41 555v291h170v553h539q176 0 320.5 -51.5t241 -143t148.5 -218.5t52 -277q0 -145 -52.5 -273.5t-147 -225.5t-238 -153.5t-314.5 -56.5h-549v555h-170zM508 315h160q176 0 271 110t95 284q0 181 -96.5 283t-280.5 102h-149v-248h254v-291h-254v-240z" />
<glyph unicode="&#xd1;" horiz-adv-x="1544" d="M129 0v1399h395l500 -805v805h391v-1399h-405l-490 782v-782h-391zM379 1499q0 44 6.5 86t23 85t41.5 75t65 52t91 20q47 0 110.5 -23.5t117 -46.5t75.5 -23q33 0 50.5 19.5t17.5 73.5h188q0 -44 -6.5 -86t-22.5 -85t-41 -75t-65.5 -52t-91.5 -20q-46 0 -109.5 23 t-117.5 46t-76 23q-33 0 -50.5 -19t-17.5 -73h-188z" />
<glyph unicode="&#xd2;" horiz-adv-x="1579" d="M80 698q0 336 191.5 530.5t519.5 194.5q327 0 517.5 -194t190.5 -531t-190.5 -531t-517.5 -194q-329 0 -520 193.5t-191 531.5zM395 1831h387l203 -346h-278zM477 698q0 -191 81 -296t233 -105t232.5 105t80.5 296q0 193 -80.5 300.5t-232.5 107.5t-233 -107.5 t-81 -300.5z" />
<glyph unicode="&#xd3;" horiz-adv-x="1579" d="M80 698q0 336 191.5 530.5t519.5 194.5q327 0 517.5 -194t190.5 -531t-190.5 -531t-517.5 -194q-329 0 -520 193.5t-191 531.5zM477 698q0 -191 81 -296t233 -105t232.5 105t80.5 296q0 193 -80.5 300.5t-232.5 107.5t-233 -107.5t-81 -300.5zM594 1485l203 346h387 l-312 -346h-278z" />
<glyph unicode="&#xd4;" horiz-adv-x="1579" d="M80 698q0 336 191.5 530.5t519.5 194.5q327 0 517.5 -194t190.5 -531t-190.5 -531t-517.5 -194q-329 0 -520 193.5t-191 531.5zM385 1485l229 346h349l231 -346h-248l-158 157l-157 -157h-246zM477 698q0 -191 81 -296t233 -105t232.5 105t80.5 296q0 193 -80.5 300.5 t-232.5 107.5t-233 -107.5t-81 -300.5z" />
<glyph unicode="&#xd5;" horiz-adv-x="1579" d="M80 698q0 336 191.5 530.5t519.5 194.5q327 0 517.5 -194t190.5 -531t-190.5 -531t-517.5 -194q-329 0 -520 193.5t-191 531.5zM395 1499q0 44 6.5 86t23 85t42 75t65.5 52t91 20q47 0 110.5 -23.5t117 -46.5t75.5 -23q33 0 50 19.5t17 73.5h189q0 -56 -11 -108 t-35.5 -101.5t-71.5 -79t-110 -29.5q-46 0 -109.5 23t-117.5 46t-76 23q-33 0 -50 -19t-17 -73h-189zM477 698q0 -191 81 -296t233 -105t232.5 105t80.5 296q0 193 -80.5 300.5t-232.5 107.5t-233 -107.5t-81 -300.5z" />
<glyph unicode="&#xd6;" horiz-adv-x="1579" d="M80 698q0 336 191.5 530.5t519.5 194.5q327 0 517.5 -194t190.5 -531t-190.5 -531t-517.5 -194q-329 0 -520 193.5t-191 531.5zM371 1491v334h334v-334h-334zM477 698q0 -191 81 -296t233 -105t232.5 105t80.5 296q0 193 -80.5 300.5t-232.5 107.5t-233 -107.5 t-81 -300.5zM874 1491v334h334v-334h-334z" />
<glyph unicode="&#xd7;" horiz-adv-x="1310" d="M117 231l325 326l-325 328l217 211l323 -326l324 324l211 -211l-324 -324l326 -326l-215 -210l-324 321l-325 -326z" />
<glyph unicode="&#xd8;" horiz-adv-x="1579" d="M80 698q0 336 191.5 530.5t519.5 194.5q178 0 317 -59l129 213h164l-170 -283q129 -93 198.5 -245t69.5 -351q0 -337 -190.5 -531t-517.5 -194q-176 0 -320 58l-127 -211h-164l168 280q-129 92 -198.5 245t-69.5 353zM477 698q0 -176 66 -276l391 651q-68 33 -143 33 q-152 0 -233 -107.5t-81 -300.5zM649 328q60 -31 142 -31q152 0 232.5 105t80.5 296q0 173 -66 277z" />
<glyph unicode="&#xd9;" horiz-adv-x="1484" d="M119 561v838h391v-821q0 -139 62.5 -210t170.5 -71q112 0 174 71t62 210v821h387v-838q0 -191 -79.5 -325t-218 -198.5t-325.5 -64.5q-290 0 -457 150.5t-167 437.5zM311 1831h387l203 -346h-278z" />
<glyph unicode="&#xda;" horiz-adv-x="1484" d="M119 561v838h391v-821q0 -139 62.5 -210t170.5 -71q112 0 174 71t62 210v821h387v-838q0 -191 -79.5 -325t-218 -198.5t-325.5 -64.5q-290 0 -457 150.5t-167 437.5zM588 1485l203 346h387l-312 -346h-278z" />
<glyph unicode="&#xdb;" horiz-adv-x="1484" d="M119 561v838h391v-821q0 -139 62.5 -210t170.5 -71q112 0 174 71t62 210v821h387v-838q0 -191 -79.5 -325t-218 -198.5t-325.5 -64.5q-290 0 -457 150.5t-167 437.5zM340 1485l229 346h349l231 -346h-248l-158 157l-157 -157h-246z" />
<glyph unicode="&#xdc;" horiz-adv-x="1484" d="M119 561v838h391v-821q0 -139 62.5 -210t170.5 -71q112 0 174 71t62 210v821h387v-838q0 -191 -79.5 -325t-218 -198.5t-325.5 -64.5q-290 0 -457 150.5t-167 437.5zM326 1491v334h333v-334h-333zM829 1491v334h334v-334h-334z" />
<glyph unicode="&#xdd;" horiz-adv-x="1384" d="M4 1399h410l278 -598l285 598h403l-493 -889v-510h-391v508zM541 1485l202 346h387l-311 -346h-278z" />
<glyph unicode="&#xde;" horiz-adv-x="1413" d="M129 0v1399h391v-211h240q284 0 431.5 -119t147.5 -356t-148.5 -359.5t-430.5 -122.5h-240v-231h-391zM520 549h205q219 0 219 164q0 157 -219 157h-205v-321z" />
<glyph unicode="&#xdf;" horiz-adv-x="1421" d="M104 0v991q0 131 33 233.5t103 178.5t186 116t274 40q240 0 390.5 -112t150.5 -296q0 -242 -190 -350q317 -108 317 -391q0 -193 -151.5 -314t-428.5 -121q-84 0 -180 11v264q25 -4 82 -4t105.5 9.5t90 30.5t65.5 59.5t24 90.5q0 41 -15.5 76t-52 67.5t-108.5 51 t-174 18.5v234q41 0 78 9t74.5 30.5t60 65.5t22.5 106q0 92 -50 140t-128 48q-102 0 -146 -70t-44 -211v-1001h-388z" />
<glyph unicode="&#xe0;" horiz-adv-x="1245" d="M55 322q0 60 16 108t42.5 81.5t69 59t87 40.5t105.5 25.5t114.5 15t124.5 7.5l99 5v67q0 123 -117 123q-47 0 -84 -28t-41 -99l-377 27q7 78 42.5 139.5t86 99.5t117 63t129 34.5t127.5 9.5q268 0 386 -93.5t118 -283.5v-328q0 -84 15.5 -111.5t66.5 -27.5h49v-252 q-116 -29 -197 -29q-162 0 -232 48t-73 161q-31 -78 -84.5 -126.5t-107.5 -65.5t-115 -17q-49 0 -96 9t-97.5 34t-88 62.5t-61.5 100t-24 141.5zM231 1546h387l230 -391h-279zM444 352q0 -30 12.5 -51t32 -29.5t34.5 -12t30 -3.5q70 0 115 50t45 151v10l-105 -4 q-37 -2 -63.5 -7t-51 -16t-37 -33.5t-12.5 -54.5z" />
<glyph unicode="&#xe1;" horiz-adv-x="1245" d="M55 322q0 60 16 108t42.5 81.5t69 59t87 40.5t105.5 25.5t114.5 15t124.5 7.5l99 5v67q0 123 -117 123q-47 0 -84 -28t-41 -99l-377 27q7 78 42.5 139.5t86 99.5t117 63t129 34.5t127.5 9.5q268 0 386 -93.5t118 -283.5v-328q0 -84 15.5 -111.5t66.5 -27.5h49v-252 q-116 -29 -197 -29q-162 0 -232 48t-73 161q-31 -78 -84.5 -126.5t-107.5 -65.5t-115 -17q-49 0 -96 9t-97.5 34t-88 62.5t-61.5 100t-24 141.5zM395 1155l230 391h387l-338 -391h-279zM444 352q0 -30 12.5 -51t32 -29.5t34.5 -12t30 -3.5q70 0 115 50t45 151v10l-105 -4 q-37 -2 -63.5 -7t-51 -16t-37 -33.5t-12.5 -54.5z" />
<glyph unicode="&#xe2;" horiz-adv-x="1245" d="M55 322q0 60 16 108t42.5 81.5t69 59t87 40.5t105.5 25.5t114.5 15t124.5 7.5l99 5v67q0 123 -117 123q-47 0 -84 -28t-41 -99l-377 27q7 78 42.5 139.5t86 99.5t117 63t129 34.5t127.5 9.5q268 0 386 -93.5t118 -283.5v-328q0 -84 15.5 -111.5t66.5 -27.5h49v-252 q-116 -29 -197 -29q-162 0 -232 48t-73 161q-31 -78 -84.5 -126.5t-107.5 -65.5t-115 -17q-49 0 -96 9t-97.5 34t-88 62.5t-61.5 100t-24 141.5zM217 1155l229 391h349l231 -391h-248l-157 193l-158 -193h-246zM444 352q0 -30 12.5 -51t32 -29.5t34.5 -12t30 -3.5 q70 0 115 50t45 151v10l-105 -4q-37 -2 -63.5 -7t-51 -16t-37 -33.5t-12.5 -54.5z" />
<glyph unicode="&#xe3;" horiz-adv-x="1245" d="M55 322q0 60 16 108t42.5 81.5t69 59t87 40.5t105.5 25.5t114.5 15t124.5 7.5l99 5v67q0 123 -117 123q-47 0 -84 -28t-41 -99l-377 27q7 78 42.5 139.5t86 99.5t117 63t129 34.5t127.5 9.5q268 0 386 -93.5t118 -283.5v-328q0 -84 15.5 -111.5t66.5 -27.5h49v-252 q-116 -29 -197 -29q-162 0 -232 48t-73 161q-31 -78 -84.5 -126.5t-107.5 -65.5t-115 -17q-49 0 -96 9t-97.5 34t-88 62.5t-61.5 100t-24 141.5zM229 1192q0 56 11.5 108t36 101t71 78.5t109.5 29.5q47 0 110.5 -23t117 -46t75.5 -23q33 0 50 19t17 73h189q0 -56 -11 -108 t-35.5 -101t-71.5 -78.5t-110 -29.5q-46 0 -109.5 23t-117.5 46t-76 23q-33 0 -50 -19t-17 -73h-189zM444 352q0 -30 12.5 -51t32 -29.5t34.5 -12t30 -3.5q70 0 115 50t45 151v10l-105 -4q-37 -2 -63.5 -7t-51 -16t-37 -33.5t-12.5 -54.5z" />
<glyph unicode="&#xe4;" horiz-adv-x="1245" d="M55 322q0 60 16 108t42.5 81.5t69 59t87 40.5t105.5 25.5t114.5 15t124.5 7.5l99 5v67q0 123 -117 123q-47 0 -84 -28t-41 -99l-377 27q7 78 42.5 139.5t86 99.5t117 63t129 34.5t127.5 9.5q268 0 386 -93.5t118 -283.5v-328q0 -84 15.5 -111.5t66.5 -27.5h49v-252 q-116 -29 -197 -29q-162 0 -232 48t-73 161q-31 -78 -84.5 -126.5t-107.5 -65.5t-115 -17q-49 0 -96 9t-97.5 34t-88 62.5t-61.5 100t-24 141.5zM203 1184v334h334v-334h-334zM444 352q0 -30 12.5 -51t32 -29.5t34.5 -12t30 -3.5q70 0 115 50t45 151v10l-105 -4 q-37 -2 -63.5 -7t-51 -16t-37 -33.5t-12.5 -54.5zM707 1184v334h333v-334h-333z" />
<glyph unicode="&#xe5;" horiz-adv-x="1245" d="M55 322q0 60 16 108t42.5 81.5t69 59t87 40.5t105.5 25.5t114.5 15t124.5 7.5l99 5v67q0 123 -117 123q-47 0 -84 -28t-41 -99l-377 27q7 78 42.5 139.5t86 99.5t117 63t129 34.5t127.5 9.5q268 0 386 -93.5t118 -283.5v-328q0 -84 15.5 -111.5t66.5 -27.5h49v-252 q-116 -29 -197 -29q-162 0 -232 48t-73 161q-31 -78 -84.5 -126.5t-107.5 -65.5t-115 -17q-49 0 -96 9t-97.5 34t-88 62.5t-61.5 100t-24 141.5zM350 1393q0 114 79.5 193t193.5 79q113 0 191.5 -79t78.5 -193t-78.5 -192.5t-191.5 -78.5q-114 0 -193.5 78.5t-79.5 192.5z M444 352q0 -30 12.5 -51t32 -29.5t34.5 -12t30 -3.5q70 0 115 50t45 151v10l-105 -4q-37 -2 -63.5 -7t-51 -16t-37 -33.5t-12.5 -54.5zM512 1393q0 -46 31.5 -77.5t77.5 -31.5t78 31.5t32 77.5t-32 78t-78 32t-77.5 -32t-31.5 -78z" />
<glyph unicode="&#xe6;" horiz-adv-x="1875" d="M55 322q0 60 16 108t42.5 81.5t69 59t87 40.5t105.5 25.5t114.5 15t124.5 7.5l99 5v67q0 123 -117 123q-47 0 -84 -28t-41 -99l-377 27q7 78 42.5 139.5t86 99.5t117 63t129 34.5t127.5 9.5q240 0 356 -84q143 84 330 84q115 0 210 -32.5t166.5 -97.5t111.5 -170t40 -241 l-6 -86h-696q15 -217 160 -217q63 0 99 36t44 95h391q-29 -193 -165.5 -302.5t-354.5 -109.5q-296 0 -448 181q-45 -56 -97.5 -93.5t-108 -55.5t-103 -25t-103.5 -7q-49 0 -96 9t-97.5 34t-88 62.5t-61.5 100t-24 141.5zM444 352q0 -30 12.5 -51t32 -29.5t34.5 -12t30 -3.5 q70 0 115 50t45 151v10l-105 -4q-37 -2 -63.5 -7t-51 -16t-37 -33.5t-12.5 -54.5zM1114 649h305q-11 84 -46.5 128t-104.5 44q-126 0 -154 -172z" />
<glyph unicode="&#xe7;" horiz-adv-x="1198" d="M63 524q0 272 147 424t402 152q222 0 362 -123.5t163 -345.5l-392 -15q-15 205 -133 205q-77 0 -117 -73t-40 -211q0 -136 40 -208.5t117 -72.5q117 0 133 201h392q-22 -219 -152.5 -346t-343.5 -136l-37 -55q124 -4 190 -58.5t66 -135.5q0 -30 -13 -59t-41.5 -58 t-84 -46.5t-131.5 -17.5q-129 0 -252 35v148q104 -35 174 -35q102 0 102 63q0 32 -44.5 54t-133.5 22v92l39 64q-195 37 -303.5 176.5t-108.5 359.5z" />
<glyph unicode="&#xe8;" d="M63 524q0 272 152.5 424t415.5 152q115 0 210 -32.5t166.5 -97.5t111.5 -170t40 -241l-6 -86h-696q15 -217 159 -217q63 0 99.5 36t44.5 95h391q-29 -193 -165.5 -302.5t-354.5 -109.5q-264 0 -416 146t-152 403zM225 1546h387l230 -391h-279zM463 649h305 q-11 84 -47 128t-105 44q-125 0 -153 -172z" />
<glyph unicode="&#xe9;" d="M63 524q0 272 152.5 424t415.5 152q115 0 210 -32.5t166.5 -97.5t111.5 -170t40 -241l-6 -86h-696q15 -217 159 -217q63 0 99.5 36t44.5 95h391q-29 -193 -165.5 -302.5t-354.5 -109.5q-264 0 -416 146t-152 403zM383 1155l229 391h387l-337 -391h-279zM463 649h305 q-11 84 -47 128t-105 44q-125 0 -153 -172z" />
<glyph unicode="&#xea;" d="M63 524q0 272 152.5 424t415.5 152q115 0 210 -32.5t166.5 -97.5t111.5 -170t40 -241l-6 -86h-696q15 -217 159 -217q63 0 99.5 36t44.5 95h391q-29 -193 -165.5 -302.5t-354.5 -109.5q-264 0 -416 146t-152 403zM207 1155l229 391h348l232 -391h-248l-158 193l-157 -193 h-246zM463 649h305q-11 84 -47 128t-105 44q-125 0 -153 -172z" />
<glyph unicode="&#xeb;" d="M63 524q0 272 152.5 424t415.5 152q115 0 210 -32.5t166.5 -97.5t111.5 -170t40 -241l-6 -86h-696q15 -217 159 -217q63 0 99.5 36t44.5 95h391q-29 -193 -165.5 -302.5t-354.5 -109.5q-264 0 -416 146t-152 403zM193 1184v334h333v-334h-333zM463 649h305 q-11 84 -47 128t-105 44q-125 0 -153 -172zM696 1184v334h334v-334h-334z" />
<glyph unicode="&#xec;" horiz-adv-x="595" d="M-115 1546h387l230 -391h-279zM104 0v1077h388v-1077h-388z" />
<glyph unicode="&#xed;" horiz-adv-x="595" d="M94 1155l230 391h387l-338 -391h-279zM104 0v1077h388v-1077h-388z" />
<glyph unicode="&#xee;" horiz-adv-x="595" d="M-106 1155l229 391h348l231 -391h-247l-158 193l-158 -193h-245zM104 0v1077h388v-1077h-388z" />
<glyph unicode="&#xef;" horiz-adv-x="595" d="M-121 1184v334h334v-334h-334zM104 0v1077h388v-1077h-388zM383 1184v334h334v-334h-334z" />
<glyph unicode="&#xf0;" d="M63 518q0 255 147 398t402 143h23q-44 80 -103 162l-149 -123l-92 112l147 125q-163 175 -370 273h438q74 -44 141 -99l115 97l94 -115l-96 -80q182 -182 291.5 -419.5t109.5 -473.5q0 -254 -147 -397.5t-402 -143.5t-402 143.5t-147 397.5zM455 518q0 -127 39.5 -193.5 t117.5 -66.5q158 0 158 258q0 264 -158 264q-77 0 -117 -67.5t-40 -194.5z" />
<glyph unicode="&#xf1;" horiz-adv-x="1265" d="M104 0v1077h375v-215q104 238 344 238q68 0 128 -19.5t108.5 -59.5t77 -107.5t28.5 -155.5v-758h-387v584q0 103 -28.5 153.5t-90.5 50.5q-78 0 -122.5 -74t-44.5 -214v-500h-388zM242 1192q0 56 11.5 108t35.5 101t70.5 78.5t109.5 29.5q47 0 110.5 -23t117 -46 t75.5 -23q33 0 50.5 19t17.5 73h188q0 -56 -11 -108t-35 -101t-71 -78.5t-110 -29.5q-46 0 -109.5 23t-117.5 46t-76 23q-33 0 -50.5 -19t-17.5 -73h-188z" />
<glyph unicode="&#xf2;" d="M63 537q0 265 147 414t402 149t402 -149t147 -414q0 -263 -147 -412.5t-402 -149.5t-402 149.5t-147 412.5zM225 1546h387l230 -391h-279zM455 537q0 -136 40 -208.5t117 -72.5q79 0 118.5 72t39.5 209q0 284 -158 284q-77 0 -117 -73t-40 -211z" />
<glyph unicode="&#xf3;" d="M63 537q0 265 147 414t402 149t402 -149t147 -414q0 -263 -147 -412.5t-402 -149.5t-402 149.5t-147 412.5zM383 1155l229 391h387l-337 -391h-279zM455 537q0 -136 40 -208.5t117 -72.5q79 0 118.5 72t39.5 209q0 284 -158 284q-77 0 -117 -73t-40 -211z" />
<glyph unicode="&#xf4;" d="M63 537q0 265 147 414t402 149t402 -149t147 -414q0 -263 -147 -412.5t-402 -149.5t-402 149.5t-147 412.5zM207 1155l229 391h348l232 -391h-248l-158 193l-157 -193h-246zM455 537q0 -136 40 -208.5t117 -72.5q79 0 118.5 72t39.5 209q0 284 -158 284q-77 0 -117 -73 t-40 -211z" />
<glyph unicode="&#xf5;" d="M63 537q0 265 147 414t402 149t402 -149t147 -414q0 -263 -147 -412.5t-402 -149.5t-402 149.5t-147 412.5zM219 1192q0 56 11.5 108t35.5 101t70.5 78.5t109.5 29.5q47 0 110.5 -23t117.5 -46t76 -23q33 0 50 19t17 73h189q0 -56 -11 -108t-35.5 -101t-71.5 -78.5 t-110 -29.5q-46 0 -109.5 23t-117.5 46t-76 23q-33 0 -50 -19t-17 -73h-189zM455 537q0 -136 40 -208.5t117 -72.5q79 0 118.5 72t39.5 209q0 284 -158 284q-77 0 -117 -73t-40 -211z" />
<glyph unicode="&#xf6;" d="M63 537q0 265 147 414t402 149t402 -149t147 -414q0 -263 -147 -412.5t-402 -149.5t-402 149.5t-147 412.5zM195 1184v334h333v-334h-333zM455 537q0 -136 40 -208.5t117 -72.5q79 0 118.5 72t39.5 209q0 284 -158 284q-77 0 -117 -73t-40 -211zM698 1184v334h334v-334 h-334z" />
<glyph unicode="&#xf7;" horiz-adv-x="1169" d="M117 432v316h936v-316h-936zM420 0v332h330v-332h-330zM420 848v332h330v-332h-330z" />
<glyph unicode="&#xf8;" d="M63 537q0 265 147 414t402 149q139 0 248 -47l105 172h137l-141 -230q96 -71 148 -188t52 -270q0 -263 -147 -412.5t-402 -149.5q-135 0 -250 48l-102 -168h-137l139 225q-199 150 -199 457zM455 537q0 -63 10 -125l233 379q-34 30 -86 30q-77 0 -117 -73t-40 -211z M526 287q36 -31 86 -31q79 0 118.5 72t39.5 209q0 73 -12 129z" />
<glyph unicode="&#xf9;" horiz-adv-x="1263" d="M104 317v760h388v-585q0 -103 28 -154t88 -51q75 0 119.5 74.5t44.5 213.5v502h387v-1077h-375v211q-105 -236 -340 -236q-68 0 -127 19.5t-107.5 59.5t-77 107.5t-28.5 155.5zM184 1546h387l230 -391h-279z" />
<glyph unicode="&#xfa;" horiz-adv-x="1263" d="M104 317v760h388v-585q0 -103 28 -154t88 -51q75 0 119.5 74.5t44.5 213.5v502h387v-1077h-375v211q-105 -236 -340 -236q-68 0 -127 19.5t-107.5 59.5t-77 107.5t-28.5 155.5zM465 1155l229 391h387l-338 -391h-278z" />
<glyph unicode="&#xfb;" horiz-adv-x="1263" d="M104 317v760h388v-585q0 -103 28 -154t88 -51q75 0 119.5 74.5t44.5 213.5v502h387v-1077h-375v211q-105 -236 -340 -236q-68 0 -127 19.5t-107.5 59.5t-77 107.5t-28.5 155.5zM227 1155l230 391h348l231 -391h-248l-157 193l-158 -193h-246z" />
<glyph unicode="&#xfc;" horiz-adv-x="1263" d="M104 317v760h388v-585q0 -103 28 -154t88 -51q75 0 119.5 74.5t44.5 213.5v502h387v-1077h-375v211q-105 -236 -340 -236q-68 0 -127 19.5t-107.5 59.5t-77 107.5t-28.5 155.5zM213 1184v334h334v-334h-334zM717 1184v334h334v-334h-334z" />
<glyph unicode="&#xfd;" horiz-adv-x="1222" d="M16 1077h410l184 -641l193 641h403l-612 -1511h-377l195 495zM471 1155l229 391h387l-337 -391h-279z" />
<glyph unicode="&#xfe;" horiz-adv-x="1280" d="M104 -434v2038h375v-572l-8 -172q44 123 131 181.5t205 58.5q88 0 160.5 -31.5t129.5 -96.5t88.5 -176t31.5 -259q0 -143 -32 -253t-88.5 -176.5t-129.5 -99.5t-160 -33q-235 0 -324 201l9 -168v-442h-388zM489 537q0 -144 45 -212.5t125 -68.5q75 0 120.5 70.5 t45.5 210.5q0 143 -45.5 213.5t-120.5 70.5q-79 0 -124.5 -68.5t-45.5 -215.5z" />
<glyph unicode="&#xff;" horiz-adv-x="1222" d="M16 1077h410l184 -641l193 641h403l-612 -1511h-377l195 495zM193 1184v334h333v-334h-333zM696 1184v334h334v-334h-334z" />
<glyph unicode="&#x152;" horiz-adv-x="2113" d="M80 700q0 334 192 528.5t519 194.5q174 0 313 -59v35h885v-309h-494v-238h453v-293h-453v-246h537v-313h-928v33q-144 -58 -313 -58q-329 0 -520 193.5t-191 531.5zM477 700q0 -191 81 -296t233 -105q146 0 226.5 98t86.5 277v47q-5 182 -85.5 283.5t-227.5 101.5 q-152 0 -233 -107.5t-81 -298.5z" />
<glyph unicode="&#x153;" horiz-adv-x="1933" d="M63 537q0 265 147 414t402 149q217 0 359 -111q145 111 368 111q115 0 210 -32.5t167 -97.5t112 -170t40 -241l-6 -86h-697q15 -217 160 -217q63 0 99 36t44 95h392q-29 -193 -166 -302.5t-355 -109.5q-227 0 -372 109q-136 -109 -355 -109q-255 0 -402 149.5t-147 412.5 zM455 537q0 -136 40 -208.5t117 -72.5q79 0 118.5 72t39.5 209q0 284 -158 284q-77 0 -117 -73t-40 -211zM1171 649h306q-11 84 -47 128t-105 44q-126 0 -154 -172z" />
<glyph unicode="&#x178;" horiz-adv-x="1384" d="M4 1399h410l278 -598l285 598h403l-493 -889v-510h-391v508zM274 1491v334h334v-334h-334zM778 1491v334h334v-334h-334z" />
<glyph unicode="&#x2c6;" horiz-adv-x="1013" d="M102 1155l230 391h348l231 -391h-247l-158 193l-158 -193h-246z" />
<glyph unicode="&#x2dc;" horiz-adv-x="991" d="M102 1192q0 56 11.5 108t36 101t71 78.5t109.5 29.5q47 0 110.5 -23t117 -46t75.5 -23q33 0 50 19t17 73h189q0 -56 -11 -108t-35 -101t-71 -78.5t-110 -29.5q-46 0 -109.5 23t-118 46t-76.5 23q-33 0 -50 -19t-17 -73h-189z" />
<glyph unicode="&#x2000;" horiz-adv-x="915" />
<glyph unicode="&#x2001;" horiz-adv-x="1831" />
<glyph unicode="&#x2002;" horiz-adv-x="915" />
<glyph unicode="&#x2003;" horiz-adv-x="1831" />
<glyph unicode="&#x2004;" horiz-adv-x="610" />
<glyph unicode="&#x2005;" horiz-adv-x="457" />
<glyph unicode="&#x2006;" horiz-adv-x="305" />
<glyph unicode="&#x2007;" horiz-adv-x="305" />
<glyph unicode="&#x2008;" horiz-adv-x="228" />
<glyph unicode="&#x2009;" horiz-adv-x="366" />
<glyph unicode="&#x200a;" horiz-adv-x="101" />
<glyph unicode="&#x2010;" horiz-adv-x="1040" d="M129 424v266h782v-266h-782z" />
<glyph unicode="&#x2011;" horiz-adv-x="1040" d="M129 424v266h782v-266h-782z" />
<glyph unicode="&#x2012;" horiz-adv-x="1040" d="M129 424v266h782v-266h-782z" />
<glyph unicode="&#x2013;" horiz-adv-x="1544" d="M129 424v266h1286v-266h-1286z" />
<glyph unicode="&#x2014;" horiz-adv-x="1931" d="M129 424v266h1673v-266h-1673z" />
<glyph unicode="&#x2018;" horiz-adv-x="524" d="M80 805q0 105 5.5 184.5t37.5 222t92 289.5h229v-696h-364z" />
<glyph unicode="&#x2019;" horiz-adv-x="524" d="M80 805v696h364q0 -105 -5.5 -184.5t-37.5 -222t-92 -289.5h-229z" />
<glyph unicode="&#x201a;" horiz-adv-x="528" d="M80 346h369q0 -104 -6 -184.5t-38 -222.5t-92 -289h-233v696z" />
<glyph unicode="&#x201c;" horiz-adv-x="1056" d="M80 805q0 105 5.5 184.5t37.5 222t92 289.5h229v-696h-364zM612 805q0 104 6 184.5t38 222.5t92 289h229v-696h-365z" />
<glyph unicode="&#x201d;" horiz-adv-x="1056" d="M80 805v696h364q0 -105 -5.5 -184.5t-37.5 -222t-92 -289.5h-229zM612 805v696h365q0 -105 -5.5 -184.5t-37.5 -222t-92 -289.5h-230z" />
<glyph unicode="&#x201e;" horiz-adv-x="1064" d="M80 346h369q0 -104 -6 -184.5t-38 -222.5t-92 -289h-233v696zM616 346h369q0 -105 -5.5 -184.5t-37.5 -222t-92 -289.5h-234v696z" />
<glyph unicode="&#x2022;" horiz-adv-x="864" d="M90 553q0 142 101 244t239 102q141 0 242.5 -102t101.5 -244q0 -138 -101.5 -238t-242.5 -100q-138 0 -239 100t-101 238z" />
<glyph unicode="&#x2026;" horiz-adv-x="2058" d="M100 0v389h379v-389h-379zM840 0v389h379v-389h-379zM1579 0v389h379v-389h-379z" />
<glyph unicode="&#x202f;" horiz-adv-x="366" />
<glyph unicode="&#x2039;" horiz-adv-x="890" d="M100 555l332 403h350l-331 -405l329 -395h-350z" />
<glyph unicode="&#x203a;" horiz-adv-x="890" d="M109 958h350l332 -403l-330 -397h-350l329 395z" />
<glyph unicode="&#x205f;" horiz-adv-x="457" />
<glyph unicode="&#x20ac;" horiz-adv-x="1536" d="M20 449v167h193q-2 27 -2 82v41h-191v166h211q53 244 223 381t425 137q236 0 394 -136t204 -378h-402q-24 95 -73.5 146t-122.5 51q-180 0 -244 -201h364l-18 -166h-373v-41q0 -32 4 -82h359l-15 -167h-305q70 -152 228 -152q138 0 186 172h408q-47 -232 -205 -364 t-389 -132q-245 0 -412 125t-227 351h-220z" />
<glyph unicode="&#x2122;" horiz-adv-x="1822" d="M39 1278v199h659v-199h-190v-500h-281v500h-188zM760 778v699h385l102 -500l105 500h399v-699h-262v522l-115 -522h-254l-119 522v-522h-241z" />
<glyph unicode="&#x25fc;" horiz-adv-x="1075" d="M0 0v1075h1075v-1075h-1075z" />
</font>
</defs>
</svg>
