<?xml version="1.0" standalone="no"?>
<!DOCTYPE svg PUBLIC "-//W3C//DTD SVG 1.1//EN" "http://www.w3.org/Graphics/SVG/1.1/DTD/svg11.dtd" >
<svg xmlns="http://www.w3.org/2000/svg" xmlns:xlink="http://www.w3.org/1999/xlink" version="1.1">
<metadata></metadata>
<defs>
<font id="stevie_sansregular" horiz-adv-x="1189" >
<font-face units-per-em="2048" ascent="1638" descent="-410" />
<missing-glyph horiz-adv-x="462" />
<glyph unicode="&#xfb01;" horiz-adv-x="1263" d="M41 879v174h158v92q0 41 2.5 73t11 70t23.5 66.5t41.5 56.5t63.5 46t90.5 29t121.5 11q86 0 137 -14v-154h-115q-89 0 -120 -44.5t-31 -135.5v-96h678v-1053h-225v879h-453v-879h-225v879h-158zM870 1237v209h238v-209h-238z" />
<glyph unicode="&#xfb02;" horiz-adv-x="1263" d="M41 879v174h158v92q0 41 2.5 73t11 70t23.5 66.5t41.5 56.5t63.5 46t90.5 29t121.5 11q86 0 137 -14v-154h-115q-89 0 -120 -44.5t-31 -135.5v-96h262v-174h-262v-879h-225v879h-158zM877 0v1475h225v-1475h-225z" />
<glyph horiz-adv-x="0" />
<glyph horiz-adv-x="682" />
<glyph unicode=" "  horiz-adv-x="462" />
<glyph unicode="&#x09;" horiz-adv-x="462" />
<glyph unicode="&#xa0;" horiz-adv-x="462" />
<glyph unicode="!" horiz-adv-x="546" d="M158 0v299h231v-299h-231zM158 834v583h231v-583l-39 -392h-153z" />
<glyph unicode="&#x22;" horiz-adv-x="733" d="M78 1180v327h207v-327l-25 -242h-158zM449 1180v327h204v-327l-24 -242h-156z" />
<glyph unicode="#" horiz-adv-x="1536" d="M131 375v164h295l39 307h-256v166h278l45 362h173l-46 -362h316l45 362h172l-47 -362h260v-166h-281l-39 -307h242v-164h-260l-47 -375h-172l45 375h-313l-48 -375h-172l46 375h-275zM598 539h315l39 307h-315z" />
<glyph unicode="$" horiz-adv-x="1253" d="M78 451h231q2 -60 22 -107.5t51.5 -77.5t74.5 -50t88.5 -28t97.5 -8q130 0 210.5 49t80.5 150q0 61 -35 104t-92 66t-130 44.5t-149.5 37.5t-149.5 46t-130 69.5t-92 109t-35 162.5q0 89 37.5 160t102.5 115.5t145.5 70t173.5 31.5v297h157v-299q57 -7 109 -21.5 t109.5 -45.5t99.5 -75t71.5 -115t34.5 -159h-231q-4 60 -25.5 105.5t-51 71.5t-70.5 42t-78.5 21.5t-79.5 5.5q-71 0 -129.5 -18t-99 -62t-40.5 -107q0 -53 28 -92.5t75 -64t108 -43.5t129 -35t135.5 -35t128.5 -47.5t108 -67.5t75 -101t28 -142q0 -160 -112.5 -269.5 t-321.5 -132.5v-299h-157v293q-40 2 -80 8t-90 20t-93.5 35t-87 56.5t-75 80t-52.5 109.5t-24 142z" />
<glyph unicode="%" horiz-adv-x="1843" d="M84 1042q0 152 92.5 242t253.5 90q163 0 255.5 -90t92.5 -242t-92.5 -240.5t-255.5 -88.5q-162 0 -254 88.5t-92 240.5zM276 1042q0 -93 40 -144.5t114 -51.5t114 51.5t40 144.5q0 96 -39.5 148.5t-114.5 52.5t-114.5 -52.5t-39.5 -148.5zM451 0l815 1425h149l-815 -1425 h-149zM1065 332q0 152 92.5 241t255.5 89q162 0 254 -89t92 -241t-92.5 -242t-253.5 -90q-163 0 -255.5 90t-92.5 242zM1257 332q0 -95 40 -147t116 -52q74 0 114 52t40 147q0 94 -40 146t-114 52q-76 0 -116 -51.5t-40 -146.5z" />
<glyph unicode="&#x26;" horiz-adv-x="1327" d="M102 381q0 122 65.5 223t190.5 160q-64 87 -95.5 154t-31.5 147q0 156 122.5 252t297.5 96q178 0 296 -96t118 -268h-225q0 93 -50 139.5t-137 46.5q-85 0 -132.5 -49t-47.5 -139q0 -54 21 -104.5t45 -82.5t77 -96l361 -436q76 125 76 329h186q0 -67 -10.5 -140.5 t-46 -168.5t-92.5 -158l157 -190h-246l-63 76q-120 -99 -328 -99q-144 0 -259.5 49.5t-182 142t-66.5 212.5zM336 414q0 -122 87.5 -195.5t223.5 -73.5q113 0 182 60l-372 442q-65 -40 -93 -96.5t-28 -136.5z" />
<glyph unicode="'" horiz-adv-x="362" d="M78 1180v327h207v-327l-25 -242h-158z" />
<glyph unicode="(" horiz-adv-x="581" d="M74 537q0 266 78.5 512.5t224.5 451.5h184q-119 -188 -194.5 -439t-75.5 -525q0 -269 74 -524.5t190 -442.5h-184q-141 205 -219 456t-78 511z" />
<glyph unicode=")" horiz-adv-x="581" d="M20 1501h185q146 -205 224.5 -451.5t78.5 -512.5q0 -260 -78 -511t-219 -456h-184q117 185 190.5 441t73.5 526q0 274 -75.5 525t-195.5 439z" />
<glyph unicode="*" horiz-adv-x="942" d="M102 926l228 123l-226 125l60 120l239 -131v281h138v-279l237 129l62 -120l-230 -125l230 -125l-64 -117l-235 127v-279h-138v279l-239 -129z" />
<glyph unicode="+" horiz-adv-x="1208" d="M143 455v180h367v366h188v-366h367v-180h-367v-365h-188v365h-367z" />
<glyph unicode="," horiz-adv-x="409" d="M92 287h225q0 -103 -4 -170.5t-26 -181.5t-64 -244h-131v596z" />
<glyph unicode="-" horiz-adv-x="1107" d="M162 463v164h782v-164h-782z" />
<glyph unicode="." horiz-adv-x="413" d="M92 0v307h230v-307h-230z" />
<glyph unicode="/" horiz-adv-x="733" d="M4 -416l518 1927h207l-518 -1927h-207z" />
<glyph unicode="0" horiz-adv-x="1390" d="M109 686q0 330 158 520.5t429 190.5q270 0 429 -190.5t159 -520.5t-159 -521.5t-429 -191.5q-271 0 -429 191t-158 522zM346 686q0 -246 90.5 -381t259.5 -135q170 0 261.5 135t91.5 381t-92 382t-261 136t-259.5 -136t-90.5 -382z" />
<glyph unicode="1" horiz-adv-x="1081" d="M154 977v209l362 188h229v-1374h-231v1159z" />
<glyph unicode="2" horiz-adv-x="1239" d="M104 0v156q68 60 167.5 136.5t174.5 132t157 127.5t135 134t87.5 138.5t34.5 154.5q0 118 -63 183t-191 65q-41 0 -75 -6t-70.5 -25t-61.5 -50t-41.5 -85t-17.5 -127h-231q2 109 36 193.5t85 134t119.5 81t131 43t127.5 11.5q236 0 360 -114.5t124 -303.5 q0 -71 -22 -140.5t-65 -133t-89.5 -118.5t-114 -114t-118 -100.5t-121.5 -97t-107 -85.5h661v-190h-1012z" />
<glyph unicode="3" horiz-adv-x="1236" d="M111 418h233q0 -143 76.5 -207t202.5 -64q130 0 203 63t73 179q0 236 -348 236h-123v163h121q150 0 232.5 59t82.5 181q0 95 -65.5 147t-182.5 52q-260 0 -262 -273h-229q1 101 35 181.5t85 128t118.5 79t129 43t123.5 11.5q213 0 344.5 -93t131.5 -255q0 -265 -263 -322 q131 -16 217.5 -104t86.5 -242q0 -181 -140 -294.5t-372 -113.5q-73 0 -141 12.5t-136 44t-118 80t-82 128t-33 180.5z" />
<glyph unicode="4" horiz-adv-x="1282" d="M88 299v178l578 897h331v-895h207v-180h-207v-299h-227v299h-682zM295 479h475v721z" />
<glyph unicode="5" horiz-adv-x="1234" d="M109 418h229q1 -74 22.5 -128t59.5 -85t85 -45.5t105 -14.5q137 0 212 80.5t75 214.5q0 133 -66.5 215t-193.5 82q-79 0 -141 -26.5t-125 -92.5l-203 11l57 745h817v-180h-630l-37 -393q135 104 317 104q209 0 323.5 -127t114.5 -329q0 -210 -139 -343t-383 -133 q-73 0 -139.5 12.5t-133.5 44t-115.5 80.5t-79 128t-31.5 180z" />
<glyph unicode="6" horiz-adv-x="1261" d="M111 633q0 194 42.5 342t120 239.5t180.5 137t230 45.5q195 0 317.5 -90.5t122.5 -255.5h-227q0 88 -59 134t-164 46q-156 0 -240.5 -124t-91.5 -396q67 79 163.5 122.5t203.5 43.5q212 0 331 -124t119 -323q0 -194 -141 -325.5t-367 -131.5q-131 0 -235 50t-170 139 t-100.5 208.5t-34.5 262.5zM344 528q3 -106 36 -190.5t101.5 -138.5t163.5 -54q134 0 209.5 77.5t75.5 197.5q0 131 -65 211t-193 80q-201 0 -328 -183z" />
<glyph unicode="7" horiz-adv-x="1067" d="M25 1188v186h985v-160q-408 -578 -609 -1214h-239q191 575 590 1188h-727z" />
<glyph unicode="8" horiz-adv-x="1243" d="M102 365q0 133 76.5 229t204.5 127q-125 36 -182.5 120t-57.5 197q0 155 133.5 257t346.5 102t346 -101.5t133 -257.5q0 -112 -59.5 -196.5t-184.5 -120.5q131 -31 208 -127t77 -229q0 -171 -142.5 -281.5t-377.5 -110.5q-236 0 -378.5 110.5t-142.5 281.5zM340 379 q0 -103 77 -171.5t206 -68.5q128 0 204 69t76 171q0 121 -77 189.5t-203 68.5q-127 0 -205 -68.5t-78 -189.5zM373 1024q0 -95 67 -158t183 -63t181.5 63t65.5 158q0 97 -64.5 157t-182.5 60t-184 -60t-66 -157z" />
<glyph unicode="9" horiz-adv-x="1261" d="M102 942q0 194 142 324.5t368 130.5q174 0 297.5 -88t182.5 -234.5t59 -335.5q0 -194 -41.5 -342t-118 -240t-179 -138t-228.5 -46q-200 0 -324.5 91.5t-124.5 257.5h227q0 -88 61 -134.5t173 -46.5q313 0 324 518q-69 -79 -164.5 -122t-204.5 -43q-210 0 -329.5 124.5 t-119.5 323.5zM334 950q0 -131 65 -209.5t193 -78.5q199 0 326 180q-5 164 -83 274.5t-217 110.5q-134 0 -209 -78t-75 -199z" />
<glyph unicode=":" horiz-adv-x="413" d="M92 0v307h230v-307h-230zM92 768v307h230v-307h-230z" />
<glyph unicode=";" horiz-adv-x="413" d="M92 768v307h230v-307h-230zM94 287h228q0 -151 -18 -280.5t-79 -317.5h-131v598z" />
<glyph unicode="&#x3c;" horiz-adv-x="1148" d="M143 455v215l863 452v-207l-658 -354l658 -354v-207z" />
<glyph unicode="=" horiz-adv-x="1208" d="M143 231v195h922v-195h-922zM143 668v192h922v-192h-922z" />
<glyph unicode="&#x3e;" horiz-adv-x="1148" d="M143 0v207l658 354l-658 354v207l863 -452v-215z" />
<glyph unicode="?" horiz-adv-x="1015" d="M35 1059q6 92 42 162.5t84 108.5t111.5 62t113.5 31t101 7q93 0 170.5 -21t138 -62.5t94.5 -111t34 -160.5q0 -68 -22 -125t-57.5 -96.5t-78 -75.5t-85 -70.5t-78 -71.5t-57.5 -88t-22 -112h-217q0 72 22 134t56.5 107t77 84.5t84.5 74t76.5 67.5t56.5 73t22 83 q0 51 -18.5 88.5t-50.5 57.5t-68 29t-78 9q-32 0 -57 -2.5t-59 -13.5t-57 -29.5t-41.5 -54t-22.5 -84.5h-215zM297 0v299h238v-299h-238z" />
<glyph unicode="@" horiz-adv-x="1902" d="M92 530q0 134 36 255.5t100 217.5t151.5 174t190 129.5t216.5 79t230 27.5q121 0 235 -27.5t216 -85t178 -139t120.5 -197.5t44.5 -253q0 -83 -19.5 -169t-60 -166.5t-96.5 -144t-136.5 -101.5t-172.5 -38q-34 0 -64.5 8t-61.5 26.5t-50.5 55t-22.5 88.5 q-104 -215 -340 -215q-56 0 -106 19t-92 59.5t-70 98t-39 140t0 179.5q13 122 53 216t98.5 150t127 84.5t145.5 28.5q108 0 187 -59.5t114 -167.5l45 192h160l-90 -633q-18 -131 78 -131q82 0 144.5 72.5t92 179.5t29.5 224q0 119 -37 217t-99 163t-146.5 110t-175.5 65 t-189 20q-112 0 -220.5 -29t-207 -90t-173 -148t-119 -212.5t-44.5 -272.5q0 -142 38.5 -261.5t105 -203.5t156.5 -143t192 -87t212 -28q263 0 465 119l-28 -143q-201 -107 -459 -107q-136 0 -261 35.5t-231 107.5t-184 173t-122 239t-44 299zM686 543q-19 -163 33 -250.5 t149 -87.5q112 0 187.5 87t95.5 249q21 166 -33.5 254t-163.5 88q-105 0 -177 -84.5t-91 -255.5z" />
<glyph unicode="A" horiz-adv-x="1421" d="M47 0l516 1374h295l516 -1374h-248l-131 360h-575l-129 -360h-244zM483 555h449l-225 612z" />
<glyph unicode="B" horiz-adv-x="1271" d="M162 0v1374h459q257 0 388.5 -82t131.5 -256q0 -122 -69.5 -206t-205.5 -111q147 -21 230.5 -110.5t83.5 -217.5q0 -80 -30.5 -150t-88.5 -124.5t-150.5 -85.5t-208.5 -31h-540zM393 168h260q138 0 213.5 61t75.5 177q0 110 -94 167.5t-254 57.5h-201v-463zM393 788h201 q150 0 232.5 51t82.5 169q0 62 -25 104t-72.5 63t-101 29t-126.5 8h-191v-424z" />
<glyph unicode="C" horiz-adv-x="1421" d="M106 686q0 329 175.5 520t470.5 191q227 0 376 -117t195 -328h-240q-31 122 -116 187t-215 65q-198 0 -303 -136t-105 -382q0 -244 105.5 -380t302.5 -136q134 0 218 65.5t115 190.5h238q-47 -215 -196.5 -334t-374.5 -119q-300 0 -473 190.5t-173 522.5z" />
<glyph unicode="D" horiz-adv-x="1452" d="M162 0v1374h491q162 0 295 -50.5t222 -141t137.5 -215t48.5 -271.5q0 -142 -48.5 -268t-136.5 -221.5t-220.5 -151t-291.5 -55.5h-497zM393 195h258q112 0 202 39.5t147 108t87.5 158.5t30.5 195q0 222 -123 356t-350 134h-252v-991z" />
<glyph unicode="E" horiz-adv-x="1103" d="M162 0v1374h827v-188h-596v-393h557v-183h-557v-417h615v-193h-846z" />
<glyph unicode="F" horiz-adv-x="1056" d="M162 0v1374h803v-188h-572v-406h533v-190h-533v-590h-231z" />
<glyph unicode="G" horiz-adv-x="1460" d="M106 686q0 330 176 520.5t474 190.5q227 0 373.5 -115.5t187.5 -323.5h-238q-30 118 -112 182t-211 64q-200 0 -306 -136t-106 -382q0 -250 106 -388t308 -138q150 0 242 100.5t92 276.5v22h-322v162h565v-721h-149l-25 231q-63 -130 -178.5 -194t-239.5 -64 q-293 0 -465 191t-172 522z" />
<glyph unicode="H" horiz-adv-x="1443" d="M162 0v1374h231v-571h658v571h231v-1374h-231v602h-658v-602h-231z" />
<glyph unicode="I" horiz-adv-x="555" d="M162 0v1374h231v-1374h-231z" />
<glyph unicode="J" horiz-adv-x="737" d="M6 -2v168h170q94 0 130 56t36 188v964h231v-958q0 -50 -1 -83t-8 -84t-18.5 -85.5t-35.5 -73.5t-57 -62.5t-83.5 -39t-115.5 -15.5q-117 0 -248 25z" />
<glyph unicode="K" horiz-adv-x="1296" d="M162 0v1374h231v-618l578 618h276l-563 -602l604 -772h-289l-471 604l-135 -143v-461h-231z" />
<glyph unicode="L" horiz-adv-x="1030" d="M162 0v1374h231v-1181h604v-193h-835z" />
<glyph unicode="M" horiz-adv-x="1824" d="M162 0v1374h342l409 -1114l410 1114h340v-1374h-233v1122l-424 -1122h-197l-418 1122v-1122h-229z" />
<glyph unicode="N" horiz-adv-x="1472" d="M162 0v1374h246l671 -1040v1040h232v-1374h-258l-660 1018v-1018h-231z" />
<glyph unicode="O" horiz-adv-x="1527" d="M106 686q0 329 177.5 520t480.5 191t480 -190.5t177 -520.5t-177 -521.5t-480 -191.5t-480.5 191t-177.5 522zM344 686q0 -245 108 -380.5t312 -135.5q202 0 311 136t109 380q0 245 -109 381.5t-311 136.5q-205 0 -312.5 -136t-107.5 -382z" />
<glyph unicode="P" horiz-adv-x="1253" d="M162 0v1374h485q238 0 374 -109.5t136 -320.5q0 -205 -139 -322.5t-369 -117.5h-256v-504h-231zM393 690h242q131 0 208 65t77 189q0 132 -80 187t-238 55h-209v-496z" />
<glyph unicode="Q" horiz-adv-x="1523" d="M106 686q0 329 177.5 520t480.5 191t480 -190.5t177 -520.5q0 -194 -72 -341t-206 -232q116 -7 321 -33l-41 -191q-169 44 -318.5 64t-340.5 20q-303 0 -480.5 191t-177.5 522zM344 686q0 -245 108 -380.5t312 -135.5q202 0 311 136t109 380q0 245 -109 381.5t-311 136.5 q-205 0 -312.5 -136t-107.5 -382z" />
<glyph unicode="R" horiz-adv-x="1249" d="M162 0v1374h483q239 0 375.5 -104.5t136.5 -302.5q0 -138 -72 -239t-198 -144l299 -584h-244l-276 541h-273v-541h-231zM393 727h248q131 0 205 61t74 179q0 108 -72.5 163.5t-210.5 55.5h-244v-459z" />
<glyph unicode="S" horiz-adv-x="1253" d="M78 426h231q3 -74 32 -128.5t77.5 -84.5t104 -43.5t120.5 -13.5q130 0 210.5 49t80.5 149q0 56 -28 97.5t-75 66.5t-108 44t-128.5 36t-134.5 36t-128 49.5t-108 72t-75 108t-28 152.5q0 79 29.5 143t79 108t117.5 73.5t143 43t157 13.5q48 0 96.5 -6.5t108 -22 t110.5 -47t95 -76t72 -114t32 -156.5h-231q-17 244 -305 244q-71 0 -129.5 -17.5t-99 -61t-40.5 -106.5q0 -70 45 -117t117 -73t158.5 -47t173.5 -49t159 -68.5t117 -115.5t45 -181q0 -88 -34.5 -162.5t-101.5 -130t-172.5 -86.5t-239.5 -31q-38 0 -77 3.5t-93 15.5t-102 31 t-97.5 54.5t-86 81t-61 114.5t-28.5 153z" />
<glyph unicode="T" horiz-adv-x="1165" d="M35 1186v188h1095v-188h-432v-1186h-231v1186h-432z" />
<glyph unicode="U" horiz-adv-x="1411" d="M150 508v866h231v-858q0 -169 88 -256.5t236 -87.5q156 0 242.5 86.5t86.5 257.5v858h228v-866q0 -259 -151 -397t-406 -138q-257 0 -406 137.5t-149 397.5z" />
<glyph unicode="V" horiz-adv-x="1374" d="M45 1374h244l403 -1114l398 1114h239l-532 -1374h-215z" />
<glyph unicode="W" horiz-adv-x="2050" d="M35 1374h250l325 -1112l277 1112h287l274 -1108l328 1108h239l-424 -1374h-288l-281 1087l-281 -1087h-284z" />
<glyph unicode="X" horiz-adv-x="1306" d="M25 0l440 700l-408 674h269l338 -573l329 573h262l-413 -674l440 -700h-270l-365 594l-350 -594h-272z" />
<glyph unicode="Y" horiz-adv-x="1247" d="M6 1374h248l373 -657l372 657h242l-504 -831v-543h-231v541z" />
<glyph unicode="Z" horiz-adv-x="1212" d="M98 0v188l723 1002h-690v184h952v-184l-723 -1002h756v-188h-1018z" />
<glyph unicode="[" horiz-adv-x="653" d="M84 -420v1931h545v-178h-338v-1569h342v-184h-549z" />
<glyph unicode="\" horiz-adv-x="733" d="M4 1511h207l518 -1927h-207z" />
<glyph unicode="]" horiz-adv-x="651" d="M20 -236h340v1569h-337v178h544v-1931h-547v184z" />
<glyph unicode="^" horiz-adv-x="1347" d="M143 471l428 866h207l426 -866h-196l-334 678l-336 -678h-195z" />
<glyph unicode="_" horiz-adv-x="1349" d="M0 -96h1350v-166h-1350v166z" />
<glyph unicode="`" horiz-adv-x="710" d="M125 1507h250l213 -352h-172z" />
<glyph unicode="a" horiz-adv-x="1169" d="M86 287q0 80 26.5 138.5t68.5 93.5t108 57t129.5 30.5t148.5 11.5l195 9v100q0 89 -45 138.5t-162 49.5q-38 0 -71 -7t-65.5 -24.5t-53.5 -52t-25 -83.5l-219 18q6 69 37 124t75.5 89t101.5 56t111 31t109 9q432 0 432 -338v-446q0 -85 15 -113t67 -28h70v-152 q-90 -23 -150 -23q-118 0 -167 46.5t-50 162.5q-57 -113 -147 -161t-193 -48q-46 0 -91 8.5t-92.5 30.5t-82.5 56t-57.5 90t-22.5 127zM313 301q0 -49 20 -82t54 -47.5t61.5 -19.5t57.5 -5q106 0 181 77t75 218v45l-199 -8q-117 -5 -183.5 -44.5t-66.5 -133.5z" />
<glyph unicode="b" horiz-adv-x="1236" d="M162 0v1475h225v-465l-10 -156q108 221 350 221q88 0 162 -32.5t132.5 -97t91 -172t32.5 -247.5q0 -115 -22 -208.5t-60 -156.5t-91 -105.5t-114 -61.5t-131 -19q-244 0 -352 228v-203h-213zM385 526q0 -379 274 -379q114 0 184 94.5t70 284.5q0 189 -70 283t-184 94 q-274 0 -274 -377z" />
<glyph unicode="c" horiz-adv-x="1138" d="M92 518q0 262 136 409.5t370 147.5q188 0 306 -94.5t147 -269.5l-226 -13q-39 205 -227 205q-135 0 -204.5 -98t-69.5 -281q0 -181 70 -277.5t204 -96.5q188 0 229 200h226q-31 -179 -149 -277t-306 -98q-237 0 -371.5 144t-134.5 399z" />
<glyph unicode="d" horiz-adv-x="1234" d="M92 526q0 140 32.5 247.5t90.5 172t132 97t161 32.5q245 0 348 -217l-8 152v465h225v-1475h-213v205q-111 -230 -352 -230q-88 0 -161.5 31.5t-131.5 95.5t-90.5 172t-32.5 252zM324 526q0 -190 70 -284.5t184 -94.5q272 0 272 379q0 377 -272 377q-114 0 -184 -94 t-70 -283z" />
<glyph unicode="e" d="M106 518q0 262 138 409.5t374 147.5q222 0 344.5 -134t122.5 -382l-6 -92h-739q8 -153 77.5 -235t194.5 -82q194 0 238 165h225q-36 -162 -152.5 -251t-304.5 -89q-240 0 -376 144t-136 399zM344 633h508q-9 132 -66 201t-174 69q-116 0 -183.5 -69t-84.5 -201z" />
<glyph unicode="f" horiz-adv-x="694" d="M41 879v174h158v92q0 41 2.5 73t11 70t23.5 66.5t41.5 56.5t63.5 46t90.5 29t121.5 11q77 0 137 -14v-154h-115q-89 0 -120 -44.5t-31 -135.5v-96h262v-174h-262v-879h-225v879h-158z" />
<glyph unicode="g" horiz-adv-x="1234" d="M92 530q0 114 21.5 206t59.5 154.5t91 104.5t113.5 61t130.5 19q247 0 352 -227v205h215v-1043q0 -61 -9.5 -115.5t-41 -118t-82 -108.5t-141.5 -75.5t-211 -30.5q-53 0 -107.5 9t-116 34.5t-109.5 63.5t-83.5 102t-42.5 145l219 12q6 -97 74.5 -148.5t169.5 -51.5 q63 0 110 15.5t74.5 40t44 61.5t22 74t5.5 83v43l12 197q-107 -230 -354 -230q-88 0 -162 31.5t-131.5 93.5t-90 162.5t-32.5 230.5zM324 532q0 -170 70.5 -258t183.5 -88q129 0 200.5 84.5t71.5 261.5q0 371 -272 371q-114 0 -184 -92t-70 -279z" />
<glyph unicode="h" horiz-adv-x="1243" d="M162 0v1475h225v-465l-12 -172q110 237 360 237q70 0 131 -19.5t111 -58.5t79 -105t29 -151v-741h-225v659q0 108 -53 169t-154 61q-121 0 -193.5 -86t-72.5 -234v-569h-225z" />
<glyph unicode="i" horiz-adv-x="548" d="M156 1237v209h237v-209h-237zM162 0v1053h225v-1053h-225z" />
<glyph unicode="j" horiz-adv-x="548" d="M-88 -244h115q81 0 108 52t27 180v1065h225v-1067q0 -60 -2.5 -103t-10.5 -90t-22.5 -79t-40 -63t-61 -49t-86.5 -29t-117 -11q-71 0 -135 14v180zM156 1237v209h237v-209h-237z" />
<glyph unicode="k" horiz-adv-x="1148" d="M162 0v1475h225v-820l436 398h277l-408 -371l424 -682h-250l-336 526l-143 -131v-395h-225z" />
<glyph unicode="l" horiz-adv-x="548" d="M162 0v1475h225v-1475h-225z" />
<glyph unicode="m" horiz-adv-x="1857" d="M162 0v1053h213v-213q101 235 334 235q117 0 205.5 -58t117.5 -173q101 231 334 231q66 0 124.5 -19.5t106 -58.5t75.5 -105t28 -151v-741h-225v659q0 108 -49.5 169t-141.5 61q-108 0 -174 -86.5t-66 -233.5v-569h-225v659q0 108 -49 169t-143 61q-107 0 -173.5 -87 t-66.5 -233v-569h-225z" />
<glyph unicode="n" horiz-adv-x="1243" d="M162 0v1053h213v-211q108 233 360 233q69 0 130 -19.5t111 -58.5t79.5 -105t29.5 -151v-741h-225v659q0 108 -53 169t-154 61q-121 0 -193.5 -86.5t-72.5 -233.5v-569h-225z" />
<glyph unicode="o" d="M92 524q0 260 134.5 405.5t369.5 145.5q233 0 367.5 -146t134.5 -405q0 -256 -135 -402.5t-367 -146.5q-234 0 -369 146.5t-135 402.5zM324 524q0 -181 69 -277.5t203 -96.5t202 96t68 278q0 184 -68 281.5t-202 97.5t-203 -98t-69 -281z" />
<glyph unicode="p" horiz-adv-x="1236" d="M162 -434v1487h213v-207q109 229 352 229q70 0 131 -19t114 -61.5t91 -105.5t60 -156.5t22 -208.5q0 -139 -33 -246.5t-90.5 -172.5t-132 -97.5t-162.5 -32.5q-240 0 -348 218l8 -162v-465h-225zM385 524q0 -374 274 -374q114 0 184 93t70 281q0 190 -70 284.5t-184 94.5 q-274 0 -274 -379z" />
<glyph unicode="q" horiz-adv-x="1236" d="M92 526q0 142 32.5 250t90.5 172t131.5 95.5t161.5 31.5q247 0 352 -227v205h215v-1487h-227v465l8 164q-109 -220 -348 -220q-87 0 -161 32.5t-132 97.5t-90.5 172.5t-32.5 248.5zM324 526q0 -189 70 -282.5t184 -93.5q272 0 272 376q0 377 -272 377q-114 0 -184 -94 t-70 -283z" />
<glyph unicode="r" horiz-adv-x="763" d="M162 0v1053h213v-219q47 125 119.5 183t160.5 58q53 0 88 -12v-193h-108q-112 0 -180 -81t-68 -232v-557h-225z" />
<glyph unicode="s" horiz-adv-x="1040" d="M78 303h219q10 -89 72 -127.5t153 -38.5q211 0 211 133q0 40 -21.5 70.5t-57.5 49.5t-82.5 34.5t-98 29.5t-103 30t-98 40.5t-82.5 56.5t-57.5 83t-21.5 116q0 73 35.5 131t94.5 93t130.5 53t148.5 18q55 0 103.5 -6t106 -26t99.5 -53t74.5 -91.5t40.5 -136.5l-213 -8 q-15 170 -207 170q-84 0 -137 -28.5t-53 -94.5q0 -41 21.5 -71.5t57.5 -49.5t82.5 -34t98 -29t103 -30t98 -40.5t82.5 -57.5t57.5 -84.5t21.5 -117.5q0 -142 -118.5 -227t-323.5 -85q-47 0 -94 6t-107.5 27t-107.5 55t-83 96t-44 144z" />
<glyph unicode="t" horiz-adv-x="733" d="M39 874v173h156v274h225v-274h260v-173h-260v-477q0 -128 30 -177.5t123 -49.5h107v-172q-60 -23 -129 -23q-68 0 -121.5 10.5t-91 28.5t-64 48.5t-41.5 62.5t-24 78.5t-11.5 89.5t-2.5 102v479h-156z" />
<glyph unicode="u" horiz-adv-x="1243" d="M162 317v736h225v-658q0 -111 51.5 -171t155.5 -60q118 0 190 86.5t72 232.5v570h225v-1053h-213v211q-111 -236 -356 -236q-72 0 -133.5 19.5t-111 59.5t-77.5 107.5t-28 155.5z" />
<glyph unicode="v" horiz-adv-x="1120" d="M35 1053h241l287 -840l289 840h233l-401 -1053h-248z" />
<glyph unicode="w" horiz-adv-x="1687" d="M37 1053h244l225 -813l217 813h254l215 -815l223 815h236l-330 -1053h-250l-225 811l-225 -811h-252z" />
<glyph unicode="x" horiz-adv-x="1062" d="M33 0l342 541l-318 512h238l242 -404l239 404h232l-322 -512l344 -541h-242l-262 426l-258 -426h-235z" />
<glyph unicode="y" horiz-adv-x="1097" d="M35 1053h239l273 -783l280 783h236l-598 -1487h-219l184 471z" />
<glyph unicode="z" horiz-adv-x="1042" d="M102 0v156l545 725h-530v172h811v-154l-545 -725h559v-174h-840z" />
<glyph unicode="{" horiz-adv-x="819" d="M74 471v150q91 0 132.5 46t41.5 144v309q0 118 32 194.5t103.5 120t169 60t246.5 16.5v-178q-188 0 -260 -57.5t-72 -206.5v-258q0 -73 -10.5 -122t-44.5 -85.5t-93 -46.5v-22q84 -14 116 -79.5t32 -176.5v-259q0 -147 71.5 -203.5t258.5 -56.5v-180q-149 0 -246 16.5 t-168.5 60t-103 120t-31.5 194.5v308q0 98 -42.5 145t-131.5 47z" />
<glyph unicode="|" horiz-adv-x="548" d="M172 -520v2124h205v-2124h-205z" />
<glyph unicode="}" horiz-adv-x="819" d="M20 1333v178q150 0 247.5 -16.5t169 -60t103 -120t31.5 -194.5v-309q0 -98 41.5 -144t132.5 -46v-150q-89 0 -131.5 -47t-42.5 -145v-308q0 -118 -31.5 -194.5t-102.5 -120t-168 -60t-246 -16.5v180q187 0 258 56.5t71 203.5v259q0 72 11 121.5t45.5 87t93.5 47.5v22 q-87 14 -118.5 78t-31.5 176v258q0 149 -72 206.5t-260 57.5z" />
<glyph unicode="~" horiz-adv-x="1208" d="M143 406v204q47 50 106 68t138 18q64 0 149.5 -28t163 -56t123.5 -28q157 0 242 100v-205q-52 -50 -109 -68t-133 -18q-62 0 -148.5 27.5t-166 55.5t-123.5 28q-161 0 -242 -98z" />
<glyph unicode="&#xa1;" horiz-adv-x="546" d="M158 199l39 391h153l39 -391v-584h-231v584zM158 733v299h231v-299h-231z" />
<glyph unicode="&#xa2;" horiz-adv-x="1138" d="M92 805q0 237 113 381.5t311 169.5v264h152v-264q158 -17 256.5 -109.5t126.5 -249.5l-226 -12q-39 205 -227 205q-135 0 -204.5 -98t-69.5 -281q0 -181 70 -278t204 -97q188 0 229 201h226q-29 -163 -127.5 -258.5t-257.5 -112.5v-266h-152v266q-201 23 -312.5 164.5 t-111.5 374.5z" />
<glyph unicode="&#xa3;" horiz-adv-x="1208" d="M137 0v188q114 93 160.5 178t46.5 173q0 17 -4 49h-203v157h156q-55 159 -55 265q0 83 26 153t78.5 125t141.5 86t206 31q33 0 65.5 -3t74 -13t77.5 -26t71.5 -44.5t61 -65.5t41 -91.5t15.5 -121.5h-219q0 179 -193 179q-213 0 -213 -211q0 -102 57 -263h471v-157h-426 q5 -40 5 -49q0 -170 -193 -357h715v-182h-963z" />
<glyph unicode="&#xa4;" horiz-adv-x="1234" d="M150 879l135 135l141 -144q88 56 190 56q101 0 191 -54l141 142l135 -135l-141 -144q55 -86 55 -190q0 -103 -53 -191l141 -139l-135 -135l-141 139q-86 -53 -193 -53q-109 0 -192 53l-137 -139l-135 135l137 139q-51 85 -51 191t53 192zM416 543q0 -83 58.5 -141 t141.5 -58q85 0 144 58t59 141q0 85 -59 143.5t-144 58.5q-83 0 -141.5 -58.5t-58.5 -143.5z" />
<glyph unicode="&#xa5;" horiz-adv-x="1247" d="M6 1374h248l373 -657l372 657h242l-422 -696h307v-139h-389v-183h389v-137h-389v-219h-231v219h-385v137h385v183h-385v139h303z" />
<glyph unicode="&#xa6;" horiz-adv-x="552" d="M174 367h205v-887h-205v887zM174 721v883h205v-883h-205z" />
<glyph unicode="&#xa7;" horiz-adv-x="1298" d="M78 49h231q3 -74 32 -128.5t77.5 -84.5t104 -43.5t120.5 -13.5q131 0 211 48t80 148q0 56 -28 97.5t-75 66.5t-108 44t-128.5 36t-134.5 36t-128 49.5t-108 72t-75 108t-28 152.5q0 178 145 274q-100 100 -100 258q0 78 29.5 142t79 107.5t117.5 73t143 43t157 13.5 q40 0 80.5 -4t91.5 -16t95.5 -31t89 -52t77 -75.5t54 -105.5t24.5 -138h-229q-4 60 -25.5 105t-51 71t-70.5 42.5t-78.5 22t-79.5 5.5q-71 0 -129 -17.5t-98 -61t-40 -107.5q0 -55 27.5 -95.5t74.5 -65.5t108 -44.5t128.5 -36.5t134.5 -36t128 -48.5t108 -70t74.5 -104 t27.5 -146.5q0 -184 -139 -293q96 -93 96 -240q0 -184 -141 -296.5t-407 -112.5q-38 0 -77 3.5t-93 15t-102 30.5t-98 54t-86 81t-60.5 115t-28.5 153zM356 655q0 -62 32 -105t92 -69t121 -43t145 -39t139 -45q94 45 94 154q0 52 -23.5 91.5t-60 62.5t-92 43.5t-107 32 t-119.5 29.5t-116 36q-105 -44 -105 -148z" />
<glyph unicode="&#xa8;" horiz-adv-x="894" d="M125 1208v246h219v-246h-219zM551 1208v246h219v-246h-219z" />
<glyph unicode="&#xa9;" horiz-adv-x="1560" d="M104 713q0 182 91 338t247 247t338 91q135 0 260 -54.5t216 -145.5t145.5 -216t54.5 -260t-54.5 -260.5t-145.5 -216.5t-216 -146t-260 -55q-182 0 -338 92t-247 248t-91 338zM166 711q0 -163 84.5 -304.5t226.5 -225t303 -83.5q164 0 305.5 84t224.5 226t83 305 q0 159 -84.5 300.5t-226.5 226.5t-302 85q-164 0 -306 -83t-225 -224.5t-83 -306.5zM387 713q0 199 106.5 314.5t284.5 115.5q156 0 249 -83t110 -233h-146q-8 85 -63 132t-150 47q-118 0 -182 -77.5t-64 -215.5q0 -136 64 -214.5t180 -78.5q98 0 153.5 47.5t61.5 138.5h148 q-22 -157 -114.5 -241t-248.5 -84q-183 0 -286 114.5t-103 317.5z" />
<glyph unicode="&#xaa;" horiz-adv-x="784" d="M86 977q0 47 16.5 82.5t42.5 57t66.5 35.5t80.5 19.5t93 8.5l100 4v67q0 47 -21.5 71t-82.5 24q-105 0 -113 -93l-162 7q5 52 33.5 91.5t70 60t84 30.5t85.5 10q283 0 283 -201v-258q0 -46 9.5 -64t39.5 -18h43v-100q-68 -14 -101 -14q-69 0 -103 28.5t-38 92.5 q-68 -121 -215 -121q-37 0 -71.5 8.5t-67 28t-52.5 56.5t-20 87zM256 991q0 -86 104 -86q52 0 88.5 39.5t36.5 108.5v49l-104 -6q-125 -7 -125 -105z" />
<glyph unicode="&#xab;" horiz-adv-x="1286" d="M100 543l332 391h219l-329 -391l327 -385h-219zM621 543l331 391h219l-329 -391l327 -385h-219z" />
<glyph unicode="&#xac;" horiz-adv-x="1208" d="M143 633v182h922v-541h-188v359h-734z" />
<glyph unicode="&#xad;" horiz-adv-x="1107" d="M162 463v164h782v-164h-782z" />
<glyph unicode="&#xae;" horiz-adv-x="1251" d="M104 924q0 142 69.5 262.5t189.5 190t262 69.5q106 0 203 -41t167 -111t111 -167t41 -203q0 -142 -69.5 -262t-190 -189.5t-262.5 -69.5t-262 69.5t-189.5 189.5t-69.5 262zM164 924q0 -192 134.5 -326.5t326.5 -134.5t327 134.5t135 326.5t-135 327t-327 135 t-326.5 -135t-134.5 -327zM365 610v629h249q118 0 187 -48t69 -142q0 -60 -33.5 -105t-91.5 -67l164 -267h-129l-153 246h-133v-246h-129zM494 946h120q55 0 89 26t34 75t-33.5 74.5t-89.5 25.5h-120v-201z" />
<glyph unicode="&#xaf;" horiz-adv-x="940" d="M125 1257v148h690v-148h-690z" />
<glyph unicode="&#xb0;" horiz-adv-x="727" d="M100 1059q0 113 75 189.5t187 76.5q113 0 191 -77t78 -189q0 -113 -78 -188.5t-191 -75.5t-187.5 75t-74.5 189zM233 1059q0 -54 37.5 -91.5t91.5 -37.5q55 0 93.5 37.5t38.5 91.5t-38.5 92.5t-93.5 38.5q-54 0 -91.5 -38.5t-37.5 -92.5z" />
<glyph unicode="&#xb1;" horiz-adv-x="1208" d="M143 0v178h922v-178h-922zM143 606v178h367v379h188v-379h367v-178h-367v-379h-188v379h-367z" />
<glyph unicode="&#xb4;" horiz-adv-x="710" d="M125 1155l209 352h254l-293 -352h-170z" />
<glyph unicode="&#xb5;" horiz-adv-x="1243" d="M162 -455v1508h225v-664q0 -109 52 -167t155 -58q118 0 190 86.5t72 232.5v570h225v-1053h-213v211q-49 -107 -135 -165t-190 -58q-92 0 -154 39v-482h-227z" />
<glyph unicode="&#xb6;" horiz-adv-x="1351" d="M106 975q0 220 136 349.5t360 129.5h201v-1636h188v1636h197v-1806h-586v852q-224 0 -360 128.5t-136 346.5z" />
<glyph unicode="&#xb7;" horiz-adv-x="598" d="M113 354v381h372v-381h-372z" />
<glyph unicode="&#xb8;" horiz-adv-x="694" d="M125 -307q89 -39 170 -39q53 0 85 21.5t32 64.5q0 45 -47 73.5t-138 28.5v80l80 131h129l-90 -133q106 -7 164.5 -61t58.5 -133q0 -29 -11.5 -57.5t-36 -58t-73.5 -47.5t-116 -18q-112 0 -207 37v111z" />
<glyph unicode="&#xba;" horiz-adv-x="856" d="M92 1120q0 164 88.5 248t245.5 84q159 0 248.5 -84t89.5 -248q0 -161 -89.5 -245t-248.5 -84q-157 0 -245.5 84t-88.5 245zM268 1120q0 -215 158 -215q160 0 160 215q0 217 -160 217q-158 0 -158 -217z" />
<glyph unicode="&#xbb;" horiz-adv-x="1249" d="M115 934h219l332 -391l-330 -385h-219l325 385zM598 934h219l332 -391l-330 -385h-219l328 385z" />
<glyph unicode="&#xbc;" horiz-adv-x="1673" d="M117 1112v154l229 108h186v-796h-184v643zM389 0l791 1374h135l-791 -1374h-135zM922 158v123l335 516h259v-521h120v-118h-120v-158h-187v158h-407zM1059 276h270v408z" />
<glyph unicode="&#xbd;" horiz-adv-x="1820" d="M117 1112v154l229 108h186v-796h-184v643zM389 0l793 1374h135l-791 -1374h-137zM1100 0v102q44 36 118.5 89.5t123 90.5t99 83.5t76 95.5t25.5 100q0 125 -119 125q-137 0 -139 -139h-182q1 74 32.5 128t82.5 81t102 39t104 12q149 0 227.5 -68t78.5 -178q0 -33 -11 -67 t-25 -61t-43 -60.5t-48 -54t-59 -54t-58 -47t-61.5 -46t-53.5 -40.5h367v-131h-637z" />
<glyph unicode="&#xbe;" horiz-adv-x="1798" d="M115 829h182q0 -141 145 -141q70 0 107 32.5t37 94.5q0 121 -178 121h-91v104h91q157 0 157 125q0 103 -127 103q-60 0 -96.5 -30t-36.5 -112h-182q1 60 22.5 107.5t54 75.5t76 46t83 24.5t79.5 6.5q139 0 223 -54t84 -150q0 -147 -147 -183q73 -10 121.5 -61t48.5 -137 q0 -104 -89 -169t-237 -65q-60 0 -113.5 12.5t-103.5 40.5t-79.5 81.5t-30.5 127.5zM510 0l793 1374h133l-789 -1374h-137zM1047 158v123l335 516h258v-521h121v-118h-121v-158h-186v158h-407zM1184 276h270v408z" />
<glyph unicode="&#xbf;" horiz-adv-x="1015" d="M90 -43q0 68 22 125t57.5 96.5t78.5 75.5t86 70.5t78.5 71.5t57.5 88t22 112h217q0 -72 -22 -134t-57 -107t-77 -84.5t-84 -74t-77 -67.5t-57 -73t-22 -83q0 -51 18.5 -88.5t50.5 -57.5t68 -29t78 -9q31 0 56.5 2.5t59 13.5t56.5 29.5t41.5 54t22.5 84.5h217 q-6 -92 -42 -162t-84.5 -108.5t-112.5 -62t-114 -30.5t-100 -7q-93 0 -171 20.5t-138.5 62t-94.5 111t-34 160.5zM481 733v299h238v-299h-238z" />
<glyph unicode="&#xc0;" horiz-adv-x="1421" d="M47 0l516 1374h295l516 -1374h-248l-131 360h-575l-129 -360h-244zM395 1765h250l184 -307h-172zM483 555h449l-225 612z" />
<glyph unicode="&#xc1;" horiz-adv-x="1421" d="M47 0l516 1374h295l516 -1374h-248l-131 360h-575l-129 -360h-244zM483 555h449l-225 612zM594 1458l182 307h252l-264 -307h-170z" />
<glyph unicode="&#xc2;" horiz-adv-x="1421" d="M47 0l516 1374h295l516 -1374h-248l-131 360h-575l-129 -360h-244zM381 1458l225 307h207l227 -307h-159l-172 172l-168 -172h-160zM483 555h449l-225 612z" />
<glyph unicode="&#xc3;" horiz-adv-x="1421" d="M47 0l516 1374h295l516 -1374h-248l-131 360h-575l-129 -360h-244zM352 1493q0 42 10 82t31 77.5t61 60t93 22.5q60 0 169.5 -46.5t143.5 -46.5q39 0 58.5 19t19.5 74h129q0 -43 -9.5 -83t-30.5 -77t-61 -59.5t-94 -22.5q-47 0 -109 23t-117 46t-85 23q-40 0 -61 -19.5 t-21 -72.5h-127zM483 555h449l-225 612z" />
<glyph unicode="&#xc4;" horiz-adv-x="1421" d="M47 0l516 1374h295l516 -1374h-248l-131 360h-575l-129 -360h-244zM385 1491v246h221v-246h-221zM483 555h449l-225 612zM813 1491v246h221v-246h-221z" />
<glyph unicode="&#xc5;" horiz-adv-x="1421" d="M47 0l510 1356q-80 70 -80 174q0 99 68.5 167t165.5 68t164 -68t67 -167q0 -103 -78 -174l510 -1356h-248l-131 360h-575l-129 -360h-244zM483 555h449l-225 612zM590 1530q0 -49 34.5 -83t84.5 -34q51 0 84.5 33.5t33.5 83.5q0 53 -33.5 88t-84.5 35q-49 0 -84 -36 t-35 -87z" />
<glyph unicode="&#xc6;" horiz-adv-x="1927" d="M47 0l746 1374h1017v-188h-591v-395h555v-183h-555v-415h614v-193h-846v360h-506l-190 -360h-244zM582 555h405v631h-63z" />
<glyph unicode="&#xc7;" horiz-adv-x="1421" d="M106 686q0 329 175.5 520t470.5 191q227 0 376 -117t195 -328h-240q-31 122 -116 187t-215 65q-198 0 -303 -136t-105 -382q0 -244 105.5 -380t302.5 -136q134 0 218 65.5t115 190.5h238q-48 -215 -197 -334t-378 -119l-37 -55q105 -6 164 -58.5t59 -131.5 q0 -30 -11 -58.5t-36 -57.5t-75 -47t-118 -18q-110 0 -205 37v109q89 -39 170 -39q54 0 85.5 22t31.5 66q0 45 -46.5 72.5t-137.5 27.5v80l37 62q-246 37 -384.5 221.5t-138.5 480.5z" />
<glyph unicode="&#xc8;" horiz-adv-x="1103" d="M162 0v1374h827v-188h-596v-393h557v-183h-557v-417h615v-193h-846zM279 1765h249l183 -307h-170z" />
<glyph unicode="&#xc9;" horiz-adv-x="1103" d="M162 0v1374h827v-188h-596v-393h557v-183h-557v-417h615v-193h-846zM440 1458l183 307h251l-264 -307h-170z" />
<glyph unicode="&#xca;" horiz-adv-x="1103" d="M162 0v1374h827v-188h-596v-393h557v-183h-557v-417h615v-193h-846zM248 1458l223 307h209l225 -307h-160l-172 172l-167 -172h-158z" />
<glyph unicode="&#xcb;" horiz-adv-x="1103" d="M162 0v1374h827v-188h-596v-393h557v-183h-557v-417h615v-193h-846zM252 1491v246h221v-246h-221zM680 1491v246h221v-246h-221z" />
<glyph unicode="&#xcc;" horiz-adv-x="555" d="M-25 1765h252l183 -307h-172zM162 0v1374h231v-1374h-231z" />
<glyph unicode="&#xcd;" horiz-adv-x="555" d="M147 1458l183 307h252l-265 -307h-170zM162 0v1374h231v-1374h-231z" />
<glyph unicode="&#xce;" horiz-adv-x="555" d="M-51 1458l225 307h207l227 -307h-159l-173 172l-167 -172h-160zM162 0v1374h231v-1374h-231z" />
<glyph unicode="&#xcf;" horiz-adv-x="555" d="M-47 1491v246h219v-246h-219zM162 0v1374h231v-1374h-231zM381 1491v246h219v-246h-219z" />
<glyph unicode="&#xd0;" horiz-adv-x="1460" d="M-47 602v176h217v596h492q162 0 295 -50.5t221.5 -141t137 -215t48.5 -271.5q0 -142 -48.5 -268t-136 -221.5t-220 -151t-291.5 -55.5h-498v602h-217zM401 195h258q112 0 202 39.5t147 108t87.5 158.5t30.5 195q0 222 -123 356t-350 134h-252v-408h330v-176h-330v-407z " />
<glyph unicode="&#xd1;" horiz-adv-x="1472" d="M162 0v1374h246l671 -1040v1040h232v-1374h-258l-660 1018v-1018h-231zM379 1493q0 33 5.5 65t19.5 65t35.5 57t56 39.5t77.5 15.5q60 0 170 -46.5t144 -46.5q39 0 58.5 19t19.5 74h129q0 -43 -9.5 -83t-30.5 -77t-61 -59.5t-94 -22.5q-47 0 -109 23t-117 46t-85 23 q-40 0 -61 -19.5t-21 -72.5h-127z" />
<glyph unicode="&#xd2;" horiz-adv-x="1525" d="M106 686q0 329 177.5 520t480.5 191t480 -190.5t177 -520.5t-177 -521.5t-480 -191.5t-480.5 191t-177.5 522zM344 686q0 -245 108 -380.5t312 -135.5q202 0 311 136t109 380q0 245 -109 381.5t-311 136.5q-205 0 -312.5 -136t-107.5 -382zM475 1765h252l182 -307h-172z " />
<glyph unicode="&#xd3;" horiz-adv-x="1525" d="M106 686q0 329 177.5 520t480.5 191t480 -190.5t177 -520.5t-177 -521.5t-480 -191.5t-480.5 191t-177.5 522zM344 686q0 -245 108 -380.5t312 -135.5q202 0 311 136t109 380q0 245 -109 381.5t-311 136.5q-205 0 -312.5 -136t-107.5 -382zM623 1458l182 307h252 l-262 -307h-172z" />
<glyph unicode="&#xd4;" horiz-adv-x="1525" d="M106 686q0 329 177.5 520t480.5 191t480 -190.5t177 -520.5t-177 -521.5t-480 -191.5t-480.5 191t-177.5 522zM344 686q0 -245 108 -380.5t312 -135.5q202 0 311 136t109 380q0 245 -109 381.5t-311 136.5q-205 0 -312.5 -136t-107.5 -382zM436 1458l226 307h206 l226 -307h-160l-170 172l-168 -172h-160z" />
<glyph unicode="&#xd5;" horiz-adv-x="1525" d="M106 686q0 329 177.5 520t480.5 191t480 -190.5t177 -520.5t-177 -521.5t-480 -191.5t-480.5 191t-177.5 522zM344 686q0 -245 108 -380.5t312 -135.5q202 0 311 136t109 380q0 245 -109 381.5t-311 136.5q-205 0 -312.5 -136t-107.5 -382zM408 1493q0 33 5.5 65t19.5 65 t35 57t55.5 39.5t78.5 15.5q47 0 109 -23.5t117 -46.5t85 -23q41 0 61.5 19t20.5 74h127q0 -43 -9.5 -83t-30 -77t-60.5 -59.5t-94 -22.5q-59 0 -169 46t-143 46q-40 0 -59.5 -19t-19.5 -73h-129z" />
<glyph unicode="&#xd6;" horiz-adv-x="1525" d="M106 686q0 329 177.5 520t480.5 191t480 -190.5t177 -520.5t-177 -521.5t-480 -191.5t-480.5 191t-177.5 522zM344 686q0 -245 108 -380.5t312 -135.5q202 0 311 136t109 380q0 245 -109 381.5t-311 136.5q-205 0 -312.5 -136t-107.5 -382zM440 1491v246h219v-246h-219z M868 1491v246h219v-246h-219z" />
<glyph unicode="&#xd7;" horiz-adv-x="1273" d="M143 182l365 363l-365 366l131 129l363 -366l364 364l129 -129l-362 -364l362 -361l-131 -131l-362 363l-363 -365z" />
<glyph unicode="&#xd8;" horiz-adv-x="1527" d="M106 686q0 329 177.5 520t480.5 191q178 0 323 -74l138 227h118l-169 -280q120 -92 183.5 -240.5t63.5 -343.5q0 -330 -177 -521.5t-480 -191.5q-180 0 -328 74l-135 -225h-119l168 280q-118 92 -181 240.5t-63 343.5zM344 686q0 -262 121 -395l516 858q-93 55 -217 55 q-205 0 -312.5 -136t-107.5 -382zM543 225q91 -55 221 -55q202 0 311 136t109 380q0 259 -123 397z" />
<glyph unicode="&#xd9;" horiz-adv-x="1411" d="M150 508v866h231v-858q0 -169 88 -256.5t236 -87.5q156 0 242.5 86.5t86.5 257.5v858h228v-866q0 -259 -151 -397t-406 -138q-257 0 -406 137.5t-149 397.5zM387 1765h252l182 -307h-172z" />
<glyph unicode="&#xda;" horiz-adv-x="1411" d="M150 508v866h231v-858q0 -169 88 -256.5t236 -87.5q156 0 242.5 86.5t86.5 257.5v858h228v-866q0 -259 -151 -397t-406 -138q-257 0 -406 137.5t-149 397.5zM592 1458l182 307h252l-264 -307h-170z" />
<glyph unicode="&#xdb;" horiz-adv-x="1411" d="M150 508v866h231v-858q0 -169 88 -256.5t236 -87.5q156 0 242.5 86.5t86.5 257.5v858h228v-866q0 -259 -151 -397t-406 -138q-257 0 -406 137.5t-149 397.5zM377 1458l225 307h207l227 -307h-159l-172 172l-168 -172h-160z" />
<glyph unicode="&#xdc;" horiz-adv-x="1411" d="M150 508v866h231v-858q0 -169 88 -256.5t236 -87.5q156 0 242.5 86.5t86.5 257.5v858h228v-866q0 -259 -151 -397t-406 -138q-257 0 -406 137.5t-149 397.5zM383 1491v246h219v-246h-219zM811 1491v246h219v-246h-219z" />
<glyph unicode="&#xdd;" horiz-adv-x="1247" d="M6 1374h248l373 -657l372 657h242l-504 -831v-543h-231v541zM512 1458l182 307h252l-264 -307h-170z" />
<glyph unicode="&#xde;" horiz-adv-x="1273" d="M162 0v1374h229v-235h287q249 0 380.5 -111.5t131.5 -331.5q0 -217 -132 -331.5t-378 -114.5h-289v-250h-229zM391 442h268q293 0 293 254q0 250 -295 250h-266v-504z" />
<glyph unicode="&#xdf;" horiz-adv-x="1316" d="M162 0v1067q0 225 119 352t362 127q205 0 334 -103.5t129 -273.5q0 -263 -221 -364q179 -50 262.5 -154.5t83.5 -247.5q0 -189 -138 -308.5t-388 -119.5q-69 0 -156 11v168q68 -11 108 -11q153 0 251 71.5t98 203.5q0 43 -11.5 82t-42 78.5t-77.5 67.5t-124 45.5 t-176 17.5v147q40 0 78 6t82 25t76.5 49t54 82.5t21.5 120.5q0 116 -72.5 177.5t-181.5 61.5q-246 0 -246 -305v-1073h-225z" />
<glyph unicode="&#xe0;" horiz-adv-x="1169" d="M86 287q0 80 26.5 138.5t68.5 93.5t108 57t129.5 30.5t148.5 11.5l195 9v100q0 89 -45 138.5t-162 49.5q-38 0 -71 -7t-65.5 -24.5t-53.5 -52t-25 -83.5l-219 18q6 69 37 124t75.5 89t101.5 56t111 31t109 9q432 0 432 -338v-446q0 -85 15 -113t67 -28h70v-152 q-90 -23 -150 -23q-118 0 -167 46.5t-50 162.5q-57 -113 -147 -161t-193 -48q-46 0 -91 8.5t-92.5 30.5t-82.5 56t-57.5 90t-22.5 127zM272 1507h252l211 -352h-172zM313 301q0 -49 20 -82t54 -47.5t61.5 -19.5t57.5 -5q106 0 181 77t75 218v45l-199 -8 q-117 -5 -183.5 -44.5t-66.5 -133.5z" />
<glyph unicode="&#xe1;" horiz-adv-x="1169" d="M86 287q0 80 26.5 138.5t68.5 93.5t108 57t129.5 30.5t148.5 11.5l195 9v100q0 89 -45 138.5t-162 49.5q-38 0 -71 -7t-65.5 -24.5t-53.5 -52t-25 -83.5l-219 18q6 69 37 124t75.5 89t101.5 56t111 31t109 9q432 0 432 -338v-446q0 -85 15 -113t67 -28h70v-152 q-90 -23 -150 -23q-118 0 -167 46.5t-50 162.5q-57 -113 -147 -161t-193 -48q-46 0 -91 8.5t-92.5 30.5t-82.5 56t-57.5 90t-22.5 127zM313 301q0 -49 20 -82t54 -47.5t61.5 -19.5t57.5 -5q106 0 181 77t75 218v45l-199 -8q-117 -5 -183.5 -44.5t-66.5 -133.5zM397 1155 l211 352h250l-289 -352h-172z" />
<glyph unicode="&#xe2;" horiz-adv-x="1169" d="M86 287q0 80 26.5 138.5t68.5 93.5t108 57t129.5 30.5t148.5 11.5l195 9v100q0 89 -45 138.5t-162 49.5q-38 0 -71 -7t-65.5 -24.5t-53.5 -52t-25 -83.5l-219 18q6 69 37 124t75.5 89t101.5 56t111 31t109 9q432 0 432 -338v-446q0 -85 15 -113t67 -28h70v-152 q-90 -23 -150 -23q-118 0 -167 46.5t-50 162.5q-57 -113 -147 -161t-193 -48q-46 0 -91 8.5t-92.5 30.5t-82.5 56t-57.5 90t-22.5 127zM242 1155l225 352h207l227 -352h-160l-170 211l-170 -211h-159zM313 301q0 -49 20 -82t54 -47.5t61.5 -19.5t57.5 -5q106 0 181 77 t75 218v45l-199 -8q-117 -5 -183.5 -44.5t-66.5 -133.5z" />
<glyph unicode="&#xe3;" horiz-adv-x="1169" d="M86 287q0 80 26.5 138.5t68.5 93.5t108 57t129.5 30.5t148.5 11.5l195 9v100q0 89 -45 138.5t-162 49.5q-38 0 -71 -7t-65.5 -24.5t-53.5 -52t-25 -83.5l-219 18q6 69 37 124t75.5 89t101.5 56t111 31t109 9q432 0 432 -338v-446q0 -85 15 -113t67 -28h70v-152 q-90 -23 -150 -23q-118 0 -167 46.5t-50 162.5q-57 -113 -147 -161t-193 -48q-46 0 -91 8.5t-92.5 30.5t-82.5 56t-57.5 90t-22.5 127zM215 1210q0 43 9.5 83t30.5 77t61 59.5t94 22.5q47 0 109 -23t117 -46t85 -23q39 0 59.5 19.5t20.5 72.5h127q0 -43 -9.5 -82.5t-30 -77 t-60.5 -60t-95 -22.5q-59 0 -168 46.5t-143 46.5q-39 0 -58.5 -19t-19.5 -74h-129zM313 301q0 -49 20 -82t54 -47.5t61.5 -19.5t57.5 -5q106 0 181 77t75 218v45l-199 -8q-117 -5 -183.5 -44.5t-66.5 -133.5z" />
<glyph unicode="&#xe4;" horiz-adv-x="1169" d="M86 287q0 80 26.5 138.5t68.5 93.5t108 57t129.5 30.5t148.5 11.5l195 9v100q0 89 -45 138.5t-162 49.5q-38 0 -71 -7t-65.5 -24.5t-53.5 -52t-25 -83.5l-219 18q6 69 37 124t75.5 89t101.5 56t111 31t109 9q432 0 432 -338v-446q0 -85 15 -113t67 -28h70v-152 q-90 -23 -150 -23q-118 0 -167 46.5t-50 162.5q-57 -113 -147 -161t-193 -48q-46 0 -91 8.5t-92.5 30.5t-82.5 56t-57.5 90t-22.5 127zM250 1208v246h219v-246h-219zM313 301q0 -49 20 -82t54 -47.5t61.5 -19.5t57.5 -5q106 0 181 77t75 218v45l-199 -8 q-117 -5 -183.5 -44.5t-66.5 -133.5zM676 1208v246h219v-246h-219z" />
<glyph unicode="&#xe5;" horiz-adv-x="1169" d="M86 287q0 80 26.5 138.5t68.5 93.5t108 57t129.5 30.5t148.5 11.5l195 9v100q0 89 -45 138.5t-162 49.5q-38 0 -71 -7t-65.5 -24.5t-53.5 -52t-25 -83.5l-219 18q6 69 37 124t75.5 89t101.5 56t111 31t109 9q432 0 432 -338v-446q0 -85 15 -113t67 -28h70v-152 q-90 -23 -150 -23q-118 0 -167 46.5t-50 162.5q-57 -113 -147 -161t-193 -48q-46 0 -91 8.5t-92.5 30.5t-82.5 56t-57.5 90t-22.5 127zM313 301q0 -49 20 -82t54 -47.5t61.5 -19.5t57.5 -5q106 0 181 77t75 218v45l-199 -8q-117 -5 -183.5 -44.5t-66.5 -133.5zM340 1370 q0 98 68 167t165 69q96 0 164 -69t68 -167q0 -96 -68 -163.5t-164 -67.5q-97 0 -165 67t-68 164zM451 1370q0 -50 34.5 -84.5t85.5 -34.5t85 34.5t34 84.5q0 51 -34 87t-85 36t-85.5 -36t-34.5 -87z" />
<glyph unicode="&#xe6;" horiz-adv-x="1849" d="M86 287q0 79 26.5 137.5t68.5 93.5t108 57t129.5 31t148.5 12l195 9v100q0 89 -45 138.5t-162 49.5q-38 0 -71 -7t-65.5 -24.5t-53.5 -52t-25 -83.5l-219 18q6 69 37 124t75.5 89t101.5 56t111 31t109 9q274 0 360 -153q131 153 361 153q222 0 345.5 -134t123.5 -382 l-6 -92h-744q11 -153 81 -235t194 -82q197 0 237 165h224q-33 -161 -150.5 -250.5t-304.5 -89.5q-155 0 -266.5 62.5t-171.5 181.5q-127 -244 -406 -244q-46 0 -91 8.5t-92.5 30.5t-82.5 56t-57.5 90t-22.5 127zM313 301q0 -49 20 -82t54 -47.5t61.5 -19.5t57.5 -5 q106 0 181 76.5t75 218.5v47l-199 -8q-118 -5 -184 -45t-66 -135zM1001 633h508q-9 132 -65.5 201t-173.5 69q-116 0 -184 -69t-85 -201z" />
<glyph unicode="&#xe7;" horiz-adv-x="1138" d="M92 518q0 262 136 409.5t370 147.5q188 0 306 -94.5t147 -269.5l-226 -13q-39 205 -227 205q-135 0 -204.5 -98t-69.5 -281q0 -181 70 -277.5t204 -96.5q188 0 229 200h226q-31 -175 -146 -273t-297 -102l-37 -57q106 -7 165 -60t59 -132q0 -29 -11.5 -58t-36.5 -58 t-74 -47t-116 -18q-109 0 -207 37v109q89 -39 170 -39q53 0 85 22.5t32 65.5q0 45 -46.5 73.5t-137.5 28.5v78l39 64q-191 31 -296.5 170t-105.5 364z" />
<glyph unicode="&#xe8;" d="M106 518q0 262 138 409.5t374 147.5q222 0 344.5 -134t122.5 -382l-6 -92h-739q8 -153 77.5 -235t194.5 -82q194 0 238 165h225q-36 -162 -152.5 -251t-304.5 -89q-240 0 -376 144t-136 399zM311 1507h250l211 -352h-172zM344 633h508q-9 132 -66 201t-174 69 q-116 0 -183.5 -69t-84.5 -201z" />
<glyph unicode="&#xe9;" d="M106 518q0 262 138 409.5t374 147.5q222 0 344.5 -134t122.5 -382l-6 -92h-739q8 -153 77.5 -235t194.5 -82q194 0 238 165h225q-36 -162 -152.5 -251t-304.5 -89q-240 0 -376 144t-136 399zM344 633h508q-9 132 -66 201t-174 69q-116 0 -183.5 -69t-84.5 -201zM442 1155 l211 352h250l-291 -352h-170z" />
<glyph unicode="&#xea;" d="M106 518q0 262 138 409.5t374 147.5q222 0 344.5 -134t122.5 -382l-6 -92h-739q8 -153 77.5 -235t194.5 -82q194 0 238 165h225q-36 -162 -152.5 -251t-304.5 -89q-240 0 -376 144t-136 399zM276 1155l224 352h209l225 -352h-160l-170 211l-170 -211h-158zM344 633h508 q-9 132 -66 201t-174 69q-116 0 -183.5 -69t-84.5 -201z" />
<glyph unicode="&#xeb;" d="M106 518q0 262 138 409.5t374 147.5q222 0 344.5 -134t122.5 -382l-6 -92h-739q8 -153 77.5 -235t194.5 -82q194 0 238 165h225q-36 -162 -152.5 -251t-304.5 -89q-240 0 -376 144t-136 399zM283 1208v246h219v-246h-219zM344 633h508q-9 132 -66 201t-174 69 q-116 0 -183.5 -69t-84.5 -201zM711 1208v246h219v-246h-219z" />
<glyph unicode="&#xec;" horiz-adv-x="548" d="M-57 1507h250l210 -352h-170zM162 0v1053h225v-1053h-225z" />
<glyph unicode="&#xed;" horiz-adv-x="548" d="M145 1155l211 352h250l-289 -352h-172zM162 0v1053h225v-1053h-225z" />
<glyph unicode="&#xee;" horiz-adv-x="548" d="M-55 1155l225 352h207l227 -352h-160l-172 211l-168 -211h-159zM162 0v1053h225v-1053h-225z" />
<glyph unicode="&#xef;" horiz-adv-x="548" d="M-49 1208v246h221v-246h-221zM162 0v1053h225v-1053h-225zM379 1208v246h219v-246h-219z" />
<glyph unicode="&#xf0;" d="M92 504q0 249 135 389.5t369 140.5q90 0 147 -28q-61 125 -174 251l-170 -141l-65 80l166 139q-164 164 -373 260h281q117 -61 223 -151l139 121l70 -82l-131 -111q179 -176 284 -405t105 -463q0 -246 -134.5 -386.5t-367.5 -140.5q-235 0 -369.5 140t-134.5 387z M324 504q0 -170 69 -261t203 -91t202 90.5t68 261.5q0 168 -67 263t-203 95q-134 0 -203 -93t-69 -265z" />
<glyph unicode="&#xf1;" horiz-adv-x="1243" d="M162 0v1053h213v-211q108 233 360 233q69 0 130 -19.5t111 -58.5t79.5 -105t29.5 -151v-741h-225v659q0 108 -53 169t-154 61q-121 0 -193.5 -86.5t-72.5 -233.5v-569h-225zM266 1210q0 43 9.5 83t30.5 77t61 59.5t94 22.5q60 0 168.5 -46t142.5 -46q39 0 59.5 19.5 t20.5 72.5h127q0 -43 -9.5 -82.5t-30 -77t-60.5 -60t-95 -22.5q-59 0 -168 46.5t-143 46.5q-39 0 -58.5 -19t-19.5 -74h-129z" />
<glyph unicode="&#xf2;" d="M92 524q0 260 134.5 405.5t369.5 145.5q233 0 367.5 -146t134.5 -405q0 -256 -135 -402.5t-367 -146.5q-234 0 -369 146.5t-135 402.5zM291 1507h252l211 -352h-172zM324 524q0 -181 69 -277.5t203 -96.5t202 96t68 278q0 184 -68 281.5t-202 97.5t-203 -98t-69 -281z " />
<glyph unicode="&#xf3;" d="M92 524q0 260 134.5 405.5t369.5 145.5q233 0 367.5 -146t134.5 -405q0 -256 -135 -402.5t-367 -146.5q-234 0 -369 146.5t-135 402.5zM324 524q0 -181 69 -277.5t203 -96.5t202 96t68 278q0 184 -68 281.5t-202 97.5t-203 -98t-69 -281zM436 1155l209 352h252l-291 -352 h-170z" />
<glyph unicode="&#xf4;" d="M92 524q0 260 134.5 405.5t369.5 145.5q233 0 367.5 -146t134.5 -405q0 -256 -135 -402.5t-367 -146.5q-234 0 -369 146.5t-135 402.5zM264 1155l228 352h204l228 -352h-160l-170 211l-170 -211h-160zM324 524q0 -181 69 -277.5t203 -96.5t202 96t68 278q0 184 -68 281.5 t-202 97.5t-203 -98t-69 -281z" />
<glyph unicode="&#xf5;" d="M92 524q0 260 134.5 405.5t369.5 145.5q233 0 367.5 -146t134.5 -405q0 -256 -135 -402.5t-367 -146.5q-234 0 -369 146.5t-135 402.5zM238 1210q0 43 9.5 83t30 77t60.5 59.5t94 22.5q47 0 109 -23t117 -46t85 -23q39 0 59.5 19.5t20.5 72.5h127q0 -43 -9 -82.5 t-29.5 -77t-60 -60t-93.5 -22.5q-60 0 -170 46.5t-144 46.5q-39 0 -58 -19t-19 -74h-129zM324 524q0 -181 69 -277.5t203 -96.5t202 96t68 278q0 184 -68 281.5t-202 97.5t-203 -98t-69 -281z" />
<glyph unicode="&#xf6;" d="M92 524q0 260 134.5 405.5t369.5 145.5q233 0 367.5 -146t134.5 -405q0 -256 -135 -402.5t-367 -146.5q-234 0 -369 146.5t-135 402.5zM272 1208v246h220v-246h-220zM324 524q0 -181 69 -277.5t203 -96.5t202 96t68 278q0 184 -68 281.5t-202 97.5t-203 -98t-69 -281z M698 1208v246h222v-246h-222z" />
<glyph unicode="&#xf7;" horiz-adv-x="1208" d="M143 465v192h922v-192h-922zM500 61v240h207v-240h-207zM500 817v242h207v-242h-207z" />
<glyph unicode="&#xf8;" d="M92 524q0 260 134.5 405.5t369.5 145.5q146 0 248 -57l108 176h103l-137 -223q180 -147 180 -447q0 -256 -135 -402.5t-367 -146.5q-142 0 -252 58l-106 -172h-105l135 219q-176 147 -176 444zM324 524q0 -164 63 -250l361 584q-60 45 -152 45q-134 0 -203 -98t-69 -281z M442 195q60 -45 154 -45q134 0 202 96t68 278q0 165 -65 254z" />
<glyph unicode="&#xf9;" horiz-adv-x="1243" d="M162 317v736h225v-658q0 -111 51.5 -171t155.5 -60q118 0 190 86.5t72 232.5v570h225v-1053h-213v211q-111 -236 -356 -236q-72 0 -133.5 19.5t-111 59.5t-77.5 107.5t-28 155.5zM297 1507h252l211 -352h-172z" />
<glyph unicode="&#xfa;" horiz-adv-x="1243" d="M162 317v736h225v-658q0 -111 51.5 -171t155.5 -60q118 0 190 86.5t72 232.5v570h225v-1053h-213v211q-111 -236 -356 -236q-72 0 -133.5 19.5t-111 59.5t-77.5 107.5t-28 155.5zM487 1155l209 352h254l-293 -352h-170z" />
<glyph unicode="&#xfb;" horiz-adv-x="1243" d="M162 317v736h225v-658q0 -111 51.5 -171t155.5 -60q118 0 190 86.5t72 232.5v570h225v-1053h-213v211q-111 -236 -356 -236q-72 0 -133.5 19.5t-111 59.5t-77.5 107.5t-28 155.5zM293 1155l225 352h207l227 -352h-161l-170 211l-168 -211h-160z" />
<glyph unicode="&#xfc;" horiz-adv-x="1243" d="M162 317v736h225v-658q0 -111 51.5 -171t155.5 -60q118 0 190 86.5t72 232.5v570h225v-1053h-213v211q-111 -236 -356 -236q-72 0 -133.5 19.5t-111 59.5t-77.5 107.5t-28 155.5zM297 1208v246h219v-246h-219zM723 1208v246h221v-246h-221z" />
<glyph unicode="&#xfd;" horiz-adv-x="1099" d="M35 1053h239l273 -783l280 783h236l-598 -1487h-219l184 471zM455 1155l211 352h252l-291 -352h-172z" />
<glyph unicode="&#xfe;" horiz-adv-x="1236" d="M162 -434v2015h213v-571l-8 -181q109 246 360 246q70 0 131 -19t114 -61.5t91 -105.5t60 -156.5t22 -208.5q0 -139 -33 -246.5t-90.5 -172.5t-132 -97.5t-162.5 -32.5q-240 0 -348 218l8 -162v-465h-225zM385 524q0 -374 274 -374q114 0 184 93t70 281q0 190 -70 284.5 t-184 94.5q-274 0 -274 -379z" />
<glyph unicode="&#xff;" horiz-adv-x="1099" d="M35 1053h239l273 -783l280 783h236l-598 -1487h-219l184 471zM225 1208v246h221v-246h-221zM653 1208v246h221v-246h-221z" />
<glyph unicode="&#x152;" horiz-adv-x="2121" d="M106 686q0 329 177.5 520t480.5 191q266 0 418 -178v155h825v-188h-594v-395h555v-183h-555v-415h615v-193h-846v154q-153 -179 -418 -179q-303 0 -480.5 190.5t-177.5 520.5zM344 686q0 -244 107.5 -379t312.5 -135q193 0 305.5 123.5t112.5 339.5v108 q0 216 -112.5 338.5t-305.5 122.5q-205 0 -312.5 -136t-107.5 -382z" />
<glyph unicode="&#x153;" horiz-adv-x="1953" d="M92 524q0 260 134.5 405.5t369.5 145.5q264 0 389 -201q62 97 163.5 149t231.5 52q222 0 345.5 -134t123.5 -382l-6 -92h-743q9 -153 79.5 -235t194.5 -82q198 0 238 165h225q-36 -162 -153 -251t-304 -89q-134 0 -235.5 50.5t-161.5 146.5q-124 -197 -387 -197 q-234 0 -369 146.5t-135 402.5zM324 524q0 -181 69 -277.5t203 -96.5t202 96t68 278q0 184 -68 281.5t-202 97.5t-203 -98t-69 -281zM1108 633h506q-9 132 -66 201t-174 69q-230 0 -266 -270z" />
<glyph unicode="&#x178;" horiz-adv-x="1247" d="M6 1374h248l373 -657l372 657h242l-504 -831v-543h-231v541zM301 1491v246h219v-246h-219zM729 1491v246h219v-246h-219z" />
<glyph unicode="&#x2c6;" horiz-adv-x="907" d="M125 1155l223 352h209l225 -352h-159l-172 211l-168 -211h-158z" />
<glyph unicode="&#x2dc;" horiz-adv-x="962" d="M125 1210q0 43 9.5 83t30 77t60.5 59.5t94 22.5q47 0 109.5 -23t117.5 -46t85 -23q39 0 59.5 19.5t20.5 72.5h129q0 -43 -9.5 -82.5t-30.5 -77t-61 -60t-94 -22.5q-60 0 -169.5 46.5t-143.5 46.5q-40 0 -60 -19.5t-20 -73.5h-127z" />
<glyph unicode="&#x2000;" horiz-adv-x="882" />
<glyph unicode="&#x2001;" horiz-adv-x="1765" />
<glyph unicode="&#x2002;" horiz-adv-x="882" />
<glyph unicode="&#x2003;" horiz-adv-x="1765" />
<glyph unicode="&#x2004;" horiz-adv-x="588" />
<glyph unicode="&#x2005;" horiz-adv-x="441" />
<glyph unicode="&#x2006;" horiz-adv-x="294" />
<glyph unicode="&#x2007;" horiz-adv-x="294" />
<glyph unicode="&#x2008;" horiz-adv-x="220" />
<glyph unicode="&#x2009;" horiz-adv-x="353" />
<glyph unicode="&#x200a;" horiz-adv-x="98" />
<glyph unicode="&#x2010;" horiz-adv-x="1107" d="M162 463v164h782v-164h-782z" />
<glyph unicode="&#x2011;" horiz-adv-x="1107" d="M162 463v164h782v-164h-782z" />
<glyph unicode="&#x2012;" horiz-adv-x="1107" d="M162 463v164h782v-164h-782z" />
<glyph unicode="&#x2013;" horiz-adv-x="1497" d="M164 463v164h1169v-164h-1169z" />
<glyph unicode="&#x2014;" horiz-adv-x="1939" d="M164 461v166h1612v-166h-1612z" />
<glyph unicode="&#x2018;" horiz-adv-x="407" d="M92 909q0 104 4 172t26.5 182t65.5 244h127v-598h-223z" />
<glyph unicode="&#x2019;" horiz-adv-x="407" d="M92 909v598h223q0 -104 -4 -172t-26 -182t-64 -244h-129z" />
<glyph unicode="&#x201a;" horiz-adv-x="409" d="M92 287h225q0 -103 -4 -171t-26 -182.5t-64 -244.5h-131v598z" />
<glyph unicode="&#x201c;" horiz-adv-x="811" d="M92 909q0 104 4 172t26.5 182t65.5 244h127v-598h-223zM498 909q0 107 3.5 172.5t25.5 180.5t65 245h127v-598h-221z" />
<glyph unicode="&#x201d;" horiz-adv-x="811" d="M92 909v598h223q0 -104 -4 -172t-26 -182t-64 -244h-129zM498 909v598h221q0 -107 -3.5 -172.5t-25.5 -180.5t-65 -245h-127z" />
<glyph unicode="&#x201e;" horiz-adv-x="817" d="M92 287h225q0 -103 -4 -171t-26 -182.5t-64 -244.5h-131v598zM498 287h227q0 -103 -4 -171t-26.5 -182.5t-65.5 -244.5h-131v598z" />
<glyph unicode="&#x2022;" horiz-adv-x="782" d="M115 543q0 114 82.5 196t193.5 82q114 0 195.5 -81.5t81.5 -196.5q0 -112 -81.5 -192.5t-195.5 -80.5q-111 0 -193.5 80.5t-82.5 192.5z" />
<glyph unicode="&#x2026;" horiz-adv-x="1619" d="M102 0v307h232v-307h-232zM694 0v307h232v-307h-232zM1286 0v307h232v-307h-232z" />
<glyph unicode="&#x202f;" horiz-adv-x="353" />
<glyph unicode="&#x2039;" horiz-adv-x="765" d="M100 543l332 391h219l-329 -391l327 -385h-219z" />
<glyph unicode="&#x203a;" horiz-adv-x="765" d="M115 934h219l332 -391l-330 -385h-219l325 385z" />
<glyph unicode="&#x205f;" horiz-adv-x="441" />
<glyph unicode="&#x20ac;" horiz-adv-x="1497" d="M31 469v123h205q-5 77 -5 94q0 51 2 78h-202v123h219q47 241 205 375.5t393 134.5q228 0 372 -128.5t181 -357.5h-240q-20 141 -100.5 217t-212.5 76q-142 0 -233.5 -82t-125.5 -235h558l-17 -123h-559q-2 -27 -2 -78q0 -65 4 -94h535l-17 -123h-497q37 -144 127 -221.5 t227 -77.5q134 0 212 73.5t97 215.5h242q-38 -230 -182 -358t-369 -128q-235 0 -390.5 130t-205.5 366h-221z" />
<glyph unicode="&#x2122;" horiz-adv-x="1609" d="M45 1333v119h582v-119h-209v-555h-166v555h-207zM694 778v674h221l185 -547l186 547h227v-674h-153v549l-191 -549h-141l-190 549v-549h-144z" />
<glyph unicode="&#x25fc;" horiz-adv-x="1054" d="M0 0v1055h1055v-1055h-1055z" />
</font>
</defs>
</svg>
