<?xml version="1.0" encoding="UTF-8" standalone="no"?>
<svg width="32px" height="32px" viewBox="0 0 32 32" version="1.1" xmlns="http://www.w3.org/2000/svg" xmlns:xlink="http://www.w3.org/1999/xlink" xmlns:sketch="http://www.bohemiancoding.com/sketch/ns">
    <!-- Generator: Sketch 3.0 (7573) - http://www.bohemiancoding.com/sketch -->
    <title>Dribbble</title>
    <description>Created with Sketch.</description>
    <defs></defs>
    <g id="Page-1" stroke="none" stroke-width="1" fill="none" fill-rule="evenodd" sketch:type="MSPage">
        <g id="Dribbble" sketch:type="MSArtboardGroup" fill="#000000">
            <path d="M32,16.0000313 C32,17.083583 31.8898415,18.1656318 31.67347,19.2203773 C31.4624843,20.2500739 31.1499825,21.2609838 30.7405988,22.2273694 C30.340609,23.1766591 29.8444888,24.091444 29.2647635,24.9445461 C28.6936805,25.7922626 28.0357984,26.5875644 27.3130987,27.3125415 C26.5888335,28.0343874 25.7919225,28.6913568 24.9457877,29.2656648 C24.0910733,29.8421647 23.1762383,30.3382577 22.2277107,30.7406678 C21.2612721,31.1484635 20.24943,31.4609482 19.2220567,31.6718597 C18.1673787,31.8890961 17.0828909,32 15.9992798,32 C14.9148546,32 13.8304294,31.8890961 12.7772544,31.6718597 C11.7483155,31.4609482 10.736536,31.1484635 9.77084895,30.7406678 C8.82238396,30.3382577 7.90667217,29.8421647 7.05195774,29.2656648 C6.20582301,28.6914194 5.40891202,28.0343874 4.68621238,27.3125415 C3.96276124,26.5875644 3.30487912,25.7922626 2.73298198,24.9445461 C2.15638791,24.091444 1.65945363,23.1765965 1.25789817,22.2273694 C0.848451875,21.2609838 0.535198533,20.2500113 0.323461318,19.2203773 C0.109406955,18.1656318 0,17.083583 0,16.0000313 C0,14.9156655 0.109344329,13.8312997 0.323523944,12.7788713 C0.535261159,11.7491747 0.848514501,10.7366991 1.25796079,9.77187912 C1.65951626,8.82190054 2.15645054,7.90630155 2.7330446,7.05313688 C3.30494175,6.2047315 3.96282387,5.41093266 4.68627501,4.68514152 C5.40897464,3.96323295 6.20588563,3.30782914 7.05202036,2.73439778 C7.9067348,2.15545566 8.82244659,1.65942532 9.77091157,1.25626369 C10.7365986,0.847591296 11.7483155,0.534355119 12.777317,0.325009149 C13.830492,0.10940096 14.9149172,0 15.9993424,0 C17.0829535,0 18.1673787,0.10940096 19.2221194,0.325009149 C20.2494926,0.534417741 21.2612721,0.847653918 22.2277733,1.25626369 C23.1762383,1.6593627 24.0911359,2.15545566 24.9458504,2.73439778 C25.7919851,3.30782914 26.5889587,3.96323295 27.3131614,4.68514152 C28.035861,5.41093266 28.6937431,6.2047315 29.2648261,7.05313688 C29.8444888,7.90630155 30.340609,8.82196317 30.7405988,9.77187912 C31.1499825,10.7366991 31.4624843,11.7491747 31.67347,12.7788713 C31.8898415,13.8312997 32,14.9156655 32,16.0000313 Z M10.1692731,3.64141753 C6.35888002,5.4406782 3.51498807,8.95159109 2.62820932,13.182847 C2.98843187,13.1859781 8.68247833,13.2578684 15.2429502,11.5148424 C12.878019,7.31326945 10.3513258,3.88445424 10.1692731,3.64141753 Z M16.3750335,13.6188227 C9.33954632,15.7249947 2.58837943,15.573449 2.34620616,15.5641183 C2.34226075,15.7109673 2.33524668,15.8531197 2.33524668,16.0000313 C2.33524668,19.5101301 3.659528,22.7101239 5.83620661,25.1297199 C5.83150969,25.1226436 9.57082272,18.4890754 16.9446135,16.1047356 C17.1227208,16.0453698 17.3040219,15.9922035 17.4836948,15.9406655 C17.1407569,15.1641504 16.7664436,14.3860071 16.3750335,13.6188227 Z M25.023193,5.74533514 C22.6175551,3.62419643 19.4588442,2.33756098 15.9992798,2.33756098 C14.8890528,2.33756098 13.8116417,2.4719482 12.7795715,2.72037041 C12.984232,2.99540705 15.5508178,6.4000501 17.8876301,10.6906092 C23.0434093,8.75783805 24.989563,5.79530764 25.023193,5.74533514 Z M18.4150004,18.204708 C18.3845644,18.2147902 18.3541283,18.2234947 18.3243811,18.2343909 C10.2623779,21.0447712 7.62962145,26.7084936 7.60113636,26.7703202 C9.9208373,28.5741907 12.8303609,29.6625016 15.9992798,29.6625016 C17.8915129,29.6625016 19.6939408,29.2772499 21.3338552,28.5797014 C21.1315118,27.3859347 20.3377321,23.2015828 18.4150004,18.204708 Z M23.6348457,27.3312655 C26.7029373,25.260976 28.8819331,21.9734991 29.4897773,18.1655691 C29.2085257,18.0749548 25.3856701,16.8647811 20.9752609,17.5718482 C22.7675435,22.4968953 23.4957542,26.5078464 23.6348457,27.3312655 Z M18.9393021,12.7265817 C19.2564382,13.3781656 19.5635542,14.0413346 19.847123,14.7078225 C19.9479503,14.946914 20.0463978,15.1813088 20.1424655,15.4156411 C24.8364434,14.8249886 29.4609069,15.8187401 29.658616,15.8593193 C29.6273658,12.6203119 28.4686666,9.6476367 26.551446,7.32034575 C26.5256442,7.35697973 24.3341233,10.523408 18.9393021,12.7265817 Z" id="Path" sketch:type="MSShapeGroup"></path>
        </g>
    </g>
</svg>