<?xml version="1.0" encoding="UTF-8" standalone="no"?>
<svg width="60px" height="52px" viewBox="0 0 60 52" version="1.1" xmlns="http://www.w3.org/2000/svg" xmlns:xlink="http://www.w3.org/1999/xlink" xmlns:sketch="http://www.bohemiancoding.com/sketch/ns">
    <!-- Generator: Sketch 3.0 (7573) - http://www.bohemiancoding.com/sketch -->
    <title>Menu 2</title>
    <description>Created with Sketch.</description>
    <defs></defs>
    <g id="Page-1" stroke="none" stroke-width="1" fill="none" fill-rule="evenodd" sketch:type="MSPage">
        <g id="Menu" sketch:type="MSArtboardGroup" fill="#000000">
            <path d="M1.99630737,22 C0.893777255,22 0,22.8867064 0,23.9981014 L0,28.0018986 C0,29.1054196 0.894730389,30 1.99630737,30 L58.0036926,30 C59.1062227,30 60,29.1132936 60,28.0018986 L60,23.9981014 C60,22.8945804 59.1052696,22 58.0036926,22 L1.99630737,22 Z M1.99630737,44 C0.893777255,44 0,44.8867064 0,45.9981014 L0,50.0018986 C0,51.1054196 0.894730389,52 1.99630737,52 L58.0036926,52 C59.1062227,52 60,51.1132936 60,50.0018986 L60,45.9981014 C60,44.8945804 59.1052696,44 58.0036926,44 L1.99630737,44 Z M1.99630737,0 C0.893777255,0 0,0.886706352 0,1.99810135 L0,6.00189865 C0,7.10541955 0.894730389,8 1.99630737,8 L58.0036926,8 C59.1062227,8 60,7.11329365 60,6.00189865 L60,1.99810135 C60,0.894580447 59.1052696,0 58.0036926,0 L1.99630737,0 Z" id="Menu-2" sketch:type="MSShapeGroup"></path>
        </g>
    </g>
</svg>