<?xml version="1.0" encoding="UTF-8" standalone="no"?>
<svg width="32px" height="32px" viewBox="0 0 32 32" version="1.1" xmlns="http://www.w3.org/2000/svg" xmlns:xlink="http://www.w3.org/1999/xlink" xmlns:sketch="http://www.bohemiancoding.com/sketch/ns">
    <!-- Generator: Sketch 3.0 (7573) - http://www.bohemiancoding.com/sketch -->
    <title>Twitter</title>
    <description>Created with Sketch.</description>
    <defs></defs>
    <g id="Page-1" stroke="none" stroke-width="1" fill="none" fill-rule="evenodd" sketch:type="MSPage">
        <g id="Twitter" sketch:type="MSArtboardGroup" fill="#000000">
            <path d="M10.0414599,29.8789238 C6.34218978,29.8789238 2.89891971,28.7547309 0,26.8279238 C0.512467153,26.8906413 1.03392701,26.9227265 1.56262774,26.9227265 C4.63159124,26.9227265 7.45611679,25.8370359 9.6979854,24.0156861 C6.83153285,23.9608386 4.41237956,21.9974664 3.57886131,19.2994036 C3.97874453,19.3787085 4.38913869,19.4212063 4.81121168,19.4212063 C5.40870073,19.4212063 5.98738686,19.3382691 6.53710949,19.1830493 C3.54032117,18.5592646 1.28245255,15.8144664 1.28245255,12.5240987 C1.28245255,12.4955247 1.28245255,12.4670717 1.28291971,12.4387399 C2.16618978,12.9473812 3.17617518,13.2528565 4.2500438,13.2880897 C2.49237956,12.0703049 1.33582482,9.99166816 1.33582482,7.63564574 C1.33582482,6.39110314 1.65886131,5.22453363 2.22271533,4.22153812 C5.45354745,8.33013901 10.280292,11.0337713 15.7244964,11.3169686 C15.6128467,10.8199507 15.5548029,10.3016233 15.5548029,9.7693722 C15.5548029,6.01903587 18.4878248,2.97844843 22.1055766,2.97844843 C23.9896058,2.97844843 25.6920292,3.80321973 26.8870073,5.12307175 C28.3790949,4.81844395 29.7810219,4.25326009 31.0466569,3.47510314 C30.5575474,5.06083857 29.5189489,6.39170852 28.1664234,7.23221973 C29.4915036,7.06804036 30.7539854,6.70299552 31.9287591,6.16287444 C31.0505109,7.52473991 29.939854,8.72085202 28.6600876,9.67832287 C28.6727007,9.96951121 28.6790073,10.2623946 28.6790073,10.556852 C28.6790073,19.5309013 22.0902774,29.8789238 10.0414599,29.8789238" id="Path" sketch:type="MSShapeGroup"></path>
        </g>
    </g>
</svg>